<?xml version="1.0" encoding="utf-8"?>
<svg width="55" height="111" viewBox="0 0 55 111" fill="none" xmlns="http://www.w3.org/2000/svg">
<path d="M50.9367 61.4666H35.6144V111.001H15.9213V61.4666H0V41.6789H15.9213V40.049C15.9213 34.556 15.8241 29.0549 16.0751 23.5701C16.3907 16.6346 18.6085 10.3756 23.9507 5.64059C26.9842 2.94335 30.7238 1.18093 34.7241 0.563282C41.4746 -0.545089 48.209 0.23729 55.0405 0.815925V18.4439C54.5467 18.4439 54.1258 18.4928 53.6887 18.5009C50.1597 18.5009 46.6225 18.4032 43.1096 18.6069C38.4069 18.8758 35.9787 21.3126 35.7844 26.0721C35.5982 31.2309 35.7844 36.3734 35.7844 41.6382H53.4216C52.6122 48.2965 51.8028 54.7919 50.9367 61.4666Z" fill="white"/>
</svg>
