<?xml version="1.0" encoding="utf-8"?>
<svg width="106" height="106" viewBox="0 0 106 106" fill="none" xmlns="http://www.w3.org/2000/svg">
<path d="M52.887 105.955C45.0825 105.955 37.2805 105.955 29.481 105.955C22.3454 106.076 15.4227 103.523 10.075 98.7968C6.89699 96.1164 4.35158 92.766 2.62135 88.9858C0.891131 85.2055 0.0189826 81.0892 0.0674746 76.9321C-0.0127259 60.9722 -0.0127259 45.0123 0.0674746 29.0524C0.0402571 22.8712 2.00426 16.8455 5.66868 11.8675C9.33311 6.88952 14.5032 3.22388 20.4133 1.41332C23.3168 0.54518 26.3302 0.0995075 29.3607 0.0900131C45.1126 -0.000212427 60.9021 -0.000212427 76.6915 0.0373816C89.6765 0.0373816 100.707 7.99979 104.601 20.3381C105.491 23.2788 105.947 26.3335 105.955 29.4058C106.083 45.1276 106.037 60.8494 106.007 76.5712C106.007 89.5863 98.1652 100.511 85.7517 104.519C82.7319 105.414 79.6006 105.877 76.4509 105.895C68.5787 106.082 60.7291 105.955 52.887 105.955ZM53.0299 82.0299C58.773 82.0254 64.3858 80.318 69.1585 77.1236C73.9312 73.9292 77.6495 69.3913 79.8432 64.0836C82.0368 58.776 82.6073 52.9371 81.4825 47.3052C80.3577 41.6733 77.5882 36.5015 73.524 32.4437C69.4599 28.3858 64.2837 25.6243 58.6501 24.5082C53.0165 23.3922 47.1785 23.9718 41.8743 26.1737C36.5701 28.3756 32.0379 32.1009 28.8509 36.8786C25.6639 41.6563 23.9653 47.2717 23.9697 53.0148C23.9995 60.7087 27.0722 68.0784 32.5169 73.5146C37.9615 78.9508 45.3359 82.012 53.0299 82.0299ZM93.4509 19.8118C93.4224 18.1243 92.8942 16.4832 91.9331 15.0959C90.9719 13.7086 89.621 12.6374 88.0511 12.0178C86.4812 11.3983 84.7628 11.2581 83.1133 11.6151C81.4637 11.9721 79.9571 12.8102 78.7838 14.0234C77.6105 15.2366 76.8234 16.7704 76.5218 18.431C76.2202 20.0916 76.4178 21.8043 77.0896 23.3526C77.7614 24.9008 78.8771 26.2152 80.2958 27.1293C81.7145 28.0435 83.3724 28.5165 85.0599 28.4885C87.3214 28.445 89.4737 27.5078 91.0461 25.8819C92.6185 24.2559 93.4831 22.0735 93.4509 19.8118Z" fill="white"/>
<path d="M75.7668 52.9396C75.7757 57.4406 74.4498 61.8432 71.9567 65.5908C69.4636 69.3383 65.9153 72.2625 61.7605 73.9935C57.6056 75.7246 53.0307 76.1848 48.6143 75.316C44.1979 74.4472 40.1383 72.2883 36.9487 69.1125C33.7592 65.9366 31.5829 61.8862 30.6951 57.4736C29.8074 53.061 30.2479 48.4842 31.9611 44.3219C33.6743 40.1596 36.5832 36.5988 40.32 34.0897C44.0568 31.5805 48.4537 30.2357 52.9548 30.2253C55.9456 30.2134 58.9093 30.7921 61.676 31.9282C64.4427 33.0643 66.9578 34.7354 69.0772 36.8457C71.1966 38.956 72.8785 41.464 74.0265 44.2257C75.1744 46.9875 75.7658 49.9487 75.7668 52.9396Z" fill="white"/>
<path d="M84.962 22.7668C84.4041 22.7742 83.8565 22.6159 83.3886 22.312C82.9207 22.008 82.5535 21.5721 82.3335 21.0593C82.1134 20.5466 82.0505 19.9801 82.1526 19.4316C82.2547 18.883 82.5172 18.3771 82.907 17.9779C83.2968 17.5786 83.7962 17.304 84.3421 17.1887C84.8881 17.0735 85.4559 17.1228 85.9738 17.3304C86.4917 17.5381 86.9363 17.8947 87.2514 18.3552C87.5665 18.8156 87.7379 19.3592 87.7439 19.9172C87.7348 20.6585 87.4408 21.3679 86.9229 21.8984C86.405 22.4289 85.7029 22.7398 84.962 22.7668Z" fill="white"/>
</svg>
