<?xml version="1.0" encoding="utf-8"?>
<svg width="18" height="17" viewBox="0 0 18 17" fill="none" xmlns="http://www.w3.org/2000/svg">
<path d="M17.3674 6.8876C17.3354 6.73909 17.2566 6.60478 17.1425 6.50441C17.0285 6.40405 16.8853 6.34294 16.7339 6.33008C16.5889 6.31988 16.4444 6.35614 16.3213 6.4336C16.1983 6.51107 16.1031 6.6257 16.0497 6.76089V7.01431C15.8441 7.77311 15.436 8.4617 14.869 9.00633C14.3021 9.55095 13.5977 9.93109 12.8312 10.106C11.9989 10.3556 11.1119 10.3567 10.279 10.1091C9.44613 9.86145 8.70372 9.37596 8.14297 8.71222C7.74425 8.2356 7.45205 7.67924 7.28597 7.08045C7.11988 6.48166 7.08374 5.85428 7.17998 5.24037C7.26737 4.50551 7.5415 3.80528 7.97624 3.2064C8.41098 2.60752 8.99185 2.12996 9.66349 1.81921L10.3477 1.56579L10.6772 1.48977C10.8586 1.41053 11.0034 1.26571 11.0826 1.0843C11.1475 0.921579 11.1475 0.740175 11.0826 0.577458C11.0373 0.443071 10.9526 0.325368 10.8397 0.239541C10.7268 0.153715 10.5907 0.103703 10.4491 0.0959611C9.6092 -0.031987 8.75478 -0.031987 7.91489 0.0959611C6.77531 0.230273 5.67589 0.599076 4.68584 1.17915C3.69579 1.75922 2.83657 2.538 2.16228 3.46644C0.845236 5.20278 0.262799 7.38692 0.540392 9.5485C0.789087 11.4317 1.685 13.1697 3.07458 14.4648C3.87547 15.2829 4.83443 15.9294 5.89309 16.365C6.95176 16.8007 8.088 17.0164 9.23267 16.999H9.41007H10.1196C12.0041 16.7545 13.7435 15.8579 15.036 14.4648C15.8852 13.6502 16.5507 12.6636 16.9877 11.571C17.4248 10.4783 17.6233 9.30494 17.5702 8.12935C17.567 7.75427 17.5245 7.38055 17.4435 7.01431L17.3674 6.8876ZM7.45874 10.106C8.26621 10.9129 9.28526 11.4751 10.3984 11.7279C11.5358 11.9596 12.7161 11.8539 13.7942 11.4238C14.6418 11.1036 15.3985 10.5817 15.999 9.90329C15.7718 10.9527 15.3094 11.9369 14.6467 12.7817C13.9839 13.6265 13.1381 14.3098 12.1729 14.7803C11.2078 15.2507 10.1484 15.496 9.07469 15.4977C8.00097 15.4993 6.94087 15.2572 5.97427 14.7897C5.00767 14.3222 4.15978 13.6414 3.49447 12.7987C2.82916 11.9559 2.36378 10.9731 2.1334 9.92442C1.90302 8.8757 1.91364 7.78837 2.16446 6.74436C2.41529 5.70034 2.89978 4.72685 3.58142 3.89725C4.63209 2.65886 6.06946 1.81072 7.66147 1.48977C6.55434 2.4802 5.87327 3.86051 5.76083 5.34174C5.67148 6.21217 5.77754 7.09157 6.07128 7.91579C6.36502 8.74002 6.83903 9.48829 7.45874 10.106Z" fill="black"/>
</svg>
