<?xml version="1.0" encoding="utf-8"?>
<svg width="26" height="15" viewBox="0 0 26 15" fill="none" xmlns="http://www.w3.org/2000/svg">
<path d="M21.9074 8.87229C22.6821 8.45313 23.443 8.00136 24.1994 7.53562C24.3326 7.4424 24.4301 7.30522 24.4752 7.14734C24.5203 6.98946 24.5103 6.82058 24.4469 6.66934C24.3874 6.50997 24.278 6.37488 24.1355 6.28484C23.9931 6.19481 23.8255 6.15481 23.6585 6.171C23.5593 6.18606 23.4633 6.21752 23.3743 6.26415C22.65 6.67866 21.9257 7.09316 21.2152 7.53096C21.0504 7.63014 20.9302 7.79092 20.8806 7.97892C20.8309 8.16693 20.8556 8.36722 20.9494 8.53696C21.0342 8.70904 21.182 8.84051 21.361 8.9032C21.5401 8.96588 21.7363 8.95479 21.9074 8.87229Z" fill="black"/>
<path d="M2.42959 7.76858C3.03925 8.1272 3.64433 8.49979 4.26316 8.83512C4.38527 8.90267 4.52234 8.9374 4.66137 8.936C4.8004 8.9346 4.93677 8.89713 5.05755 8.82715C5.17832 8.75716 5.27949 8.65698 5.35145 8.53611C5.42341 8.41524 5.46378 8.27769 5.46873 8.13651C5.34955 7.94556 5.27162 7.67077 5.10202 7.57762C4.35942 7.11188 3.59391 6.64614 2.81006 6.23629C2.646 6.16264 2.46069 6.15433 2.29088 6.21299C2.12106 6.27165 1.97915 6.39301 1.89327 6.55299C1.7981 6.72154 1.76931 6.92046 1.81268 7.10971C1.85606 7.29896 1.96838 7.46448 2.12705 7.57297C2.20956 7.64283 2.31958 7.70337 2.42959 7.76858Z" fill="black"/>
<path d="M7.56868 4.90439C7.61728 4.99568 7.68358 5.07603 7.76357 5.14058C7.84357 5.20512 7.93561 5.25254 8.03413 5.27996C8.13266 5.30738 8.23563 5.31423 8.33683 5.30012C8.43804 5.286 8.53538 5.25119 8.62298 5.19781C8.70985 5.14779 8.78589 5.08049 8.84657 4.99993C8.90725 4.91937 8.95132 4.8272 8.97614 4.72894C9.00096 4.63068 9.00602 4.52835 8.99102 4.42805C8.97602 4.32776 8.94127 4.23157 8.88885 4.14523C8.49005 3.41402 8.07291 2.69678 7.66036 1.97954C7.60026 1.87093 7.51319 1.78023 7.40782 1.71649C7.30245 1.65275 7.18248 1.61819 7.05986 1.61626C6.92215 1.60905 6.7851 1.63999 6.66335 1.70579C6.54161 1.77159 6.43975 1.86976 6.36866 1.98982C6.29758 2.10987 6.25994 2.2473 6.25977 2.38741C6.2596 2.52751 6.2969 2.66503 6.36769 2.78527C6.75274 3.50251 7.16071 4.20578 7.56868 4.90439Z" fill="black"/>
<path d="M18.0564 5.37012C18.2443 5.24902 18.5148 5.17916 18.6065 5.00684C19.0648 4.24302 19.5232 3.46058 19.945 2.67813C20.0174 2.51144 20.0256 2.32317 19.9679 2.15063C19.9102 1.9781 19.7907 1.83391 19.6333 1.74665C19.4801 1.64855 19.2963 1.6123 19.1181 1.64506C18.9399 1.67782 18.7803 1.77721 18.6706 1.92363C18.2122 2.70142 17.7538 3.48387 17.3275 4.29426C17.2875 4.41437 17.2756 4.54232 17.2928 4.66793C17.31 4.79353 17.3558 4.91333 17.4266 5.0178C17.4973 5.12226 17.5911 5.2085 17.7004 5.26966C17.8098 5.33083 17.9317 5.36522 18.0564 5.37012Z" fill="black"/>
<path d="M13.1291 3.97743C13.2338 3.97771 13.3375 3.95602 13.4336 3.91372C13.5297 3.87141 13.6162 3.80941 13.6876 3.7316C13.759 3.65378 13.8139 3.56181 13.8487 3.46146C13.8835 3.36111 13.8976 3.25454 13.8901 3.14841C13.8901 2.75719 13.8901 2.36596 13.8901 1.97474C13.8901 1.58352 13.8901 1.16901 13.8901 0.768473C13.8901 0.564661 13.8104 0.369197 13.6685 0.22508C13.5267 0.0809639 13.3343 0 13.1337 0C12.9331 0 12.7407 0.0809639 12.5989 0.22508C12.457 0.369197 12.3774 0.564661 12.3774 0.768473C12.3774 1.56489 12.3774 2.35665 12.3774 3.15307C12.3712 3.25789 12.3859 3.36291 12.4207 3.46178C12.4555 3.56065 12.5097 3.65134 12.58 3.72837C12.6502 3.8054 12.7351 3.86718 12.8295 3.90998C12.9238 3.95279 13.0258 3.97573 13.1291 3.97743Z" fill="black"/>
<path d="M25.2716 12.6635H20.1697C20.016 10.9185 19.225 9.29515 17.9526 8.11285C16.6801 6.93055 15.0182 6.2749 13.2939 6.2749C11.5695 6.2749 9.90764 6.93055 8.63516 8.11285C7.36267 9.29515 6.57174 10.9185 6.41797 12.6635H0.848508C0.740223 12.6551 0.631396 12.6695 0.52885 12.7058C0.426305 12.7421 0.332251 12.7996 0.252587 12.8746C0.172923 12.9496 0.109366 13.0405 0.0659009 13.1416C0.0224359 13.2427 0 13.3519 0 13.4622C0 13.5726 0.0224359 13.6817 0.0659009 13.7828C0.109366 13.884 0.172923 13.9749 0.252587 14.0499C0.332251 14.1248 0.426305 14.1823 0.52885 14.2186C0.631396 14.255 0.740223 14.2694 0.848508 14.261H25.2716C25.4698 14.2456 25.6549 14.1548 25.7899 14.0067C25.925 13.8586 26 13.6641 26 13.4622C26 13.2603 25.925 13.0659 25.7899 12.9178C25.6549 12.7697 25.4698 12.6789 25.2716 12.6635ZM8.20112 12.6635C8.35884 11.4093 8.96113 10.2565 9.8952 9.42098C10.8293 8.58548 12.0311 8.12458 13.2755 8.12458C14.52 8.12458 15.7218 8.58548 16.6558 9.42098C17.5899 10.2565 18.1922 11.4093 18.3499 12.6635H8.20112Z" fill="black"/>
</svg>
