<?xml version="1.0" encoding="utf-8"?>
<svg width="24" height="25" viewBox="0 0 24 25" fill="none" xmlns="http://www.w3.org/2000/svg">
<path d="M11.9577 5.53418C10.6926 5.53418 9.456 5.90931 8.40416 6.61212C7.35232 7.31494 6.53251 8.31388 6.0484 9.48262C5.56429 10.6514 5.43763 11.9374 5.68443 13.1781C5.93122 14.4189 6.54039 15.5586 7.43491 16.4531C8.32943 17.3476 9.46911 17.9568 10.7098 18.2036C11.9506 18.4503 13.2366 18.3237 14.4054 17.8396C15.5741 17.3555 16.573 16.5357 17.2758 15.4838C17.9787 14.432 18.3538 13.1954 18.3538 11.9303C18.3465 10.2362 17.6702 8.61358 16.4723 7.41565C15.2744 6.21772 13.6518 5.5415 11.9577 5.53418ZM11.9577 16.6579C11.008 16.6799 10.0736 16.4169 9.27472 15.903C8.47587 15.389 7.84926 14.6476 7.47563 13.7743C7.10199 12.9009 6.99847 11.9357 7.1784 11.003C7.35832 10.0703 7.81345 9.21289 8.48513 8.54121C9.1568 7.86953 10.0142 7.4144 10.9469 7.23448C11.8796 7.05455 12.8449 7.15808 13.7182 7.53171C14.5915 7.90534 15.3329 8.53196 15.8469 9.3308C16.3608 10.1296 16.6238 11.0641 16.6018 12.0137C16.5668 13.2344 16.0663 14.3954 15.2028 15.2589C14.3393 16.1224 13.1783 16.6229 11.9577 16.6579Z" fill="black"/>
<path d="M18.3539 6.5627C18.5406 6.46914 18.7176 6.35736 18.8823 6.22899C19.2438 5.92309 19.5775 5.56157 19.9112 5.22785L20.523 4.58824C20.6682 4.43582 20.748 4.23269 20.7455 4.02222C20.7429 3.81175 20.6581 3.61063 20.5093 3.4618C20.3605 3.31296 20.1594 3.22821 19.9489 3.22565C19.7384 3.22308 19.5353 3.3029 19.3829 3.44806C19.2122 3.58178 19.0539 3.73071 18.9101 3.89301L17.5753 5.25566C17.488 5.38764 17.4414 5.54238 17.4414 5.70061C17.4414 5.85885 17.488 6.01359 17.5753 6.14556C17.6587 6.42365 17.9368 6.53489 18.3539 6.5627Z" fill="black"/>
<path d="M5.47938 17.4641C5.30205 17.5588 5.1344 17.6706 4.97881 17.7978C4.45043 18.2706 3.94987 18.7711 3.4493 19.2717L3.33806 19.4386C3.21607 19.5876 3.14941 19.7743 3.14941 19.9669C3.14941 20.1596 3.21607 20.3463 3.33806 20.4953C3.48192 20.6282 3.67058 20.702 3.86644 20.702C4.06229 20.702 4.25095 20.6282 4.39481 20.4953C5.03443 19.9113 5.61842 19.2995 6.20242 18.6877C6.29498 18.5631 6.34495 18.4119 6.34495 18.2567C6.34495 18.1014 6.29498 17.9503 6.20242 17.8256C6.25804 17.6032 6.00775 17.4919 5.47938 17.4641Z" fill="black"/>
<path d="M18.7166 17.6589C18.5919 17.5663 18.4408 17.5164 18.2855 17.5164C18.1303 17.5164 17.9791 17.5663 17.8545 17.6589C17.5486 17.6589 17.4373 18.076 17.4095 18.4932C17.3817 18.9103 17.4095 18.7713 17.6042 18.8825C18.1975 19.4943 18.7814 20.0783 19.3562 20.6345C19.4263 20.7077 19.5104 20.7659 19.6036 20.8057C19.6968 20.8455 19.7971 20.866 19.8985 20.866C19.9998 20.866 20.1001 20.8455 20.1933 20.8057C20.2865 20.7659 20.3706 20.7077 20.4407 20.6345C20.5183 20.5641 20.5804 20.4783 20.6228 20.3825C20.6652 20.2867 20.6872 20.1831 20.6872 20.0783C20.6872 19.9735 20.6652 19.8699 20.6228 19.7741C20.5804 19.6783 20.5183 19.5925 20.4407 19.5221C19.9402 18.7991 19.384 18.2151 18.7166 17.6589Z" fill="black"/>
<path d="M5.20078 6.36827C5.32544 6.46083 5.47657 6.51081 5.63183 6.51081C5.78709 6.51081 5.93822 6.46083 6.06287 6.36827C6.21025 6.28768 6.33088 6.16579 6.40992 6.01758C6.48897 5.86936 6.523 5.70128 6.50782 5.53399C6.50782 5.53399 6.50782 5.22809 6.28535 5.08905L4.53336 3.33706C4.38806 3.19605 4.19355 3.11719 3.99108 3.11719C3.78861 3.11719 3.5941 3.19605 3.4488 3.33706C3.30413 3.49164 3.22363 3.69543 3.22363 3.90715C3.22363 4.11887 3.30413 4.32267 3.4488 4.47724C3.97718 5.22809 4.58898 5.81209 5.20078 6.36827Z" fill="black"/>
<path d="M11.9583 3.94892C12.0691 3.94918 12.1787 3.92663 12.2803 3.88267C12.382 3.83871 12.4735 3.77428 12.5492 3.6934C12.6248 3.61252 12.683 3.51692 12.7201 3.41256C12.7572 3.3082 12.7724 3.19732 12.7648 3.08683V0.862088C12.7648 0.633448 12.674 0.414173 12.5123 0.2525C12.3506 0.0908269 12.1313 0 11.9027 0C11.6741 0 11.4548 0.0908269 11.2931 0.2525C11.1314 0.414173 11.0406 0.633448 11.0406 0.862088C11.0406 1.61294 11.0406 2.33598 11.0406 3.08683C11.0311 3.20735 11.0487 3.32847 11.0923 3.44124C11.1359 3.55401 11.2043 3.65553 11.2924 3.73831C11.3805 3.82108 11.4861 3.88299 11.6014 3.91944C11.7166 3.9559 11.8386 3.96597 11.9583 3.94892Z" fill="black"/>
<path d="M3.8933 12.0415C3.90968 11.9206 3.89934 11.7976 3.86301 11.6811C3.82669 11.5646 3.76526 11.4575 3.68307 11.3674C3.60087 11.2772 3.4999 11.2062 3.38727 11.1593C3.27464 11.1124 3.1531 11.0908 3.03121 11.096H0.806469C0.59258 11.096 0.387452 11.1809 0.236209 11.3322C0.084967 11.4834 0 11.6885 0 11.9024C0 12.1163 0.084967 12.3215 0.236209 12.4727C0.387452 12.6239 0.59258 12.7089 0.806469 12.7089H3.03121C3.23236 12.7257 3.43251 12.6665 3.59212 12.5429C3.75173 12.4194 3.8592 12.2404 3.8933 12.0415Z" fill="black"/>
<path d="M23.1368 11.0959H20.8842C20.7728 11.0838 20.6601 11.0958 20.5538 11.1313C20.4475 11.1668 20.35 11.2248 20.2682 11.3013C20.1863 11.3779 20.122 11.4712 20.0795 11.575C20.0371 11.6787 20.0175 11.7904 20.0222 11.9023C20.0219 12.0131 20.0444 12.1227 20.0884 12.2244C20.1324 12.326 20.1968 12.4175 20.2777 12.4932C20.3586 12.5689 20.4542 12.627 20.5585 12.6641C20.6629 12.7012 20.7738 12.7164 20.8842 12.7088H23.1368C23.2497 12.7167 23.3629 12.7007 23.4692 12.662C23.5755 12.6232 23.6725 12.5625 23.7538 12.4838C23.8351 12.4051 23.8989 12.3102 23.9412 12.2052C23.9834 12.1003 24.0031 11.9876 23.9989 11.8745C23.9954 11.7661 23.9701 11.6596 23.9245 11.5612C23.8789 11.4628 23.8139 11.3746 23.7334 11.3019C23.6529 11.2292 23.5586 11.1735 23.4561 11.1381C23.3536 11.1027 23.245 11.0883 23.1368 11.0959Z" fill="black"/>
<path d="M11.9588 20.0781C11.8505 20.0781 11.7433 20.0998 11.6436 20.1421C11.5439 20.1843 11.4537 20.2462 11.3785 20.3241C11.3032 20.4019 11.2444 20.4942 11.2055 20.5952C11.1667 20.6963 11.1486 20.8042 11.1523 20.9124C11.1523 21.6633 11.1523 22.4419 11.1523 23.1928C11.1447 23.3033 11.1599 23.4141 11.197 23.5185C11.2341 23.6229 11.2923 23.7184 11.3679 23.7993C11.4436 23.8802 11.5351 23.9446 11.6367 23.9886C11.7384 24.0326 11.848 24.0551 11.9588 24.0549C12.0684 24.0513 12.1762 24.0261 12.276 23.9808C12.3759 23.9355 12.4658 23.871 12.5407 23.791C12.6156 23.7109 12.674 23.6169 12.7125 23.5142C12.751 23.4116 12.769 23.3023 12.7652 23.1928V20.9124C12.769 20.8042 12.7509 20.6963 12.712 20.5952C12.6732 20.4942 12.6144 20.4019 12.5391 20.3241C12.4638 20.2462 12.3737 20.1843 12.274 20.1421C12.1743 20.0998 12.0671 20.0781 11.9588 20.0781Z" fill="black"/>
</svg>
