<?xml version="1.0" encoding="utf-8"?>
<svg width="124" height="103" viewBox="0 0 124 103" fill="none" xmlns="http://www.w3.org/2000/svg">
<path d="M66.0832 80.7381C61.3266 85.2854 56.5947 89.7509 51.8874 94.3228C50.0554 96.0844 48.7327 96.6744 46.6625 96.4367C46.835 93.8476 46.9993 91.2503 47.1801 88.653C47.6483 82.4587 48.1166 76.2726 48.4698 70.0784C48.4806 69.3831 48.6426 68.6984 48.9447 68.0717C49.2469 67.445 49.6819 66.8912 50.2197 66.4487C66.8856 51.6458 83.5076 36.7829 100.086 21.8599C100.757 21.3007 101.381 20.6868 101.951 20.0245C102.657 19.1478 102.288 18.2957 101.178 18.3858C100.088 18.4949 99.034 18.8387 98.0896 19.3936C90.4741 24.0639 82.8915 28.7997 75.3089 33.5192C61.5238 42.1332 47.7414 50.7527 33.9618 59.3777C33.5529 59.6569 33.0823 59.8332 32.5902 59.8917C32.0981 59.9502 31.5991 59.8891 31.1358 59.7136C22.5263 57.0098 13.8839 54.3797 5.29084 51.6677C3.96965 51.2656 2.71144 50.6809 1.55294 49.9307C-0.336557 48.6934 -0.558367 46.7434 1.19968 45.3259C2.80625 44.0385 4.60169 43.0049 6.52312 42.2616C33.6168 31.8504 60.7269 21.472 87.8534 11.1264C96.8901 7.67698 105.927 4.19476 114.964 0.794469C116.264 0.25065 117.661 -0.0279406 119.071 -0.0248774C122.168 0.138992 124.173 2.5151 123.951 6.00551C123.689 8.88515 123.214 11.7415 122.53 14.5513C116.763 41.5897 110.968 68.6281 105.146 95.6666C104.812 97.1885 104.305 98.6674 103.635 100.075C103.177 101.203 102.297 102.11 101.181 102.604C100.065 103.097 98.8005 103.14 97.6542 102.721C96.2251 102.291 94.8743 101.636 93.6534 100.779C84.8385 94.413 76.0893 87.9729 67.3155 81.5574C66.9212 81.2788 66.5433 81.0412 66.0832 80.7381Z" fill="white"/>
</svg>
