<?xml version="1.0" encoding="utf-8"?>
<svg width="21" height="18" viewBox="0 0 21 18" fill="none" xmlns="http://www.w3.org/2000/svg">
<path d="M6.89892 3.35383C7.28806 3.35383 7.66127 3.20043 7.93644 2.92736C8.21161 2.65429 8.36619 2.28393 8.36619 1.89776V1.45608C8.36619 1.0699 8.21161 0.699544 7.93644 0.426476C7.66127 0.153409 7.28806 0 6.89892 0C6.50977 0 6.13656 0.153409 5.86139 0.426476C5.58623 0.699544 5.43164 1.0699 5.43164 1.45608V1.89776C5.43164 2.28393 5.58623 2.65429 5.86139 2.92736C6.13656 3.20043 6.50977 3.35383 6.89892 3.35383Z" fill="black"/>
<path d="M14.3276 3.35383C14.7168 3.35383 15.09 3.20043 15.3652 2.92736C15.6403 2.65429 15.7949 2.28393 15.7949 1.89776V1.45608C15.7949 1.0699 15.6403 0.699544 15.3652 0.426476C15.09 0.153409 14.7168 0 14.3276 0C13.9385 0 13.5653 0.153409 13.2901 0.426476C13.0149 0.699544 12.8604 1.0699 12.8604 1.45608V1.89776C12.8604 2.28393 13.0149 2.65429 13.2901 2.92736C13.5653 3.20043 13.9385 3.35383 14.3276 3.35383Z" fill="black"/>
<path d="M19.3752 6.7756C19.1272 6.775 18.8882 6.86789 18.7066 7.03549C18.525 7.20309 18.4144 7.43288 18.397 7.67837C18.2883 9.13792 17.7922 10.5429 16.9591 11.7505C16.2539 12.7851 15.3142 13.6412 14.2153 14.2501C12.9411 14.9606 11.4993 15.3215 10.0381 15.2959C8.57683 15.2703 7.14878 14.8591 5.90068 14.1045C4.60054 13.3252 3.54791 12.1982 2.86342 10.8526C2.34894 9.86429 2.04117 8.78292 1.9586 7.67352C1.94993 7.54604 1.91604 7.42151 1.85887 7.30703C1.8017 7.19255 1.72237 7.09036 1.6254 7.00631C1.52844 6.92225 1.41574 6.85797 1.29375 6.81714C1.17175 6.77631 1.04284 6.75972 0.914384 6.76832C0.785927 6.77693 0.660435 6.81056 0.545074 6.86729C0.429714 6.92402 0.326744 7.00275 0.242043 7.09897C0.157341 7.1952 0.0925656 7.30703 0.0514181 7.4281C0.0102705 7.54917 -0.00644488 7.67709 0.00222597 7.80457C0.189335 10.3571 1.34315 12.7447 3.23175 14.4875C5.12035 16.2303 7.60372 17.1991 10.1827 17.1991C12.7617 17.1991 15.245 16.2303 17.1336 14.4875C19.0222 12.7447 20.176 10.3571 20.3632 7.80457C20.3712 7.67145 20.3516 7.53812 20.3054 7.41288C20.2593 7.28763 20.1876 7.17317 20.0949 7.07663C20.0022 6.98008 19.8905 6.90353 19.7666 6.85174C19.6428 6.79994 19.5096 6.77403 19.3752 6.7756Z" fill="black"/>
</svg>
