<?xml version="1.0" encoding="utf-8"?>
<svg width="16" height="18" viewBox="0 0 16 18" fill="none" xmlns="http://www.w3.org/2000/svg">
<path d="M15.5109 7.33498C14.8995 5.72548 13.782 4.35415 12.324 3.42404C10.866 2.49393 9.14495 2.05447 7.41566 2.17073L8.26137 1.33901C8.40989 1.19262 8.49373 0.993677 8.49445 0.785942C8.49516 0.578207 8.41269 0.3787 8.26518 0.231308C8.19214 0.158327 8.10533 0.100338 8.00971 0.0606507C7.91409 0.0209636 7.81152 0.000355626 7.70788 4.56833e-06C7.49855 -0.000704424 7.29751 0.0811376 7.14899 0.227527L4.13566 3.19905L6.97756 6.2235C7.12382 6.3696 7.32071 6.45485 7.52811 6.46187C7.73551 6.4689 7.9378 6.39717 8.09375 6.2613C8.24619 6.11906 8.33574 5.92276 8.34288 5.71524C8.35002 5.50772 8.27415 5.30582 8.13185 5.1536L6.89375 3.83418C8.30225 3.5981 9.74985 3.837 11.0056 4.51275C12.2613 5.18851 13.2527 6.26219 13.8217 7.56246C14.3907 8.86273 14.5044 10.3147 14.1448 11.6866C13.7851 13.0585 12.9728 14.2714 11.8374 15.1316C10.7021 15.9918 9.30907 16.4499 7.88073 16.4327C6.45238 16.4155 5.07101 15.924 3.95701 15.0366C2.84302 14.1493 2.06061 12.9172 1.73463 11.5371C1.40865 10.1569 1.55788 8.70811 2.15852 7.42193C2.20178 7.32877 2.22607 7.22804 2.22999 7.12553C2.23392 7.02302 2.21739 6.92076 2.18138 6.8246C2.10757 6.63049 1.95979 6.47297 1.76995 6.38606C1.58035 6.29945 1.36397 6.29057 1.16782 6.36136C0.971668 6.43214 0.811578 6.57687 0.722327 6.76412C0.176828 7.9501 -0.0659814 9.25114 0.015347 10.5523C0.0966755 11.8535 0.49964 13.1148 1.18864 14.2248C1.87765 15.3348 2.83149 16.2593 3.96592 16.9167C5.10035 17.5741 6.38046 17.9442 7.69317 17.9942C9.00588 18.0442 10.3108 17.7726 11.4927 17.2034C12.6745 16.6342 13.697 15.785 14.4697 14.7307C15.2424 13.6764 15.7416 12.4494 15.9232 11.1583C16.1048 9.86709 15.9632 8.5514 15.5109 7.32742V7.33498Z" fill="black"/>
</svg>
