<?xml version="1.0" encoding="utf-8"?>
<svg width="11" height="19" viewBox="0 0 11 19" fill="none" xmlns="http://www.w3.org/2000/svg">
<path d="M3.27196 7.7239L6.45163 2.26346C6.51394 2.15654 6.55498 2.03806 6.57241 1.91484C6.58983 1.79163 6.58328 1.6661 6.55315 1.54548C6.51077 1.36111 6.41522 1.19403 6.2789 1.06594C6.14259 0.937845 5.9718 0.854648 5.78871 0.827149C5.60562 0.79965 5.41868 0.829118 5.25216 0.911726C5.08564 0.994335 4.94722 1.12627 4.85487 1.29041L0 9.62749H7.38383L3.40118 17.0246C3.34125 17.1341 3.30325 17.2548 3.28939 17.3795C3.27553 17.5042 3.2861 17.6305 3.32047 17.751C3.35484 17.8715 3.41233 17.9838 3.48958 18.0813C3.56682 18.1788 3.66228 18.2595 3.77037 18.3188C3.91148 18.3988 4.07059 18.4395 4.23186 18.4369C4.39606 18.4393 4.55789 18.3967 4.70066 18.3137C4.84344 18.2307 4.96199 18.1101 5.04408 17.9646L10.5312 7.7239H3.27196Z" fill="black"/>
</svg>
