<svg width="360" height="171" viewBox="0 0 360 171" fill="none" xmlns="http://www.w3.org/2000/svg">
<path d="M2.66746 1.40918L8.08669 12.3798L13.3975 1.40918H15.065L8.50355 15.0055C7.14041 17.8066 6.00237 18.2241 4.39327 18.2241C3.79348 18.2206 3.20268 18.0777 2.66746 17.8066V16.4624C3.23109 16.774 3.87153 16.9187 4.51416 16.8799C5.66888 16.8799 6.41089 15.7695 6.96532 14.6131L7.16959 14.1748L1 1.40918H2.66746Z" fill="white"/>
<path d="M22.6354 18.224C18.0874 18.224 15.1318 14.8468 15.1318 9.64539C15.1318 5.02004 17.8081 1 22.798 1C25.9578 1 29.1468 2.98706 29.5136 6.33918H27.9254C27.4168 3.90545 25.4075 2.36089 22.7271 2.36089C19.0795 2.36089 16.6576 5.28304 16.6576 9.64539C16.6576 14.0077 19.0337 16.9007 22.6771 16.9007C25.9786 16.9007 27.8045 14.6339 28.1505 11.5573H29.6971C29.3469 15.6274 26.5831 18.224 22.6354 18.224Z" fill="white"/>
<path d="M44.825 17.8734H43.2576V2.74919H33.4446V17.8734H31.873V1.40918H44.825V17.8734Z" fill="white"/>
<path d="M62.5627 9.68704C62.5627 14.8175 59.4196 18.2656 54.7799 18.2656C50.1402 18.2656 47.0679 14.7966 47.0679 9.64112C47.0679 4.48561 50.1902 1.0166 54.8049 1.0166C59.4196 1.0166 62.5627 4.53153 62.5627 9.68704ZM48.6394 9.5952C48.6394 14.0118 51.0864 16.9006 54.8049 16.9006C58.5233 16.9006 60.9911 14.0118 60.9911 9.66199C60.9911 5.31216 58.4983 2.36079 54.7757 2.36079C51.0531 2.36079 48.6394 5.28294 48.6394 9.5952Z" fill="white"/>
<path d="M70.5747 8.13847L78.3575 17.8734H76.3483L69.4658 9.19879L66.3268 12.0667V17.8734H64.7803V1.40918H66.3268V10.2633L75.9147 1.40918H77.999L70.5747 8.13847Z" fill="white"/>
<path d="M92.6019 17.8734H90.8719L88.8876 12.6929H81.359L79.3706 17.8734H77.7031L84.373 1.36328H86.0404L92.6019 17.8734ZM85.1692 2.84523L81.8343 11.4238H88.3915L85.1692 2.84523Z" fill="white"/>
<path d="M93.8521 1.40918H95.4195V16.1827L104.749 1.40918H106.779V17.8734H105.216V3.09568L95.8863 17.8734H93.8562L93.8521 1.40918Z" fill="white"/>
<path d="M116.917 1.40918C119.619 1.40918 122.066 2.58639 122.066 5.52524C122.062 6.35976 121.781 7.16931 121.267 7.82617C120.753 8.48303 120.035 8.94981 119.227 9.15287C121.053 9.49936 122.716 10.6348 122.716 13.1562C122.716 16.3455 120.173 17.8734 117.151 17.8734H109.876V1.40918H116.917ZM111.398 8.68951H116.617C118.489 8.68951 120.519 8.02159 120.519 5.73396C120.519 3.1416 118.305 2.74919 116.204 2.74919H111.398V8.68951ZM111.398 16.5292H116.317C118.606 16.5292 121.144 16.1118 121.144 13.1896C121.144 10.3677 118.464 9.97525 116.225 9.97525H111.398V16.5292Z" fill="white"/>
<path d="M138.115 17.8734H136.385L134.396 12.6929H126.893L124.883 17.8734H123.216L129.811 1.36328H131.541L138.115 17.8734ZM130.682 2.84523L127.347 11.4238H133.904L130.682 2.84523Z" fill="white"/>
<path d="M150.771 2.74919H140.933V8.68951H150.146V10.0086H140.933V16.5292H150.863V17.8734H139.366V1.40918H150.771V2.74919Z" fill="white"/>
<path d="M164.115 2.61394H158.341V17.7381H156.774V2.61394H151V1.27393H164.115V2.61394Z" fill="white"/>
<path d="M260.529 18.224C255.981 18.224 253 14.8468 253 9.64539C253 5.02004 255.68 1 260.666 1C263.83 1 267.015 2.98706 267.386 6.33918H265.814C265.306 3.90545 263.301 2.36089 260.604 2.36089C256.956 2.36089 254.53 5.28304 254.53 9.64539C254.53 14.0077 256.91 16.884 260.558 16.884C263.859 16.884 265.685 14.6172 266.031 11.5406H267.578C267.248 15.6274 264.476 18.224 260.529 18.224Z" fill="white"/>
<path d="M282.718 17.8734H281.146V9.91681H271.333V17.8734H269.774V1.40918H271.342V8.57679H281.155V1.40918H282.726L282.718 17.8734Z" fill="white"/>
<path d="M285.815 1.40918H287.383V16.1827L296.712 1.40918H298.742V17.8734H297.175V3.09568L287.846 17.8734H285.815V1.40918Z" fill="white"/>
<path d="M317.793 17.8734H316.293V7.92975C316.293 6.19316 316.363 4.48161 316.48 2.74919C316.155 3.74272 315.784 4.7613 315.392 5.73396L310.544 17.8734H309.135L304.216 5.87172C303.799 4.87819 303.457 3.85961 303.132 2.84103C303.249 4.51083 303.316 6.18063 303.316 7.88383V17.8734H301.815V1.40918H303.958L308.735 13.1562C309.152 14.1706 309.498 15.2142 309.869 16.2537C310.24 15.2351 310.561 14.1957 310.953 13.2021L315.63 1.40918H317.777L317.793 17.8734Z" fill="white"/>
<path d="M333.913 17.8734H332.179L330.195 12.6929H322.666L320.657 17.8734H318.99L325.635 1.36328H327.369L333.913 17.8734ZM326.468 2.84105L323.133 11.4197H329.691L326.468 2.84105Z" fill="white"/>
<path d="M346.565 2.74919H336.731V8.68951H345.944V10.0086H336.731V16.5292H346.661V17.8734H335.16V1.40918H346.565V2.74919Z" fill="white"/>
<path d="M359.938 2.74919H354.164V17.8734H352.593V2.74919H346.819V1.40918H359.938V2.74919Z" fill="white"/>
<path d="M187.321 18.685C185.163 18.6831 183.072 17.932 181.405 16.5595C179.738 15.1871 178.597 13.2783 178.178 11.1583C177.758 9.03833 178.086 6.83828 179.105 4.93295C180.123 3.02762 181.77 1.53487 183.764 0.709013C185.759 -0.116847 187.977 -0.224736 190.042 0.403723C192.107 1.03218 193.891 2.35811 195.089 4.15563C196.287 5.95316 196.826 8.11109 196.614 10.2618C196.401 12.4125 195.451 14.423 193.924 15.9507C193.068 16.8334 192.041 17.5313 190.905 18.0015C189.769 18.4718 188.55 18.7044 187.321 18.685ZM187.321 17.4953C189.204 17.4943 191.029 16.8394 192.485 15.6423C193.94 14.4451 194.936 12.7797 195.302 10.9298C195.669 9.0799 195.384 7.15989 194.496 5.49688C193.607 3.83387 192.17 2.53073 190.43 1.80947C188.69 1.0882 186.754 0.993418 184.952 1.54127C183.15 2.08913 181.593 3.24574 180.547 4.81405C179.501 6.38236 179.03 8.26536 179.215 10.1423C179.399 12.0192 180.228 13.7739 181.56 15.1075C182.307 15.8779 183.203 16.4871 184.194 16.8977C185.185 17.3084 186.249 17.5117 187.321 17.4953ZM182.573 14.1557H181.839C181.929 12.6847 182.541 11.2943 183.565 10.2359C184.603 9.32438 185.936 8.82182 187.317 8.82182C188.697 8.82182 190.031 9.32438 191.069 10.2359C192.094 11.2946 192.708 12.6842 192.803 14.1557H192.061C191.483 11.5786 189.899 10.2915 187.309 10.2943C184.719 10.2971 183.147 11.587 182.594 14.164L182.573 14.1557ZM184.349 7.83969C184.155 7.84024 183.963 7.80239 183.784 7.72832C183.604 7.65425 183.441 7.54542 183.304 7.40809C183.167 7.27075 183.058 7.10763 182.984 6.92809C182.91 6.74855 182.873 6.55614 182.873 6.36192C182.868 6.16813 182.903 5.9754 182.975 5.79533C183.046 5.61525 183.154 5.45156 183.29 5.31413C183.426 5.17715 183.589 5.06947 183.768 4.99769C183.947 4.92591 184.139 4.89154 184.332 4.89668C184.528 4.89391 184.721 4.93011 184.903 5.00318C185.084 5.07626 185.249 5.18474 185.388 5.32229C185.527 5.45985 185.637 5.62373 185.712 5.80437C185.787 5.98502 185.825 6.17882 185.825 6.37445C185.828 6.57029 185.79 6.76463 185.714 6.94506C185.638 7.12549 185.525 7.28802 185.383 7.42224C185.247 7.55853 185.086 7.6664 184.909 7.73952C184.731 7.81264 184.541 7.84953 184.349 7.84805V7.83969ZM190.293 7.83969C190.099 7.84428 189.906 7.80969 189.726 7.73797C189.545 7.66625 189.381 7.55887 189.243 7.42224C189.106 7.28535 188.997 7.12269 188.923 6.9436C188.848 6.76452 188.81 6.57252 188.81 6.37862C188.81 6.18471 188.848 5.99272 188.923 5.81363C188.997 5.63455 189.106 5.47189 189.243 5.335C189.381 5.19837 189.545 5.091 189.726 5.01928C189.906 4.94757 190.099 4.91296 190.293 4.91755C190.685 4.91755 191.06 5.07324 191.337 5.35037C191.614 5.62751 191.769 6.00339 191.769 6.39532C191.769 6.78725 191.614 7.16312 191.337 7.44026C191.06 7.71739 190.685 7.87309 190.293 7.87309V7.83969Z" fill="white"/>
<path d="M208.056 18.6851C205.898 18.6841 203.807 17.9338 202.139 16.5619C200.471 15.19 199.33 13.2815 198.909 11.1614C198.489 9.04139 198.816 6.84104 199.834 4.93526C200.853 3.02948 202.499 1.53619 204.493 0.70981C206.488 -0.116566 208.707 -0.224896 210.772 0.403271C212.837 1.03144 214.621 2.35724 215.819 4.15478C217.018 5.95233 217.557 8.11042 217.345 10.2613C217.132 12.4123 216.182 14.4229 214.655 15.9508C213.8 16.8337 212.773 17.5319 211.638 18.0021C210.503 18.4724 209.284 18.7048 208.056 18.6851ZM208.056 17.4954C209.94 17.4953 211.765 16.8413 213.221 15.6446C214.677 14.448 215.674 12.7829 216.041 10.9329C216.408 9.08297 216.124 7.16266 215.236 5.4992C214.348 3.83575 212.912 2.53206 211.172 1.81028C209.431 1.0885 207.495 0.993275 205.693 1.54084C203.89 2.0884 202.333 3.24487 201.287 4.8132C200.24 6.38153 199.769 8.26468 199.954 10.1418C200.139 12.0189 200.967 13.7738 202.299 15.1075C203.046 15.8776 203.941 16.4867 204.931 16.8973C205.921 17.3079 206.985 17.5115 208.056 17.4954ZM202.725 12.5277V11.3254H213.388V12.5152L202.725 12.5277ZM205.105 7.84808C204.762 7.84326 204.432 7.71965 204.171 7.49831C203.909 7.27697 203.732 6.97162 203.67 6.6343C203.608 6.29699 203.665 5.9486 203.831 5.64854C203.997 5.34847 204.261 5.11531 204.58 4.98881C204.898 4.8623 205.25 4.85029 205.577 4.95482C205.903 5.05934 206.183 5.27392 206.369 5.56198C206.554 5.85005 206.635 6.19377 206.596 6.53452C206.557 6.87528 206.401 7.19198 206.155 7.43063C206.017 7.56745 205.853 7.67494 205.673 7.74667C205.492 7.8184 205.299 7.8529 205.105 7.84808ZM211.037 7.84808C210.843 7.8529 210.65 7.8184 210.469 7.74667C210.289 7.67494 210.124 7.56745 209.986 7.43063C209.849 7.29373 209.74 7.13107 209.666 6.95199C209.592 6.7729 209.554 6.5809 209.554 6.387C209.554 6.19309 209.592 6.00109 209.666 5.822C209.74 5.64291 209.849 5.48027 209.986 5.34337C210.124 5.20655 210.289 5.09905 210.469 5.02732C210.65 4.95558 210.843 4.9211 211.037 4.92592C211.428 4.92592 211.804 5.08161 212.08 5.35875C212.357 5.63589 212.513 6.01176 212.513 6.40369C212.513 6.79562 212.357 7.1715 212.08 7.44864C211.804 7.72578 211.428 7.88147 211.037 7.88147V7.84808Z" fill="white"/>
<path d="M235.407 2.73427C233.88 1.20648 231.872 0.25599 229.724 0.0447457C227.576 -0.166499 225.421 0.374565 223.627 1.57576C221.833 2.77695 220.51 4.56397 219.884 6.63234C219.258 8.70072 219.367 10.9225 220.193 12.9192C221.019 14.9158 222.511 16.5638 224.415 17.5824C226.319 18.6011 228.516 18.9272 230.633 18.5054C232.749 18.0836 234.655 16.9398 236.024 15.269C237.393 13.5983 238.141 11.5038 238.141 9.34249C238.16 8.11243 237.927 6.89155 237.457 5.75506C236.986 4.61857 236.289 3.59054 235.407 2.73427ZM230.725 5.32245C230.863 5.18563 231.027 5.07813 231.208 5.00639C231.388 4.93466 231.582 4.90018 231.776 4.905C232.167 4.905 232.542 5.06069 232.819 5.33783C233.096 5.61496 233.251 5.99085 233.251 6.38278C233.251 6.77471 233.096 7.15058 232.819 7.42771C232.542 7.70485 232.167 7.86055 231.776 7.86055C231.582 7.86538 231.388 7.83088 231.208 7.75914C231.027 7.68741 230.863 7.57992 230.725 7.4431C230.588 7.30621 230.479 7.14355 230.405 6.96446C230.331 6.78538 230.293 6.59338 230.293 6.39948C230.293 6.20557 230.331 6.01356 230.405 5.83448C230.479 5.65539 230.588 5.49275 230.725 5.35585V5.32245ZM224.785 5.32245C224.917 5.16434 225.08 5.03544 225.264 4.94396C225.448 4.85248 225.649 4.80043 225.855 4.79113C226.06 4.78184 226.265 4.81551 226.457 4.88998C226.648 4.96445 226.823 5.0781 226.968 5.22368C227.113 5.36926 227.227 5.54357 227.301 5.7355C227.375 5.92744 227.409 6.1328 227.4 6.33847C227.391 6.54414 227.339 6.74562 227.247 6.93005C227.156 7.11449 227.027 7.27784 226.869 7.4097C226.731 7.54652 226.567 7.65402 226.387 7.72575C226.206 7.79749 226.013 7.83197 225.819 7.82715C225.526 7.82829 225.24 7.74224 224.996 7.57994C224.752 7.41764 224.562 7.18642 224.45 6.91568C224.338 6.64495 224.309 6.34692 224.366 6.05951C224.423 5.77209 224.565 5.50827 224.772 5.30158L224.785 5.32245ZM232.559 13.78C231.522 14.6931 230.189 15.1968 228.808 15.1968C227.427 15.1968 226.093 14.6931 225.056 13.78C224.034 12.7198 223.421 11.3307 223.326 9.86013H224.055C224.645 12.4316 226.229 13.7174 228.808 13.7174C231.387 13.7174 232.969 12.4316 233.556 9.86013H234.285C234.193 11.3305 233.581 12.7201 232.559 13.78Z" fill="white"/>
<path d="M209 76H210.572V90.7736L219.897 76H221.931V92.46H220.36V77.6865L211.03 92.46H209V76Z" fill="white"/>
<path d="M244.794 83.1221L252.577 92.857H250.568L243.686 84.1866L240.547 87.0545V92.857H239V76.397H240.547V85.2553L250.134 76.397H252.219L244.794 83.1221Z" fill="white"/>
<path d="M267.626 92.8568H265.896L263.912 87.6679H256.383L254.382 92.8568H252.715L259.364 76.3467H261.052L267.626 92.8568ZM260.193 77.8286L256.883 86.4156H263.441L260.193 77.8286Z" fill="white"/>
<path d="M273.516 85.6894C268.805 85.6894 268.205 83.1471 268.205 80.9514V76.397H269.777V80.8595C269.777 82.2037 270.052 84.3285 273.353 84.3285C275.111 84.2846 276.86 84.0608 278.573 83.6606V76.397H280.144V92.8612H278.56V84.9964C276.903 85.3789 275.215 85.6108 273.516 85.6894Z" fill="white"/>
<path d="M295.451 77.737H285.617V83.6773H294.818V84.9964H285.605V91.517H295.53V92.857H284.046V76.397H295.451V77.737Z" fill="white"/>
<path d="M305.081 93.2282C300.533 93.2282 297.553 89.851 297.553 84.6496C297.553 80.0242 300.233 76 305.219 76C308.383 76 311.572 77.9912 311.939 81.3434H310.371C309.863 78.8929 307.87 77.3651 305.173 77.3651C301.525 77.3651 299.103 80.2872 299.103 84.6496C299.103 89.0119 301.48 91.884 305.127 91.884C308.429 91.884 310.255 89.6214 310.601 86.5448H312.147C311.801 90.6149 309.029 93.2282 305.081 93.2282Z" fill="white"/>
<path d="M326.05 77.737H320.276V92.857H318.704V77.737H312.935V76.397H326.05V77.737Z" fill="white"/>
<path d="M335.195 76.397C337.897 76.397 340.344 77.5784 340.344 80.513C340.341 81.3488 340.059 82.1598 339.545 82.8176C339.03 83.4753 338.31 83.9424 337.501 84.1448C339.326 84.4913 340.99 85.6226 340.99 88.144C340.99 91.3375 338.451 92.8612 335.425 92.8612H328.167V76.397H335.195ZM329.676 83.6815H334.895C336.763 83.6815 338.797 83.0094 338.797 80.7218C338.797 78.1336 336.579 77.7412 334.478 77.7412H329.676V83.6815ZM329.676 91.5212H334.595C336.879 91.5212 339.418 91.1037 339.418 88.1816C339.418 85.3596 336.742 84.9672 334.499 84.9672H329.676V91.5212Z" fill="white"/>
<path d="M358.769 84.6704C358.769 89.8051 355.63 93.249 350.986 93.249C346.342 93.249 343.274 89.78 343.274 84.6245C343.274 79.469 346.392 76 351.011 76C355.63 76 358.769 79.5149 358.769 84.6704ZM344.841 84.5786C344.841 88.9952 347.288 91.884 351.007 91.884C354.725 91.884 357.193 88.9952 357.193 84.6496C357.193 80.3039 354.692 77.3651 350.982 77.3651C347.272 77.3651 344.841 80.2789 344.841 84.5786Z" fill="white"/>
<path d="M50.9561 92.857H49.3846V84.9046H39.5716V92.857H38V76.397H39.5716V83.5646H49.3846V76.397H50.9561V92.857Z" fill="white"/>
<path d="M67.927 92.8564H66.1845L64.2086 87.6675H56.7051L54.6958 92.848H53.0283L59.6981 76.3379H61.4281L67.927 92.8564ZM60.4944 77.8282L57.1594 86.4068H63.7251L60.4944 77.8282Z" fill="white"/>
<path d="M76.7475 93.2282C72.1996 93.2282 69.2231 89.851 69.2231 84.6496C69.2231 80.0242 71.8994 76 76.8851 76C80.0491 76 83.2381 77.9912 83.605 81.3434H82.025C81.5165 78.8929 79.5239 77.3651 76.8268 77.3651C73.1792 77.3651 70.7572 80.2872 70.7572 84.6496C70.7572 89.0119 73.1333 91.884 76.7809 91.884C80.0825 91.884 81.9083 89.6214 82.2543 86.5448H83.8009C83.4674 90.6149 80.6952 93.2282 76.7475 93.2282Z" fill="white"/>
<path d="M97.7161 77.737H91.9425V92.857H90.3626V77.737H84.6016V76.397H97.7161V77.737Z" fill="white"/>
<path d="M106.929 76.397C110.001 76.397 112.102 77.9457 112.102 81.0223C112.102 84.2367 110.018 85.8313 106.883 85.8313H101.464V92.8612H99.8921V76.397H106.929ZM101.459 84.5164H106.462C108.725 84.5164 110.547 83.5896 110.547 81.1392C110.547 78.7806 108.98 77.7412 106.624 77.7412H101.459V84.5164Z" fill="white"/>
<path d="M129.581 84.6704C129.581 89.8051 126.442 93.249 121.802 93.249C117.163 93.249 114.09 89.78 114.09 84.6245C114.09 79.469 117.204 76 121.823 76C126.442 76 129.581 79.5149 129.581 84.6704ZM115.658 84.5786C115.658 88.9952 118.105 91.884 121.823 91.884C125.542 91.884 128.014 88.9952 128.014 84.6496C128.014 80.3039 125.512 77.3651 121.802 77.3651C118.092 77.3651 115.658 80.2789 115.658 84.5786Z" fill="white"/>
<path d="M144.038 77.737H134.2V83.6773H143.413V84.9964H134.2V91.517H144.138V92.857H132.633V76.397H144.038V77.737Z" fill="white"/>
<path d="M159.833 92.857H158.262V84.9046H148.449V92.857H146.877V76.397H148.449V83.5646H158.262V76.397H159.833V92.857Z" fill="white"/>
<path d="M163.73 76.397H165.302V91.1747L174.631 76.397H176.653V92.8612H175.082V78.0668L165.752 92.8403H163.73V76.397Z" fill="white"/>
<path d="M191.973 77.737H182.139V83.6773H191.352V84.9964H182.139V91.517H192.077V92.857H180.568V76.397H191.973V77.737Z" fill="white"/>
<path d="M19.8454 76.7462L19.8457 76.7464L20.1738 76.9298L20.175 76.9276L19.846 76.7451M19.8454 76.7462L19.8456 76.7459M19.8454 76.7462L19.8422 76.7445M19.8454 76.7462L19.3141 77.7283C19.4244 77.7879 19.5429 77.828 19.6644 77.848L18.0936 80.6795L19.8428 76.7434M19.8456 76.7459L19.846 76.7451M19.8456 76.7459L19.8452 76.7447M19.8456 76.7459L19.8452 76.7447M19.846 76.7451L19.8452 76.7447M19.846 76.7451L19.8469 76.7433M19.8452 76.7447L19.8428 76.7434M19.8428 76.7434L12.0949 83.2676C13.1708 83.3278 14.2419 83.0827 15.1851 82.5607C15.1855 82.5604 15.1859 82.5602 15.1864 82.5599C16.1289 82.0379 16.9053 81.2602 17.4266 80.3163L17.4292 80.3116L17.4295 80.311L19.0007 77.4788C19.0854 77.5755 19.1868 77.6579 19.3016 77.7214L19.8422 76.7445M19.8428 76.7434L19.8422 76.7445M19.8428 76.7434L19.8437 76.7416L19.8444 76.742L19.8469 76.7433M19.8469 76.7433L20.1779 76.9224L19.8488 76.7398M19.8469 76.7433L19.8488 76.7398M19.8488 76.7398L20.0278 76.4089L19.8457 76.7381M19.8488 76.7398L19.8457 76.7381M19.8457 76.7381L19.8428 76.7365M19.8457 76.7381L19.8441 76.7409M19.8428 76.7365L19.5139 76.554C19.5129 76.5557 19.5119 76.5575 19.5109 76.5592L19.5099 76.561L19.6385 76.6306L19.839 76.7427L19.8422 76.7445M19.8428 76.7365L19.8441 76.7409M19.8428 76.7365L19.8441 76.7409" fill="white" stroke="white" stroke-width="3"/>
<path d="M21.0001 80.4208L20.2664 80.6045L19.3535 76.9768L15.806 78.1499L15.5684 77.4277L19.8912 76L21.0001 80.4208Z" fill="white"/>
<path d="M7.04083 152.389C9.74211 152.389 12.1891 153.566 12.1891 156.505C12.1864 157.34 11.9058 158.15 11.3917 158.808C10.8776 159.466 10.1593 159.933 9.35026 160.137C11.172 160.483 12.8352 161.614 12.8352 164.136C12.8352 167.325 10.2965 168.853 7.27011 168.853H0V152.389H7.04083ZM1.50905 159.673H6.74069C8.61241 159.673 10.6425 159.001 10.6425 156.713C10.6425 154.121 8.42482 153.729 6.32383 153.729H1.50905V159.673ZM1.50905 167.513H6.42804C8.71246 167.513 11.2553 167.095 11.2553 164.173C11.2553 161.355 8.57489 160.959 6.33633 160.959H1.50905V167.513Z" fill="white"/>
<path d="M22.4896 168.853H15.1694V152.389H16.741V159.327H22.4896C25.5118 159.327 27.3835 161.176 27.3835 164.09C27.3835 167.004 25.5118 168.853 22.4896 168.853ZM22.1436 160.667H16.7243V167.513H22.1436C24.453 167.513 25.812 166.215 25.812 164.09C25.812 161.965 24.4363 160.667 22.1436 160.667ZM31.2645 152.389V168.853H29.693V152.389H31.2645Z" fill="white"/>
<path d="M41.4692 152.389C44.5415 152.389 46.6425 153.937 46.6425 157.014C46.6425 160.228 44.5582 161.823 41.4234 161.823H36.0042V168.853H34.4409V152.389H41.4692ZM35.9958 160.504H40.9982C43.2618 160.504 45.0835 159.581 45.0835 157.127C45.0835 154.772 43.516 153.729 41.1608 153.729H35.9958V160.504Z" fill="white"/>
<path d="M60.149 168.853H58.4191L56.4348 163.672H48.9062L46.8969 168.853H45.2295L51.8785 152.343H53.6085L60.149 168.853ZM52.7164 153.825L49.3815 162.403H55.9387L52.7164 153.825Z" fill="white"/>
<path d="M69.1781 168.853H61.3994V152.389H72.7923V153.729H62.9668V159.327H69.1781C72.2045 159.327 74.0762 161.176 74.0762 164.09C74.0762 167.004 72.2045 168.853 69.1781 168.853ZM68.8321 160.667H62.9668V167.513H68.8321C71.1415 167.513 72.5047 166.215 72.5047 164.09C72.5047 161.965 71.1249 160.667 68.8321 160.667Z" fill="white"/>
<path d="M91.2094 160.666C91.2094 165.801 88.0663 169.245 83.4266 169.245C78.7869 169.245 75.7104 165.776 75.7104 160.625C75.7104 155.473 78.8286 152 83.4474 152C88.0663 152 91.2094 155.511 91.2094 160.666ZM77.2862 160.574C77.2862 164.991 79.7332 167.88 83.4516 167.88C87.17 167.88 89.6379 164.991 89.6379 160.641C89.6379 156.291 87.1367 153.361 83.4266 153.361C79.7165 153.361 77.2862 156.275 77.2862 160.574Z" fill="white"/>
<path d="M104.349 153.729H98.5754V168.853H97.0038V153.729H91.2344V152.389H104.349V153.729Z" fill="white"/>
<path d="M111.415 159.118L119.198 168.853H117.189L110.311 160.182L107.172 163.046V168.853H105.625V152.389H107.172V161.243L116.759 152.389H118.844L111.415 159.118Z" fill="white"/>
<path d="M131.778 153.729H121.945V159.673H131.153V160.988H121.94V167.513H131.87V168.853H120.373V152.389H131.778V153.729Z" fill="white"/>
<path d="M215.529 169.224C210.981 169.224 208 165.851 208 160.645C208 156.024 210.68 152 215.666 152C218.83 152 222.019 153.987 222.386 157.339H220.819C220.31 154.889 218.317 153.365 215.62 153.365C211.973 153.365 209.547 156.287 209.547 160.645C209.547 165.004 211.927 167.884 215.574 167.884C218.876 167.884 220.702 165.617 221.048 162.545H222.594C222.248 166.611 219.476 169.224 215.529 169.224Z" fill="white"/>
<path d="M236.197 153.733H226.359V159.677H235.571V160.992H226.359V167.517H236.288V168.857H224.779V152.393H236.188L236.197 153.733Z" fill="white"/>
<path d="M245.363 152.393C248.436 152.393 250.537 153.941 250.537 157.018C250.537 160.232 248.452 161.827 245.317 161.827H239.898V168.857H238.327V152.393H245.363ZM239.89 160.508H244.892C247.156 160.508 248.982 159.585 248.982 157.131C248.982 154.776 247.41 153.733 245.055 153.733H239.89V160.508Z" fill="white"/>
<path d="M267.207 160.67C267.207 165.805 264.068 169.249 259.424 169.249C254.781 169.249 251.712 165.78 251.712 160.625C251.712 155.469 254.831 152 259.449 152C264.068 152 267.207 155.515 267.207 160.67ZM253.284 160.579C253.284 164.995 255.731 167.884 259.449 167.884C263.168 167.884 265.632 164.995 265.632 160.629C265.632 156.262 263.13 153.348 259.42 153.348C255.71 153.348 253.284 156.279 253.284 160.579Z" fill="white"/>
<path d="M280.346 153.733H274.573V168.857H273.001V153.733H267.232V152.393H280.346V153.733Z" fill="white"/>
<path d="M295.862 160.67C295.862 165.805 292.723 169.249 288.084 169.249C283.444 169.249 280.372 165.78 280.372 160.625C280.372 155.469 283.486 152 288.104 152C292.723 152 295.862 155.515 295.862 160.67ZM281.939 160.579C281.939 164.995 284.39 167.884 288.104 167.884C291.819 167.884 294.295 164.995 294.295 160.645C294.295 156.296 291.794 153.365 288.084 153.365C284.373 153.365 281.939 156.279 281.939 160.579Z" fill="white"/>
<path d="M311.036 168.857H309.465V160.9H299.652V168.857H298.08V152.393H299.652V159.56H309.465V152.393H311.036V168.857Z" fill="white"/>
<path d="M314.129 152.393H315.701V167.166L325.03 152.393H327.06V168.857H325.489V154.079L316.164 168.857H314.129V152.393Z" fill="white"/>
<path d="M343.085 168.857H341.501V160.9H331.704V168.857H330.133V152.393H331.704V159.56H341.501V152.393H343.068L343.085 168.857Z" fill="white"/>
<path d="M359.251 168.857H357.521L355.532 163.676H348.029L346.02 168.857H344.352L351.022 152.347H352.752L359.251 168.857ZM351.814 153.829L348.479 162.407H355.049L351.814 153.829Z" fill="white"/>
<path d="M156.421 160.394C156.42 158.343 157.024 156.338 158.159 154.631C159.294 152.924 160.908 151.592 162.797 150.802C164.687 150.012 166.768 149.8 168.778 150.192C170.788 150.584 172.637 151.564 174.091 153.007C175.546 154.45 176.542 156.292 176.953 158.301C177.364 160.31 177.173 162.395 176.402 164.295C175.631 166.195 174.316 167.824 172.622 168.976C170.929 170.129 168.932 170.754 166.885 170.772C165.516 170.784 164.158 170.525 162.889 170.009C161.621 169.493 160.467 168.73 159.494 167.765C158.522 166.801 157.749 165.653 157.222 164.387C156.695 163.122 156.422 161.765 156.421 160.394ZM161.032 155.255C161.245 155.255 161.449 155.214 161.666 155.218C162.751 155.23 163.804 155.585 164.676 156.233C165.547 156.881 166.192 157.788 166.518 158.824C166.524 158.872 166.54 158.917 166.565 158.958C166.59 158.998 166.623 159.033 166.663 159.06C166.702 159.087 166.747 159.105 166.794 159.113C166.84 159.122 166.889 159.12 166.935 159.108C169.365 159.108 171.791 159.108 174.221 159.108C174.298 159.112 174.374 159.112 174.451 159.108C174.188 157.536 173.448 156.083 172.332 154.947C171.215 153.811 169.776 153.047 168.21 152.759C165.309 152.212 162.458 153.456 161.032 155.255ZM161.032 165.537C162.474 167.366 165.484 168.726 168.652 167.958C171.612 167.236 174.263 164.377 174.413 161.726C174.355 161.722 174.296 161.722 174.238 161.726C171.77 161.726 169.302 161.726 166.835 161.726C166.635 161.726 166.585 161.813 166.53 161.976C166.279 162.803 165.822 163.553 165.202 164.156C164.582 164.758 163.82 165.193 162.987 165.42C162.351 165.614 161.678 165.654 161.024 165.537H161.032Z" fill="white"/>
<path d="M184.697 161.868C183.03 163.028 181.308 161.868 181.362 160.319C181.383 159.866 181.56 159.434 181.865 159.098C182.169 158.762 182.581 158.542 183.03 158.478C184.705 158.248 186.048 160.156 184.697 161.868Z" fill="white"/>
<path d="M192.622 161.868C190.955 163.028 189.237 161.868 189.287 160.319C189.306 159.865 189.483 159.432 189.788 159.096C190.093 158.76 190.506 158.541 190.955 158.478C192.63 158.248 193.973 160.156 192.622 161.868Z" fill="white"/>
<path d="M147.963 162.344C147.578 162.348 147.2 162.237 146.878 162.025C146.555 161.814 146.303 161.511 146.153 161.155C146.003 160.8 145.962 160.408 146.035 160.029C146.109 159.65 146.293 159.301 146.565 159.027C146.836 158.754 147.183 158.567 147.561 158.491C147.939 158.415 148.331 158.454 148.687 158.602C149.043 158.749 149.347 159 149.56 159.322C149.774 159.643 149.887 160.021 149.885 160.407C149.884 160.918 149.682 161.408 149.322 161.771C148.962 162.133 148.474 162.339 147.963 162.344Z" fill="white"/>
<path d="M12.952 55.5059H11.3846V47.5744H1.57158V55.5059H0V39.0459H1.57158V46.201H11.3846V39.0459H12.952V55.5059Z" fill="white"/>
<path d="M29.8103 55.506H28.0803L26.0918 50.3296H18.5883L16.5415 55.506H14.874L21.5438 39H23.253L29.8103 55.506ZM22.3776 40.4778L19.0427 49.0564H25.6083L22.3776 40.4778Z" fill="white"/>
<path d="M44.6795 55.5059H43.1121V40.3859H33.2991V55.5059H31.7275V39.0459H44.6795V55.5059Z" fill="white"/>
<path d="M55.5808 39.0459C58.6531 39.0459 60.7541 40.5946 60.7541 43.6671C60.7541 46.8814 58.6698 48.4761 55.535 48.4761H50.1157V55.5059H48.5483V39.0459H55.5808ZM50.1074 47.1611H55.1098C57.3734 47.1611 59.195 46.2344 59.195 43.784C59.195 41.4254 57.6235 40.3859 55.2724 40.3859H50.1074V47.1611Z" fill="white"/>
<path d="M63.9388 55.5059H61.9087L67.5655 48.2005C64.6808 48.1087 62.8091 46.4431 62.8091 43.6086C62.8091 40.6864 64.7725 39.0542 67.8115 39.0542H74.7189V55.5142H73.1473V48.2089H69.6123L63.9388 55.5059ZM73.1307 40.3859H68.1283C65.8189 40.3859 64.3765 41.4712 64.3765 43.6002C64.3765 45.7292 65.8314 46.8605 68.1283 46.8605H73.1307V40.3859Z" fill="white"/>
<path d="M78.6541 55.5059H76.624L84.0734 46.1175L77.2368 39.0459H79.3628L87.4917 47.6913V39.0459H89.0591V47.6913L97.1879 39.0459H99.3139L92.4774 46.1175L99.8892 55.5059H97.8299L91.3393 47.2738L89.0299 49.6783V55.5226H87.4625V49.6783L85.1531 47.2738L78.6541 55.5059Z" fill="white"/>
<path d="M113.216 40.3859H103.383V46.3262H112.595V47.6454H103.383V54.1659H113.308V55.5059H101.811V39.0459H113.216V40.3859Z" fill="white"/>
<path d="M128.894 55.5059H127.323V47.5744H117.51V55.5059H115.942V39.0459H117.51V46.201H127.323V39.0459H128.894V55.5059Z" fill="white"/>
<path d="M132.684 39.0459H134.255V53.8194L143.58 39.0459H145.615V55.5059H144.043V40.7324L134.714 55.5059H132.684V39.0459Z" fill="white"/>
<path d="M160.809 40.3859H150.971V46.3262H160.184V47.6454H150.971V54.1659H160.901V55.5059H149.4V39.0459H160.809V40.3859Z" fill="white"/>
<path d="M235.688 39.0459L241.066 50.0248L246.402 39.0459H248.069L241.512 52.6381C240.149 55.46 239.011 55.8524 237.402 55.8524C236.808 55.8448 236.223 55.7021 235.692 55.435V54.0908C236.255 54.4057 236.896 54.5507 237.539 54.5082C238.694 54.5082 239.432 53.3978 239.986 52.2415L240.195 51.824L234 39.0459H235.688Z" fill="white"/>
<path d="M259.379 55.506V40.3859H252.751L252.45 50.0749C252.359 53.3811 251.483 55.8524 248.986 55.8524C248.415 55.8587 247.847 55.7493 247.319 55.531V54.2369C247.834 54.4307 248.382 54.5242 248.932 54.5124C250.112 54.5124 250.804 53.3561 250.941 49.1482L251.267 39.0459H260.942V55.506H259.379Z" fill="white"/>
<path d="M264.527 39.0459L269.917 50.0248L275.248 39.0459H276.916L270.334 52.6381C268.97 55.46 267.832 55.8524 266.223 55.8524C265.629 55.8444 265.045 55.7016 264.514 55.435V54.0908C265.077 54.4057 265.718 54.5507 266.361 54.5082C267.516 54.5082 268.258 53.3978 268.812 52.2415L269.02 51.824L262.83 39.0459H264.527Z" fill="white"/>
<path d="M283.648 48.3383C278.938 48.3383 278.337 45.7961 278.337 43.6003V39.0459H279.921V43.5084C279.921 44.8485 280.201 46.9733 283.502 46.9733C285.26 46.9309 287.009 46.7071 288.721 46.3054V39.0459H290.289V55.5059H288.721V47.6454C287.055 48.0291 285.357 48.2611 283.648 48.3383Z" fill="white"/>
<path d="M294.062 39.0459H295.633V54.1659H303.683V39.0459H305.254V54.1659H313.271V39.0459H314.838V55.5059H294.062V39.0459Z" fill="white"/>
<path d="M331.7 55.506H329.97L327.982 50.3296H320.478L318.469 55.506H316.802L323.472 39H325.202L331.7 55.506ZM324.268 40.4778L320.933 49.0564H327.49L324.268 40.4778Z" fill="white"/>
<path d="M345.048 40.3859H335.21V46.3262H344.423V47.6454H335.21V54.1659H345.14V55.5059H333.643V39.0459H345.048V40.3859Z" fill="white"/>
<path d="M359.126 40.3859H353.336V55.5059H351.768V40.3859H345.995V39.0459H359.126V40.3859Z" fill="white"/>
<mask id="path-84-inside-1" fill="white">
<path d="M213.775 56.9192C208.927 56.9192 201.784 55.6668 193.935 53.2957C182.51 49.8267 173.586 45.1012 172.187 41.8033C172.08 41.5843 172.017 41.3403 172.003 41.0895C171.989 40.8387 172.025 40.5876 172.107 40.3548C173.31 37.2197 184.771 37.9586 198.194 42.0246C209.618 45.4936 218.56 50.2191 219.941 53.517C220.049 53.7359 220.112 53.9799 220.125 54.2307C220.139 54.4815 220.104 54.7327 220.021 54.9655C219.52 56.2846 217.238 56.9192 213.775 56.9192ZM178.197 38.8436C174.996 38.8436 172.877 39.3863 172.441 40.5134C172.379 40.6912 172.354 40.8831 172.366 41.0741C172.379 41.2652 172.429 41.4504 172.514 41.6155C173.829 44.7589 182.877 49.4969 194.026 52.8866C206.842 56.7772 218.593 57.6539 219.691 54.8027C219.75 54.6242 219.775 54.4324 219.762 54.2417C219.748 54.0509 219.698 53.866 219.614 53.7006C218.299 50.5572 209.251 45.8192 198.103 42.4295C190.374 40.0959 183.048 38.8436 178.197 38.8436Z"/>
</mask>
<path d="M213.775 56.9192C208.927 56.9192 201.784 55.6668 193.935 53.2957C182.51 49.8267 173.586 45.1012 172.187 41.8033C172.08 41.5843 172.017 41.3403 172.003 41.0895C171.989 40.8387 172.025 40.5876 172.107 40.3548C173.31 37.2197 184.771 37.9586 198.194 42.0246C209.618 45.4936 218.56 50.2191 219.941 53.517C220.049 53.7359 220.112 53.9799 220.125 54.2307C220.139 54.4815 220.104 54.7327 220.021 54.9655C219.52 56.2846 217.238 56.9192 213.775 56.9192ZM178.197 38.8436C174.996 38.8436 172.877 39.3863 172.441 40.5134C172.379 40.6912 172.354 40.8831 172.366 41.0741C172.379 41.2652 172.429 41.4504 172.514 41.6155C173.829 44.7589 182.877 49.4969 194.026 52.8866C206.842 56.7772 218.593 57.6539 219.691 54.8027C219.75 54.6242 219.775 54.4324 219.762 54.2417C219.748 54.0509 219.698 53.866 219.614 53.7006C218.299 50.5572 209.251 45.8192 198.103 42.4295C190.374 40.0959 183.048 38.8436 178.197 38.8436Z" fill="white"/>
<path d="M193.935 53.2957L193.063 56.1663L193.067 56.1675L193.935 53.2957ZM172.187 41.8033L174.949 40.6317L174.917 40.5563L174.881 40.4827L172.187 41.8033ZM172.107 40.3548L169.306 39.2802L169.292 39.3167L169.279 39.3535L172.107 40.3548ZM198.194 42.0246L199.065 39.154L199.063 39.1534L198.194 42.0246ZM219.941 53.517L217.174 54.6756L217.208 54.7577L217.248 54.8375L219.941 53.517ZM220.021 54.9655L222.825 56.0315L222.838 55.9993L222.849 55.9667L220.021 54.9655ZM172.441 40.5134L169.644 39.431L169.625 39.4775L169.609 39.5247L172.441 40.5134ZM172.514 41.6155L175.282 40.4574L175.237 40.3498L175.183 40.246L172.514 41.6155ZM194.026 52.8866L193.153 55.7569L193.154 55.7572L194.026 52.8866ZM219.691 54.8027L222.49 55.8803L222.514 55.8194L222.534 55.7576L219.691 54.8027ZM219.614 53.7006L216.847 54.8587L216.889 54.959L216.938 55.056L219.614 53.7006ZM198.103 42.4295L198.975 39.5592L198.97 39.5575L198.103 42.4295ZM213.775 53.9192C209.337 53.9192 202.507 52.7516 194.802 50.4239L193.067 56.1675C201.06 58.5821 208.518 59.9192 213.775 59.9192V53.9192ZM194.806 50.4251C189.231 48.7323 184.33 46.7508 180.704 44.8332C178.886 43.8724 177.454 42.9612 176.433 42.1518C175.339 41.2842 175 40.7531 174.949 40.6317L169.425 42.9749C170.073 44.5024 171.375 45.7988 172.705 46.8531C174.108 47.9656 175.882 49.071 177.899 50.1374C181.941 52.2744 187.214 54.3901 193.063 56.1663L194.806 50.4251ZM174.881 40.4827C174.956 40.6356 174.991 40.7859 174.998 40.9242L169.007 41.2548C169.043 41.8948 169.204 42.5331 169.493 43.1239L174.881 40.4827ZM174.998 40.9242C175.006 41.0625 174.987 41.2083 174.935 41.356L169.279 39.3535C169.062 39.9668 168.972 40.6149 169.007 41.2548L174.998 40.9242ZM174.908 41.4293C174.614 42.1947 174.108 41.9353 175.425 41.6561C176.497 41.4289 178.154 41.3406 180.376 41.4831C184.776 41.7654 190.763 42.9082 197.324 44.8957L199.063 39.1534C192.202 37.0749 185.746 35.8153 180.76 35.4954C178.288 35.3369 176.016 35.3976 174.181 35.7865C172.592 36.1234 170.201 36.9473 169.306 39.2802L174.908 41.4293ZM197.322 44.8951C202.897 46.5882 207.803 48.5698 211.432 50.4874C213.25 51.4483 214.683 52.3591 215.702 53.1678C216.21 53.5706 216.578 53.9192 216.831 54.2049C216.955 54.3456 217.041 54.4592 217.097 54.5444C217.125 54.5864 217.144 54.6188 217.157 54.6417C217.169 54.6645 217.174 54.6758 217.174 54.6756L222.708 52.3583C222.065 50.8222 220.76 49.5219 219.432 48.4678C218.029 47.3545 216.253 46.2488 214.235 45.1825C210.192 43.0456 204.914 40.93 199.065 39.154L197.322 44.8951ZM217.248 54.8375C217.173 54.6847 217.138 54.5344 217.13 54.396L223.121 54.0654C223.086 53.4254 222.925 52.7872 222.635 52.1964L217.248 54.8375ZM217.13 54.396C217.122 54.2577 217.141 54.112 217.193 53.9643L222.849 55.9667C223.066 55.3534 223.156 54.7053 223.121 54.0654L217.13 54.396ZM217.217 53.8995C217.468 53.2385 217.912 53.3312 217.137 53.5663C216.473 53.768 215.368 53.9192 213.775 53.9192V59.9192C215.644 59.9192 217.412 59.753 218.88 59.3077C220.237 58.8958 222.073 58.0117 222.825 56.0315L217.217 53.8995ZM178.197 35.8436C176.471 35.8436 174.832 35.9853 173.471 36.3677C172.282 36.7016 170.4 37.475 169.644 39.431L175.239 41.5958C175.072 42.0285 174.807 42.2271 174.754 42.2629C174.714 42.2902 174.794 42.2281 175.094 42.144C175.702 41.9732 176.722 41.8436 178.197 41.8436V35.8436ZM169.609 39.5247C169.412 40.0893 169.334 40.6849 169.373 41.2715L175.36 40.8767C175.373 41.0812 175.347 41.2932 175.274 41.5021L169.609 39.5247ZM169.373 41.2715C169.411 41.8579 169.567 42.4436 169.845 42.9849L175.183 40.246C175.292 40.4571 175.346 40.6725 175.36 40.8767L169.373 41.2715ZM169.747 42.7735C170.385 44.2993 171.715 45.5784 173.021 46.594C174.416 47.6792 176.185 48.7656 178.19 49.8161C182.21 51.9219 187.44 54.0198 193.153 55.7569L194.898 50.0163C189.463 48.3637 184.595 46.3977 180.975 44.5012C179.16 43.5506 177.724 42.6512 176.704 41.8581C176.196 41.4627 175.831 41.1241 175.584 40.8514C175.327 40.5666 175.271 40.4334 175.282 40.4574L169.747 42.7735ZM193.154 55.7572C199.72 57.7506 206.083 58.9953 211.029 59.3645C213.481 59.5475 215.735 59.5276 217.543 59.2073C218.443 59.0478 219.38 58.7892 220.213 58.3442C221.044 57.8997 222.007 57.1367 222.49 55.8803L216.891 53.7251C217.1 53.1815 217.455 53.0147 217.384 53.0528C217.314 53.0905 217.052 53.2008 216.496 53.2993C215.392 53.4949 213.701 53.5473 211.476 53.3811C207.068 53.0521 201.147 51.9133 194.897 50.016L193.154 55.7572ZM222.534 55.7576C222.722 55.1993 222.794 54.6123 222.754 54.0345L216.769 54.4489C216.755 54.2525 216.779 54.049 216.847 53.8478L222.534 55.7576ZM222.754 54.0345C222.714 53.4565 222.561 52.8797 222.291 52.3453L216.938 55.056C216.835 54.8524 216.782 54.6454 216.769 54.4489L222.754 54.0345ZM222.382 52.5425C221.743 51.0168 220.413 49.7377 219.108 48.7221C217.713 47.6369 215.943 46.5505 213.938 45.5C209.918 43.3942 204.688 41.2963 198.975 39.5592L197.23 45.2997C202.665 46.9523 207.533 48.9184 211.154 50.8148C212.968 51.7655 214.404 52.6649 215.424 53.458C215.932 53.8534 216.297 54.192 216.544 54.4647C216.802 54.7495 216.857 54.8827 216.847 54.8587L222.382 52.5425ZM198.97 39.5575C191.084 37.1766 183.448 35.8436 178.197 35.8436V41.8436C182.648 41.8436 189.664 43.0153 197.236 45.3014L198.97 39.5575Z" fill="white" mask="url(#path-84-inside-1)"/>
<mask id="path-86-inside-2" fill="white">
<path d="M180.228 56.5017C176.765 56.5017 174.479 55.8672 173.978 54.5606C173.895 54.3278 173.86 54.0766 173.874 53.8258C173.887 53.575 173.95 53.331 174.058 53.112C175.438 49.8142 184.381 45.0886 195.805 41.6196C209.232 37.5411 220.689 36.8023 221.892 39.9498C221.975 40.1832 222.011 40.4351 221.997 40.6867C221.983 40.9383 221.92 41.183 221.812 41.4025C220.431 44.6962 211.489 49.4218 200.068 52.8949C192.237 55.2744 185.075 56.5017 180.228 56.5017ZM215.802 38.4261C210.951 38.4261 203.618 39.6785 195.9 42.0246C184.752 45.4101 175.704 50.1481 174.385 53.2957C174.301 53.4613 174.251 53.6464 174.239 53.8372C174.226 54.028 174.251 54.2196 174.312 54.3978C175.402 57.2531 187.161 56.3765 199.973 52.4817C211.122 49.0962 220.169 44.3539 221.485 41.2105C221.57 41.0463 221.621 40.862 221.634 40.6717C221.647 40.4814 221.622 40.2902 221.561 40.1126C221.125 38.9939 219.003 38.4261 215.809 38.4261H215.802Z"/>
</mask>
<path d="M180.228 56.5017C176.765 56.5017 174.479 55.8672 173.978 54.5606C173.895 54.3278 173.86 54.0766 173.874 53.8258C173.887 53.575 173.95 53.331 174.058 53.112C175.438 49.8142 184.381 45.0886 195.805 41.6196C209.232 37.5411 220.689 36.8023 221.892 39.9498C221.975 40.1832 222.011 40.4351 221.997 40.6867C221.983 40.9383 221.92 41.183 221.812 41.4025C220.431 44.6962 211.489 49.4218 200.068 52.8949C192.237 55.2744 185.075 56.5017 180.228 56.5017ZM215.802 38.4261C210.951 38.4261 203.618 39.6785 195.9 42.0246C184.752 45.4101 175.704 50.1481 174.385 53.2957C174.301 53.4613 174.251 53.6464 174.239 53.8372C174.226 54.028 174.251 54.2196 174.312 54.3978C175.402 57.2531 187.161 56.3765 199.973 52.4817C211.122 49.0962 220.169 44.3539 221.485 41.2105C221.57 41.0463 221.621 40.862 221.634 40.6717C221.647 40.4814 221.622 40.2902 221.561 40.1126C221.125 38.9939 219.003 38.4261 215.809 38.4261H215.802Z" fill="white"/>
<path d="M173.978 54.5606L171.15 55.5618L171.163 55.5988L171.177 55.6355L173.978 54.5606ZM174.058 53.112L176.751 54.4326L176.791 54.3527L176.825 54.2707L174.058 53.112ZM195.805 41.6196L196.677 44.4902L196.677 44.4901L195.805 41.6196ZM221.892 39.9498L224.718 38.9446L224.707 38.9116L224.694 38.879L221.892 39.9498ZM221.812 41.4025L219.12 40.079L219.08 40.1597L219.045 40.2427L221.812 41.4025ZM200.068 52.8949L200.94 55.7654L200.941 55.7652L200.068 52.8949ZM195.9 42.0246L196.772 44.8951L196.772 44.8949L195.9 42.0246ZM174.385 53.2957L177.064 54.6452L177.111 54.5518L177.152 54.4552L174.385 53.2957ZM174.312 54.3978L171.473 55.366L171.49 55.4172L171.509 55.4678L174.312 54.3978ZM199.973 52.4817L199.102 49.6111L199.101 49.6114L199.973 52.4817ZM221.485 41.2105L218.819 39.8352L218.764 39.9418L218.717 40.0524L221.485 41.2105ZM221.561 40.1126L224.399 39.1386L224.379 39.0805L224.356 39.0232L221.561 40.1126ZM180.228 53.5017C178.635 53.5017 177.527 53.3508 176.859 53.149C176.074 52.9121 176.522 52.8172 176.779 53.4857L171.177 55.6355C171.935 57.6106 173.777 58.4862 175.125 58.8932C176.591 59.3354 178.358 59.5017 180.228 59.5017V53.5017ZM176.806 53.5593C176.858 53.707 176.877 53.8528 176.869 53.9911L170.878 53.6605C170.843 54.3004 170.933 54.9485 171.15 55.5618L176.806 53.5593ZM176.869 53.9911C176.861 54.1293 176.826 54.2796 176.751 54.4326L171.364 51.7914C171.074 52.3824 170.913 53.0207 170.878 53.6605L176.869 53.9911ZM176.825 54.2707C176.825 54.2709 176.83 54.2596 176.842 54.2367C176.854 54.2139 176.874 54.1815 176.902 54.1395C176.958 54.0543 177.044 53.9407 177.168 53.7999C177.421 53.5143 177.789 53.1657 178.296 52.7629C179.316 51.9542 180.748 51.0434 182.567 50.0824C186.196 48.1649 191.101 46.1832 196.677 44.4902L194.934 38.7491C189.085 40.525 183.807 42.6407 179.764 44.7776C177.746 45.8439 175.97 46.9496 174.567 48.0629C173.239 49.1169 171.934 50.4173 171.29 51.9534L176.825 54.2707ZM196.677 44.4901C203.24 42.4966 209.226 41.351 213.625 41.0688C215.846 40.9263 217.501 41.0154 218.571 41.2434C219.884 41.5231 219.38 41.7818 219.089 41.0207L224.694 38.879C223.802 36.5441 221.415 35.7148 219.822 35.3752C217.986 34.984 215.712 34.9225 213.24 35.0811C208.253 35.4011 201.797 36.6642 194.933 38.7491L196.677 44.4901ZM219.065 40.9551C219.013 40.8069 218.994 40.6607 219.001 40.5219L224.992 40.8516C225.028 40.2096 224.937 39.5595 224.718 38.9446L219.065 40.9551ZM219.001 40.5219C219.009 40.3832 219.044 40.2324 219.12 40.079L224.504 42.7261C224.795 42.1337 224.957 41.4934 224.992 40.8516L219.001 40.5219ZM219.045 40.2427C219.045 40.2423 219.041 40.2534 219.028 40.2762C219.016 40.2989 218.997 40.3312 218.969 40.3731C218.912 40.4582 218.827 40.5717 218.702 40.7123C218.45 40.9977 218.081 41.3462 217.574 41.7489C216.554 42.5573 215.121 43.468 213.303 44.4291C209.674 46.3469 204.769 48.3296 199.195 50.0247L200.941 55.7652C206.787 53.9871 212.064 51.8705 216.107 49.7338C218.124 48.6676 219.899 47.5623 221.302 46.4498C222.63 45.3967 223.935 44.0973 224.579 42.5624L219.045 40.2427ZM199.196 50.0245C191.522 52.3564 184.672 53.5017 180.228 53.5017V59.5017C185.479 59.5017 192.953 58.1924 200.94 55.7654L199.196 50.0245ZM215.802 35.4261C210.55 35.4261 202.906 36.7592 195.027 39.1542L196.772 44.8949C204.329 42.5978 211.351 41.4261 215.802 41.4261V35.4261ZM195.028 39.154C189.315 40.8891 184.085 42.9859 180.064 45.0919C178.059 46.1425 176.289 47.2291 174.893 48.315C173.586 49.3315 172.257 50.6108 171.618 52.1362L177.152 54.4552C177.142 54.4778 177.198 54.3436 177.456 54.0584C177.703 53.7852 178.069 53.4462 178.577 53.0506C179.597 52.257 181.034 51.3574 182.848 50.4069C186.469 48.5105 191.337 46.5456 196.772 44.8951L195.028 39.154ZM171.705 51.9462C171.435 52.4822 171.284 53.0606 171.245 53.6398L177.232 54.0346C177.219 54.2322 177.167 54.4404 177.064 54.6452L171.705 51.9462ZM171.245 53.6398C171.207 54.2189 171.282 54.8071 171.473 55.366L177.151 53.4296C177.221 53.6322 177.245 53.8371 177.232 54.0346L171.245 53.6398ZM171.509 55.4678C171.99 56.7273 172.953 57.493 173.785 57.9391C174.617 58.3854 175.555 58.6446 176.455 58.8045C178.264 59.1256 180.518 59.1457 182.97 58.9627C187.917 58.5935 194.281 57.3476 200.846 55.352L199.101 49.6114C192.853 51.5106 186.932 52.6504 182.523 52.9794C180.298 53.1455 178.607 53.0928 177.504 52.8969C176.949 52.7983 176.689 52.688 176.619 52.6509C176.55 52.6136 176.906 52.7821 177.115 53.3278L171.509 55.4678ZM200.845 55.3522C206.559 53.6171 211.789 51.5191 215.809 49.4126C217.814 48.3617 219.584 47.2749 220.979 46.1893C222.284 45.1734 223.614 43.8941 224.252 42.3686L218.717 40.0524C218.727 40.0286 218.672 40.1619 218.414 40.4469C218.168 40.7198 217.802 41.0585 217.294 41.454C216.274 42.2475 214.838 43.1472 213.024 44.098C209.404 45.9949 204.536 47.9608 199.102 49.6111L200.845 55.3522ZM224.151 42.5859C224.429 42.0471 224.586 41.464 224.627 40.8797L218.641 40.4637C218.655 40.2601 218.71 40.0455 218.819 39.8352L224.151 42.5859ZM224.627 40.8797C224.667 40.2956 224.592 39.702 224.399 39.1386L218.724 41.0866C218.652 40.8784 218.627 40.6673 218.641 40.4637L224.627 40.8797ZM224.356 39.0232C223.601 37.0848 221.732 36.3055 220.545 35.9657C219.183 35.5757 217.542 35.4261 215.809 35.4261V41.4261C217.27 41.4261 218.288 41.5605 218.894 41.734C219.193 41.8197 219.278 41.8833 219.243 41.8593C219.197 41.8285 218.934 41.6339 218.766 41.2021L224.356 39.0232ZM215.809 35.4261H215.802V41.4261H215.809V35.4261Z" fill="white" mask="url(#path-86-inside-2)"/>
<path d="M206.5 53C207.881 53 209 51.8807 209 50.5C209 49.1193 207.881 48 206.5 48C205.119 48 204 49.1193 204 50.5C204 51.8807 205.119 53 206.5 53Z" fill="white"/>
<path d="M7.50355 131.224C2.95557 131.224 0 127.851 0 122.65C0 118.024 2.67627 114 7.66613 114C10.8301 114 14.015 115.987 14.386 119.343H12.7936C12.285 116.889 10.2924 115.365 7.59943 115.365C3.95187 115.365 1.52572 118.287 1.52572 122.65C1.52572 127.012 3.90185 129.884 7.55357 129.884C10.8551 129.884 12.6768 127.617 13.0228 124.545H14.5694C14.2234 128.615 11.4554 131.224 7.50355 131.224Z" fill="white"/>
<path d="M29.6973 130.857H28.1258V122.9H18.3128V130.857H16.7412V114.393H18.3128V121.56H28.1258V114.393H29.6973V130.857Z" fill="white"/>
<path d="M45.859 130.857H44.129L42.1448 125.676H34.6162L32.6069 130.857H30.9395L37.6093 114.347H39.3393L45.859 130.857ZM38.4263 115.829L35.0914 124.407H41.6487L38.4263 115.829Z" fill="white"/>
<path d="M187.529 131.224C182.981 131.224 180 127.851 180 122.65C180 118.024 182.68 114 187.666 114C190.83 114 194.015 115.987 194.386 119.343H192.814C192.306 116.889 190.313 115.365 187.62 115.365C183.973 115.365 181.547 118.287 181.547 122.65C181.547 127.012 183.927 129.884 187.574 129.884C190.876 129.884 192.698 127.617 193.048 124.545H194.594C194.248 128.615 191.476 131.224 187.529 131.224Z" fill="white"/>
<path d="M209.719 130.857H208.147V115.733H198.334V130.857H196.767V114.393H209.719V130.857Z" fill="white"/>
<path d="M227.452 122.688C227.452 127.822 224.313 131.266 219.673 131.266C215.033 131.266 211.961 127.797 211.961 122.642C211.961 117.486 215.075 114.017 219.694 114.017C224.313 114.017 227.452 117.515 227.452 122.688ZM213.528 122.596C213.528 127.012 215.975 129.901 219.694 129.901C223.412 129.901 225.884 127.012 225.884 122.667C225.884 118.321 223.383 115.382 219.673 115.382C215.963 115.382 213.541 118.279 213.541 122.579L213.528 122.596Z" fill="white"/>
<path d="M236.469 131.224C231.921 131.224 228.94 127.851 228.94 122.65C228.94 118.024 231.62 114 236.606 114C239.77 114 242.955 115.987 243.326 119.343H241.754C241.246 116.889 239.253 115.365 236.56 115.365C232.913 115.365 230.487 118.287 230.487 122.65C230.487 127.012 232.867 129.884 236.514 129.884C239.816 129.884 241.638 127.617 241.988 124.545H243.534C243.18 128.615 240.408 131.224 236.469 131.224Z" fill="white"/>
<path d="M260.359 122.688C260.359 127.822 257.22 131.266 252.576 131.266C247.932 131.266 244.864 127.797 244.864 122.642C244.864 117.486 247.982 114.017 252.601 114.017C257.22 114.017 260.359 117.515 260.359 122.688ZM246.435 122.596C246.435 127.012 248.882 129.901 252.601 129.901C256.319 129.901 258.787 127.012 258.787 122.667C258.787 118.321 256.286 115.382 252.576 115.382C248.866 115.382 246.435 118.279 246.435 122.579V122.596Z" fill="white"/>
<path d="M270.38 130.857H262.597V114.393H273.986V115.733H264.169V121.331H270.38C273.406 121.331 275.274 123.18 275.274 126.094C275.274 129.007 273.406 130.857 270.38 130.857ZM270.034 122.687H264.169V129.533H270.034C272.343 129.533 273.707 128.235 273.707 126.11C273.707 123.986 272.343 122.687 270.034 122.687Z" fill="white"/>
<path d="M284.537 131.224C279.989 131.224 277.008 127.851 277.008 122.65C277.008 118.024 279.685 114 284.674 114C287.838 114 291.023 115.987 291.394 119.343H289.827C289.318 116.889 287.326 115.365 284.633 115.365C280.985 115.365 278.559 118.287 278.559 122.65C278.559 127.012 280.939 129.884 284.587 129.884C287.888 129.884 289.71 127.617 290.056 124.545H291.607C291.257 128.615 288.485 131.224 284.537 131.224Z" fill="white"/>
<path d="M304.697 115.733H298.923V130.857H297.351V115.733H291.582V114.393H304.697V115.733Z" fill="white"/>
<path d="M313.03 114.393C315.731 114.393 318.182 115.574 318.182 118.509C318.179 119.344 317.898 120.155 317.383 120.813C316.868 121.471 316.149 121.938 315.339 122.14C317.165 122.487 318.828 123.618 318.828 126.14C318.828 129.329 316.285 130.857 313.263 130.857H305.989V114.393H313.03ZM307.514 121.677H312.729C314.601 121.677 316.631 121.005 316.631 118.717C316.631 116.129 314.418 115.733 312.317 115.733H307.514V121.677ZM307.514 129.517H312.429C314.718 129.517 317.257 129.099 317.257 126.177C317.257 123.355 314.58 122.963 312.338 122.963H307.514V129.517Z" fill="white"/>
<path d="M321.021 114.393L326.403 125.376L331.734 114.393H333.402L326.84 127.989C325.477 130.811 324.339 131.203 322.73 131.203C322.136 131.197 321.551 131.054 321.021 130.786V129.446C321.584 129.758 322.225 129.903 322.868 129.863C324.022 129.863 324.76 128.753 325.315 127.597L325.523 127.158L319.337 114.393H321.021Z" fill="white"/>
<path d="M346.028 115.733H336.19V121.677H345.403V122.996H336.19V129.517H346.103V130.857H334.623V114.393H346.028V115.733Z" fill="white"/>
<path d="M359.397 115.733H353.607V130.857H352.04V115.733H346.283V114.393H359.397V115.733Z" fill="white"/>
<path d="M121.537 115.655C121.512 116.101 121.551 116.547 121.651 116.98L119.96 116.821L119.203 116.749L119.438 117.473L120.4 120.436L120.589 121.019L121.122 120.716C121.233 120.654 121.326 120.599 121.408 120.551C121.578 120.451 121.702 120.378 121.84 120.316C122.413 120.075 123.047 120.021 123.652 120.162C124.253 120.302 124.795 120.627 125.201 121.092C125.339 121.277 125.522 121.424 125.733 121.519C125.948 121.615 126.184 121.655 126.418 121.633C126.697 121.616 126.962 121.621 127.272 121.627C127.45 121.631 127.643 121.634 127.861 121.634H128.589L128.328 120.955L128.013 120.135C128.535 119.895 129.01 119.561 129.415 119.148C129.7 118.858 129.945 118.533 130.146 118.182C130.403 118.746 130.649 119.291 130.848 119.866C131.129 120.714 131.354 121.58 131.521 122.458L131.525 122.48L131.531 122.501C131.593 122.717 131.601 122.944 131.557 123.163C131.512 123.382 131.416 123.588 131.276 123.762L131.665 124.075L131.276 123.762C131.136 123.936 130.956 124.074 130.751 124.165C130.547 124.255 130.324 124.294 130.101 124.281L130.08 124.279L130.059 124.28C129.373 124.296 128.697 124.304 128.019 124.312L128.014 124.312C127.336 124.32 126.656 124.328 125.972 124.344L125.972 124.344L125.963 124.344C125.657 124.357 125.364 124.464 125.122 124.651L125.121 124.651L125.111 124.659C122.124 127.093 119.128 129.544 116.164 131.982C115.537 132.489 114.749 132.756 113.943 132.736L113.943 132.736H113.931H96.4432C95.9301 132.736 95.5485 132.625 95.2688 132.445C94.993 132.266 94.7798 131.997 94.6394 131.613L94.6396 131.613L94.6347 131.6C94.4906 131.237 94.4613 130.837 94.5507 130.456C94.6389 130.08 94.8385 129.74 95.123 129.48C95.385 129.276 95.6947 129.142 96.0227 129.092C96.6818 129.036 97.3438 129.022 98.0047 129.048C98.1905 129.065 98.3773 129.028 98.5424 128.94C98.7069 128.853 98.8422 128.72 98.9323 128.557C99.084 128.318 99.2738 128.104 99.4942 127.925C101.51 126.325 103.532 124.738 105.556 123.149C105.919 122.863 106.283 122.578 106.646 122.292L106.658 122.283L106.669 122.273C107.073 121.915 107.576 121.69 108.111 121.629C108.486 121.621 108.852 121.746 109.145 121.981L109.162 121.995L109.181 122.007C110.86 123.123 112.441 124.382 113.904 125.769L113.904 125.769L113.908 125.773C113.992 125.85 114.079 125.923 114.17 125.991L114.479 126.223L114.781 125.981L118.279 123.189L118.573 122.953L118.428 122.606C118.319 122.342 118.21 122.087 118.103 121.837C117.875 121.304 117.657 120.793 117.459 120.267L117.459 120.266C116.887 118.756 116.605 117.152 116.626 115.537L116.626 115.52L116.625 115.503C116.607 115.172 116.701 114.846 116.892 114.575C117.078 114.312 117.346 114.117 117.653 114.021C117.864 113.982 118.079 113.975 118.292 113.999L118.304 114.001L118.315 114.001C119.339 114.071 120.362 114.153 121.389 114.235C121.534 114.246 121.679 114.258 121.824 114.269C121.66 114.713 121.563 115.18 121.537 115.655L122.036 115.682L121.537 115.655ZM110.709 129.017H111.209V128.517V128.517V128.517V128.516V128.516V128.516V128.516V128.515V128.515V128.515V128.515V128.514V128.514V128.514V128.514V128.513V128.513V128.513V128.513V128.512V128.512V128.512V128.512V128.511V128.511V128.511V128.511V128.511V128.51V128.51V128.51V128.51V128.509V128.509V128.509V128.509V128.508V128.508V128.508V128.508V128.507V128.507V128.507V128.507V128.507V128.506V128.506V128.506V128.506V128.505V128.505V128.505V128.505V128.504V128.504V128.504V128.504V128.504V128.503V128.503V128.503V128.503V128.502V128.502V128.502V128.502V128.501V128.501V128.501V128.501V128.501V128.5V128.5V128.5V128.5V128.499V128.499V128.499V128.499V128.499V128.498V128.498V128.498V128.498V128.497V128.497V128.497V128.497V128.497V128.496V128.496V128.496V128.496V128.495V128.495V128.495V128.495V128.495V128.494V128.494V128.494V128.494V128.493V128.493V128.493V128.493V128.493V128.492V128.492V128.492V128.492V128.491V128.491V128.491V128.491V128.491V128.49V128.49V128.49V128.49V128.49V128.489V128.489V128.489V128.489V128.488V128.488V128.488V128.488V128.488V128.487V128.487V128.487V128.487V128.487V128.486V128.486V128.486V128.486V128.486V128.485V128.485V128.485V128.485V128.485V128.484V128.484V128.484V128.484V128.483V128.483V128.483V128.483V128.483V128.482V128.482V128.482V128.482V128.482V128.481V128.481V128.481V128.481V128.481V128.48V128.48V128.48V128.48V128.48V128.479V128.479V128.479V128.479V128.479V128.478V128.478V128.478V128.478V128.478V128.477V128.477V128.477V128.477V128.477V128.477V128.476V128.476V128.476V128.476V128.476V128.475V128.475V128.475V128.475V128.475V128.474V128.474V128.474V128.474V128.474V128.473V128.473V128.473V128.473V128.473V128.473V128.472V128.472V128.472V128.472V128.472V128.471V128.471V128.471V128.471V128.471V128.47V128.47V128.47V128.47V128.47V128.47V128.469V128.469V128.469V128.469V128.469V128.468V128.468V128.468V128.468V128.468V128.468V128.467V128.467V128.467V128.467V128.467V128.467V128.466V128.466V128.466V128.466V128.466V128.466V128.465V128.465V128.465V128.465V128.465V128.464V128.464V128.464V128.464V128.464V128.464V128.463V128.463V128.463V128.463V128.463V128.463V128.462V128.462V128.462V128.462V128.462V128.462V128.461V128.461V128.461V128.461V128.461V128.461V128.46V128.46V128.46V128.46V128.46V128.46V128.46V128.459V128.459V128.459V128.459V128.459V128.459V128.458V128.458V128.458V128.458V128.458V128.458V128.457V128.457V128.457V128.457V128.457V128.457V128.457V128.456V128.456V128.456V128.456V128.456V128.456V128.455V128.455V128.455V128.455V128.455V128.455V128.455V128.454V128.454V128.454V128.454V128.454V128.454V128.454V128.453V128.453V128.453V128.453V128.453V128.453V128.453V128.452V128.452V128.452V128.452V128.452V128.452V128.452V128.451V128.451V128.451V128.451V128.451V128.451V128.451V128.451V128.45V128.45V128.45V128.45V128.45V128.45V128.45V128.449V128.449V128.449V128.449V128.449V128.449V128.449V128.449V128.448V128.448V128.448V128.448V128.448V128.448V128.448V128.448V128.447V128.447V128.447V128.447V128.447V128.447V128.447V128.447V128.446V128.446V128.446V128.446V128.446V128.446V128.446V128.446V128.445V128.445V128.445V128.445V128.445V128.445V128.445V128.445V128.445V128.444V128.444V128.444V128.444V128.444V128.444V128.444V128.444V128.444V128.443V128.443V128.443V128.443V128.443V128.443V128.443V128.443V128.443V128.442V128.442V128.442V128.442V128.442V128.442V128.442V128.442V128.442V128.441V128.441V128.441V128.441V128.441V128.441V128.441V128.441V128.441V128.441V128.441V128.44V128.44V128.44V128.44V128.44V128.44V128.44V128.44V128.44V128.44V128.439V128.439V128.439V128.439V128.439V128.439V128.439V128.439V128.439V128.439V128.439V128.438V128.438V128.438V128.438V128.438V128.438V128.438V128.438V128.438V128.438V128.438V128.438V128.437V128.437V128.437V128.437V128.437V128.437V128.437V128.437V128.437V128.437V128.437V128.437V128.437V128.436V128.436V128.436V128.436V128.436V128.436V128.436V128.436V128.436V128.436V128.436V128.436V128.436V128.436V128.436V128.435V128.435V128.435V128.435V128.435V128.435V128.435V128.435V128.435V128.435V128.435V128.435V128.435V128.435V128.435V128.435V128.434V128.434V128.434V128.434V128.434V128.434V128.434V128.434V128.197L111.026 128.047C110.22 127.388 109.412 126.731 108.589 126.083L108.52 126.029L108.437 126.001C108.311 125.959 108.177 125.948 108.046 125.967C107.915 125.987 107.79 126.037 107.682 126.114L107.682 126.114L107.673 126.12C107.293 126.402 106.924 126.695 106.56 126.984C106.507 127.026 106.454 127.068 106.401 127.11C106.4 127.111 106.4 127.111 106.4 127.111L105.109 128.124L103.969 129.017H105.417H110.709Z" stroke="white"/>
<path d="M129.858 115.655C129.857 116.377 129.642 117.082 129.241 117.682C128.839 118.282 128.269 118.749 127.603 119.024C126.936 119.3 126.203 119.371 125.496 119.228C124.789 119.086 124.14 118.737 123.631 118.226C123.122 117.714 122.776 117.063 122.637 116.355C122.498 115.646 122.571 114.912 122.849 114.246C123.126 113.579 123.595 113.01 124.195 112.61C124.796 112.211 125.501 111.998 126.222 112C127.185 112.012 128.105 112.401 128.785 113.085C129.464 113.768 129.85 114.69 129.858 115.655Z" fill="white"/>
<path d="M157.124 123.673C157.158 123.819 157.198 123.981 157.243 124.157C157.018 123.935 156.824 123.742 156.662 123.579C156.806 123.606 156.96 123.638 157.124 123.673ZM157.124 123.673C157.263 123.703 157.409 123.735 157.562 123.77C157.415 123.625 157.282 123.493 157.164 123.374M157.124 123.673C157.101 123.578 157.081 123.489 157.063 123.407C157.096 123.396 157.13 123.385 157.164 123.374M157.164 123.374C157.286 123.334 157.415 123.295 157.55 123.255C157.508 123.245 157.465 123.236 157.424 123.226L157.093 123.303C157.116 123.326 157.14 123.35 157.164 123.374ZM157.109 122.648C157.244 122.676 157.385 122.706 157.533 122.739C157.368 122.786 157.211 122.834 157.063 122.881L156.807 122.776L156.81 122.767L156.958 122.834C157.008 122.772 157.058 122.71 157.109 122.648ZM157.109 122.648C157.222 122.51 157.338 122.375 157.456 122.241C157.337 122.275 157.221 122.309 157.109 122.343M157.109 122.648C157.023 122.63 156.939 122.614 156.858 122.598L156.864 122.575L157.06 122.609C157.075 122.524 157.091 122.435 157.109 122.343M157.109 122.343C157.146 122.156 157.188 121.953 157.237 121.735C157.17 121.809 157.104 121.883 157.039 121.958L156.913 122.404C156.977 122.384 157.042 122.363 157.109 122.343ZM156.39 122.584L156.392 122.586L156.426 122.62L156.631 122.704L156.634 122.687L156.399 122.581M156.39 122.584L156.391 122.584C156.394 122.583 156.397 122.582 156.399 122.581M156.39 122.584L156.378 122.571M156.39 122.584L156.363 122.595L156.295 122.567M156.399 122.581L156.378 122.571M156.399 122.581C156.453 122.561 156.508 122.541 156.564 122.521C156.564 122.521 156.565 122.521 156.566 122.52L156.491 122.461L156.416 122.495L156.338 122.53L156.378 122.571M156.378 122.571L156.318 122.544M156.295 122.567L156.318 122.544M156.295 122.567L156.277 122.56C156.276 122.559 156.275 122.559 156.275 122.559M156.295 122.567L156.26 122.602L156.21 122.652L156.019 122.724L156.009 122.679L156.275 122.559M156.318 122.544L156.327 122.535L156.312 122.542M156.318 122.544L156.312 122.542M156.312 122.542L156.21 122.495L156.141 122.464L156.106 122.491C156.12 122.496 156.133 122.502 156.146 122.507C156.19 122.524 156.233 122.542 156.275 122.559M156.312 122.542L156.275 122.559M156.184 121.873C156.153 122.019 156.126 122.157 156.102 122.288L156.003 122.187C155.962 121.977 155.915 121.748 155.863 121.501C155.977 121.631 156.084 121.754 156.184 121.873ZM156.184 121.873C156.23 121.928 156.275 121.982 156.318 122.035C156.362 121.982 156.406 121.929 156.451 121.876M156.184 121.873C156.224 121.68 156.27 121.473 156.322 121.253C156.369 121.474 156.412 121.681 156.451 121.876M156.451 121.876C156.483 122.034 156.512 122.183 156.539 122.323L156.619 122.242C156.663 122.015 156.716 121.768 156.778 121.497C156.667 121.622 156.558 121.748 156.451 121.876ZM155.508 122.262C155.476 122.097 155.44 121.921 155.401 121.734C155.534 121.882 155.656 122.023 155.769 122.157L155.817 122.378C155.717 122.34 155.614 122.301 155.508 122.262ZM155.508 122.262C155.363 122.208 155.213 122.154 155.056 122.098C155.23 122.294 155.386 122.475 155.522 122.642M155.508 122.262C155.533 122.386 155.555 122.503 155.576 122.614L155.857 122.561L155.857 122.563C155.75 122.588 155.639 122.614 155.522 122.642M155.522 122.642C155.438 122.662 155.352 122.683 155.263 122.704C155.403 122.756 155.538 122.807 155.668 122.856L155.902 122.768L155.894 122.732L155.674 122.831C155.627 122.77 155.576 122.707 155.522 122.642ZM156.449 124.073C156.491 123.904 156.531 123.752 156.569 123.618L156.585 123.564C156.585 123.564 156.585 123.564 156.586 123.564C156.638 123.802 156.708 124.086 156.793 124.416C156.668 124.292 156.553 124.178 156.449 124.073ZM156.449 124.073C156.407 124.031 156.366 123.99 156.327 123.95L156.194 124.084M156.449 124.073C156.409 124.233 156.368 124.408 156.324 124.599C156.276 124.414 156.233 124.242 156.194 124.084M156.194 124.084C156.149 123.9 156.111 123.735 156.079 123.588L156.07 123.547C156.002 123.791 155.929 124.085 155.851 124.427L156.194 124.084ZM155.499 123.365L155.022 123.278C155.094 123.26 155.164 123.243 155.232 123.226C155.333 123.264 155.431 123.301 155.526 123.337L155.499 123.365ZM155.499 123.365L155.087 123.776C155.238 123.739 155.382 123.704 155.519 123.671M155.499 123.365L155.597 123.383C155.572 123.472 155.546 123.569 155.519 123.671M155.519 123.671C155.48 123.825 155.439 123.993 155.396 124.175L156.018 123.553C155.862 123.589 155.696 123.629 155.519 123.671ZM164.406 116.372C164.619 116.376 164.828 116.43 165.016 116.53C165.207 116.631 165.372 116.776 165.496 116.953L165.507 116.967L165.518 116.981C165.849 117.387 166.031 117.894 166.031 118.418L166.031 118.42C166.032 118.668 165.978 118.914 165.873 119.138C165.756 119.368 165.586 119.566 165.376 119.715L164.406 116.372ZM164.406 116.372C164.409 116.372 164.412 116.372 164.415 116.372L164.405 115.872L164.398 116.372C164.4 116.372 164.403 116.372 164.406 116.372ZM156.717 123.449L156.61 123.473L156.623 123.428L156.628 123.411L156.644 123.407L156.697 123.395L156.717 123.449ZM156.375 122.487L156.335 122.527L156.289 122.48L156.279 122.47L156.215 122.405L156.319 122.323L156.441 122.421L156.403 122.459L156.375 122.487ZM157.964 128.533L157.482 128.664C157.482 128.667 157.483 128.67 157.484 128.672C157.485 128.675 157.485 128.678 157.486 128.68L157.964 128.533ZM157.818 133.524C157.818 133.525 157.818 133.525 157.818 133.525C157.818 133.525 157.818 133.525 157.817 133.525L158.152 133.897L157.818 133.524ZM155.45 128.643C155.45 128.643 155.45 128.643 155.45 128.642L154.963 128.533L155.45 128.644C155.45 128.644 155.45 128.644 155.45 128.643ZM154.659 132.228C154.662 132.215 154.665 132.202 154.668 132.188C154.668 132.176 154.669 132.164 154.67 132.152L154.171 132.123L154.659 132.228ZM158.506 132.128C158.506 132.15 158.506 132.173 158.505 132.195C158.513 132.22 158.52 132.245 158.528 132.269L159.006 132.123L158.506 132.128ZM156.132 123.526C156.153 123.521 156.173 123.516 156.193 123.512C156.196 123.511 156.198 123.51 156.201 123.51L156.241 123.5L156.371 123.524L156.478 123.544C156.485 123.545 156.492 123.546 156.5 123.548L156.46 123.587L156.325 123.718L156.173 123.567L156.132 123.526ZM156.053 123.466L156.054 123.472L155.995 123.455L156.053 123.466ZM149.835 129.744L149.665 129.273C149.631 129.286 149.598 129.297 149.563 129.308L149.481 129.39L149.835 129.744ZM147.641 125.896C147.658 125.884 147.676 125.872 147.694 125.86L147.417 125.444L147.576 125.918C147.597 125.911 147.619 125.904 147.641 125.896ZM146.5 127.623C146.5 127.622 146.5 127.621 146.5 127.62C146.5 127.619 146.5 127.618 146.5 127.616L146 127.615L146.5 127.623ZM148.71 129.452C148.708 129.452 148.707 129.452 148.705 129.452C148.703 129.452 148.701 129.452 148.7 129.452L148.71 129.952L148.71 129.452ZM149.533 116.661C149.545 116.668 149.557 116.675 149.568 116.683L149.835 116.26L149.499 116.63C149.51 116.64 149.521 116.651 149.533 116.661ZM149.048 116.447C149.05 116.448 149.053 116.449 149.055 116.45C149.058 116.45 149.06 116.451 149.062 116.451L149.189 115.968L149.048 116.447ZM148.542 116.384C148.543 116.384 148.544 116.384 148.544 116.384C148.545 116.384 148.545 116.384 148.546 116.384L148.543 115.884L148.542 116.384ZM146.542 118.191C146.542 118.188 146.542 118.184 146.542 118.181C146.542 118.177 146.542 118.174 146.542 118.17L146.042 118.18L146.542 118.191ZM147.654 119.66C147.646 119.656 147.638 119.652 147.631 119.647C147.622 119.644 147.613 119.64 147.604 119.637L147.417 120.101L147.654 119.66ZM158.504 113.391C158.505 113.407 158.506 113.423 158.506 113.439L159.006 113.421L158.514 113.335C158.51 113.353 158.507 113.372 158.504 113.391ZM156.571 111.5C156.573 111.5 156.575 111.5 156.577 111.5C156.579 111.5 156.581 111.5 156.584 111.5L156.588 111L156.571 111.5ZM154.777 112.823C154.777 112.823 154.777 112.823 154.777 112.823L154.316 112.628L154.777 112.823ZM154.65 113.429C154.65 113.418 154.65 113.406 154.65 113.395C154.649 113.383 154.647 113.371 154.646 113.358L154.15 113.421L154.65 113.429ZM158.841 124.079C159.822 124.329 160.794 124.587 161.75 124.849C162.705 125.111 163.547 125.356 164.282 125.576L164.282 125.576L164.29 125.579L165.485 125.915C165.702 126.015 165.886 126.177 166.013 126.38C166.145 126.592 166.21 126.84 166.198 127.09L166.197 127.1L166.197 127.11C166.195 127.388 166.138 127.664 166.029 127.92L166.027 127.923C165.908 128.21 165.749 128.479 165.556 128.722C165.377 128.944 165.155 129.127 164.903 129.259L164.902 129.259C164.659 129.387 164.389 129.453 164.115 129.452L158.841 124.079ZM158.964 123.595L158.841 124.079L158.964 123.595Z" stroke="white"/>
<path d="M11.1235 12.6729C11.1581 12.8193 11.1979 12.9807 11.243 13.1571C11.0179 12.9353 10.8239 12.7424 10.6624 12.5786C10.8061 12.6064 10.9598 12.6378 11.1235 12.6729ZM11.1235 12.6729C11.2626 12.7026 11.4089 12.735 11.5625 12.77C11.4153 12.6248 11.2823 12.4928 11.1636 12.3738M11.1235 12.6729C11.1011 12.5779 11.0809 12.4893 11.0629 12.4069C11.096 12.3959 11.1295 12.3849 11.1636 12.3738M11.1636 12.3738C11.2857 12.3342 11.4145 12.2946 11.5501 12.2546C11.5075 12.245 11.4655 12.2356 11.4239 12.2265L11.0932 12.3031C11.1161 12.3261 11.1395 12.3497 11.1636 12.3738ZM11.109 11.648C11.2437 11.6757 11.3852 11.7059 11.5333 11.7386C11.3683 11.7862 11.2115 11.8336 11.063 11.881L10.8073 11.7765L10.81 11.7671L10.9579 11.8341C11.0078 11.7717 11.0582 11.7097 11.109 11.648ZM11.109 11.648C11.2225 11.5104 11.3381 11.3745 11.4559 11.2406C11.3368 11.2747 11.2212 11.3087 11.1093 11.3428M11.109 11.648C11.0225 11.6303 10.9388 11.6135 10.8579 11.5978L10.8645 11.5745L11.0598 11.6093C11.075 11.524 11.0914 11.4352 11.1093 11.3428M11.1093 11.3428C11.1455 11.1556 11.1876 10.9534 11.2369 10.735C11.1703 10.8086 11.1043 10.8829 11.039 10.9577L10.9127 11.4041C10.9769 11.3836 11.0424 11.3632 11.1093 11.3428ZM10.3904 11.5843L10.3922 11.5862L10.4257 11.6205L10.6311 11.7044L10.6342 11.6874L10.3992 11.581M10.3904 11.5843L10.3913 11.5839C10.394 11.5829 10.3966 11.582 10.3992 11.581M10.3904 11.5843L10.3775 11.5712M10.3904 11.5843L10.3627 11.5947L10.295 11.5671M10.3992 11.581L10.3775 11.5712M10.3992 11.581C10.4528 11.5609 10.5077 11.5409 10.5638 11.5211C10.5645 11.5208 10.5651 11.5206 10.5658 11.5204L10.4911 11.4605L10.4157 11.4947L10.3376 11.5302L10.3775 11.5712M10.3775 11.5712L10.3179 11.5441M10.295 11.5671L10.3179 11.5441M10.295 11.5671L10.2773 11.5598C10.2764 11.5595 10.2755 11.5591 10.2746 11.5587M10.295 11.5671L10.26 11.6021L10.21 11.6522L10.019 11.7241L10.0086 11.6794L10.2746 11.5587M10.3179 11.5441L10.3271 11.5349L10.3123 11.5416M10.3179 11.5441L10.3123 11.5416M10.3123 11.5416L10.2097 11.4951L10.1408 11.4639L10.1064 11.4909C10.1198 11.4963 10.1332 11.5016 10.1465 11.5069C10.1899 11.5243 10.2326 11.5416 10.2746 11.5587M10.3123 11.5416L10.2746 11.5587M10.1837 10.873C10.1534 11.0187 10.1262 11.157 10.1017 11.2885L10.0031 11.1873C9.96169 10.9766 9.91512 10.7479 9.86338 10.5013C9.97743 10.6306 10.0842 10.7545 10.1837 10.873ZM10.1837 10.873C10.2301 10.9283 10.2749 10.9824 10.3181 11.0354C10.3621 10.9819 10.4063 10.9286 10.4509 10.8756M10.1837 10.873C10.224 10.6795 10.2698 10.4732 10.322 10.253C10.3688 10.4738 10.4118 10.6813 10.4509 10.8756M10.4509 10.8756C10.4827 11.0336 10.5119 11.1827 10.5386 11.3231L10.6195 11.2421C10.6635 11.0152 10.7157 10.7676 10.7783 10.4974C10.6674 10.6219 10.5582 10.748 10.4509 10.8756ZM9.50819 11.262C9.47571 11.0971 9.44001 10.921 9.40109 10.7336C9.53373 10.8823 9.65647 11.0235 9.76933 11.1572L9.81714 11.3781C9.71729 11.3399 9.6143 11.3012 9.50819 11.262ZM9.50819 11.262C9.36341 11.2084 9.21281 11.1539 9.05642 11.0984C9.2304 11.2941 9.38566 11.4753 9.52242 11.642M9.50819 11.262C9.53253 11.3855 9.55506 11.5027 9.57579 11.6136L9.85672 11.5611L9.85714 11.563C9.75047 11.5879 9.63891 11.6143 9.52242 11.642M9.52242 11.642C9.43841 11.6621 9.35183 11.6828 9.26267 11.7044C9.40341 11.756 9.53844 11.8067 9.66776 11.8563L9.90156 11.7683L9.8936 11.7315L9.67439 11.831C9.62655 11.7702 9.5759 11.7072 9.52242 11.642ZM10.4491 13.0735C10.4912 12.9039 10.5313 12.7521 10.5692 12.618L10.5846 12.5636C10.5849 12.5637 10.5852 12.5638 10.5855 12.5638C10.6385 12.8018 10.7077 13.0861 10.7933 13.4158C10.6683 13.2923 10.5534 13.1781 10.4491 13.0735ZM10.4491 13.0735C10.4066 13.0309 10.3658 12.9898 10.3269 12.9504L10.1938 13.0836M10.4491 13.0735C10.4094 13.2331 10.3678 13.4084 10.3244 13.5993C10.2761 13.4142 10.2325 13.2423 10.1938 13.0836M10.1938 13.0836C10.149 12.9004 10.1107 12.7349 10.0788 12.5876L10.07 12.5467C10.0024 12.7908 9.92939 13.0846 9.85083 13.4271L10.1938 13.0836ZM9.49854 12.3646L9.02231 12.2775C9.09377 12.26 9.16376 12.2429 9.23229 12.2262C9.33342 12.2639 9.43123 12.301 9.52572 12.3374L9.49854 12.3646ZM9.49854 12.3646L9.08732 12.7764C9.23781 12.7394 9.38179 12.7043 9.51937 12.6711M9.49854 12.3646L9.59664 12.3826C9.57154 12.4724 9.54578 12.5686 9.51937 12.6711M9.51937 12.6711C9.47972 12.825 9.4386 12.993 9.39601 13.1749L10.0176 12.5525C9.86193 12.589 9.69593 12.6285 9.51937 12.6711ZM18.4062 5.37184C18.6191 5.37618 18.828 5.43025 19.0164 5.52983C19.2074 5.63076 19.3718 5.77559 19.4963 5.95252L19.5067 5.96734L19.5182 5.98137C19.8495 6.38659 20.0306 6.89427 20.0306 7.41818L20.0306 7.42037C20.0316 7.66846 19.9777 7.91365 19.8727 8.13823C19.7562 8.36816 19.5855 8.56613 19.3756 8.71506L18.4062 5.37184ZM18.4062 5.37184C18.4091 5.37176 18.412 5.37169 18.4149 5.37163L18.4046 4.87174L18.3975 5.37169C18.4004 5.37173 18.4033 5.37178 18.4062 5.37184ZM10.7172 12.4495L10.6104 12.4726L10.6231 12.4276L10.6278 12.4109L10.6441 12.4071L10.6967 12.3949L10.7172 12.4495ZM10.3746 11.4874L10.3347 11.5273L10.2889 11.4803L10.2793 11.4705L10.2155 11.4051L10.3195 11.3232L10.4412 11.4207L10.403 11.459L10.3746 11.4874ZM11.964 17.533L11.4815 17.6643C11.4823 17.667 11.483 17.6697 11.4838 17.6724C11.4846 17.6751 11.4854 17.6777 11.4862 17.6804L11.964 17.533ZM11.8183 22.5245C11.8182 22.5246 11.818 22.5248 11.8179 22.5249C11.8177 22.5251 11.8175 22.5252 11.8173 22.5254L12.1516 22.8972L11.8183 22.5245ZM9.4503 17.6432C9.45035 17.6429 9.4504 17.6427 9.45045 17.6425L8.96259 17.533L9.45005 17.6443C9.45013 17.6439 9.45021 17.6435 9.4503 17.6432ZM8.65934 21.2283C8.66221 21.215 8.66509 21.2016 8.66796 21.1883C8.66842 21.1762 8.669 21.1642 8.6697 21.1521L8.17054 21.1231L8.65934 21.2283ZM12.5062 21.1279C12.5064 21.1504 12.5061 21.1728 12.5054 21.1952C12.5129 21.2199 12.5205 21.2447 12.5281 21.2694L13.0062 21.1231L12.5062 21.1279ZM10.1321 12.5257C10.1526 12.521 10.173 12.5162 10.1932 12.5116C10.1958 12.511 10.1983 12.5104 10.2009 12.5098L10.2411 12.5005L10.3714 12.5243L10.4776 12.5437C10.485 12.5451 10.4924 12.5464 10.4999 12.5478L10.4597 12.587L10.325 12.7184L10.1735 12.5671L10.1321 12.5257ZM10.0525 12.466L10.0538 12.4721L9.99452 12.4554L10.0525 12.466ZM3.83516 18.7436L3.66523 18.2734C3.63148 18.2856 3.59754 18.2971 3.56342 18.3081L3.48136 18.3903L3.83516 18.7436ZM1.64077 14.8964C1.65837 14.8843 1.6761 14.8722 1.69395 14.8604L1.41735 14.4439L1.57566 14.9181C1.59737 14.9109 1.61908 14.9037 1.64077 14.8964ZM0.499932 16.6235C0.499954 16.6223 0.499976 16.6211 0.500001 16.6199C0.500002 16.6187 0.500004 16.6175 0.500008 16.6164L1.14847e-05 16.6146L0.499932 16.6235ZM2.71006 18.4523C2.70835 18.4523 2.70665 18.4523 2.70494 18.4523C2.70318 18.4523 2.70142 18.4524 2.69966 18.4524L2.70963 18.9523L2.71006 18.4523ZM3.53281 5.66089C3.5447 5.66806 3.55651 5.67536 3.56826 5.68277L3.83516 5.25997L3.49856 5.6297C3.50999 5.6401 3.52141 5.6505 3.53281 5.66089ZM3.04781 5.44739C3.05025 5.44811 3.05268 5.44883 3.05512 5.44956C3.05757 5.45019 3.06003 5.45083 3.06248 5.45147L3.18902 4.96775L3.04781 5.44739ZM2.54232 5.38426C2.54291 5.38426 2.5435 5.38426 2.54409 5.38426C2.54465 5.38426 2.54521 5.38425 2.54577 5.38425L2.54288 4.88426L2.54232 5.38426ZM0.541574 7.19133C0.541653 7.1878 0.541743 7.18427 0.541844 7.18075C0.54175 7.17732 0.541669 7.1739 0.541602 7.17048L0.0416976 7.18023L0.541574 7.19133ZM1.65388 8.65999C1.64613 8.65583 1.6384 8.65163 1.63069 8.64738C1.62194 8.64388 1.61318 8.64036 1.60444 8.63683L1.41735 9.10051L1.65388 8.65999ZM12.5037 2.39067C12.505 2.40662 12.5059 2.42262 12.5065 2.43866L13.0062 2.42131L12.5137 2.33482C12.5104 2.35345 12.5071 2.37206 12.5037 2.39067ZM10.571 0.499793C10.573 0.499864 10.575 0.499941 10.5771 0.500024C10.5792 0.500035 10.5814 0.500052 10.5835 0.500073L10.5884 9.61681e-05L10.571 0.499793ZM8.77695 1.82292C8.77698 1.82285 8.77701 1.82277 8.77704 1.8227L8.31645 1.62815L8.77695 1.82292ZM8.64965 2.42871C8.64981 2.4176 8.65009 2.4065 8.65048 2.3954C8.64888 2.38308 8.64729 2.37075 8.64573 2.35842L8.1497 2.42131L8.64965 2.42871ZM12.8412 13.0791C13.8217 13.3288 14.7942 13.5868 15.7503 13.849C16.7046 14.1108 17.547 14.356 18.2818 14.5763L18.2818 14.5764L18.2898 14.5786L19.485 14.9154C19.7022 15.0153 19.8857 15.1768 20.0128 15.3803C20.1451 15.5924 20.2097 15.84 20.1979 16.0899L20.1974 16.0997L20.1973 16.1095C20.195 16.3882 20.1377 16.6636 20.0287 16.9199L20.0275 16.9229C19.9077 17.2097 19.7491 17.4787 19.5561 17.7222C19.3775 17.9442 19.155 18.1269 18.9027 18.2586L18.9017 18.2591C18.6589 18.3866 18.3888 18.4529 18.1147 18.4523L12.8412 13.0791ZM12.9645 12.5946L12.8411 13.0791L12.9645 12.5946Z" stroke="white"/>
</svg>
