<svg width="361" height="174" viewBox="0 0 361 174" fill="none" xmlns="http://www.w3.org/2000/svg">
<path d="M13.6176 19.6194H12.0548V11.7245H2.29647V19.6194H0.737793V3.27417H2.29647V10.39H12.0548V3.27417H13.6176V19.6194Z" fill="white"/>
<path d="M29.9217 19.6196H28.1889L26.2239 14.4765H18.7373L16.7392 19.6196H15.0811L21.6764 3.22876H23.4009L29.9217 19.6196ZM22.5262 4.7L19.2099 13.2166H25.7431L22.5262 4.7Z" fill="white"/>
<path d="M38.138 19.9882C33.6154 19.9882 30.6763 16.6355 30.6763 11.4716C30.6348 6.87969 33.2962 2.90112 38.2582 2.90112C41.4046 2.90112 44.5717 4.87383 44.9407 8.20587H43.3778C42.8721 5.77315 40.8906 4.25632 38.2126 4.25632C34.5812 4.25632 32.1728 7.15736 32.1728 11.4882C32.1728 15.819 34.5356 18.6496 38.167 18.6496C41.4502 18.6496 43.2618 16.4034 43.6058 13.349H45.1438C44.7997 17.4063 42.0472 19.9882 38.138 19.9882Z" fill="white"/>
<path d="M54.8355 19.6194H47.5562V3.27417H49.119V10.1621H54.8355C57.8451 10.1621 59.6939 12.0187 59.6939 14.8907C59.6939 17.7628 57.8451 19.6194 54.8355 19.6194ZM54.4914 11.4924H49.1024V18.2891H54.4914C56.788 18.2891 58.1436 17.0044 58.1436 14.8907C58.1436 12.7771 56.7922 11.4924 54.4914 11.4924ZM63.5616 3.27417V19.6194H61.9988V3.27417H63.5616Z" fill="white"/>
<path d="M66.8696 3.27417H68.4325V18.2891H76.4207V3.27417H77.9835V18.2891H85.9717V3.27417H87.5346V18.2891H89.2549V24.0373H87.6962V19.6194H66.8696V3.27417Z" fill="white"/>
<path d="M104.253 19.6196H102.529L100.556 14.4765H93.0689L91.0708 19.6196H89.4126L96.008 3.22876H97.7325L104.253 19.6196ZM96.8578 4.7L93.5414 13.2166H100.062L96.8578 4.7Z" fill="white"/>
<path d="M117.067 4.60865H107.284V10.506H116.445V11.8156H107.284V18.2891H117.158V19.6194H105.708V3.27417H117.067V4.60865Z" fill="white"/>
<path d="M130.581 4.60865H124.847V19.6194H123.289V4.60865H117.547V3.27417H130.581V4.60865Z" fill="white"/>
<path d="M209.344 3.27417C212.03 3.27417 214.463 4.44702 214.463 7.36049C214.461 8.18969 214.182 8.99435 213.67 9.64731C213.159 10.3003 212.445 10.7643 211.64 10.9661C213.452 11.31 215.106 12.4332 215.106 14.9363C215.106 18.1026 212.581 19.6194 209.572 19.6194H202.326V3.27417H209.344ZM203.843 10.506H209.033C210.89 10.506 212.913 9.8388 212.913 7.5677C212.913 4.99821 210.708 4.60865 208.618 4.60865H203.843V10.506ZM203.843 18.2891H208.734C211.006 18.2891 213.531 17.8747 213.531 14.9736C213.531 12.1721 210.869 11.7825 208.643 11.7825H203.843V18.2891Z" fill="white"/>
<path d="M217.635 3.27417H219.198V17.9451L228.483 3.27417H230.486V19.6194H228.923V4.97335L219.666 19.6194H217.635V3.27417Z" fill="white"/>
<path d="M245.061 4.60865H239.319V19.6194H237.756V4.60865H232.019V3.27417H245.061V4.60865Z" fill="white"/>
<path d="M258.011 19.6196H256.291L254.313 14.4765H246.831L244.833 19.6196H243.154L249.786 3.22876H251.507L258.011 19.6196ZM250.62 4.7L247.303 13.2166H253.824L250.62 4.7Z" fill="white"/>
<path d="M275.347 19.6194H273.855V9.74762C273.855 8.02772 273.926 6.32855 274.037 4.60865C273.718 5.595 273.349 6.60207 272.96 7.5677L268.139 19.6194H266.737L261.846 7.70447C261.431 6.71811 261.091 5.7069 260.768 4.69982C260.884 6.35756 260.95 8.01529 260.95 9.70204V19.6194H259.458V3.27417H261.576L266.323 14.9198C266.737 15.931 267.081 16.9629 267.45 17.9949C267.815 16.9878 268.139 15.9517 268.528 14.9653L273.213 3.27417H275.347V19.6194Z" fill="white"/>
<path d="M278.61 3.27417H280.173V17.9451L289.446 3.27417H291.469V19.6194H289.906V4.97335L280.645 19.6194H278.626L278.61 3.27417Z" fill="white"/>
<path d="M307.636 19.6194H306.073V11.7245H296.315V19.6194H294.74V3.27417H296.303V10.39H306.061V3.27417H307.624L307.636 19.6194Z" fill="white"/>
<path d="M323.94 19.6196H322.215L320.242 14.4765H312.755L310.757 19.6196H309.099L315.694 3.22876H317.415L323.94 19.6196ZM316.544 4.7L313.228 13.2166H319.749L316.544 4.7Z" fill="white"/>
<path d="M341.276 19.6194H339.784V9.74762C339.784 8.02772 339.85 6.32855 339.966 4.60865C339.643 5.595 339.278 6.60207 338.888 7.5677L334.063 19.6194H332.666L327.774 7.70447C327.36 6.71811 327.016 5.7069 326.693 4.69982C326.809 6.35756 326.879 8.01529 326.879 9.70204V19.6194H325.387V3.27417H327.488L332.252 14.9198C332.666 15.931 333.01 16.9629 333.375 17.9949C333.744 16.9878 334.063 15.9517 334.457 14.9653L339.141 3.27417H341.276V19.6194Z" fill="white"/>
<path d="M344.534 3.27417H346.097V17.9451L355.374 3.27417H357.393V19.6194H355.835V4.97335L346.557 19.6194H344.534V3.27417Z" fill="white"/>
<path d="M13.6176 57.3909H12.0548V42.376H2.29647V57.3909H0.737793V41.0291H13.6176V57.3909Z" fill="white"/>
<path d="M31.2523 49.2638C31.2523 54.3613 28.1308 57.7804 23.5128 57.7804C18.8948 57.7804 15.8438 54.3365 15.8438 49.2182C15.8438 44.1 18.9445 40.656 23.5377 40.656C28.1308 40.656 31.2523 44.1455 31.2523 49.2638ZM17.4107 49.1726C17.4107 53.5573 19.8441 56.4252 23.5418 56.4252C27.2395 56.4252 29.6936 53.5573 29.6936 49.2389C29.6936 44.9205 27.2064 42.0112 23.5169 42.0112C19.8275 42.0112 17.4107 44.904 17.4107 49.1726Z" fill="white"/>
<path d="M40.484 41.0291C43.1703 41.0291 45.6036 42.2019 45.6036 45.1154C45.6009 45.9446 45.3219 46.7492 44.8106 47.4022C44.2994 48.0551 43.5851 48.5192 42.7806 48.7209C44.5963 49.0649 46.2462 50.188 46.2462 52.6912C46.2462 55.8575 43.7216 57.3743 40.712 57.3743H33.4824V41.0291H40.484ZM34.9955 48.2775H40.1856C42.0469 48.2775 44.0657 47.6103 44.0657 45.3392C44.0657 42.7697 41.8603 42.376 39.771 42.376H34.9955V48.2775ZM34.9955 56.0606H39.8871C42.1588 56.0606 44.6875 55.6461 44.6875 52.7451C44.6875 49.9477 42.022 49.5581 39.7959 49.5581H34.9955V56.0606Z" fill="white"/>
<path d="M55.8472 57.3909H48.5679V41.0291H50.1307V47.9169H55.8472C58.8527 47.9169 60.714 49.7529 60.714 52.6456C60.714 55.5384 58.8651 57.3909 55.8472 57.3909ZM55.5032 49.2639H50.1141V56.0606H55.5032C57.7997 56.0606 59.1511 54.7717 59.1511 52.6622C59.1511 50.5527 57.7997 49.2639 55.5032 49.2639ZM64.5734 41.0291V57.3743H63.0105V41.0291H64.5734Z" fill="white"/>
<path d="M67.6494 41.0291H69.2288V56.044H77.217V41.0291H78.7633V56.044H86.7557V41.0291H88.2978V57.3743H67.6494V41.0291Z" fill="white"/>
<path d="M104.39 57.3909H102.67L100.692 52.2477H93.2097L91.1992 57.3909H89.541L96.1737 41H97.894L104.39 57.3909ZM96.9945 42.4712L93.6864 50.9754H100.207L96.9945 42.4712Z" fill="white"/>
<path d="M116.975 42.376H107.192V48.2775H116.354V49.5871H107.192V56.0606H117.067V57.3909H105.629V41.0291H116.975V42.376Z" fill="white"/>
<path d="M130.27 42.376H124.529V57.3909H122.966V42.376H117.229V41.0291H130.27V42.376Z" fill="white"/>
<path d="M149.604 47.7263L157.344 57.3909H155.346L148.502 48.7831L145.38 51.6303V57.3909H143.846V41.0291H145.384V49.8233L154.919 41.0291H156.991L149.604 47.7263Z" fill="white"/>
<path d="M172.657 49.2638C172.657 54.3613 169.535 57.7804 164.921 57.7804C160.308 57.7804 157.252 54.3365 157.252 49.2182C157.252 44.1 160.349 40.656 164.942 40.656C169.535 40.656 172.657 44.1455 172.657 49.2638ZM158.811 49.1726C158.811 53.5573 161.244 56.4252 164.942 56.4252C168.64 56.4252 171.098 53.5573 171.098 49.2389C171.098 44.9205 168.611 42.0112 164.921 42.0112C161.232 42.0112 158.811 44.904 158.811 49.1726Z" fill="white"/>
<path d="M187.746 57.3909H186.183V49.4918H176.425V57.3909H174.862V41.0291H176.425V48.1449H186.183V41.0291H187.746V57.3909Z" fill="white"/>
<path d="M203.843 61.7963V57.3909H190.822V41.0291H192.385V56.044H202.119V41.0291H203.681V56.044H205.406V61.7798L203.843 61.7963Z" fill="white"/>
<path d="M218.514 42.376H208.735V48.2775H217.896V49.5871H208.735V56.0606H218.609V57.3909H207.172V41.0291H218.514V42.376Z" fill="white"/>
<path d="M233.416 57.3909H231.858V49.4918H222.099V57.3909H220.537V41.0291H222.099V48.1449H231.858V41.0291H233.416V57.3909Z" fill="white"/>
<path d="M247.747 42.376H242.006V57.3909H240.435V42.376H234.706V41.0291H247.747V42.376Z" fill="white"/>
<path d="M256.104 41.0291C259.16 41.0291 261.249 42.5666 261.249 45.621C261.249 48.8121 259.176 50.3953 256.059 50.3953H250.67V57.3743H249.107V41.0291H256.104ZM250.666 49.0856H255.64C257.891 49.0856 259.703 48.1697 259.703 45.737C259.703 43.3955 258.144 42.3594 255.802 42.3594H250.666V49.0856Z" fill="white"/>
<path d="M274.684 57.3909H272.959L270.986 52.2477H263.5L261.501 57.3909H259.843L266.476 41H268.196L274.684 57.3909ZM267.288 42.4712L263.972 50.9879H270.497L267.288 42.4712Z" fill="white"/>
<path d="M288.936 61.7963V57.3909H275.923V41.0291H277.486V56.044H287.22V41.0291H288.782V56.044H290.503V61.7798L288.936 61.7963Z" fill="white"/>
<path d="M292.273 41.0291H293.832V55.6959L303.109 41.0291H305.132V57.3743H303.569V42.7034L294.292 57.3743H292.273V41.0291Z" fill="white"/>
<path d="M328.732 49.264C328.732 54.3616 325.607 57.7806 320.993 57.7806C316.491 57.7806 313.44 54.4652 313.324 49.492H309.742V57.3911H308.179V41.0292H309.742V48.145H313.369C313.759 43.6236 316.744 40.6396 321.013 40.6396C325.569 40.6562 328.732 44.1458 328.732 49.264ZM314.882 49.1728C314.882 53.5576 317.32 56.4254 321.013 56.4254C324.707 56.4254 327.169 53.5575 327.169 49.2391C327.169 44.9207 324.682 42.0114 320.993 42.0114C317.303 42.0114 314.866 44.9042 314.866 49.1728H314.882Z" fill="white"/>
<path d="M0.758789 78.8171H2.32161V93.484L11.6074 78.8171H13.6303V95.1624H12.0551V80.4915L2.78176 95.1624H0.758789V78.8171Z" fill="white"/>
<path d="M106.985 78.8171C110.04 78.8171 112.129 80.3547 112.129 83.4091C112.129 86.6002 110.057 88.1833 106.939 88.1833H101.563V95.1624H100.004V78.8171H106.985ZM101.563 86.8737H106.537C108.784 86.8737 110.6 85.9578 110.6 83.521C110.6 81.1836 109.037 80.1475 106.695 80.1475H101.563V86.8737Z" fill="white"/>
<path d="M125.793 95.1626H124.068L122.095 90.0195H114.608L112.61 95.1626H110.952L117.564 78.7717H119.289L125.793 95.1626ZM118.397 80.243L115.081 88.7596H121.602L118.397 80.243Z" fill="white"/>
<path d="M135 95.1624H127.265V78.8171H138.582V80.1475H128.823V85.705H135C138.01 85.705 139.867 87.541 139.867 90.4337C139.867 93.3265 138.01 95.1624 135 95.1624ZM134.656 87.0312H128.823V93.8279H134.656C136.953 93.8279 138.308 92.5432 138.308 90.4337C138.308 88.3243 136.953 87.0312 134.656 87.0312Z" fill="white"/>
<path d="M157.136 87.0311C157.136 92.1287 154.015 95.5477 149.397 95.5477C144.779 95.5477 141.728 92.1038 141.728 86.9855C141.728 81.8673 144.828 78.4233 149.421 78.4233C154.015 78.4233 157.136 81.917 157.136 87.0311ZM143.29 86.94C143.29 91.3247 145.724 94.1925 149.421 94.1925C153.119 94.1925 155.573 91.3247 155.573 87.0063C155.573 82.6879 153.086 79.7785 149.397 79.7785C145.707 79.7785 143.29 82.6713 143.29 86.9441V86.94Z" fill="white"/>
<path d="M170.431 80.1475H164.693V95.1624H163.131V80.1475H157.389V78.8171H170.431V80.1475Z" fill="white"/>
<path d="M186.092 87.0311C186.092 92.1287 182.971 95.5477 178.353 95.5477C173.735 95.5477 170.684 92.1038 170.684 86.9855C170.684 81.8673 173.784 78.4233 178.377 78.4233C182.971 78.4233 186.092 81.917 186.092 87.0311ZM172.246 86.94C172.246 91.3247 174.68 94.1925 178.377 94.1925C182.075 94.1925 184.529 91.3247 184.529 87.0063C184.529 82.6879 182.042 79.7785 178.353 79.7785C174.663 79.7785 172.246 82.6713 172.246 86.9441V86.94Z" fill="white"/>
<path d="M195.278 95.5271C190.756 95.5271 187.788 92.1784 187.788 87.0312C187.788 82.4434 190.453 78.4482 195.411 78.4482C198.557 78.4482 201.724 80.421 202.093 83.7489H200.531C200.029 81.3161 198.043 79.8034 195.365 79.8034C191.738 79.8034 189.326 82.7045 189.326 87.0312C189.326 91.3579 191.693 94.2175 195.32 94.2175C198.603 94.2175 200.419 91.9671 200.763 88.9168H202.297C201.961 92.9327 199.204 95.5271 195.278 95.5271Z" fill="white"/>
<path d="M217.577 95.1624H216.014V80.1475H206.256V95.1624H204.693V78.8171H217.577V95.1624Z" fill="white"/>
<path d="M235.46 87.0311C235.46 92.1287 232.339 95.5477 227.725 95.5477C223.111 95.5477 220.056 92.1038 220.056 86.9855C220.056 81.8673 223.152 78.4233 227.745 78.4233C232.339 78.4233 235.46 81.917 235.46 87.0311ZM221.614 86.94C221.614 91.3247 224.048 94.1925 227.745 94.1925C231.443 94.1925 233.901 91.3247 233.901 87.0063C233.901 82.6879 231.414 79.7785 227.725 79.7785C224.035 79.7785 221.594 82.6713 221.594 86.9441L221.614 86.94Z" fill="white"/>
<path d="M244.626 95.527C240.103 95.527 237.139 92.1784 237.139 87.0104C237.139 82.4226 239.805 78.4275 244.763 78.4275C247.909 78.4275 251.076 80.4002 251.445 83.7281H249.882C249.381 81.2954 247.395 79.7827 244.717 79.7827C241.09 79.7827 238.677 82.6837 238.677 87.0104C238.677 91.3371 241.044 94.1967 244.671 94.1967C247.955 94.1967 249.77 91.9463 250.114 88.8961H251.652C251.308 92.9327 248.552 95.527 244.626 95.527Z" fill="white"/>
<path d="M268.623 87.0311C268.623 92.1287 265.498 95.5477 260.884 95.5477C256.27 95.5477 253.215 92.1038 253.215 86.9855C253.215 81.8673 256.316 78.4233 260.905 78.4233C265.494 78.4233 268.623 81.917 268.623 87.0311ZM254.778 86.94C254.778 91.3247 257.211 94.1925 260.905 94.1925C264.598 94.1925 267.061 91.3247 267.061 87.0063C267.061 82.6879 264.573 79.7785 260.884 79.7785C257.194 79.7785 254.778 82.6713 254.778 86.9441V86.94Z" fill="white"/>
<path d="M278.817 95.1624H271.082V78.8171H282.399V80.1475H272.64V85.705H278.817C281.827 85.705 283.684 87.541 283.684 90.4337C283.684 93.3265 281.827 95.1624 278.817 95.1624ZM278.473 87.0312H272.64V93.8279H278.473C280.769 93.8279 282.125 92.5432 282.125 90.4337C282.125 88.3243 280.769 87.0312 278.473 87.0312Z" fill="white"/>
<path d="M299.254 95.1624H297.691V87.2633H287.933V95.1624H286.374V78.8171H287.933V85.933H297.691V78.8171H299.254V95.1624Z" fill="white"/>
<path d="M317.125 87.0311C317.125 92.1287 313.999 95.5477 309.385 95.5477C304.771 95.5477 301.716 92.1038 301.716 86.9855C301.716 81.8673 304.817 78.4233 309.41 78.4233C314.003 78.4233 317.125 81.917 317.125 87.0311ZM303.279 86.94C303.279 91.3247 305.712 94.1925 309.41 94.1925C313.108 94.1925 315.562 91.3247 315.562 87.0063C315.562 82.6879 313.075 79.7785 309.385 79.7785C305.696 79.7785 303.275 82.6713 303.275 86.9441L303.279 86.94Z" fill="white"/>
<path d="M326.307 95.527C321.78 95.527 318.82 92.1784 318.82 87.0104C318.82 82.4226 321.482 78.4275 326.444 78.4275C329.59 78.4275 332.757 80.4002 333.126 83.7281H331.563C331.058 81.2954 329.076 79.7827 326.398 79.7827C322.771 79.7827 320.358 82.6837 320.358 87.0104C320.358 91.3371 322.721 94.1967 326.353 94.1967C329.636 94.1967 331.447 91.9463 331.791 88.8961H333.329C332.985 92.9327 330.233 95.527 326.307 95.527Z" fill="white"/>
<path d="M346.582 80.1475H340.841V95.1624H339.278V80.1475H333.541V78.8171H346.582V80.1475Z" fill="white"/>
<path d="M355.379 95.1624H348.1V78.8171H349.658V85.705H355.379C358.384 85.705 360.246 87.541 360.246 90.4337C360.246 93.3265 358.384 95.1624 355.379 95.1624ZM355.031 87.0312H349.642V93.8279H355.031C357.327 93.8279 358.683 92.5432 358.683 90.4337C358.683 88.3243 357.336 87.0312 355.031 87.0312Z" fill="white"/>
<path d="M13.6176 132.93H12.0548V117.919H2.29647V132.93H0.737793V116.589H13.6176V132.93Z" fill="white"/>
<path d="M31.4806 124.807C31.4806 129.9 28.3591 133.324 23.7452 133.324C19.1313 133.324 16.0762 129.88 16.0762 124.761C16.0762 119.643 19.1769 116.199 23.7659 116.199C28.3549 116.199 31.4806 119.689 31.4806 124.807ZM17.6349 124.716C17.6349 129.096 20.0724 131.968 23.7659 131.968C27.4595 131.968 29.9219 129.096 29.9219 124.782C29.9219 120.468 27.4346 117.55 23.7452 117.55C20.0558 117.55 17.6349 120.443 17.6349 124.716Z" fill="white"/>
<path d="M49.8074 132.93H48.315V123.062C48.315 121.338 48.3813 119.639 48.4974 117.919C48.1782 118.905 47.8093 119.917 47.4196 120.882L42.5985 132.93H41.1973L36.3057 121.015C35.8912 120.028 35.5471 119.017 35.2279 118.006C35.3399 119.684 35.4103 121.321 35.4103 123.012V132.926H33.918V116.589H36.0321L40.7828 128.251C41.1973 129.258 41.5414 130.294 41.9062 131.326C42.2751 130.315 42.5985 129.283 42.9882 128.296L47.6725 116.589H49.8074V132.93Z" fill="white"/>
<path d="M67.6244 124.807C67.6244 129.9 64.5029 133.324 59.889 133.324C55.2752 133.324 52.2324 129.88 52.2324 124.745C52.2324 119.61 55.3332 116.183 59.9222 116.183C64.5112 116.183 67.6244 119.689 67.6244 124.807ZM53.7787 124.716C53.7787 129.096 56.2162 131.968 59.9097 131.968C63.6033 131.968 66.0657 129.096 66.0657 124.782C66.0657 120.468 63.5784 117.55 59.889 117.55C56.1996 117.55 53.7787 120.443 53.7787 124.716Z" fill="white"/>
<path d="M70.0576 132.93V116.589H80.1849V117.919H71.5997V132.93H70.0576Z" fill="white"/>
<path d="M92.8572 132.93H91.1161L89.1263 127.791H81.6646L79.6665 132.93H78.0083L84.6203 116.543H86.3448L92.8572 132.93ZM85.4618 118.01L82.1454 126.527H88.6662L85.4618 118.01Z" fill="white"/>
<path d="M105.655 117.919H95.8714V123.82H105.033V125.126H95.8714V131.599H105.746V132.93H94.3086V116.589H105.655V117.919Z" fill="white"/>
<path d="M119.177 117.919H113.436V132.93H111.877V117.919H106.123V116.589H119.165L119.177 117.919Z" fill="white"/>
<path d="M191.518 116.589C194.205 116.589 196.638 117.757 196.638 120.675C196.634 121.503 196.355 122.307 195.844 122.959C195.333 123.611 194.619 124.075 193.815 124.276C195.627 124.62 197.281 125.748 197.281 128.251C197.281 131.417 194.756 132.93 191.746 132.93H184.529V116.589H191.518ZM186.047 123.82H191.237C193.094 123.82 195.117 123.153 195.117 120.882C195.117 118.309 192.911 117.919 190.822 117.919H186.047V123.82ZM186.047 131.599H190.938C193.21 131.599 195.734 131.185 195.734 128.284C195.734 125.482 193.073 125.093 190.847 125.093H186.047V131.599Z" fill="white"/>
<path d="M211.189 117.919H201.409V123.82H210.587V125.126H201.426V131.599H211.3V132.93H199.847V116.589H211.189V117.919Z" fill="white"/>
<path d="M220.537 116.589C223.592 116.589 225.681 118.126 225.681 121.176C225.681 124.368 223.609 125.955 220.491 125.955H215.102V132.93H213.543V116.589H220.537ZM215.094 124.645H220.068C222.315 124.645 224.131 123.725 224.131 121.292C224.131 118.951 222.568 117.919 220.226 117.919H215.094V124.645Z" fill="white"/>
<path d="M240.787 132.93H239.228V125.035H229.47V132.93H227.907V116.589H229.47V123.704H239.228V116.589H240.787V132.93Z" fill="white"/>
<path d="M243.958 116.589L249.31 127.492L254.612 116.589H256.27L249.749 130.087C248.394 132.884 247.262 133.278 245.662 133.278C245.071 133.272 244.49 133.13 243.962 132.863V131.533C244.523 131.842 245.16 131.986 245.799 131.948C246.947 131.948 247.681 130.845 248.232 129.697L248.439 129.262L242.288 116.593L243.958 116.589Z" fill="white"/>
<path d="M268.963 117.919H263.234V132.93H261.676V117.919H255.922V116.589H268.963V117.919Z" fill="white"/>
<path d="M277.743 132.93H270.48V116.589H272.043V123.472H277.743C280.749 123.472 282.61 125.312 282.61 128.201C282.61 131.09 280.765 132.93 277.743 132.93ZM277.399 124.807H272.01V131.599H277.399C279.696 131.599 281.047 130.315 281.047 128.201C281.047 126.087 279.712 124.807 277.416 124.807H277.399Z" fill="white"/>
<path d="M291.676 133.299C287.153 133.299 284.189 129.946 284.189 124.782C284.189 120.19 286.851 116.199 291.813 116.199C294.959 116.199 298.126 118.172 298.495 121.5H296.932C296.427 119.067 294.445 117.55 291.767 117.55C288.14 117.55 285.727 120.451 285.727 124.782C285.727 129.113 288.094 131.968 291.722 131.968C295.005 131.968 296.816 129.718 297.16 126.664H298.703C298.354 130.704 295.602 133.299 291.676 133.299Z" fill="white"/>
<path d="M301.571 132.93H299.552L305.178 125.677C302.305 125.586 300.448 123.932 300.448 121.118C300.448 118.217 302.4 116.597 305.422 116.597H312.287V132.938H310.728V125.685H307.213L301.571 132.93ZM310.691 117.919H305.716C303.42 117.919 301.986 118.997 301.986 121.11C301.986 123.224 303.428 124.347 305.716 124.347H310.691V117.919Z" fill="white"/>
<path d="M354.5 116.589C357.186 116.589 359.62 117.757 359.62 120.675C359.616 121.503 359.337 122.307 358.825 122.959C358.314 123.611 357.601 124.075 356.797 124.276C358.612 124.62 360.266 125.748 360.266 128.251C360.266 131.417 357.738 132.93 354.732 132.93H347.499V116.589H354.5ZM349.012 123.82H354.202C356.063 123.82 358.082 123.153 358.082 120.882C358.082 118.309 355.881 117.919 353.791 117.919H349.012V123.82ZM349.012 131.599H353.903C356.179 131.599 358.704 131.185 358.704 128.284C358.704 125.482 356.038 125.093 353.812 125.093H349.012V131.599Z" fill="white"/>
<path d="M90.2211 170.701H88.6625V155.69H78.9V170.701H77.3413V154.36H90.2211V170.701Z" fill="white"/>
<path d="M100.601 154.36C103.656 154.36 105.746 155.898 105.746 158.948C105.746 162.139 103.673 163.726 100.556 163.726H95.1666V170.701H93.6079V154.36H100.601ZM95.1583 162.417H100.133C102.384 162.417 104.195 161.497 104.195 159.064C104.195 156.722 102.633 155.69 100.294 155.69H95.1583V162.417Z" fill="white"/>
<path d="M107.997 154.36H109.559V169.027L118.833 154.36H120.856V170.701H119.293V156.034L110.015 170.701H107.997V154.36Z" fill="white"/>
<path d="M131.165 154.36C133.851 154.36 136.285 155.529 136.285 158.442C136.282 159.268 136.006 160.07 135.499 160.721C134.992 161.373 134.282 161.838 133.482 162.044C135.294 162.388 136.948 163.515 136.948 166.014C136.948 169.184 134.424 170.697 131.414 170.697H124.164V154.36H131.165ZM125.677 161.588H130.867C132.728 161.588 134.747 160.925 134.747 158.649C134.747 156.08 132.541 155.69 130.452 155.69H125.677V161.588ZM125.677 169.371H130.581C132.852 169.371 135.377 168.956 135.377 166.055C135.377 163.254 132.716 162.864 130.489 162.864H125.677V169.371Z" fill="white"/>
<path d="M146.748 170.701H139.477V154.36H141.04V161.244H146.748C149.758 161.244 151.615 163.08 151.615 165.973C151.615 168.865 149.766 170.701 146.748 170.701ZM146.404 162.578H141.015V169.371H146.404C148.701 169.371 150.056 168.086 150.056 165.973C150.056 163.859 148.709 162.578 146.412 162.578H146.404ZM155.474 154.36V170.701H153.92V154.36H155.474Z" fill="white"/>
<path d="M163.587 163.585C158.907 163.585 158.31 161.062 158.31 158.882V154.36H159.868V158.79C159.868 160.121 160.146 162.23 163.429 162.23C165.176 162.188 166.914 161.966 168.615 161.567V154.36H170.178V170.701H168.615V162.897C166.963 163.278 165.28 163.508 163.587 163.585Z" fill="white"/>
<path d="M186.345 170.701H184.782V162.806H175.024V170.701H173.465V154.36H175.024V161.476H184.782V154.36H186.345V170.701Z" fill="white"/>
<path d="M196.933 170.701H189.653V154.36H191.212V161.244H196.933C199.938 161.244 201.799 163.08 201.799 165.973C201.799 168.865 199.938 170.701 196.933 170.701ZM196.589 162.578H191.2V169.371H196.589C198.881 169.371 200.237 168.086 200.237 165.973C200.237 163.859 198.881 162.578 196.589 162.578ZM205.655 154.36V170.701H204.096V154.36H205.655Z" fill="white"/>
<path d="M208.962 154.36H210.525V169.027L219.803 154.36H221.821V170.701H220.259V156.034L211.002 170.701H208.979L208.962 154.36ZM213.004 150.365C213.145 151.534 214.016 152.247 215.371 152.247C216.727 152.247 217.572 151.559 217.805 150.365H218.7C218.356 152.292 217.228 153.349 215.346 153.349C213.464 153.349 212.341 152.292 212.109 150.365H213.004Z" fill="white"/>
<path d="M308.805 154.36C311.86 154.36 313.949 155.898 313.949 158.948C313.949 162.139 311.877 163.726 308.759 163.726H303.37V170.701H301.787V154.36H308.805ZM303.366 162.417H308.341C310.592 162.417 312.403 161.497 312.403 159.064C312.403 156.722 310.844 155.69 308.502 155.69H303.366V162.417Z" fill="white"/>
<path d="M316.2 154.36H317.763V169.027L327.04 154.36H329.059V170.701H327.488V156.034L318.215 170.701H316.192L316.2 154.36Z" fill="white"/>
<path d="M343.618 155.69H337.877V170.701H336.314V155.69H330.577V154.36H343.618V155.69Z" fill="white"/>
<path d="M361 170.701H359.508V160.834C359.508 159.11 359.578 157.41 359.69 155.69C359.371 156.677 359.002 157.688 358.612 158.649L353.791 170.701H352.39L347.499 158.79C347.084 157.8 346.74 156.793 346.421 155.782C346.537 157.439 346.603 159.097 346.603 160.788V170.701H345.111V154.36H347.225L351.976 166.018C352.39 167.029 352.734 168.061 353.103 169.097C353.468 168.086 353.791 167.054 354.181 166.064L358.865 154.36H361V170.701Z" fill="white"/>
<path d="M336.385 134.38C334.535 134.155 332.792 133.395 331.369 132.192L328.637 131.902L325.138 130.431C325.731 129.187 326.568 128.57 327.654 128.57C327.913 128.573 328.169 128.612 328.417 128.686C328.721 128.773 329.014 128.892 329.292 129.042C329.905 128.856 330.415 128.715 330.821 128.628C330.904 128.234 330.952 127.833 330.966 127.43C330.362 127.001 329.806 126.508 329.308 125.959C328.774 126.264 328.22 126.533 327.65 126.763C327.506 128.371 326.644 129.175 325.063 129.175V125.574L327.882 122.95L325.573 121.015C324.508 120.128 323.973 119.332 323.973 118.636C324.012 118.057 324.271 117.516 324.699 117.123L328.682 120.024L328.297 119.162C327.987 118.536 327.814 117.851 327.787 117.152C327.787 116.34 328.255 115.725 329.192 115.308L331.878 120.062L331.986 119.2C332.171 117.6 332.897 116.8 334.163 116.8L334.577 116.821C334.5 117.485 334.464 118.154 334.469 118.822C334.484 120.913 334.633 123.001 334.917 125.072L340.7 132.677C339.832 134.274 338.796 135.263 337.591 135.644L336.385 134.38ZM332.62 123.605L324.823 117.973C324.698 118.169 324.626 118.395 324.616 118.628C324.616 119.212 325.196 119.975 326.353 120.924L328.662 122.801L332.62 123.605ZM336.608 133.738L337.761 135.014C338.695 134.436 339.461 133.623 339.983 132.656L333.707 124.492L328.376 123.303L325.656 125.814V128.52C326.07 128.458 326.444 128.241 326.701 127.911C326.959 127.582 327.08 127.167 327.041 126.751C327.041 126.618 327.041 126.473 327.041 126.311C327.878 126.051 328.672 125.666 329.395 125.172C330.082 125.897 330.822 126.57 331.609 127.186C331.592 127.854 331.478 128.515 331.269 129.15C330.913 129.216 330.577 129.291 330.258 129.378C329.781 129.519 329.429 129.618 329.167 129.672C328.94 129.512 328.692 129.384 328.429 129.291C328.189 129.208 327.937 129.164 327.683 129.163C327.35 129.172 327.025 129.268 326.74 129.441C326.455 129.613 326.22 129.858 326.058 130.149L328.827 131.318L331.559 131.57C332.949 132.843 334.729 133.607 336.608 133.738ZM332.898 123.087L328.964 116.12C328.786 116.225 328.639 116.373 328.536 116.552C328.434 116.731 328.38 116.934 328.38 117.14C328.46 117.947 328.7 118.73 329.084 119.444L329.681 120.721L332.898 123.087ZM334.142 124.007C333.93 122.293 333.829 120.566 333.839 118.839C333.839 118.458 333.839 117.96 333.897 117.347C333.672 117.395 333.459 117.492 333.275 117.63C333.09 117.768 332.938 117.944 332.828 118.147C332.59 118.757 332.487 119.412 332.525 120.066C332.525 120.314 332.55 120.725 332.6 121.288L334.142 124.007Z" fill="white"/>
<path d="M33.6774 74.4243L34.4568 83.2766L38.7722 75.5101L35.887 83.9107L42.9881 78.5687L36.9316 85.0711L45.5914 83.0818L37.4125 86.5589L46.1386 88.2623L37.2508 88.1131L44.526 93.2147L36.4673 89.4683L41.0397 97.0855L35.203 90.3842L36.2808 99.2033L33.6774 90.7116L31.07 99.2033L32.1478 90.3842L26.311 97.0855L30.8834 89.4683L22.8247 93.2147L30.0999 88.1131L21.2163 88.2623L29.9383 86.5589L21.7594 83.0818L30.4191 85.0711L24.3627 78.5687L31.4679 83.9107L28.5786 75.5101L32.894 83.2766L33.6774 74.4243Z" fill="white"/>
<path d="M57.3767 74.4243L58.156 83.2766L62.4714 75.5101L59.5862 83.9107L66.6873 78.5687L60.6308 85.0711L69.2906 83.0818L61.1117 86.5589L69.8378 88.2623L60.95 88.1131L68.2252 93.2147L60.1707 89.4683L64.7389 97.0855L58.9022 90.3842L59.98 99.2033L57.3767 90.7116L54.7692 99.2033L55.847 90.3842L50.0103 97.0855L54.5827 89.4683L46.524 93.2147L53.7992 88.1131L44.9155 88.2623L53.6375 86.5589L45.4586 83.0818L54.1184 85.0711L48.066 78.5687L55.1672 83.9107L52.2778 75.5101L56.5932 83.2766L57.3767 74.4243Z" fill="white"/>
<path d="M81.0969 74.4243L81.8762 83.2766L86.1916 75.5101L83.3064 83.9107L90.4075 78.5687L84.351 85.0711L93.0108 83.0818L84.8319 86.5589L93.558 88.2623L84.6702 88.1131L91.9455 93.2147L83.8909 89.4683L88.4592 97.0855L82.6224 90.3842L83.7002 99.2033L81.0969 90.7116L78.4894 99.2033L79.5672 90.3842L73.7305 97.0855L78.3029 89.4683L70.2442 93.2147L77.5194 88.1131L68.6357 88.2623L77.3577 86.5589L69.1788 83.0818L77.8386 85.0711L71.7821 78.5687L78.8874 83.9107L75.998 75.5101L80.3134 83.2766L81.0969 74.4243Z" fill="white"/>
<path d="M39.8335 154.327C39.9866 153.935 40.216 153.578 40.5085 153.275C40.801 152.973 41.1507 152.732 41.5372 152.566C42.096 152.302 42.717 152.197 43.3315 152.264C43.946 152.33 44.5301 152.565 45.0194 152.943C45.0981 152.997 45.1686 153.063 45.2515 153.109C45.367 153.186 45.508 153.217 45.6453 153.194C45.7826 153.171 45.9058 153.096 45.9894 152.984C46.038 152.931 46.0751 152.868 46.0984 152.8C46.1217 152.732 46.1307 152.659 46.1248 152.587C46.119 152.515 46.0985 152.446 46.0645 152.382C46.0305 152.318 45.9838 152.262 45.9272 152.217C45.6578 151.99 45.3593 151.803 45.0484 151.575C45.4903 151.11 46.04 150.762 46.6488 150.56C47.2576 150.358 47.9068 150.31 48.5388 150.419C48.4808 150.514 48.4435 150.58 48.3979 150.643C48.3471 150.698 48.3078 150.763 48.2824 150.833C48.257 150.904 48.2458 150.978 48.2497 151.053C48.2536 151.128 48.2723 151.202 48.3049 151.269C48.3375 151.337 48.3832 151.397 48.4394 151.447C48.5565 151.549 48.709 151.6 48.8641 151.591C49.0191 151.582 49.1643 151.512 49.2684 151.397C49.6688 151.026 50.0971 150.687 50.5494 150.382C51.6699 149.69 52.9957 149.409 54.3005 149.586C55.6054 149.763 56.8084 150.387 57.7044 151.351C57.7956 151.447 57.8743 151.55 57.9738 151.637C58.0221 151.69 58.0804 151.733 58.1454 151.764C58.2104 151.794 58.2807 151.812 58.3524 151.815C58.4241 151.818 58.4957 151.807 58.5631 151.782C58.6305 151.757 58.6922 151.719 58.7449 151.67C58.8543 151.575 58.9224 151.441 58.9348 151.296C58.9472 151.152 58.9028 151.008 58.8112 150.895C58.7168 150.773 58.6143 150.656 58.5044 150.547C58.39 150.44 58.2996 150.31 58.2391 150.166C58.5583 150.22 58.8858 150.245 59.2009 150.324C60.4976 150.65 61.6385 151.421 62.4243 152.503C63.21 153.585 63.5906 154.908 63.4997 156.242C63.4665 156.826 63.6323 157.108 64.022 157.12C64.4117 157.133 64.5982 156.884 64.6355 156.291C64.6355 156.08 64.6562 155.877 64.6687 155.624C65.3816 155.756 66.0289 156.126 66.5051 156.673C66.8191 157.018 67.0594 157.423 67.2113 157.865C67.3631 158.306 67.4234 158.774 67.3884 159.239C67.3533 159.704 67.2237 160.157 67.0075 160.571C66.7913 160.984 66.493 161.35 66.1308 161.644C65.7686 161.938 65.3502 162.156 64.9011 162.283C64.4521 162.41 63.9818 162.444 63.519 162.384C63.0562 162.323 62.6107 162.168 62.2096 161.93C61.8086 161.691 61.4605 161.373 61.1865 160.995C61.1579 160.957 61.1316 160.917 61.1078 160.875C60.8259 160.461 60.5191 160.378 60.2165 160.589C59.9139 160.8 59.889 161.12 60.1626 161.497C60.3595 161.78 60.586 162.041 60.8383 162.276C60.9221 162.338 60.9827 162.426 61.0105 162.527C61.0383 162.628 61.0317 162.735 60.9917 162.831C60.7278 163.724 60.2852 164.554 59.6907 165.27C59.0962 165.987 58.3623 166.575 57.5334 167C56.7046 167.424 55.7981 167.676 54.869 167.739C53.94 167.803 53.0077 167.677 52.1288 167.369C51.9257 167.295 51.7142 167.203 51.5318 167.133C51.4637 167.101 51.3898 167.084 51.3147 167.081C51.2396 167.078 51.1647 167.09 51.0944 167.117C51.0241 167.144 50.9598 167.184 50.9054 167.236C50.8509 167.288 50.8074 167.35 50.7774 167.419C50.7479 167.49 50.733 167.567 50.7335 167.644C50.7341 167.722 50.7501 167.798 50.7806 167.869C50.8111 167.94 50.8555 168.004 50.9112 168.058C50.9669 168.112 51.0327 168.154 51.1049 168.181C51.3743 168.306 51.6521 168.409 51.9339 168.517C51.6184 169.343 51.0646 170.057 50.3429 170.568C49.6212 171.08 48.7639 171.365 47.8797 171.389C46.7726 171.432 45.6878 171.07 44.828 170.371C43.9683 169.673 43.3923 168.685 43.2078 167.593C43.043 166.475 43.2878 165.335 43.8972 164.383C44.5066 163.431 45.4396 162.731 46.5242 162.413C47.5895 162.11 48.6632 161.841 49.7327 161.551C49.9628 161.508 50.1818 161.419 50.3759 161.289C50.57 161.158 50.7351 160.989 50.8608 160.792C50.9864 160.595 51.0701 160.374 51.1063 160.143C51.1426 159.912 51.1308 159.676 51.0717 159.449C51.049 159.369 51.0437 159.284 51.0562 159.201C51.0687 159.118 51.0987 159.039 51.1441 158.968C51.1896 158.898 51.2495 158.838 51.3199 158.792C51.3903 158.746 51.4696 158.716 51.5526 158.703C52.0459 158.562 52.5433 158.438 53.0366 158.289C53.4263 158.181 53.6087 157.916 53.5299 157.589C53.5103 157.506 53.4731 157.429 53.4211 157.362C53.3691 157.295 53.3034 157.241 53.2283 157.201C53.1533 157.162 53.0707 157.139 52.9862 157.135C52.9016 157.13 52.8171 157.143 52.7382 157.174C52.22 157.307 51.6977 157.443 51.1836 157.589C50.7589 157.703 50.3938 157.975 50.1628 158.349C49.9317 158.724 49.852 159.172 49.94 159.603C50.0229 160.079 49.8985 160.295 49.4301 160.432C48.4435 160.701 47.4527 160.958 46.462 161.223C45.6852 161.406 44.9546 161.747 44.3163 162.226C43.678 162.705 43.1458 163.31 42.7532 164.005C42.3606 164.7 42.1162 165.468 42.0354 166.262C41.9545 167.055 42.039 167.857 42.2834 168.617C42.2834 168.675 42.3166 168.733 42.329 168.782C41.0232 169.524 38.3826 168.592 37.4125 167.017L37.9431 167.137C38.3577 167.224 38.6603 167.071 38.7349 166.723C38.8095 166.375 38.6147 166.113 38.2043 166.014C37.5096 165.866 36.878 165.505 36.3967 164.983C35.9153 164.461 35.608 163.802 35.517 163.098C35.4261 162.393 35.5559 161.678 35.8888 161.05C36.2216 160.423 36.741 159.914 37.3752 159.594C37.4849 159.548 37.5892 159.49 37.6861 159.42C37.7956 159.345 37.872 159.23 37.8998 159.1C37.9275 158.97 37.9045 158.834 37.8354 158.72C37.8077 158.656 37.7673 158.598 37.7166 158.55C37.6659 158.502 37.6059 158.465 37.5403 158.441C37.4748 158.417 37.405 158.406 37.3353 158.41C37.2656 158.414 37.1973 158.432 37.1348 158.463C36.8529 158.575 36.5876 158.728 36.2394 158.902C36.285 158.6 36.3016 158.355 36.3554 158.119C36.5461 157.293 37.0377 156.567 37.7343 156.084C38.431 155.6 39.2828 155.394 40.1236 155.504L40.3724 155.537C40.5161 155.552 40.6602 155.51 40.7734 155.421C40.8866 155.331 40.9599 155.2 40.9776 155.056C40.9921 154.988 40.9928 154.917 40.9798 154.849C40.9667 154.78 40.9401 154.715 40.9015 154.657C40.8629 154.598 40.8131 154.548 40.755 154.51C40.6969 154.471 40.6316 154.444 40.5631 154.431C40.3219 154.383 40.0784 154.348 39.8335 154.327Z" fill="white"/>
<path d="M57.0742 168.455C58.2606 168.023 59.3305 167.322 60.1995 166.407C61.0686 165.491 61.713 164.386 62.0819 163.179C64.1546 163.594 64.1546 163.594 66.0656 163.038C66.4475 163.614 66.6216 164.302 66.5589 164.99C66.4567 166.154 65.9014 167.232 65.0127 167.991C63.0312 169.839 59.8185 170.216 57.6214 168.845C57.4556 168.741 57.2981 168.617 57.0742 168.455Z" fill="white"/>
<path d="M60.9376 172.114C61.0247 172.45 61.1117 172.782 61.2029 173.113C61.2624 173.246 61.2746 173.394 61.2377 173.535C61.2007 173.675 61.1167 173.798 60.9998 173.884C60.8817 173.966 60.7396 174.006 60.596 173.998C60.4525 173.99 60.3159 173.934 60.208 173.839C58.9644 173.01 57.7208 172.181 56.4771 171.323C56.2057 171.111 55.8896 170.964 55.5528 170.892C55.216 170.82 54.8672 170.826 54.5329 170.908C54.1856 170.979 53.8247 170.937 53.5031 170.788C53.1816 170.639 52.9163 170.391 52.7462 170.08C52.699 169.988 52.6743 169.886 52.6743 169.783C52.6743 169.68 52.699 169.579 52.7462 169.487C52.9328 168.898 53.2727 168.787 53.8572 168.869C54.41 168.895 54.9638 168.885 55.5154 168.84C55.6825 168.837 55.8453 168.893 55.9755 168.998C57.1109 170.129 58.639 170.777 60.2412 170.809C60.5065 170.809 60.6557 170.888 60.6972 171.165C60.7386 171.443 60.863 171.808 60.95 172.131L60.9376 172.114Z" fill="white"/>
<path d="M261.82 160.647L265.966 162.027L274.733 164.945C275.304 165.142 275.924 165.142 276.495 164.945C280.701 163.541 284.908 162.142 289.114 160.747L289.383 160.664V169.346C289.401 170.102 289.144 170.839 288.661 171.422C288.179 172.004 287.502 172.393 286.755 172.517C286.533 172.553 286.308 172.568 286.084 172.562H265.12C264.68 172.586 264.24 172.517 263.828 172.36C263.417 172.203 263.043 171.962 262.73 171.651C262.418 171.341 262.174 170.968 262.014 170.558C261.855 170.147 261.783 169.707 261.804 169.267V160.647H261.82Z" fill="white"/>
<path d="M280.193 153.055H280.541C282.386 153.055 284.235 153.088 286.084 153.055C286.524 153.039 286.962 153.114 287.371 153.275C287.781 153.436 288.153 153.68 288.464 153.991C288.775 154.302 289.019 154.674 289.18 155.083C289.341 155.492 289.416 155.93 289.4 156.37C289.375 157.104 289.4 157.841 289.4 158.575C289.416 158.66 289.397 158.748 289.348 158.819C289.299 158.891 289.224 158.94 289.139 158.956C285.839 160.045 282.542 161.14 279.248 162.243C278.162 162.603 277.072 162.96 275.986 163.328C275.74 163.415 275.472 163.415 275.227 163.328C270.855 161.867 266.48 160.411 262.103 158.96C261.904 158.894 261.821 158.815 261.829 158.591C261.829 157.829 261.829 157.066 261.829 156.304C261.819 155.879 261.895 155.456 262.053 155.061C262.21 154.667 262.447 154.308 262.747 154.007C263.047 153.706 263.405 153.469 263.8 153.31C264.194 153.152 264.617 153.075 265.042 153.084H271.024C271.024 152.669 271.024 152.275 271.024 151.886C271.03 151.361 271.217 150.855 271.554 150.453C271.891 150.052 272.357 149.779 272.872 149.681C273.059 149.65 273.248 149.637 273.436 149.644H277.768C278.092 149.623 278.417 149.672 278.721 149.786C279.024 149.901 279.3 150.079 279.53 150.308C279.76 150.537 279.938 150.813 280.053 151.116C280.168 151.42 280.217 151.744 280.197 152.068L280.193 153.055ZM273.316 153.034H277.876V151.923H273.316V153.034Z" fill="white"/>
<path d="M355.458 45.9484C355.446 46.7937 355.205 47.62 354.761 48.3397C354.703 48.4399 354.678 48.5561 354.691 48.6713C354.898 50.0003 354.766 51.3599 354.31 52.625C354.292 52.6629 354.288 52.7056 354.298 52.7462C354.308 52.7867 354.331 52.8229 354.363 52.8488C354.993 53.4192 355.382 54.2082 355.451 55.0551C355.519 55.9021 355.262 56.7433 354.732 57.4075C354.429 57.7923 354.046 58.1067 353.609 58.3289C353.173 58.551 352.693 58.6757 352.203 58.6942C351.713 58.7127 351.226 58.6247 350.773 58.4361C350.321 58.2476 349.915 57.9631 349.584 57.6023C349.557 57.5626 349.517 57.5337 349.47 57.5208C349.424 57.5079 349.375 57.5118 349.331 57.5319C348.253 57.9087 347.106 58.05 345.969 57.9463C345.301 57.894 344.644 57.7547 344.012 57.5319C343.967 57.511 343.915 57.5065 343.867 57.5194C343.819 57.5323 343.776 57.5616 343.747 57.6023C343.347 58.0314 342.841 58.3482 342.28 58.5212C341.719 58.6942 341.122 58.7172 340.549 58.5881C339.977 58.459 339.448 58.1823 339.015 57.7854C338.583 57.3885 338.262 56.8853 338.084 56.3259C337.87 55.7337 337.834 55.0917 337.982 54.4795C338.129 53.8673 338.453 53.3118 338.913 52.8819C338.97 52.8359 339.01 52.7718 339.026 52.7003C339.042 52.6288 339.033 52.554 339.001 52.4882C338.375 50.6675 338.428 48.6822 339.15 46.8975C339.168 46.8679 339.18 46.8348 339.184 46.8005C339.189 46.7661 339.187 46.7311 339.178 46.6976C339.168 46.6642 339.152 46.633 339.13 46.6061C339.108 46.5792 339.081 46.557 339.05 46.5411C338.583 46.1722 338.234 45.6739 338.048 45.1083C337.861 44.5427 337.846 43.9348 338.003 43.3604C338.16 42.7859 338.482 42.2704 338.93 41.8779C339.378 41.4855 339.932 41.2335 340.522 41.1534C341.058 41.0723 341.605 41.139 342.106 41.3464C342.606 41.5539 343.04 41.8941 343.361 42.3304C343.373 42.3516 343.39 42.3702 343.409 42.3851C343.428 42.3999 343.45 42.4108 343.474 42.4169C343.497 42.4231 343.522 42.4245 343.546 42.4211C343.57 42.4176 343.594 42.4093 343.614 42.3967C344.846 41.8806 346.189 41.6921 347.515 41.8497C347.888 41.8964 348.267 41.8208 348.593 41.6342C349.577 41.135 350.704 40.9968 351.779 41.2437C352.854 41.4906 353.808 42.107 354.475 42.9852C355.124 43.8359 355.47 44.8788 355.458 45.9484ZM346.802 43.1966C345.727 43.1789 344.664 43.4198 343.702 43.8988C342.74 44.3779 341.907 45.0811 341.273 45.9492C340.64 46.8174 340.224 47.825 340.062 48.8873C339.899 49.9495 339.995 51.0353 340.339 52.053C340.925 51.8834 341.546 51.8741 342.137 52.0262C342.728 52.1782 343.267 52.4861 343.698 52.9175C344.129 53.349 344.437 53.8883 344.588 54.4791C344.74 55.0699 344.73 55.6905 344.56 56.2761C349.003 57.7929 353.592 54.3076 353.414 49.7737C352.498 50.3957 351.393 50.677 350.291 50.5688C349.189 50.4605 348.16 49.9694 347.383 49.181C346.616 48.4004 346.14 47.3804 346.034 46.2914C345.928 45.2023 346.2 44.11 346.802 43.1966ZM347.366 45.8614C347.364 46.5258 347.56 47.1758 347.927 47.7292C348.295 48.2827 348.819 48.7148 349.432 48.9709C350.045 49.227 350.72 49.2957 351.373 49.1683C352.025 49.0409 352.625 48.7231 353.096 48.255C353.568 47.787 353.89 47.1897 354.023 46.5386C354.155 45.8874 354.091 45.2118 353.839 44.5968C353.588 43.9819 353.159 43.4554 352.609 43.0837C352.058 42.712 351.409 42.5119 350.744 42.5086C349.855 42.5108 349.003 42.8646 348.374 43.4928C347.745 44.121 347.39 44.9725 347.387 45.8614H347.366ZM341.293 53.2922C340.895 53.2922 340.507 53.4101 340.176 53.6309C339.845 53.8518 339.588 54.1657 339.435 54.533C339.283 54.9003 339.243 55.3044 339.321 55.6943C339.399 56.0842 339.59 56.4424 339.871 56.7235C340.152 57.0046 340.511 57.196 340.901 57.2736C341.291 57.3511 341.695 57.3113 342.062 57.1592C342.43 57.0071 342.744 56.7494 342.965 56.4189C343.186 56.0884 343.303 55.6997 343.303 55.3022C343.305 55.0379 343.253 54.7761 343.153 54.5317C343.052 54.2873 342.904 54.0653 342.717 53.8785C342.53 53.6916 342.308 53.5436 342.064 53.443C341.819 53.3423 341.557 53.2911 341.293 53.2922ZM350.798 56.8812C351.193 57.2124 351.7 57.3787 352.215 57.3455C352.729 57.3123 353.21 57.0822 353.559 56.703C353.888 56.3491 354.077 55.887 354.089 55.4039C354.101 54.9207 353.936 54.4497 353.626 54.0796C352.929 55.2323 351.957 56.1948 350.798 56.8812ZM339.9 45.4801C340.515 44.5409 341.316 43.7382 342.255 43.122C342.059 42.8812 341.801 42.7 341.507 42.5989C341.214 42.4978 340.899 42.4809 340.596 42.5501C340.279 42.6091 339.986 42.7631 339.757 42.9917C339.529 43.2203 339.375 43.5128 339.316 43.8307C339.246 44.1327 339.265 44.4482 339.368 44.7403C339.472 45.0324 339.656 45.289 339.9 45.4801Z" fill="white"/>
<path d="M242.922 150.411C240.737 159.027 232.558 160.771 232.558 160.771C232.558 160.771 240.517 164.269 242.922 171.132C245.546 164.269 253.285 160.771 253.285 160.771C250.824 160.059 248.583 158.735 246.771 156.923C244.959 155.112 243.635 152.871 242.922 150.411Z" fill="white"/>
<path d="M242.893 171.738L242.706 171.203C240.36 164.506 232.533 161 232.454 160.962L231.866 160.705L232.492 160.573C232.575 160.552 240.571 158.745 242.698 150.361L242.884 149.64L243.1 150.353C243.812 152.773 245.12 154.977 246.903 156.762C248.687 158.547 250.89 159.857 253.31 160.573L253.911 160.709L253.351 160.962C253.273 160.995 245.658 164.506 243.096 171.207L242.893 171.738ZM233.122 160.825C234.871 161.712 240.691 165.003 242.909 170.565C245.289 164.999 250.997 161.704 252.696 160.825C250.433 160.066 248.375 158.798 246.68 157.117C244.985 155.436 243.699 153.388 242.922 151.132C240.849 157.953 234.946 160.266 233.122 160.825Z" fill="white"/>
<path d="M18.2398 160.328C18.4648 160.486 18.6482 160.696 18.7745 160.94C18.9008 161.183 18.9663 161.454 18.9653 161.729C18.9565 162.146 18.844 162.555 18.6378 162.918C18.4936 163.213 18.2639 163.457 17.9787 163.619C17.6912 163.788 17.3629 163.875 17.0294 163.872C16.7618 163.871 16.497 163.817 16.25 163.714C16.209 163.946 16.1276 164.169 16.0096 164.373C15.9001 164.561 15.76 164.729 15.595 164.87C15.4373 165.009 15.2563 165.118 15.0603 165.194C14.8725 165.266 14.673 165.304 14.4716 165.306C14.002 165.319 13.5415 165.173 13.1658 164.891C12.7971 164.595 12.5542 164.17 12.486 163.702C12.2397 163.802 11.9768 163.856 11.7108 163.859C11.3759 163.863 11.0463 163.776 10.7573 163.606C10.4733 163.444 10.245 163.2 10.1024 162.906C9.87592 162.562 9.75093 162.161 9.7417 161.75C9.74113 161.467 9.81 161.188 9.94227 160.938C10.0745 160.688 10.2662 160.474 10.5003 160.316C10.2738 160.168 10.0885 159.966 9.96159 159.728C9.8347 159.489 9.77046 159.222 9.77487 158.952C9.77691 158.587 9.89123 158.231 10.1024 157.933C10.2283 157.581 10.4771 157.287 10.8029 157.104C11.1146 156.94 11.4622 156.856 11.8144 156.859C12.0402 156.857 12.2655 156.881 12.486 156.93C12.5376 156.724 12.623 156.528 12.7388 156.35C12.8588 156.159 13.0069 155.987 13.1783 155.84C13.3541 155.689 13.5528 155.567 13.7669 155.479C13.9915 155.386 14.2325 155.338 14.4758 155.338C14.6799 155.342 14.8808 155.39 15.0644 155.479C15.2604 155.571 15.4408 155.692 15.5992 155.84C15.7606 155.99 15.9001 156.161 16.0137 156.35C16.1242 156.529 16.2054 156.725 16.2542 156.93C16.3594 156.905 16.466 156.887 16.5734 156.876C16.6853 156.876 16.7889 156.876 16.8926 156.876C17.2473 156.873 17.5974 156.957 17.9123 157.12C18.2446 157.303 18.5027 157.597 18.6419 157.949C18.873 158.233 19.0002 158.587 19.0026 158.952C18.9968 159.226 18.9244 159.495 18.7915 159.735C18.6586 159.974 18.4692 160.178 18.2398 160.328Z" fill="white"/>
<path d="M14.1816 172.288C9.87862 172.288 6.37988 167.1 6.37988 160.726C6.37988 154.352 9.87862 149.167 14.1816 149.167C18.4845 149.167 21.9708 154.352 21.9708 160.726C21.9708 167.1 18.4845 172.288 14.1816 172.288ZM14.1816 149.582C10.1066 149.582 6.79442 154.58 6.79442 160.726C6.79442 166.872 10.1108 171.874 14.1816 171.874C18.2524 171.874 21.5563 166.872 21.5563 160.726C21.5563 154.58 18.2399 149.582 14.1816 149.582Z" fill="white"/>
<path d="M14.1815 168.525C6.36322 168.525 0 165.027 0 160.726C0 156.424 6.36322 152.926 14.1815 152.926C21.9998 152.926 28.363 156.424 28.363 160.726C28.363 165.027 21.9998 168.525 14.1815 168.525ZM14.1815 153.34C6.59122 153.34 0.414542 156.656 0.414542 160.726C0.414542 164.795 6.59122 168.111 14.1815 168.111C21.7718 168.111 27.9484 164.795 27.9484 160.726C27.9484 156.656 21.7718 153.34 14.1815 153.34Z" fill="white"/>
<path d="M125.233 124.504L174.265 125.159L125.233 125.818V124.504ZM136.285 117.347L174.265 125.159L134.726 118.528L136.285 117.347ZM134.726 131.79L174.265 125.159L136.285 132.95L134.726 131.79ZM150.993 113.14L174.265 125.159L148.195 113.969L150.993 113.14ZM148.195 136.374L174.265 125.159L150.993 137.178L148.195 136.374Z" fill="white"/>
<path d="M152.137 11.0199L163.077 0.0705566L174.054 11.0406L163.098 21.9941L152.137 11.0199Z" fill="white"/>
<path d="M162.044 11.0199L173.001 0.0705566L183.978 11.0406L173.022 21.9941L162.044 11.0199Z" fill="white"/>
<path d="M171.417 11.0199L182.374 0.0705566L193.355 11.0406L182.399 21.9941L171.417 11.0199Z" fill="white"/>
<path d="M157.617 1.54184L148.145 11.0116L157.625 20.4815C155.525 21.7487 153.06 22.2718 150.626 21.9665C148.192 21.6613 145.932 20.5454 144.211 18.7989C142.323 16.8995 141.192 14.3778 141.029 11.7053C140.866 9.03272 141.682 6.39226 143.325 4.2776C144.967 2.16293 147.324 0.718847 149.955 0.215344C152.585 -0.288159 155.309 0.183394 157.617 1.54184Z" fill="white"/>
</svg>
