<svg width="362" height="132" viewBox="0 0 362 132" fill="none" xmlns="http://www.w3.org/2000/svg">
<path d="M13.4335 126.77H11.9253V119.173H2.50819V126.77H1V111H2.50819V117.865H11.9253V111H13.4335V126.77Z" fill="white"/>
<path d="M30.1199 119.305C30.1199 124.223 27.1035 127.522 22.6509 127.522C18.1984 127.522 15.25 124.199 15.25 119.261C15.25 114.323 18.2424 111 22.675 111C27.1075 111 30.1199 114.367 30.1199 119.305ZM16.7582 119.217C16.7582 123.447 19.1065 126.214 22.675 126.214C26.2434 126.214 28.6117 123.447 28.6117 119.285C28.6117 115.122 26.2114 112.308 22.6509 112.308C19.0905 112.308 16.7582 115.098 16.7582 119.209V119.217Z" fill="white"/>
<path d="M38.7607 111C41.7091 111 43.7254 112.483 43.7254 115.43C43.7254 118.509 41.7251 120.037 38.7167 120.037H33.5161V126.77H32.0039V111H38.7607ZM33.5121 118.773H38.3127C40.485 118.773 42.2332 117.889 42.2332 115.542C42.2332 113.283 40.729 112.284 38.4687 112.284H33.5121V118.773Z" fill="white"/>
<path d="M62.0624 126.774H60.6222V117.246C60.6222 115.586 60.6902 113.947 60.7982 112.284C60.4902 113.239 60.1342 114.211 59.7581 115.142L55.1055 126.774H53.7534L49.0328 115.278C48.6328 114.327 48.3007 113.351 47.9927 112.375C48.1007 113.975 48.1687 115.574 48.1687 117.206V126.774H46.7285V111H48.7688L53.3533 122.252C53.7534 123.228 54.0854 124.223 54.4415 125.219C54.7935 124.243 55.1055 123.248 55.4816 122.296L60.0022 111H62.0624V126.774Z" fill="white"/>
<path d="M77.7521 126.769H76.0879L74.2037 121.803H66.9588L65.0345 126.769H63.4023L69.8031 110.951H71.4673L77.7521 126.769ZM70.6032 112.374L67.4028 120.591H73.7196L70.6032 112.374Z" fill="white"/>
<path d="M89.3175 126.769V112.278H82.9607L82.6727 121.571C82.5846 124.738 81.7405 127.109 79.3482 127.109C78.7992 127.115 78.2547 127.009 77.748 126.797V125.558C78.2437 125.745 78.7705 125.836 79.3002 125.825C80.4284 125.825 81.0925 124.718 81.2285 120.687L81.5365 111.007H90.8217V126.769H89.3175Z" fill="white"/>
<path d="M93.9502 110.995H95.4584V125.146L104.411 110.995H106.36V126.769H104.852V112.614L95.9024 126.769H93.9502V110.995Z" fill="white"/>
<path d="M115.137 127.097C111.212 127.097 108.844 125.058 108.844 121.691V121.571H110.284C110.284 124.494 112.232 125.889 115.245 125.889C117.905 125.889 119.525 124.186 119.525 122.171C119.525 120.332 117.949 119.112 115.925 119.112H113.408V117.828H115.933C117.617 117.828 119.101 116.897 119.101 115.061C119.101 112.866 117.417 111.895 115.269 111.895C112.764 111.895 110.948 113.094 110.816 115.493H109.352C109.508 112.238 111.9 110.643 115.225 110.643C118.193 110.643 120.609 111.971 120.609 114.937C120.602 115.664 120.376 116.372 119.961 116.969C119.545 117.566 118.96 118.024 118.281 118.284V118.348C119.945 118.792 121.029 120.076 121.029 122.159C121.029 124.086 119.569 127.097 115.137 127.097Z" fill="white"/>
<path d="M123.378 110.995L128.542 121.515L133.663 110.995H135.263L128.97 124.018C127.666 126.721 126.57 127.097 125.026 127.097C124.456 127.091 123.895 126.954 123.386 126.697V125.414C123.928 125.712 124.544 125.851 125.162 125.813C126.27 125.813 126.978 124.75 127.51 123.642L127.71 123.222L121.77 110.995H123.378Z" fill="white"/>
<path d="M147.601 112.278H138.159V117.972H147.013V119.232H138.171V125.478H147.701V126.769H136.655V110.995H147.601V112.278Z" fill="white"/>
<path d="M160.65 112.278H155.114V126.769H153.606V112.278H148.065V110.995H160.65V112.278Z" fill="white"/>
<path d="M184.87 118.924C184.87 123.842 181.857 127.141 177.401 127.141C172.944 127.141 170 123.818 170 118.88C170 113.942 172.992 110.619 177.425 110.619C181.857 110.619 184.87 113.974 184.87 118.924ZM171.508 118.836C171.508 123.067 173.856 125.834 177.425 125.834C180.993 125.834 183.362 123.067 183.362 118.9C183.362 114.734 180.961 111.927 177.401 111.927C173.84 111.927 171.508 114.718 171.508 118.836Z" fill="white"/>
<path d="M194.707 126.769H187.242V110.995H198.164V112.279H188.762V117.641H194.723C197.627 117.641 199.424 119.412 199.424 122.203C199.424 124.994 197.611 126.769 194.707 126.769ZM194.363 118.924H188.762V125.478H194.363C196.579 125.478 197.887 124.238 197.887 122.203C197.887 120.168 196.591 118.924 194.363 118.924Z" fill="white"/>
<path d="M217.334 126.769H215.894V117.241C215.894 115.581 215.962 113.942 216.07 112.279C215.761 113.234 215.405 114.206 215.029 115.138L210.365 126.769H209.013L204.292 115.274C203.892 114.322 203.56 113.346 203.252 112.371C203.36 113.97 203.428 115.569 203.428 117.201V126.769H201.988V110.995H204.028L208.613 122.247C209.013 123.223 209.345 124.218 209.701 125.214C210.053 124.238 210.365 123.243 210.741 122.291L215.261 110.995H217.322L217.334 126.769Z" fill="white"/>
<path d="M231.428 112.279H221.987V117.973H230.828V119.232H221.987V125.478H231.516V126.769H220.482V110.995H231.428V112.279Z" fill="white"/>
<path d="M246.029 126.769H244.525V119.144H235.108V126.769H233.6V110.995H235.108V117.861H244.525V110.995H246.029V126.769Z" fill="white"/>
<path d="M262.757 110.995C265.349 110.995 267.697 112.127 267.697 114.938C267.695 115.738 267.426 116.514 266.932 117.144C266.439 117.774 265.749 118.222 264.973 118.416C266.725 118.748 268.317 119.832 268.317 122.247C268.317 125.302 265.881 126.765 262.981 126.765H256V110.995H262.757ZM257.468 117.973H262.469C264.265 117.973 266.213 117.329 266.213 115.138C266.213 112.655 264.085 112.279 262.069 112.279H257.468V117.973ZM257.468 125.478H262.189C264.381 125.478 266.821 125.078 266.821 122.279C266.821 119.58 264.249 119.2 262.101 119.2H257.468V125.478Z" fill="white"/>
<path d="M281.727 112.279H272.27V117.973H281.111V119.232H272.27V125.478H281.799V126.769H270.782V110.995H281.727V112.279Z" fill="white"/>
<path d="M283.919 110.995H285.428V125.478H293.141V110.995H294.645V125.478H302.358V110.995H303.874V125.478H305.538V131.016H304.03V126.769H283.919V110.995Z" fill="white"/>
<path d="M318.4 112.279H308.963V117.973H317.804V119.232H308.963V125.478H318.492V126.769H307.475V110.995H318.42L318.4 112.279Z" fill="white"/>
<path d="M327.077 127.117C322.712 127.117 319.852 123.886 319.852 118.9C319.852 114.474 322.424 110.619 327.209 110.619C330.245 110.619 333.302 112.522 333.658 115.733H332.15C331.662 113.386 329.749 111.927 327.165 111.927C323.665 111.927 321.336 114.726 321.336 118.9C321.336 123.075 323.621 125.834 327.121 125.834C330.289 125.834 332.038 123.662 332.374 120.719H333.878C333.538 124.614 330.877 127.117 327.077 127.117Z" fill="white"/>
<path d="M346.655 112.279H341.115V126.769H339.611V112.279H334.07V110.995H346.655V112.279Z" fill="white"/>
<path d="M354.876 110.995C357.468 110.995 359.817 112.127 359.817 114.938C359.814 115.738 359.545 116.514 359.051 117.144C358.558 117.774 357.869 118.222 357.092 118.416C358.844 118.748 360.437 119.832 360.437 122.247C360.437 125.302 358 126.765 355.1 126.765H348.119V110.995H354.876ZM349.579 117.973H354.588C356.384 117.973 358.332 117.329 358.332 115.138C358.332 112.655 356.208 112.279 354.192 112.279H349.579V117.973ZM349.579 125.478H354.3C356.496 125.478 358.932 125.078 358.932 122.279C358.932 119.58 356.36 119.2 354.212 119.2H349.579V125.478Z" fill="white"/>
<path d="M1.6002 1.6709L6.80084 12.191L11.8975 1.6709H13.4977L7.20089 14.6941C5.89273 17.3931 4.80059 17.769 3.2564 17.769C2.68622 17.7632 2.125 17.6264 1.6162 17.3691V16.0856C2.15589 16.3872 2.77144 16.5261 3.38842 16.4855C4.49655 16.4855 5.20864 15.4219 5.74071 14.3143L5.93673 13.9144L0 1.6709H1.6002Z" fill="white"/>
<path d="M20.7624 17.793C16.3979 17.793 13.5615 14.5582 13.5615 9.57598C13.5615 5.1456 16.1298 1.29102 20.9184 1.29102C23.9308 1.29102 26.9912 3.21431 27.3432 6.41314H25.839C25.351 4.066 23.4387 2.60254 20.8504 2.60254C17.35 2.60254 15.0257 5.40151 15.0257 9.57998C15.0257 13.7584 17.306 16.5094 20.8024 16.5094C23.9708 16.5094 25.723 14.3382 26.0551 11.3913H27.5392C27.2032 15.2899 24.5509 17.793 20.7624 17.793Z" fill="white"/>
<path d="M35.2041 8.11254L42.673 17.4371H40.7448L34.128 9.13216L31.1116 11.8792V17.4371H29.6274V1.6709H31.1116V10.1518L40.3128 1.6709H42.313L35.2041 8.11254Z" fill="white"/>
<path d="M57.4392 9.61197C57.4392 14.5262 54.4228 17.829 49.9702 17.829C45.5177 17.829 42.5693 14.5062 42.5693 9.56798C42.5693 4.62979 45.5617 1.29102 50.0063 1.29102C54.4508 1.29102 57.4392 4.65778 57.4392 9.61197ZM44.0775 9.52C44.0775 13.7505 46.4258 16.5214 49.9942 16.5214C53.5627 16.5214 55.931 13.7505 55.931 9.58798C55.931 5.4255 53.5307 2.61053 49.9702 2.61053C46.4098 2.61053 44.0775 5.38951 44.0775 9.50801V9.52Z" fill="white"/>
<path d="M66.4081 1.6709C69.3565 1.6709 71.3727 3.15435 71.3727 6.09728C71.3727 9.17615 69.3725 10.7036 66.3641 10.7036H61.1635V17.4371H59.6553V1.6709H66.4081ZM61.1635 9.44405H65.9641C68.1363 9.44405 69.8845 8.55638 69.8845 6.20924C69.8845 3.95006 68.3803 2.95443 66.1201 2.95443H61.1635V9.44405Z" fill="white"/>
<path d="M73.769 17.4372H71.8208L77.2495 10.4397C74.4811 10.3518 72.6849 8.75636 72.6849 6.04136C72.6849 3.24238 74.5691 1.67896 77.4855 1.67896H84.1143V17.4372H82.6061V10.4397H79.2097L73.769 17.4372ZM82.5701 2.95449H77.7695C75.5533 2.95449 74.1691 3.99411 74.1691 6.03336C74.1691 8.07261 75.5653 9.15622 77.7695 9.15622H82.5701V2.95449Z" fill="white"/>
<path d="M98.0118 2.95443H88.5746V8.64434H97.4157V9.90788H88.5746V16.1536H98.0998V17.4371H87.0664V1.6709H98.0118V2.95443Z" fill="white"/>
<path d="M110.842 2.95443H105.305V17.4371H103.797V2.95443H98.2563V1.6709H110.842V2.95443Z" fill="white"/>
<path d="M128.761 1.6709C131.353 1.6709 133.701 2.79849 133.701 5.61345C133.698 6.4128 133.428 7.18823 132.935 7.8174C132.442 8.44657 131.753 8.89368 130.977 9.08818C132.729 9.42006 134.326 10.5077 134.326 12.9188C134.326 15.9777 131.885 17.4371 128.985 17.4371H122V1.6709H128.761ZM123.468 8.64434H128.473C130.269 8.64434 132.217 8.00458 132.217 5.80938C132.217 3.33029 130.093 2.95443 128.077 2.95443H123.468V8.64434ZM123.468 16.1536H128.185C130.381 16.1536 132.817 15.7537 132.817 12.9548C132.817 10.2518 130.245 9.87589 128.097 9.87589H123.468V16.1536Z" fill="white"/>
<path d="M143.602 17.4371H136.562V1.6709H138.07V8.31246H143.602C146.507 8.31246 148.299 10.0838 148.299 12.8748C148.299 15.6658 146.491 17.4371 143.602 17.4371ZM143.254 9.61199H138.054V16.1536H143.254C145.471 16.1536 146.779 14.914 146.779 12.8748C146.779 10.8355 145.471 9.61199 143.254 9.61199ZM152.003 1.6709V17.4371H150.495V1.6709H152.003Z" fill="white"/>
<path d="M161.737 1.6709C164.329 1.6709 166.677 2.79849 166.677 5.61345C166.674 6.4128 166.404 7.18823 165.911 7.8174C165.418 8.44657 164.729 8.89368 163.953 9.08818C165.701 9.42006 167.298 10.5077 167.298 12.9188C167.298 15.9777 164.861 17.4371 161.957 17.4371H154.98V1.6709H161.737ZM156.44 8.64434H161.449C163.245 8.64434 165.193 8.00458 165.193 5.80938C165.193 3.33029 163.065 2.95443 161.049 2.95443H156.44V8.64434ZM156.44 16.1536H161.161C163.353 16.1536 165.793 15.7537 165.793 12.9548C165.793 10.2518 163.221 9.87589 161.073 9.87589H156.44V16.1536Z" fill="white"/>
<path d="M183.584 9.61218C183.584 14.5264 180.571 17.8292 176.119 17.8292C171.666 17.8292 168.718 14.5064 168.718 9.56819C168.718 4.63 171.71 1.30322 176.139 1.30322C180.567 1.30322 183.584 4.65799 183.584 9.61218ZM170.222 9.52021C170.222 13.7507 172.574 16.5216 176.139 16.5216C179.703 16.5216 182.079 13.7507 182.079 9.58819C182.079 5.42571 179.679 2.61074 176.119 2.61074C172.558 2.61074 170.222 5.38973 170.222 9.50822V9.52021Z" fill="white"/>
<path d="M197.609 21.6916V17.4371H185.384V21.6916H183.875V16.1536H185.316C187.776 11.5473 187.664 6.2972 187.664 2.57857V1.6709H197.457V16.1536H199.121V21.6916H197.609ZM195.953 2.95443H189.172V3.24232C189.172 6.76503 189.172 11.8592 186.912 16.1536H195.953V2.95443Z" fill="white"/>
<path d="M223.586 2.95443H218.053V17.4371H216.545V2.95443H211V1.6709H223.586V2.95443Z" fill="white"/>
<path d="M238.453 9.61218C238.453 14.5264 235.44 17.8292 230.984 17.8292C226.527 17.8292 223.583 14.5064 223.583 9.56819C223.583 4.63 226.575 1.30322 231.008 1.30322C235.44 1.30322 238.453 4.65799 238.453 9.61218ZM225.091 9.52021C225.091 13.7507 227.439 16.5216 231.008 16.5216C234.576 16.5216 236.949 13.7507 236.949 9.58819C236.949 5.42571 234.548 2.61074 230.984 2.61074C227.419 2.61074 225.091 5.38973 225.091 9.50822V9.52021Z" fill="white"/>
<path d="M246.142 8.11254L253.611 17.4371H251.682L245.082 9.13216L242.065 11.8792V17.4371H240.581V1.6709H242.065V10.1518L251.266 1.6709H253.267L246.142 8.11254Z" fill="white"/>
<path d="M260.836 17.793C256.471 17.793 253.611 14.5582 253.611 9.57598C253.611 5.1456 256.183 1.29102 260.968 1.29102C264.004 1.29102 267.065 3.19832 267.417 6.40914H265.912C265.424 4.062 263.512 2.59854 260.924 2.59854C257.423 2.59854 255.099 5.39751 255.099 9.57598C255.099 13.7544 257.379 16.5094 260.88 16.5094C264.048 16.5094 265.8 14.3382 266.132 11.3913H267.637C267.285 15.2899 264.624 17.793 260.836 17.793Z" fill="white"/>
<path d="M269.721 1.6709H271.237V15.8217L280.182 1.6709H282.13V17.4371H280.626V3.28631L271.673 17.4371H269.721V1.6709Z" fill="white"/>
<path d="M297.512 17.4371H296.004V9.8399H286.587V17.4371H285.079V1.6709H286.587V8.53638H296.004V1.6709H297.512V17.4371Z" fill="white"/>
<path d="M314.53 9.61218C314.53 14.5264 311.518 17.8292 307.062 17.8292C302.605 17.8292 299.661 14.5064 299.661 9.56819C299.661 4.63 302.653 1.30322 307.086 1.30322C311.518 1.30322 314.53 4.65799 314.53 9.61218ZM301.169 9.52021C301.169 13.7507 303.517 16.5216 307.086 16.5216C310.654 16.5216 313.022 13.7507 313.022 9.58819C313.022 5.42571 310.622 2.61074 307.062 2.61074C303.501 2.61074 301.169 5.38973 301.169 9.50822V9.52021Z" fill="white"/>
<path d="M323.761 1.6709C326.365 1.6709 328.701 2.81448 328.701 5.61345C328.697 6.4144 328.426 7.19107 327.93 7.82045C327.435 8.44983 326.743 8.89596 325.965 9.08818C327.713 9.42006 329.31 10.5077 329.31 12.9188C329.31 15.9777 326.873 17.4371 323.969 17.4371H317V1.6709H323.761ZM318.464 8.64434H323.473C325.265 8.64434 327.217 8.00458 327.217 5.80938C327.217 3.33029 325.089 2.95443 323.073 2.95443H318.464V8.64434ZM318.464 16.1536H323.185C325.377 16.1536 327.813 15.7537 327.813 12.9548C327.813 10.2518 325.245 9.87589 323.097 9.87589H318.464V16.1536Z" fill="white"/>
<path d="M360.452 13.2107C360.437 14.2999 360.142 15.3668 359.595 16.3088C359.047 17.2508 358.267 18.036 357.328 18.5887C355.239 19.8363 353.055 19.8403 350.887 18.7287C350.838 18.6973 350.781 18.6807 350.723 18.6807C350.665 18.6807 350.608 18.6973 350.559 18.7287C349.067 19.5274 347.322 19.7124 345.696 19.2442C344.069 18.776 342.69 17.6916 341.852 16.2221C341.014 14.7525 340.783 13.0139 341.209 11.3767C341.634 9.73945 342.682 8.33295 344.13 7.45681C344.179 7.43796 344.22 7.4022 344.245 7.356C344.269 7.3098 344.277 7.25621 344.266 7.2049C344.16 6.367 344.225 5.5163 344.459 4.7045C344.692 3.89271 345.088 3.13677 345.622 2.48263C346.579 1.22658 347.98 0.382847 349.539 0.123498C350.653 -0.100473 351.807 -0.0187415 352.878 0.360015C353.949 0.738772 354.898 1.40042 355.623 2.27471C356.689 3.45872 357.261 5.00504 357.224 6.59713C357.222 6.7751 357.209 6.95278 357.184 7.12893C357.165 7.1979 357.173 7.27107 357.204 7.33499C357.236 7.3989 357.29 7.44926 357.356 7.4768C358.404 8.08934 359.25 8.99391 359.792 10.0799C360.258 11.0561 360.484 12.1295 360.452 13.2107ZM355.887 6.81305C355.957 5.87813 355.767 4.94218 355.339 4.1078C354.912 3.27342 354.263 2.57282 353.463 2.08278C352.549 1.5519 351.5 1.30039 350.445 1.35938C349.39 1.41836 348.375 1.78525 347.526 2.41466C346.082 3.51426 345.526 5.0417 345.526 6.81305L345.71 6.76906C347.341 6.30407 349.09 6.50242 350.575 7.32086C350.62 7.35198 350.674 7.36864 350.729 7.36864C350.784 7.36864 350.837 7.35198 350.883 7.32086C351.757 6.83362 352.735 6.55963 353.735 6.52115C354.464 6.49311 355.192 6.59188 355.887 6.81305ZM344.602 8.69236C342.29 10.1478 341.582 13.2187 343.07 15.7298C343.705 16.8071 344.717 17.6105 345.911 17.9843C347.104 18.3581 348.394 18.2757 349.531 17.753C349.499 17.7211 349.475 17.6851 349.443 17.6571C348.735 16.9781 348.194 16.1458 347.859 15.2245C347.525 14.3031 347.407 13.3172 347.514 12.343C347.527 12.289 347.52 12.2324 347.495 12.1828C347.47 12.1332 347.429 12.0938 347.378 12.0711C346.718 11.6775 346.134 11.1683 345.654 10.5677C345.207 10.0017 344.852 9.36887 344.602 8.69236ZM351.935 17.777C353.155 18.326 354.543 18.37 355.795 17.8995C357.048 17.429 358.063 16.4822 358.62 15.266C359.82 12.7269 358.9 9.9399 356.843 8.70435C356.843 8.70435 356.819 8.73234 356.815 8.75234C356.298 10.1623 355.308 11.3502 354.015 12.1151C353.989 12.1374 353.969 12.1651 353.955 12.1962C353.941 12.2273 353.934 12.261 353.935 12.295C354.119 13.816 353.74 15.3517 352.871 16.6135C352.587 17.0173 352.251 17.3852 351.935 17.777ZM350.735 17.0373C351.382 16.5293 351.896 15.8704 352.23 15.1183C352.564 14.3662 352.708 13.5438 352.651 12.7229C351.402 13.1027 350.068 13.1027 348.818 12.7229C348.526 14.0104 349.543 16.2736 350.723 17.0373H350.735ZM347.81 10.8116C348.058 10.3518 348.266 9.87992 348.546 9.45608C348.826 9.03223 349.183 8.63638 349.511 8.22053C348.324 7.71642 346.992 7.67083 345.774 8.09258C346.134 9.19882 346.85 10.1549 347.81 10.8116ZM351.887 8.24052C352.652 8.95978 353.237 9.84871 353.595 10.8356C354.575 10.1809 355.306 9.21429 355.667 8.09258C354.432 7.67336 353.084 7.72895 351.887 8.24852V8.24052Z" fill="#F9FAFB"/>
<path d="M8.20089 90.6785C3.83635 90.6785 1 87.4437 1 82.4615C1 78.0311 3.56832 74.1765 8.35691 74.1765C11.3933 74.1765 14.4497 76.0798 14.8057 79.2946H13.2775C12.7895 76.9435 10.8772 75.484 8.2929 75.484C4.79247 75.484 2.46418 78.283 2.46418 82.4615C2.46418 86.6399 4.74446 89.3909 8.24889 89.3909C11.4173 89.3909 13.1655 87.2237 13.4975 84.2768H14.9817C14.6497 88.1754 11.9934 90.6785 8.20089 90.6785Z" fill="white"/>
<path d="M30.8439 82.4815C30.8439 87.3997 27.8315 90.6985 23.3789 90.6985C18.9264 90.6985 15.978 87.3757 15.978 82.4375C15.978 77.4993 18.9704 74.1765 23.3989 74.1765C27.8275 74.1765 30.8439 77.5433 30.8439 82.4815ZM17.4862 82.3855C17.4862 86.616 19.8345 89.3829 23.3989 89.3829C26.9634 89.3829 29.3397 86.616 29.3397 82.4535C29.3397 78.291 26.9394 75.476 23.3789 75.476C19.8185 75.476 17.4862 78.275 17.4862 82.3855Z" fill="white"/>
<path d="M42.2814 90.3225V75.8358H35.9206L35.6326 85.1164C35.5446 88.2832 34.7045 90.6543 32.3082 90.6543C31.759 90.6613 31.2143 90.5551 30.708 90.3425V89.1029C31.2018 89.2918 31.7276 89.3828 32.2562 89.3708C33.3883 89.3708 34.0524 88.2632 34.1844 84.2327L34.4965 74.5522H43.7816V90.3225H42.2814Z" fill="white"/>
<path d="M57.3073 75.8358H47.8661V81.5297H56.7072V82.7852H47.8661V89.0309H57.3953V90.3145H46.3579V74.5522H57.3073V75.8358Z" fill="white"/>
<path d="M65.7041 74.5522C68.2964 74.5522 70.6447 75.6838 70.6447 78.4948C70.6421 79.2948 70.3728 80.0712 69.8794 80.7012C69.3861 81.3312 68.6967 81.7789 67.9204 81.9735C69.6726 82.3054 71.2648 83.389 71.2648 85.8041C71.2648 88.859 68.8285 90.3225 65.9241 90.3225H58.9473V74.5522H65.7041ZM60.4074 81.5297H65.4161C67.2123 81.5297 69.1605 80.8859 69.1605 78.6947C69.1605 76.2156 67.0323 75.8358 65.016 75.8358H60.4074V81.5297ZM60.4074 89.0389H65.128C67.3203 89.0389 69.7606 88.6391 69.7606 85.8401C69.7606 83.1371 67.1883 82.7612 65.04 82.7612H60.4074V89.0389Z" fill="white"/>
<path d="M87.2106 82.4815C87.2106 87.3997 84.1943 90.6985 79.7417 90.6985C75.2892 90.6985 72.3408 87.3757 72.3408 82.4375C72.3408 77.4993 75.3332 74.1765 79.7657 74.1765C84.1983 74.1765 87.2106 77.5433 87.2106 82.4815ZM73.849 82.3935C73.849 86.624 76.1973 89.3909 79.7657 89.3909C83.3342 89.3909 85.7025 86.624 85.7025 82.4615C85.7025 78.299 83.3022 75.484 79.7417 75.484C76.1813 75.484 73.861 78.275 73.861 82.3855L73.849 82.3935Z" fill="white"/>
<path d="M89.0391 74.5523H90.5472V88.7072L99.4963 74.5523H101.449V90.3226H99.9404V76.1717L90.9913 90.3226H89.0391V74.5523ZM92.9395 70.6978C93.0716 71.8293 93.9157 72.5171 95.2198 72.5171C96.524 72.5171 97.3481 71.8493 97.5721 70.6978H98.4362C98.1042 72.5611 97.016 73.5807 95.1998 73.5807C93.3836 73.5807 92.2955 72.5611 92.0754 70.6978H92.9395Z" fill="white"/>
<path d="M202.465 90.3227H195V74.5525H205.921V75.836H196.504V81.1861H202.465C205.369 81.1861 207.162 82.9574 207.162 85.7484C207.162 88.5394 205.369 90.3227 202.465 90.3227ZM202.133 82.4816H196.504V89.0392H202.133C204.349 89.0392 205.657 87.7956 205.657 85.7604C205.657 83.7251 204.349 82.4816 202.133 82.4816Z" fill="white"/>
<path d="M222.319 90.3228H220.659L218.755 85.3606H211.53L209.602 90.3228H208.001L214.366 74.5085H216.046L222.319 90.3228ZM215.186 75.928L211.986 84.145H218.287L215.186 75.928Z" fill="white"/>
<path d="M233.889 90.3227V75.836H227.528L227.248 85.1166C227.16 88.2835 226.32 90.6546 223.923 90.6546C223.374 90.6615 222.83 90.5554 222.323 90.3427V89.1032C222.817 89.2921 223.343 89.3831 223.871 89.3711C225.004 89.3711 225.668 88.2635 225.8 84.2329L226.112 74.5525H235.397V90.3227H233.889Z" fill="white"/>
<path d="M251.063 90.3228H249.403L247.494 85.3606H240.27L238.345 90.3228H236.745L243.126 74.5085H244.79L251.063 90.3228ZM243.926 75.928L240.726 84.145H247.018L243.926 75.928Z" fill="white"/>
<path d="M264.889 90.3227H263.385V82.7255H253.967V90.3227H252.451V74.5525H253.959V81.418H263.377V74.5525H264.881L264.889 90.3227Z" fill="white"/>
<path d="M274.574 90.6787C270.209 90.6787 267.373 87.4439 267.373 82.4617C267.373 78.0313 269.941 74.1768 274.726 74.1768C277.762 74.1768 280.823 76.0801 281.175 79.2949H279.655C279.167 76.9437 277.254 75.4843 274.666 75.4843C271.166 75.4843 268.841 78.2833 268.841 82.4617C268.841 86.6402 271.122 89.3912 274.622 89.3912C277.79 89.3912 279.543 87.224 279.875 84.2771H281.359C281.023 88.1756 278.362 90.6787 274.574 90.6787Z" fill="white"/>
<path d="M173.672 88.8588H118.361C118.231 88.8588 118.108 88.815 118.016 88.737C117.925 88.659 117.874 88.5533 117.874 88.443C117.874 88.3327 117.925 88.2269 118.016 88.1489C118.108 88.0709 118.231 88.0271 118.361 88.0271H173.672C174.641 88.0271 175.571 87.6987 176.257 87.1139C176.943 86.5291 177.329 85.7358 177.33 84.9083V81.9054C177.33 81.7951 177.381 81.6893 177.473 81.6113C177.564 81.5333 177.688 81.4895 177.817 81.4895C177.946 81.4895 178.07 81.5333 178.161 81.6113C178.253 81.6893 178.304 81.7951 178.304 81.9054V84.9083C178.302 85.9561 177.813 86.9603 176.944 87.7008C176.076 88.4413 174.899 88.8578 173.672 88.8588Z" fill="white"/>
<path d="M173.672 89.0868H118.361C118.161 89.0868 117.969 89.0189 117.828 88.8982C117.686 88.7775 117.607 88.6137 117.607 88.443C117.607 88.2723 117.686 88.1085 117.828 87.9878C117.969 87.8671 118.161 87.7992 118.361 87.7992H173.672C174.571 87.7992 175.433 87.4948 176.068 86.9527C176.704 86.4107 177.062 85.6754 177.063 84.9083V81.9054C177.055 81.8169 177.069 81.7278 177.103 81.6439C177.137 81.56 177.191 81.483 177.261 81.4178C177.332 81.3526 177.418 81.3005 177.513 81.2649C177.608 81.2293 177.711 81.2109 177.815 81.2109C177.919 81.2109 178.022 81.2293 178.117 81.2649C178.213 81.3005 178.298 81.3526 178.369 81.4178C178.44 81.483 178.494 81.56 178.528 81.6439C178.562 81.7278 178.575 81.8169 178.567 81.9054V84.9083C178.566 86.0162 178.05 87.0784 177.132 87.8618C176.214 88.6451 174.97 89.0857 173.672 89.0868ZM118.361 88.2551C118.303 88.2551 118.247 88.2749 118.205 88.3101C118.164 88.3454 118.141 88.3932 118.141 88.443C118.141 88.4928 118.164 88.5407 118.205 88.5759C118.247 88.6111 118.303 88.6309 118.361 88.6309H173.672C174.829 88.6299 175.938 88.2375 176.756 87.5397C177.574 86.8419 178.035 85.8956 178.038 84.9083V81.9054C178.038 81.8807 178.032 81.8563 178.021 81.8335C178.01 81.8107 177.994 81.79 177.973 81.7725C177.953 81.7551 177.928 81.7412 177.902 81.7318C177.875 81.7223 177.846 81.7175 177.817 81.7175C177.759 81.7175 177.702 81.7371 177.66 81.7723C177.618 81.8074 177.594 81.8552 177.593 81.9054V84.9083C177.591 85.7956 177.178 86.6462 176.443 87.2737C175.708 87.9011 174.712 88.254 173.672 88.2551H118.361Z" fill="white"/>
<path d="M173.832 84.6644L174.543 85.2322L177.813 82.2253L181.087 85.2322L181.799 84.6644L177.813 81.0017L173.832 84.6644Z" fill="white"/>
<path d="M174.558 85.5519L173.457 84.6763L177.813 80.6777L182.178 84.6763L181.073 85.5519L177.794 82.557L174.558 85.5519ZM177.813 81.8933L181.092 84.9082L181.415 84.6523L177.804 81.3375L174.197 84.6523L174.52 84.9082L177.813 81.8933Z" fill="white"/>
<path d="M118.361 82.9888C118.237 82.9888 118.118 82.9467 118.03 82.8717C117.942 82.7967 117.893 82.695 117.893 82.5889V79.674C117.894 78.6039 118.392 77.578 119.278 76.8209C120.164 76.0639 121.365 75.6376 122.619 75.6355H177.115C177.244 75.6355 177.368 75.6793 177.459 75.7573C177.551 75.8353 177.602 75.9411 177.602 76.0513C177.602 76.1616 177.551 76.2674 177.459 76.3454C177.368 76.4234 177.244 76.4672 177.115 76.4672H122.6C121.606 76.4672 120.653 76.8042 119.95 77.4041C119.248 78.004 118.853 78.8176 118.853 79.666V82.5809C118.854 82.6358 118.842 82.6904 118.818 82.7412C118.793 82.792 118.757 82.838 118.711 82.8762C118.665 82.9145 118.61 82.9442 118.55 82.9636C118.489 82.983 118.425 82.9915 118.361 82.9888Z" fill="white"/>
<path d="M118.361 83.2127C118.162 83.2127 117.971 83.1455 117.829 83.0256C117.688 82.9057 117.608 82.743 117.607 82.573V79.658C117.608 78.5275 118.134 77.4436 119.07 76.6438C120.006 75.844 121.276 75.3937 122.6 75.3916H177.115C177.315 75.3916 177.507 75.4594 177.648 75.5802C177.789 75.7009 177.869 75.8646 177.869 76.0354C177.869 76.2061 177.789 76.3698 177.648 76.4906C177.507 76.6113 177.315 76.6791 177.115 76.6791H122.6C121.675 76.6802 120.789 76.9945 120.136 77.553C119.482 78.1116 119.115 78.8687 119.115 79.658V82.573C119.114 82.743 119.034 82.9057 118.893 83.0256C118.751 83.1455 118.56 83.2127 118.361 83.2127ZM122.6 75.8474C121.417 75.8485 120.283 76.2504 119.447 76.965C118.611 77.6795 118.141 78.6481 118.141 79.658V82.573C118.141 82.6228 118.164 82.6706 118.205 82.7059C118.247 82.7411 118.303 82.7609 118.361 82.7609C118.419 82.7609 118.475 82.7411 118.517 82.7059C118.558 82.6706 118.581 82.6228 118.581 82.573V79.658C118.581 78.7478 119.004 77.8747 119.758 77.2307C120.511 76.5867 121.534 76.2244 122.6 76.2233H177.115C177.173 76.2233 177.229 76.2035 177.271 76.1683C177.312 76.133 177.335 76.0852 177.335 76.0354C177.335 75.9855 177.312 75.9377 177.271 75.9025C177.229 75.8672 177.173 75.8474 177.115 75.8474H122.6Z" fill="white"/>
<path d="M114.375 79.8139L115.087 79.2461L118.361 82.253L121.63 79.2461L122.347 79.8139L118.361 83.4725L114.375 79.8139Z" fill="white"/>
<path d="M118.361 83.8085L114 79.81L115.101 78.9343L118.379 81.9292L121.635 78.9343L122.74 79.81L118.361 83.8085ZM114.749 79.81L118.361 83.1248L121.972 79.81L121.644 79.5501L118.365 82.569L115.087 79.5501L114.749 79.81Z" fill="white"/>
<path d="M314.697 77.3999C315.498 77.2559 316.274 77.116 317.046 77C317.127 77.0037 317.204 77.0379 317.262 77.096C318.71 78.3675 320.162 79.639 321.602 80.9186C321.679 81.0001 321.776 81.0601 321.884 81.0923C321.991 81.1246 322.105 81.1281 322.214 81.1025C324.799 80.636 327.386 80.1775 329.975 79.727C331.644 79.4311 335.796 78.7514 337.468 78.4835C338.173 78.3576 338.899 78.4296 339.565 78.6914C339.835 78.8011 340.086 78.9537 340.309 79.1432C340.542 79.3299 340.7 79.5948 340.753 79.8889C340.806 80.183 340.75 80.4863 340.597 80.7426C340.297 81.2592 339.844 81.67 339.301 81.9182C338.644 82.2274 337.941 82.4286 337.22 82.514C336.304 82.6739 334.536 82.9418 333.62 83.1137C333.502 83.1361 333.392 83.1885 333.3 83.2657C331.502 84.8331 329.707 86.4005 327.915 87.968C327.783 88.0812 327.625 88.1595 327.455 88.1959C326.655 88.3558 325.855 88.4918 325.023 88.6357C324.955 88.6357 324.887 88.6357 324.791 88.6557L325.655 84.5172C325.403 84.5612 323.535 84.8611 323.307 84.9171C322.416 85.1046 321.511 85.213 320.602 85.241C318.56 85.2545 316.563 84.6449 314.877 83.4936C314.803 83.4324 314.751 83.348 314.729 83.2537C314.669 82.9978 314.633 82.7379 314.585 82.454L316.362 82.1341L314.697 77.3999Z" fill="#F9FAFB"/>
<path d="M302.245 75C302.245 84.4885 297.744 83.241 294 83.241C297.772 83.241 302.245 84.3446 302.245 91.482C302.245 84.3446 306.646 83.241 310.49 83.241C306.622 83.241 302.245 84.4885 302.245 75Z" fill="white"/>
<path d="M353.245 75C353.245 84.4885 348.744 83.241 345 83.241C348.772 83.241 353.245 84.3446 353.245 91.482C353.245 84.3446 357.646 83.241 361.49 83.241C357.622 83.241 353.245 84.4885 353.245 75Z" fill="white"/>
<path d="M8.50927 38.1094C11.1016 38.1094 13.4499 39.241 13.4499 42.0519C13.4473 42.852 13.178 43.6283 12.6846 44.2583C12.1913 44.8883 11.5019 45.336 10.7255 45.5307C12.4738 45.8625 14.07 46.9461 14.07 49.3612C14.07 52.4201 11.6337 53.8796 8.7293 53.8796H1.75244V38.1094H8.50927ZM3.20062 45.0868H8.22124C10.0175 45.0868 11.9657 44.447 11.9657 42.2519C11.9657 39.7728 9.83744 39.3969 7.82119 39.3969H3.20062V45.0868ZM3.20062 52.5961H7.9212C10.1135 52.5961 12.5538 52.1962 12.5538 49.3972C12.5538 46.6942 9.98146 46.3184 7.83319 46.3184H3.20062V52.5961Z" fill="white"/>
<path d="M30.5798 46.0384C30.5798 50.9566 27.5674 54.2553 23.1109 54.2553C18.6543 54.2553 15.71 50.9326 15.71 45.9944C15.71 41.0562 18.7023 37.7334 23.1349 37.7334C27.5674 37.7334 30.5798 41.1002 30.5798 46.0384ZM17.2021 45.9504C17.2021 50.1808 19.5504 52.9518 23.1189 52.9518C26.6873 52.9518 29.0556 50.1808 29.0556 46.0184C29.0556 41.8559 26.6553 39.0409 23.0949 39.0409C19.5344 39.0409 17.2021 41.8319 17.2021 45.9504Z" fill="white"/>
<path d="M39.4446 54.2354C35.0801 54.2354 32.2197 51.0005 32.2197 46.0184C32.2197 41.6 34.804 37.7334 39.5766 37.7334C42.613 37.7334 45.6694 39.6407 46.0254 42.8515H44.5172C44.0292 40.5044 42.1169 39.0409 39.5326 39.0409C36.0322 39.0409 33.7039 41.8399 33.7039 46.0184C33.7039 50.1968 36.0042 52.9518 39.4886 52.9518C42.657 52.9518 44.4092 50.7806 44.7413 47.8337H46.2255C45.8934 51.7323 43.2331 54.2354 39.4446 54.2354Z" fill="white"/>
<path d="M55.0467 54.2354C50.6781 54.2354 47.8218 51.0005 47.8218 46.0184C47.8218 41.588 50.3901 37.7334 55.1787 37.7334C58.215 37.7334 61.2714 39.6407 61.6275 42.8515H60.1193C59.6312 40.5044 57.719 39.0409 55.1347 39.0409C51.6342 39.0409 49.306 41.8399 49.306 46.0184C49.306 50.1968 51.5902 52.9518 55.0907 52.9518C58.2591 52.9518 60.0073 50.7806 60.3393 47.8337H61.8235C61.4914 51.7323 58.8351 54.2354 55.0467 54.2354Z" fill="white"/>
<path d="M74.6134 39.3969H69.0727V53.8796H67.5645V39.3969H62.0278V38.1094H74.6134V39.3969Z" fill="white"/>
<path d="M87.1108 53.8794H85.4506L83.5424 48.9172H76.3215L74.4093 53.8794H72.7891L79.1899 38.0652H80.8101L87.1108 53.8794ZM79.978 39.4847L76.7776 47.7017H83.0703L79.978 39.4847Z" fill="white"/>
<path d="M100.94 53.8796H99.4323V46.2624H90.0111V53.8796H88.5029V38.1094H90.0111V44.9749H99.4283V38.1094H100.936L100.94 53.8796Z" fill="white"/>
<path d="M116.674 53.8794H115.01L113.106 48.9172H105.881L103.953 53.8794H102.353L108.733 38.0652H110.394L116.674 53.8794ZM109.537 39.4847L106.337 47.7017H112.63L109.537 39.4847Z" fill="white"/>
<path d="M124.852 38.1094C127.444 38.1094 129.792 39.241 129.792 42.0519C129.789 42.8525 129.52 43.6293 129.025 44.2593C128.531 44.8894 127.841 45.3367 127.064 45.5307C128.816 45.8625 130.412 46.9461 130.412 49.3612C130.412 52.4201 127.976 53.8796 125.072 53.8796H118.091V38.1094H124.852ZM119.555 45.0868H124.564C126.356 45.0868 128.308 44.447 128.308 42.2519C128.308 39.7728 126.18 39.3969 124.164 39.3969H119.555V45.0868ZM119.555 52.5961H124.276C126.468 52.5961 128.904 52.1962 128.904 49.3972C128.904 46.6942 126.336 46.3184 124.184 46.3184H119.555V52.5961Z" fill="white"/>
<path d="M142.314 53.8796V39.3969H135.953L135.665 48.6735C135.577 51.8443 134.733 54.2115 132.34 54.2115C131.792 54.2165 131.248 54.1118 130.74 53.9036V52.66C131.235 52.8493 131.763 52.9403 132.292 52.928C133.421 52.928 134.089 51.8204 134.221 47.7898L134.529 38.1094H143.818V53.8796H142.314Z" fill="white"/>
<path d="M146.942 38.1094H148.45V52.2642L157.403 38.1094H159.351V53.8796H157.847V39.7288L148.894 53.8796H146.942V38.1094Z" fill="white"/>
<path d="M169.305 38.1094C171.897 38.1094 174.245 39.241 174.245 42.0519C174.243 42.8525 173.973 43.6293 173.479 44.2593C172.984 44.8894 172.294 45.3367 171.517 45.5307C173.269 45.8625 174.865 46.9461 174.865 49.3612C174.865 52.4201 172.425 53.8796 169.525 53.8796H162.544V38.1094H169.305ZM164.02 45.0868H169.029C170.821 45.0868 172.773 44.447 172.773 42.2519C172.773 39.7728 170.645 39.3969 168.629 39.3969H164.02V45.0868ZM164.02 52.5961H168.737C170.933 52.5961 173.369 52.1962 173.369 49.3972C173.369 46.6942 170.801 46.3184 168.649 46.3184H164.02V52.5961Z" fill="white"/>
<path d="M189.868 53.8794H188.207L186.299 48.9172H179.074L177.15 53.8794H175.53L181.931 38.0652H183.595L189.868 53.8794ZM182.731 39.4847L179.53 47.7017H185.823L182.731 39.4847Z" fill="white"/>
<path d="M202.233 39.3969H192.792V45.0868H201.625V46.3504H192.784V52.5961H202.313V53.8796H191.288V38.1094H202.233V39.3969Z" fill="white"/>
<path d="M215.282 39.3969H209.746V53.8796H208.237V39.3969H202.697V38.1094H215.282V39.3969Z" fill="white"/>
<path d="M282.761 38.1094C285.353 38.1094 287.701 39.241 287.701 42.0519C287.699 42.8525 287.429 43.6293 286.935 44.2593C286.44 44.8894 285.75 45.3367 284.973 45.5307C286.725 45.8625 288.322 46.9461 288.322 49.3612C288.322 52.4201 285.885 53.8796 282.981 53.8796H276V38.1094H282.761ZM277.464 45.0868H282.473C284.265 45.0868 286.217 44.447 286.217 42.2519C286.217 39.7728 284.089 39.3969 282.073 39.3969H277.464V45.0868ZM277.464 52.5961H282.185C284.377 52.5961 286.813 52.1962 286.813 49.3972C286.813 46.6942 284.245 46.3184 282.093 46.3184H277.464V52.5961Z" fill="white"/>
<path d="M304.832 46.0384C304.832 50.9566 301.815 54.2553 297.363 54.2553C292.91 54.2553 289.962 50.9326 289.962 45.9944C289.962 41.0562 292.954 37.7334 297.387 37.7334C301.819 37.7334 304.832 41.1002 304.832 46.0384ZM291.47 45.9504C291.47 50.1808 293.818 52.9518 297.387 52.9518C300.955 52.9518 303.324 50.1808 303.324 46.0184C303.324 41.8559 300.923 39.0409 297.363 39.0409C293.802 39.0409 291.47 41.8319 291.47 45.9504Z" fill="white"/>
<path d="M319.078 58.134V53.8796H306.848V58.134H305.34V52.5961H306.78C309.24 47.9898 309.128 42.7397 309.128 39.001V38.1094H318.926V52.5961H320.586V58.134H319.078ZM317.417 39.3969H310.64V39.6848C310.64 43.2035 310.664 48.2976 308.38 52.5961H317.421L317.417 39.3969Z" fill="white"/>
<path d="M334.811 53.8796H333.307V46.2624H323.89V53.8796H322.382V38.1094H323.89V44.9749H333.307V38.1094H334.811V53.8796Z" fill="white"/>
<path d="M352.053 46.0384C352.053 50.9566 349.041 54.2553 344.585 54.2553C340.128 54.2553 337.184 50.9326 337.184 45.9944C337.184 41.0562 340.176 37.7334 344.609 37.7334C349.041 37.7334 352.053 41.1002 352.053 46.0384ZM338.692 45.9504C338.692 50.1808 341.04 52.9518 344.609 52.9518C348.177 52.9518 350.545 50.1808 350.545 46.0184C350.545 41.8559 348.145 39.0409 344.585 39.0409C341.024 39.0409 338.692 41.8319 338.692 45.9504Z" fill="white"/>
<path d="M359.722 48.4775H354.162V47.126H359.722V48.4775Z" fill="white"/>
<path d="M245.156 36.854C241.763 36.854 254.733 46.4505 254.733 46.4505C254.733 46.4505 241.763 56.047 245.156 56.047C248.548 56.047 254.757 49.8492 254.757 46.4505C254.757 43.0517 248.548 36.854 245.156 36.854Z" fill="white"/>
<path d="M252.953 36.854C249.561 36.854 262.53 46.4505 262.53 46.4505C262.53 46.4505 249.561 56.047 252.953 56.047C256.345 56.047 262.554 49.8492 262.554 46.4505C262.554 43.0517 256.341 36.854 252.953 36.854Z" fill="white"/>
<path d="M229.566 36.854C226.173 36.854 239.143 46.4505 239.143 46.4505C239.143 46.4505 226.173 56.047 229.566 56.047C232.958 56.047 239.167 49.8492 239.167 46.4505C239.167 43.0517 232.954 36.854 229.566 36.854Z" fill="white"/>
<path d="M237.359 36.854C233.971 36.854 246.94 46.4505 246.94 46.4505C246.94 46.4505 233.971 56.047 237.359 56.047C240.747 56.047 246.96 49.8492 246.96 46.4505C246.96 43.0517 240.751 36.854 237.359 36.854Z" fill="white"/>
</svg>
