<svg width="361" height="171" viewBox="0 0 361 171" fill="none" xmlns="http://www.w3.org/2000/svg">
<path d="M151.046 171C148.888 170.998 146.797 170.247 145.13 168.874C143.463 167.502 142.322 165.593 141.903 163.473C141.484 161.353 141.811 159.153 142.83 157.248C143.848 155.343 145.495 153.85 147.489 153.024C149.484 152.198 151.703 152.09 153.767 152.719C155.832 153.347 157.616 154.673 158.814 156.471C160.012 158.268 160.551 160.426 160.339 162.577C160.126 164.727 159.176 166.738 157.649 168.266C156.793 169.148 155.766 169.846 154.63 170.316C153.495 170.787 152.275 171.019 151.046 171ZM151.046 169.81C152.93 169.809 154.754 169.154 156.21 167.957C157.665 166.76 158.661 165.095 159.027 163.245C159.394 161.395 159.109 159.475 158.221 157.812C157.332 156.149 155.896 154.846 154.155 154.124C152.415 153.403 150.479 153.308 148.677 153.856C146.875 154.404 145.318 155.561 144.272 157.129C143.226 158.697 142.755 160.58 142.94 162.457C143.125 164.334 143.953 166.089 145.285 167.422C146.032 168.193 146.928 168.802 147.919 169.213C148.91 169.623 149.974 169.827 151.046 169.81ZM146.298 166.471H145.564C145.654 165 146.266 163.609 147.29 162.551C148.328 161.639 149.662 161.137 151.042 161.137C152.423 161.137 153.756 161.639 154.794 162.551C155.819 163.609 156.434 164.999 156.528 166.471H155.786C155.208 163.894 153.624 162.606 151.034 162.609C148.444 162.612 146.872 163.902 146.319 166.479L146.298 166.471ZM148.074 160.155C147.88 160.155 147.688 160.117 147.509 160.043C147.329 159.969 147.166 159.86 147.029 159.723C146.892 159.586 146.783 159.423 146.71 159.243C146.636 159.063 146.598 158.871 146.598 158.677C146.594 158.483 146.628 158.29 146.7 158.11C146.771 157.93 146.879 157.767 147.015 157.629C147.151 157.492 147.314 157.384 147.493 157.313C147.672 157.241 147.864 157.206 148.057 157.212C148.253 157.209 148.447 157.245 148.628 157.318C148.809 157.391 148.974 157.5 149.113 157.637C149.252 157.775 149.362 157.939 149.437 158.119C149.512 158.3 149.55 158.494 149.55 158.689C149.553 158.885 149.515 159.08 149.439 159.26C149.363 159.44 149.25 159.603 149.108 159.737C148.972 159.873 148.811 159.981 148.634 160.054C148.456 160.128 148.266 160.164 148.074 160.163V160.155ZM154.018 160.155C153.824 160.159 153.631 160.125 153.451 160.053C153.27 159.981 153.106 159.874 152.968 159.737C152.831 159.6 152.722 159.438 152.648 159.259C152.574 159.079 152.535 158.887 152.535 158.694C152.535 158.5 152.574 158.308 152.648 158.129C152.722 157.949 152.831 157.787 152.968 157.65C153.106 157.513 153.27 157.406 153.451 157.334C153.631 157.263 153.824 157.228 154.018 157.232C154.41 157.232 154.785 157.388 155.062 157.665C155.339 157.942 155.494 158.318 155.494 158.71C155.494 159.102 155.339 159.478 155.062 159.755C154.785 160.032 154.41 160.188 154.018 160.188V160.155Z" fill="white"/>
<path d="M171.781 171C169.623 170.999 167.532 170.249 165.864 168.877C164.196 167.505 163.055 165.596 162.635 163.476C162.214 161.356 162.541 159.156 163.559 157.25C164.578 155.344 166.224 153.851 168.219 153.025C170.213 152.198 172.432 152.09 174.497 152.718C176.562 153.346 178.346 154.672 179.544 156.47C180.743 158.267 181.282 160.425 181.07 162.576C180.857 164.727 179.907 166.738 178.38 168.266C177.525 169.149 176.498 169.847 175.364 170.317C174.229 170.787 173.009 171.02 171.781 171ZM171.781 169.81C173.665 169.81 175.49 169.156 176.946 167.96C178.402 166.763 179.399 165.098 179.766 163.248C180.134 161.398 179.849 159.478 178.961 157.814C178.073 156.151 176.637 154.847 174.897 154.125C173.156 153.403 171.22 153.308 169.418 153.856C167.615 154.403 166.058 155.56 165.012 157.128C163.965 158.696 163.494 160.58 163.679 162.457C163.864 164.334 164.693 166.089 166.024 167.422C166.771 168.193 167.666 168.802 168.656 169.212C169.646 169.623 170.71 169.826 171.781 169.81ZM166.45 164.843V163.64H177.113V164.83L166.45 164.843ZM168.83 160.163C168.488 160.158 168.157 160.035 167.896 159.813C167.634 159.592 167.457 159.287 167.395 158.949C167.333 158.612 167.39 158.264 167.556 157.963C167.722 157.663 167.987 157.43 168.305 157.304C168.623 157.177 168.976 157.165 169.302 157.27C169.628 157.374 169.908 157.589 170.094 157.877C170.28 158.165 170.36 158.509 170.321 158.849C170.282 159.19 170.126 159.507 169.88 159.746C169.742 159.882 169.578 159.99 169.398 160.062C169.217 160.133 169.024 160.168 168.83 160.163ZM174.762 160.163C174.568 160.168 174.375 160.133 174.194 160.062C174.014 159.99 173.849 159.882 173.711 159.746C173.574 159.609 173.465 159.446 173.391 159.267C173.317 159.088 173.279 158.896 173.279 158.702C173.279 158.508 173.317 158.316 173.391 158.137C173.465 157.958 173.574 157.795 173.711 157.658C173.849 157.521 174.014 157.414 174.194 157.342C174.375 157.271 174.568 157.236 174.762 157.241C175.153 157.241 175.529 157.397 175.805 157.674C176.082 157.951 176.238 158.327 176.238 158.719C176.238 159.111 176.082 159.486 175.805 159.764C175.529 160.041 175.153 160.196 174.762 160.196V160.163Z" fill="white"/>
<path d="M199.132 155.049C197.605 153.521 195.597 152.571 193.449 152.36C191.301 152.148 189.146 152.69 187.352 153.891C185.558 155.092 184.235 156.879 183.609 158.947C182.983 161.016 183.092 163.237 183.918 165.234C184.745 167.231 186.237 168.879 188.14 169.897C190.044 170.916 192.241 171.242 194.358 170.82C196.475 170.399 198.38 169.255 199.749 167.584C201.118 165.913 201.866 163.819 201.866 161.657C201.885 160.427 201.652 159.206 201.182 158.07C200.711 156.934 200.014 155.905 199.132 155.049ZM194.45 157.637C194.588 157.501 194.753 157.393 194.933 157.321C195.114 157.25 195.307 157.215 195.501 157.22C195.892 157.22 196.268 157.376 196.544 157.653C196.821 157.93 196.977 158.306 196.977 158.698C196.977 159.09 196.821 159.466 196.544 159.743C196.268 160.02 195.892 160.175 195.501 160.175C195.307 160.18 195.114 160.146 194.933 160.074C194.753 160.002 194.588 159.895 194.45 159.758C194.313 159.621 194.204 159.458 194.13 159.279C194.056 159.1 194.018 158.908 194.018 158.714C194.018 158.521 194.056 158.329 194.13 158.149C194.204 157.97 194.313 157.808 194.45 157.671V157.637ZM188.51 157.637C188.642 157.479 188.805 157.35 188.989 157.259C189.173 157.167 189.374 157.115 189.58 157.106C189.785 157.097 189.99 157.13 190.182 157.205C190.374 157.279 190.548 157.393 190.693 157.539C190.838 157.684 190.952 157.859 191.026 158.05C191.101 158.242 191.134 158.448 191.125 158.653C191.116 158.859 191.064 159.061 190.972 159.245C190.881 159.429 190.752 159.593 190.594 159.725C190.456 159.861 190.292 159.969 190.112 160.041C189.931 160.112 189.738 160.147 189.544 160.142C189.251 160.143 188.965 160.057 188.721 159.895C188.477 159.733 188.287 159.501 188.175 159.231C188.063 158.96 188.034 158.662 188.091 158.374C188.149 158.087 188.29 157.823 188.498 157.617L188.51 157.637ZM196.285 166.095C195.247 167.008 193.914 167.512 192.533 167.512C191.152 167.512 189.818 167.008 188.781 166.095C187.759 165.035 187.146 163.646 187.051 162.175H187.781C188.37 164.747 189.954 166.032 192.533 166.032C195.112 166.032 196.694 164.747 197.281 162.175H198.01C197.918 163.645 197.306 165.035 196.285 166.095Z" fill="white"/>
<path d="M1.66746 1.13525L7.08669 12.1058L12.3975 1.13525H14.065L7.50355 14.7316C6.14041 17.5327 5.00237 17.9501 3.39327 17.9501C2.79348 17.9467 2.20268 17.8038 1.66746 17.5327V16.1885C2.23109 16.5001 2.87153 16.6448 3.51416 16.6059C4.66888 16.6059 5.41089 15.4955 5.96532 14.3392L6.16959 13.9009L0 1.13525H1.66746Z" fill="white"/>
<path d="M21.6354 17.9505C17.0874 17.9505 14.1318 14.5734 14.1318 9.37195C14.1318 4.7466 16.8081 0.726562 21.798 0.726562C24.9578 0.726562 28.1468 2.71362 28.5136 6.06575H26.9254C26.4168 3.63201 24.4075 2.08745 21.7271 2.08745C18.0795 2.08745 15.6576 5.0096 15.6576 9.37195C15.6576 13.7343 18.0337 16.6272 21.6771 16.6272C24.9786 16.6272 26.8045 14.3605 27.1505 11.2839H28.6971C28.3469 15.354 25.5831 17.9505 21.6354 17.9505Z" fill="white"/>
<path d="M43.825 17.5995H42.2576V2.47527H32.4446V17.5995H30.873V1.13525H43.825V17.5995Z" fill="white"/>
<path d="M61.5627 9.4136C61.5627 14.5441 58.4196 17.9922 53.7799 17.9922C49.1402 17.9922 46.0679 14.5232 46.0679 9.36768C46.0679 4.21217 49.1902 0.743164 53.8049 0.743164C58.4196 0.743164 61.5627 4.25809 61.5627 9.4136ZM47.6394 9.32176C47.6394 13.7384 50.0864 16.6271 53.8049 16.6271C57.5233 16.6271 59.9911 13.7384 59.9911 9.38855C59.9911 5.03872 57.4983 2.08735 53.7757 2.08735C50.0531 2.08735 47.6394 5.0095 47.6394 9.32176Z" fill="white"/>
<path d="M69.5747 7.86455L77.3575 17.5995H75.3483L68.4658 8.92487L65.3268 11.7927V17.5995H63.7803V1.13525H65.3268V9.98937L74.9147 1.13525H76.999L69.5747 7.86455Z" fill="white"/>
<path d="M91.6019 17.5995H89.8719L87.8876 12.4189H80.359L78.3706 17.5995H76.7031L83.373 1.08936H85.0404L91.6019 17.5995ZM84.1692 2.5713L80.8343 11.1499H87.3915L84.1692 2.5713Z" fill="white"/>
<path d="M92.8521 1.13525H94.4195V15.9088L103.749 1.13525H105.779V17.5995H104.216V2.82175L94.8863 17.5995H92.8562L92.8521 1.13525Z" fill="white"/>
<path d="M115.917 1.13525C118.619 1.13525 121.066 2.31246 121.066 5.25131C121.062 6.08583 120.781 6.89538 120.267 7.55224C119.753 8.20911 119.035 8.67589 118.227 8.87895C120.053 9.22543 121.716 10.3609 121.716 12.8823C121.716 16.0716 119.173 17.5995 116.151 17.5995H108.876V1.13525H115.917ZM110.398 8.41558H115.617C117.489 8.41558 119.519 7.74766 119.519 5.46003C119.519 2.86767 117.305 2.47527 115.204 2.47527H110.398V8.41558ZM110.398 16.2553H115.317C117.606 16.2553 120.144 15.8378 120.144 12.9157C120.144 10.0937 117.464 9.70133 115.225 9.70133H110.398V16.2553Z" fill="white"/>
<path d="M137.115 17.5995H135.385L133.396 12.4189H125.893L123.883 17.5995H122.216L128.811 1.08936H130.541L137.115 17.5995ZM129.682 2.5713L126.347 11.1499H132.904L129.682 2.5713Z" fill="white"/>
<path d="M149.771 2.47527H139.933V8.41558H149.146V9.73472H139.933V16.2553H149.863V17.5995H138.366V1.13525H149.771V2.47527Z" fill="white"/>
<path d="M163.139 2.47527H157.366V17.5995H155.798V2.47527H150.025V1.13525H163.139V2.47527Z" fill="white"/>
<path d="M170.623 1.13525H172.194V15.9088L181.519 1.13525H183.554V17.5995H181.982V2.82175L172.653 17.5995H170.623V1.13525Z" fill="white"/>
<path d="M199.603 17.9505C195.055 17.9505 192.074 14.5734 192.074 9.37195C192.074 4.7466 194.755 0.726562 199.74 0.726562C202.904 0.726562 206.089 2.71362 206.46 6.06575H204.889C204.38 3.63201 202.375 2.08745 199.678 2.08745C196.03 2.08745 193.604 5.0096 193.604 9.37195C193.604 13.7343 195.984 16.6105 199.632 16.6105C202.934 16.6105 204.759 14.3438 205.105 11.2672H206.652C206.323 15.354 203.55 17.9505 199.603 17.9505Z" fill="white"/>
<path d="M221.792 17.5995H220.221V9.64288H210.408V17.5995H208.849V1.13525H210.416V8.30287H220.229V1.13525H221.801L221.792 17.5995Z" fill="white"/>
<path d="M224.89 1.13525H226.457V15.9088L235.786 1.13525H237.817V17.5995H236.249V2.82175L226.92 17.5995H224.89V1.13525Z" fill="white"/>
<path d="M256.868 17.5995H255.367V7.65582C255.367 5.91923 255.438 4.20768 255.554 2.47527C255.229 3.4688 254.858 4.48738 254.466 5.46003L249.618 17.5995H248.209L243.29 5.59779C242.873 4.60426 242.532 3.58568 242.206 2.56711C242.323 4.23691 242.39 5.90671 242.39 7.6099V17.5995H240.889V1.13525H243.032L247.809 12.8823C248.226 13.8967 248.572 14.9403 248.943 15.9798C249.314 14.9612 249.635 13.9217 250.027 12.9282L254.704 1.13525H256.851L256.868 17.5995Z" fill="white"/>
<path d="M272.988 17.5995H271.254L269.269 12.4189H261.741L259.731 17.5995H258.064L264.709 1.08936H266.443L272.988 17.5995ZM265.542 2.56713L262.208 11.1457H268.765L265.542 2.56713Z" fill="white"/>
<path d="M285.639 2.47527H275.805V8.41558H285.018V9.73472H275.805V16.2553H285.735V17.5995H274.234V1.13525H285.639V2.47527Z" fill="white"/>
<path d="M299.012 2.47527H293.239V17.5995H291.667V2.47527H285.894V1.13525H299.012V2.47527Z" fill="white"/>
<path d="M14.7527 55.6417H13.1853V47.7101H3.37236V55.6417H1.80078V39.1816H3.37236V46.3367H13.1853V39.1816H14.7527V55.6417Z" fill="white"/>
<path d="M31.611 55.6422H29.8811L27.8926 50.4658H20.3891L18.3423 55.6422H16.6748L23.3446 39.1362H25.0538L31.611 55.6422ZM24.1784 40.614L20.8434 49.1926H27.4091L24.1784 40.614Z" fill="white"/>
<path d="M46.4803 55.6417H44.9129V40.5217H35.0999V55.6417H33.5283V39.1816H46.4803V55.6417Z" fill="white"/>
<path d="M57.3816 39.1816C60.4539 39.1816 62.5549 40.7304 62.5549 43.8028C62.5549 47.0172 60.4706 48.6118 57.3358 48.6118H51.9165V55.6417H50.3491V39.1816H57.3816ZM51.9082 47.2969H56.9106C59.1741 47.2969 60.9958 46.3701 60.9958 43.9197C60.9958 41.5611 59.4243 40.5217 57.0731 40.5217H51.9082V47.2969Z" fill="white"/>
<path d="M65.7396 55.6416H63.7095L69.3663 48.3363C66.4816 48.2444 64.6099 46.5788 64.6099 43.7443C64.6099 40.8222 66.5733 39.1899 69.6123 39.1899H76.5197V55.65H74.9481V48.3446H71.4131L65.7396 55.6416ZM74.9315 40.5216H69.9291C67.6197 40.5216 66.1773 41.607 66.1773 43.736C66.1773 45.865 67.6322 46.9963 69.9291 46.9963H74.9315V40.5216Z" fill="white"/>
<path d="M80.4549 55.6417H78.4248L85.8742 46.2532L79.0376 39.1816H81.1636L89.2924 47.827V39.1816H90.8599V47.827L98.9887 39.1816H101.115L94.2781 46.2532L101.69 55.6417H99.6307L93.1401 47.4096L90.8307 49.8141V55.6584H89.2633V49.8141L86.9538 47.4096L80.4549 55.6417Z" fill="white"/>
<path d="M115.017 40.5217H105.183V46.462H114.396V47.7811H105.183V54.3017H115.109V55.6417H103.612V39.1816H115.017V40.5217Z" fill="white"/>
<path d="M130.695 55.6417H129.124V47.7101H119.311V55.6417H117.743V39.1816H119.311V46.3367H129.124V39.1816H130.695V55.6417Z" fill="white"/>
<path d="M134.484 39.1816H136.056V53.9552L145.381 39.1816H147.416V55.6417H145.844V40.8681L136.515 55.6417H134.484V39.1816Z" fill="white"/>
<path d="M162.61 40.5217H152.772V46.462H161.985V47.7811H152.772V54.3017H162.702V55.6417H151.201V39.1816H162.61V40.5217Z" fill="white"/>
<path d="M213.388 39.1816L218.766 50.1606L224.102 39.1816H225.769L219.212 52.7738C217.849 55.5958 216.711 55.9882 215.102 55.9882C214.508 55.9805 213.923 55.8378 213.393 55.5707V54.2265C213.955 54.5414 214.596 54.6864 215.239 54.644C216.394 54.644 217.132 53.5336 217.686 52.3772L217.895 51.9598L211.7 39.1816H213.388Z" fill="white"/>
<path d="M237.079 55.6417V40.5217H230.451L230.151 50.2107C230.059 53.5169 229.184 55.9882 226.686 55.9882C226.115 55.9944 225.548 55.8851 225.019 55.6667V54.3726C225.534 54.5664 226.082 54.6599 226.632 54.6482C227.812 54.6482 228.504 53.4918 228.642 49.2839L228.967 39.1816H238.642V55.6417H237.079Z" fill="white"/>
<path d="M242.227 39.1816L247.617 50.1606L252.949 39.1816H254.616L248.034 52.7738C246.671 55.5958 245.533 55.9882 243.924 55.9882C243.33 55.9801 242.745 55.8374 242.214 55.5707V54.2265C242.777 54.5414 243.418 54.6864 244.061 54.644C245.216 54.644 245.958 53.5336 246.512 52.3772L246.721 51.9598L240.53 39.1816H242.227Z" fill="white"/>
<path d="M261.348 48.4741C256.638 48.4741 256.038 45.9318 256.038 43.736V39.1816H257.622V43.6442C257.622 44.9842 257.901 47.109 261.203 47.109C262.961 47.0666 264.71 46.8428 266.422 46.4411V39.1816H267.989V55.6417H266.422V47.7811C264.755 48.1649 263.057 48.3968 261.348 48.4741Z" fill="white"/>
<path d="M271.762 39.1816H273.333V54.3017H281.383V39.1816H282.955V54.3017H290.971V39.1816H292.538V55.6417H271.762V39.1816Z" fill="white"/>
<path d="M309.401 55.6422H307.671L305.682 50.4658H298.179L296.169 55.6422H294.502L301.172 39.1362H302.902L309.401 55.6422ZM301.968 40.614L298.633 49.1926H305.19L301.968 40.614Z" fill="white"/>
<path d="M322.749 40.5217H312.911V46.462H322.123V47.7811H312.911V54.3017H322.84V55.6417H311.343V39.1816H322.749V40.5217Z" fill="white"/>
<path d="M336.826 40.5217H331.036V55.6417H329.468V40.5217H323.695V39.1816H336.826V40.5217Z" fill="white"/>
<path d="M51.8868 93.6886H50.3152V85.7361H40.5022V93.6886H38.9307V77.2285H40.5022V84.3961H50.3152V77.2285H51.8868V93.6886Z" fill="white"/>
<path d="M68.8577 93.6884H67.1152L65.1393 88.4995H57.6357L55.6264 93.68H53.959L60.6288 77.1699H62.3588L68.8577 93.6884ZM61.425 78.6602L58.0901 87.2388H64.6557L61.425 78.6602Z" fill="white"/>
<path d="M77.6782 94.0597C73.1302 94.0597 70.1538 90.6825 70.1538 85.4811C70.1538 80.8558 72.8301 76.8315 77.8158 76.8315C80.9798 76.8315 84.1688 78.8228 84.5356 82.1749H82.9557C82.4471 79.7245 80.4545 78.1966 77.7574 78.1966C74.1099 78.1966 71.6879 81.1188 71.6879 85.4811C71.6879 89.8435 74.064 92.7155 77.7116 92.7155C81.0131 92.7155 82.839 90.4529 83.185 87.3763H84.7316C84.3981 91.4465 81.6259 94.0597 77.6782 94.0597Z" fill="white"/>
<path d="M98.6468 78.5685H92.8732V93.6886H91.2933V78.5685H85.5322V77.2285H98.6468V78.5685Z" fill="white"/>
<path d="M107.859 77.2285C110.932 77.2285 113.033 78.7773 113.033 81.8539C113.033 85.0682 110.948 86.6629 107.814 86.6629H102.394V93.6927H100.823V77.2285H107.859ZM102.39 85.3479H107.393C109.656 85.3479 111.478 84.4212 111.478 81.9707C111.478 79.6122 109.91 78.5727 107.555 78.5727H102.39V85.3479Z" fill="white"/>
<path d="M130.512 85.502C130.512 90.6366 127.373 94.0806 122.733 94.0806C118.093 94.0806 115.021 90.6116 115.021 85.4561C115.021 80.3006 118.135 76.8315 122.754 76.8315C127.373 76.8315 130.512 80.3465 130.512 85.502ZM116.588 85.4101C116.588 89.8268 119.035 92.7155 122.754 92.7155C126.472 92.7155 128.944 89.8268 128.944 85.4811C128.944 81.1355 126.443 78.1966 122.733 78.1966C119.023 78.1966 116.588 81.1104 116.588 85.4101Z" fill="white"/>
<path d="M144.969 78.5685H135.131V84.5088H144.344V85.828H135.131V92.3485H145.069V93.6886H133.563V77.2285H144.969V78.5685Z" fill="white"/>
<path d="M160.764 93.6886H159.192V85.7361H149.379V93.6886H147.808V77.2285H149.379V84.3961H159.192V77.2285H160.764V93.6886Z" fill="white"/>
<path d="M164.661 77.2285H166.233V92.0062L175.562 77.2285H177.584V93.6927H176.012V78.8983L166.683 93.6719H164.661V77.2285Z" fill="white"/>
<path d="M192.904 78.5685H183.07V84.5088H192.283V85.828H183.07V92.3485H193.008V93.6886H181.499V77.2285H192.904V78.5685Z" fill="white"/>
<path d="M209.762 77.2285H211.35V92.0062L220.663 77.2285H222.693V93.6927H221.125V78.8983L211.796 93.6719H209.762V77.2285Z" fill="white"/>
<path d="M246.367 83.9536L254.15 93.6886H252.14L245.258 85.0181L242.119 87.886V93.6886H240.572V77.2285H242.119V86.0868L251.707 77.2285H253.791L246.367 83.9536Z" fill="white"/>
<path d="M269.198 93.6884H267.468L265.484 88.4995H257.956L255.955 93.6884H254.287L260.936 77.1782H262.624L269.198 93.6884ZM261.766 78.6602L258.456 87.2471H265.013L261.766 78.6602Z" fill="white"/>
<path d="M275.088 86.5209C270.378 86.5209 269.777 83.9787 269.777 81.7829V77.2285H271.349V81.6911C271.349 83.0352 271.624 85.1601 274.926 85.1601C276.684 85.1161 278.432 84.8923 280.145 84.4921V77.2285H281.716V93.6927H280.132V85.828C278.475 86.2104 276.787 86.4423 275.088 86.5209Z" fill="white"/>
<path d="M297.024 78.5685H287.19V84.5088H296.39V85.828H287.177V92.3485H297.103V93.6886H285.618V77.2285H297.024V78.5685Z" fill="white"/>
<path d="M306.654 94.0597C302.106 94.0597 299.125 90.6825 299.125 85.4811C299.125 80.8558 301.805 76.8315 306.791 76.8315C309.955 76.8315 313.144 78.8228 313.511 82.1749H311.944C311.435 79.7245 309.442 78.1966 306.745 78.1966C303.098 78.1966 300.676 81.1188 300.676 85.4811C300.676 89.8435 303.052 92.7155 306.699 92.7155C310.001 92.7155 311.827 90.4529 312.173 87.3763H313.719C313.373 91.4465 310.601 94.0597 306.654 94.0597Z" fill="white"/>
<path d="M327.622 78.5685H321.848V93.6886H320.277V78.5685H314.507V77.2285H327.622V78.5685Z" fill="white"/>
<path d="M336.768 77.2285C339.469 77.2285 341.916 78.4099 341.916 81.3446C341.913 82.1804 341.632 82.9913 341.117 83.6491C340.602 84.3069 339.883 84.7739 339.073 84.9764C340.899 85.3229 342.562 86.4542 342.562 88.9756C342.562 92.169 340.023 93.6927 336.997 93.6927H329.739V77.2285H336.768ZM331.248 84.513H336.467C338.335 84.513 340.369 83.8409 340.369 81.5533C340.369 78.9651 338.152 78.5727 336.051 78.5727H331.248V84.513ZM331.248 92.3527H336.167C338.452 92.3527 340.99 91.9353 340.99 89.0131C340.99 86.1912 338.314 85.7988 336.071 85.7988H331.248V92.3527Z" fill="white"/>
<path d="M360.341 85.502C360.341 90.6366 357.202 94.0806 352.558 94.0806C347.914 94.0806 344.846 90.6116 344.846 85.4561C344.846 80.3006 347.964 76.8315 352.583 76.8315C357.202 76.8315 360.341 80.3465 360.341 85.502ZM346.414 85.4101C346.414 89.8268 348.861 92.7155 352.579 92.7155C356.297 92.7155 358.765 89.8268 358.765 85.4811C358.765 81.1355 356.264 78.1966 352.554 78.1966C348.844 78.1966 346.414 81.1104 346.414 85.4101Z" fill="white"/>
<path d="M8.58754 132.102C4.03955 132.102 1.08398 128.729 1.08398 123.527C1.08398 118.902 3.76025 114.878 8.75011 114.878C11.9141 114.878 15.099 116.865 15.47 120.221H13.8775C13.369 117.767 11.3764 116.243 8.68341 116.243C5.03585 116.243 2.60971 119.165 2.60971 123.527C2.60971 127.89 4.98583 130.762 8.63756 130.762C11.9391 130.762 13.7608 128.495 14.1068 125.423H15.6534C15.3074 129.493 12.5394 132.102 8.58754 132.102Z" fill="white"/>
<path d="M30.7813 131.735H29.2098V123.778H19.3968V131.735H17.8252V115.271H19.3968V122.438H29.2098V115.271H30.7813V131.735Z" fill="white"/>
<path d="M46.943 131.735H45.213L43.2287 126.554H35.7002L33.6909 131.735H32.0234L38.6933 115.225H40.4233L46.943 131.735ZM39.5103 116.707L36.1754 125.285H42.7327L39.5103 116.707Z" fill="white"/>
<path d="M104.466 132.102C99.9181 132.102 96.9375 128.729 96.9375 123.527C96.9375 118.902 99.6179 114.878 104.604 114.878C107.768 114.878 110.952 116.865 111.323 120.221H109.752C109.243 117.767 107.251 116.243 104.558 116.243C100.91 116.243 98.4841 119.165 98.4841 123.527C98.4841 127.89 100.864 130.762 104.512 130.762C107.813 130.762 109.635 128.495 109.985 125.423H111.532C111.186 129.493 108.414 132.102 104.466 132.102Z" fill="white"/>
<path d="M126.656 131.735H125.084V116.611H115.272V131.735H113.704V115.271H126.656V131.735Z" fill="white"/>
<path d="M144.389 123.565C144.389 128.7 141.25 132.144 136.61 132.144C131.971 132.144 128.898 128.675 128.898 123.52C128.898 118.364 132.012 114.895 136.631 114.895C141.25 114.895 144.389 118.393 144.389 123.565ZM130.466 123.474C130.466 127.89 132.913 130.779 136.631 130.779C140.35 130.779 142.822 127.89 142.822 123.545C142.822 119.199 140.321 116.26 136.61 116.26C132.9 116.26 130.478 119.157 130.478 123.457L130.466 123.474Z" fill="white"/>
<path d="M153.406 132.102C148.858 132.102 145.877 128.729 145.877 123.527C145.877 118.902 148.558 114.878 153.544 114.878C156.708 114.878 159.892 116.865 160.263 120.221H158.692C158.183 117.767 156.191 116.243 153.498 116.243C149.85 116.243 147.424 119.165 147.424 123.527C147.424 127.89 149.804 130.762 153.452 130.762C156.753 130.762 158.575 128.495 158.925 125.423H160.472C160.118 129.493 157.345 132.102 153.406 132.102Z" fill="white"/>
<path d="M177.296 123.565C177.296 128.7 174.157 132.144 169.513 132.144C164.869 132.144 161.801 128.675 161.801 123.52C161.801 118.364 164.919 114.895 169.538 114.895C174.157 114.895 177.296 118.393 177.296 123.565ZM163.373 123.474C163.373 127.89 165.82 130.779 169.538 130.779C173.257 130.779 175.725 127.89 175.725 123.545C175.725 119.199 173.223 116.26 169.513 116.26C165.803 116.26 163.373 119.157 163.373 123.457V123.474Z" fill="white"/>
<path d="M187.318 131.735H179.535V115.271H190.923V116.611H181.106V122.209H187.318C190.344 122.209 192.212 124.058 192.212 126.972C192.212 129.885 190.344 131.735 187.318 131.735ZM186.972 123.565H181.106V130.411H186.972C189.281 130.411 190.644 129.113 190.644 126.988C190.644 124.864 189.281 123.565 186.972 123.565Z" fill="white"/>
<path d="M201.474 132.102C196.926 132.102 193.946 128.729 193.946 123.527C193.946 118.902 196.622 114.878 201.612 114.878C204.776 114.878 207.961 116.865 208.332 120.221H206.764C206.256 117.767 204.263 116.243 201.57 116.243C197.923 116.243 195.497 119.165 195.497 123.527C195.497 127.89 197.877 130.762 201.524 130.762C204.826 130.762 206.648 128.495 206.994 125.423H208.544C208.194 129.493 205.422 132.102 201.474 132.102Z" fill="white"/>
<path d="M221.634 116.611H215.86V131.735H214.289V116.611H208.52V115.271H221.634V116.611Z" fill="white"/>
<path d="M229.967 115.271C232.668 115.271 235.12 116.452 235.12 119.387C235.117 120.222 234.835 121.033 234.32 121.691C233.806 122.349 233.086 122.816 232.277 123.018C234.102 123.365 235.766 124.496 235.766 127.018C235.766 130.207 233.223 131.735 230.201 131.735H222.926V115.271H229.967ZM224.452 122.555H229.667C231.539 122.555 233.569 121.883 233.569 119.595C233.569 117.007 231.355 116.611 229.254 116.611H224.452V122.555ZM224.452 130.395H229.367C231.655 130.395 234.194 129.977 234.194 127.055C234.194 124.233 231.518 123.841 229.275 123.841H224.452V130.395Z" fill="white"/>
<path d="M237.959 115.271L243.34 126.254L248.672 115.271H250.339L243.778 128.867C242.415 131.689 241.277 132.081 239.668 132.081C239.074 132.075 238.489 131.932 237.959 131.664V130.324C238.522 130.636 239.163 130.781 239.805 130.741C240.96 130.741 241.698 129.631 242.252 128.474L242.461 128.036L236.274 115.271H237.959Z" fill="white"/>
<path d="M262.966 116.611H253.128V122.555H262.341V123.874H253.128V130.395H263.041V131.735H251.561V115.271H262.966V116.611Z" fill="white"/>
<path d="M276.335 116.611H270.545V131.735H268.977V116.611H263.22V115.271H276.335V116.611Z" fill="white"/>
<path d="M8.867 153.317C11.5683 153.317 14.0153 154.494 14.0153 157.433C14.0125 158.268 13.732 159.079 13.2178 159.736C12.7037 160.394 11.9854 160.862 11.1764 161.065C12.9981 161.411 14.6614 162.543 14.6614 165.064C14.6614 168.253 12.1227 169.781 9.09628 169.781H1.82617V153.317H8.867ZM3.33522 160.601H8.56686C10.4386 160.601 12.4687 159.929 12.4687 157.642C12.4687 155.049 10.251 154.657 8.15 154.657H3.33522V160.601ZM3.33522 168.441H8.25421C10.5386 168.441 13.0815 168.024 13.0815 165.102C13.0815 162.284 10.4011 161.887 8.1625 161.887H3.33522V168.441Z" fill="white"/>
<path d="M24.3157 169.781H16.9956V153.317H18.5672V160.255H24.3157C27.338 160.255 29.2097 162.104 29.2097 165.018C29.2097 167.932 27.338 169.781 24.3157 169.781ZM23.9697 161.595H18.5505V168.441H23.9697C26.2792 168.441 27.6381 167.143 27.6381 165.018C27.6381 162.893 26.2625 161.595 23.9697 161.595ZM33.0907 153.317V169.781H31.5191V153.317H33.0907Z" fill="white"/>
<path d="M43.2954 153.317C46.3677 153.317 48.4687 154.866 48.4687 157.942C48.4687 161.157 46.3844 162.751 43.2496 162.751H37.8303V169.781H36.2671V153.317H43.2954ZM37.822 161.432H42.8244C45.0879 161.432 46.9096 160.51 46.9096 158.055C46.9096 155.701 45.3422 154.657 42.9869 154.657H37.822V161.432Z" fill="white"/>
<path d="M61.9752 169.781H60.2452L58.261 164.601H50.7324L48.7231 169.781H47.0557L53.7046 153.271H55.4346L61.9752 169.781ZM54.5425 154.753L51.2076 163.332H57.7649L54.5425 154.753Z" fill="white"/>
<path d="M71.0043 169.781H63.2256V153.317H74.6185V154.657H64.793V160.255H71.0043C74.0307 160.255 75.9024 162.104 75.9024 165.018C75.9024 167.932 74.0307 169.781 71.0043 169.781ZM70.6583 161.595H64.793V168.441H70.6583C72.9677 168.441 74.3308 167.143 74.3308 165.018C74.3308 162.893 72.951 161.595 70.6583 161.595Z" fill="white"/>
<path d="M93.0356 161.595C93.0356 166.73 89.8925 170.174 85.2528 170.174C80.6131 170.174 77.5366 166.705 77.5366 161.553C77.5366 156.402 80.6548 152.929 85.2736 152.929C89.8925 152.929 93.0356 156.439 93.0356 161.595ZM79.1124 161.503C79.1124 165.92 81.5594 168.808 85.2778 168.808C88.9962 168.808 91.464 165.92 91.464 161.57C91.464 157.22 88.9629 154.29 85.2528 154.29C81.5427 154.29 79.1124 157.203 79.1124 161.503Z" fill="white"/>
<path d="M106.175 154.657H100.402V169.781H98.8299V154.657H93.0605V153.317H106.175V154.657Z" fill="white"/>
<path d="M113.241 160.046L121.024 169.781H119.015L112.137 161.111L108.998 163.974V169.781H107.451V153.317H108.998V162.171L118.586 153.317H120.67L113.241 160.046Z" fill="white"/>
<path d="M133.605 154.657H123.771V160.601H132.979V161.916H123.767V168.441H133.696V169.781H122.199V153.317H133.605V154.657Z" fill="white"/>
<path d="M216.69 170.148C212.142 170.148 209.162 166.775 209.162 161.57C209.162 156.949 211.842 152.924 216.828 152.924C219.992 152.924 223.181 154.911 223.548 158.264H221.98C221.472 155.813 219.479 154.289 216.782 154.289C213.134 154.289 210.708 157.212 210.708 161.57C210.708 165.928 213.088 168.808 216.736 168.808C220.038 168.808 221.863 166.542 222.209 163.469H223.756C223.41 167.535 220.638 170.148 216.69 170.148Z" fill="white"/>
<path d="M237.358 154.657H227.52V160.601H236.733V161.916H227.52V168.441H237.45V169.781H225.94V153.317H237.35L237.358 154.657Z" fill="white"/>
<path d="M246.525 153.317C249.597 153.317 251.698 154.866 251.698 157.942C251.698 161.157 249.614 162.751 246.479 162.751H241.06V169.781H239.488V153.317H246.525ZM241.052 161.432H246.054C248.317 161.432 250.143 160.51 250.143 158.055C250.143 155.701 248.572 154.657 246.216 154.657H241.052V161.432Z" fill="white"/>
<path d="M268.369 161.595C268.369 166.729 265.23 170.173 260.586 170.173C255.942 170.173 252.874 166.704 252.874 161.549C252.874 156.393 255.992 152.924 260.611 152.924C265.23 152.924 268.369 156.439 268.369 161.595ZM254.446 161.503C254.446 165.92 256.893 168.808 260.611 168.808C264.329 168.808 266.793 165.92 266.793 161.553C266.793 157.186 264.292 154.273 260.582 154.273C256.872 154.273 254.446 157.203 254.446 161.503Z" fill="white"/>
<path d="M281.508 154.657H275.735V169.781H274.163V154.657H268.394V153.317H281.508V154.657Z" fill="white"/>
<path d="M297.024 161.595C297.024 166.729 293.885 170.173 289.245 170.173C284.605 170.173 281.533 166.704 281.533 161.549C281.533 156.393 284.647 152.924 289.266 152.924C293.885 152.924 297.024 156.439 297.024 161.595ZM283.101 161.503C283.101 165.92 285.552 168.808 289.266 168.808C292.98 168.808 295.456 165.92 295.456 161.57C295.456 157.22 292.955 154.289 289.245 154.289C285.535 154.289 283.101 157.203 283.101 161.503Z" fill="white"/>
<path d="M312.198 169.781H310.626V161.825H300.813V169.781H299.242V153.317H300.813V160.485H310.626V153.317H312.198V169.781Z" fill="white"/>
<path d="M315.291 153.317H316.863V168.09L326.192 153.317H328.222V169.781H326.651V155.003L317.325 169.781H315.291V153.317Z" fill="white"/>
<path d="M344.246 169.781H342.662V161.825H332.866V169.781H331.294V153.317H332.866V160.485H342.662V153.317H344.23L344.246 169.781Z" fill="white"/>
<path d="M360.412 169.781H358.682L356.694 164.601H349.19L347.181 169.781H345.514L352.183 153.271H353.913L360.412 169.781ZM352.976 154.753L349.641 163.332H356.21L352.976 154.753Z" fill="white"/>
<path d="M341.045 56.7191H340.995C340.895 56.7075 340.805 56.6572 340.742 56.579C340.68 56.5009 340.651 56.4012 340.661 56.3016L341.157 52.1647C341.357 50.5289 342.171 49.0304 343.434 47.9737C344.696 46.9169 346.313 46.381 347.956 46.4748L351.754 46.7003C352.83 46.7604 353.901 46.5154 354.844 45.9933C355.787 45.4712 356.564 44.6933 357.086 43.7489L359.17 39.9918C359.219 39.9038 359.301 39.8388 359.398 39.8106C359.495 39.7825 359.598 39.7936 359.687 39.8416C359.775 39.89 359.839 39.9712 359.868 40.0674C359.896 40.1635 359.885 40.2669 359.837 40.355L357.753 44.1121C357.161 45.1814 356.279 46.062 355.21 46.6527C354.141 47.2434 352.927 47.5203 351.708 47.4517L347.911 47.2304C346.462 47.1463 345.036 47.6173 343.922 48.5476C342.808 49.478 342.089 50.7981 341.912 52.2398L341.412 56.3851C341.401 56.4756 341.358 56.5591 341.29 56.6204C341.223 56.6817 341.136 56.7167 341.045 56.7191Z" fill="white"/>
<path d="M361 43.8534L360.266 44.0371L359.353 40.4095L355.806 41.5825L355.568 40.8603L359.891 39.4326L361 43.8534Z" fill="white"/>
<path d="M71.5882 135.183C69.1068 135.178 66.6827 134.436 64.6224 133.051C62.5621 131.666 60.9583 129.7 60.0139 127.402C59.0695 125.105 58.8268 122.578 59.3167 120.142C59.8065 117.706 61.0069 115.47 62.7659 113.717C64.5248 111.965 66.7634 110.774 69.1984 110.296C71.6333 109.817 74.1553 110.073 76.4452 111.03C78.7351 111.987 80.69 113.603 82.0627 115.673C83.4353 117.743 84.1641 120.174 84.1567 122.659C84.1528 124.308 83.8247 125.94 83.1909 127.462C82.5572 128.983 81.6303 130.365 80.4631 131.528C79.296 132.691 77.9115 133.613 76.3887 134.24C74.8659 134.867 73.2347 135.187 71.5882 135.183ZM61.6335 123.098C61.6543 126.817 64.4432 131.447 69.7332 132.494C72.0791 132.944 74.5082 132.539 76.583 131.354C78.6577 130.169 80.2419 128.282 81.0502 126.031C81.8586 123.78 81.8379 121.315 80.9921 119.078C80.1462 116.841 78.5306 114.98 76.4363 113.83C77.1283 118.096 75.8611 121.599 72.0801 123.849C68.5117 125.957 64.9809 125.489 61.6335 123.098Z" fill="white"/>
<path d="M203.984 42.6802C204.33 43.4775 204.726 44.2581 205.01 45.0763C205.271 45.8646 205.48 46.6692 205.635 47.485C205.71 47.7497 205.721 48.0285 205.666 48.2982C205.612 48.5678 205.493 48.8204 205.321 49.0347C205.149 49.249 204.927 49.4188 204.676 49.5297C204.425 49.6407 204.15 49.6897 203.876 49.6725C202.625 49.7017 201.408 49.7017 200.174 49.7309C199.991 49.7386 199.815 49.8027 199.67 49.9146C196.964 52.1187 194.251 54.3396 191.566 56.5479C190.914 57.0755 190.095 57.3537 189.257 57.3327H173.416C172.357 57.3327 171.669 56.8735 171.356 56.0177C171.192 55.6022 171.158 55.1462 171.261 54.7111C171.363 54.276 171.595 53.8826 171.928 53.584C172.233 53.342 172.597 53.1851 172.982 53.1289C173.607 53.0753 174.235 53.0614 174.862 53.0872C174.946 53.0968 175.031 53.0808 175.105 53.0413C175.179 53.0018 175.24 52.9407 175.279 52.866C175.445 52.6009 175.653 52.3653 175.896 52.1688C178.051 50.4573 180.215 48.7624 182.378 47.0634C182.818 46.6727 183.369 46.429 183.954 46.3663C184.407 46.3519 184.851 46.5 185.205 46.7837C186.747 47.8092 188.199 48.9657 189.544 50.2402C189.608 50.2993 189.675 50.3551 189.744 50.4072L192.912 47.8774C192.608 47.1469 192.295 46.4539 192.029 45.7443C191.491 44.3233 191.225 42.8137 191.245 41.2942C191.223 40.8931 191.337 40.4963 191.569 40.1682C191.8 39.8401 192.136 39.5999 192.521 39.4867C192.764 39.4393 193.012 39.4294 193.258 39.4575C194.421 39.5368 195.585 39.6328 196.748 39.7246C196.843 39.7246 196.939 39.758 197.073 39.7831C196.792 40.2897 196.63 40.8534 196.598 41.4318C196.567 42.0102 196.666 42.5883 196.889 43.1227L194.676 42.9139L195.547 45.5981C195.826 45.4395 196.026 45.3101 196.239 45.2141C196.847 44.9566 197.522 44.8987 198.165 45.0487C198.808 45.1987 199.388 45.5489 199.82 46.049C199.9 46.1607 200.008 46.2492 200.133 46.3057C200.258 46.3621 200.396 46.3844 200.533 46.3704C200.95 46.3454 201.366 46.3704 201.875 46.3704L201.429 45.2099C202.007 45.0176 202.532 44.6901 202.959 44.2545C203.386 43.819 203.703 43.2879 203.884 42.7052L203.984 42.6802ZM186.339 53.058C186.339 53.0204 186.339 52.9912 186.339 52.9828C185.609 52.3859 184.879 51.7931 184.137 51.2087C184.091 51.1932 184.041 51.1889 183.993 51.1962C183.944 51.2034 183.898 51.222 183.858 51.2504C183.47 51.5385 183.095 51.839 182.716 52.1396L181.545 53.058H186.339Z" fill="white"/>
<path d="M203.684 41.4071C203.683 42.0612 203.488 42.7003 203.125 43.2436C202.761 43.787 202.245 44.2101 201.641 44.4594C201.037 44.7088 200.373 44.7732 199.732 44.6444C199.092 44.5157 198.504 44.1997 198.043 43.7363C197.582 43.2729 197.269 42.683 197.143 42.0412C197.017 41.3995 197.083 40.7346 197.335 40.1309C197.586 39.5272 198.01 39.0116 198.554 38.6495C199.098 38.2874 199.737 38.095 200.39 38.0967C201.263 38.1076 202.096 38.4602 202.712 39.0791C203.327 39.6979 203.676 40.5336 203.684 41.4071Z" fill="white"/>
<path d="M318.417 10.357C318.416 8.30638 319.021 6.30119 320.155 4.59414C321.29 2.8871 322.904 1.55461 324.793 0.764598C326.683 -0.02541 328.764 -0.237573 330.774 0.154848C332.784 0.54727 334.633 1.52671 336.088 2.96973C337.542 4.41276 338.538 6.25477 338.949 8.26362C339.361 10.2725 339.169 12.3583 338.398 14.2581C337.627 16.1579 336.312 17.7868 334.619 18.9394C332.925 20.0919 330.928 20.7167 328.881 20.7348C327.512 20.7469 326.154 20.4875 324.885 19.9715C323.617 19.4555 322.463 18.6931 321.491 17.7284C320.518 16.7636 319.745 15.6155 319.218 14.3504C318.691 13.0852 318.419 11.728 318.417 10.357ZM323.028 5.21818C323.241 5.21818 323.445 5.17644 323.662 5.18061C324.747 5.19292 325.8 5.54833 326.672 6.19607C327.543 6.84382 328.188 7.75077 328.514 8.78738C328.52 8.83464 328.536 8.88006 328.561 8.92064C328.586 8.96123 328.619 8.99606 328.659 9.02287C328.698 9.04967 328.743 9.06784 328.79 9.07618C328.837 9.08452 328.885 9.08284 328.931 9.07125C331.361 9.07125 333.787 9.07125 336.218 9.07125C336.294 9.07523 336.37 9.07523 336.447 9.07125C336.184 7.499 335.444 6.04594 334.328 4.90983C333.211 3.77371 331.772 3.00972 330.206 2.72183C327.305 2.17497 324.454 3.41897 323.028 5.21818ZM323.028 15.5C324.47 17.3284 327.48 18.6893 330.648 17.9212C333.608 17.199 336.259 14.3395 336.409 11.6887C336.351 11.6846 336.293 11.6846 336.234 11.6887C333.766 11.6887 331.299 11.6887 328.831 11.6887C328.631 11.6887 328.581 11.7763 328.526 11.9391C328.275 12.7664 327.818 13.5162 327.198 14.1185C326.578 14.7208 325.816 15.1559 324.983 15.3831C324.347 15.5771 323.674 15.6171 323.02 15.5H323.028Z" fill="white"/>
<path d="M346.693 11.8304C345.026 12.991 343.304 11.8304 343.358 10.2817C343.379 9.82849 343.557 9.39667 343.861 9.06063C344.165 8.72459 344.577 8.50537 345.026 8.44075C346.701 8.21115 348.044 10.1189 346.693 11.8304Z" fill="white"/>
<path d="M354.618 11.8304C352.951 12.991 351.233 11.8304 351.283 10.2817C351.302 9.82799 351.48 9.39531 351.784 9.05895C352.089 8.72258 352.502 8.50383 352.951 8.44075C354.626 8.21115 355.969 10.1189 354.618 11.8304Z" fill="white"/>
<path d="M309.959 12.3065C309.574 12.3107 309.196 12.1999 308.874 11.9883C308.551 11.7767 308.299 11.4739 308.149 11.1183C307.999 10.7627 307.958 10.3705 308.032 9.99158C308.105 9.61263 308.289 9.26407 308.561 8.99025C308.832 8.71644 309.179 8.52974 309.557 8.45392C309.935 8.3781 310.327 8.41658 310.683 8.56446C311.039 8.71235 311.343 8.96296 311.556 9.2844C311.77 9.60584 311.883 9.98359 311.881 10.3696C311.88 10.8808 311.678 11.3709 311.318 11.7336C310.958 12.0963 310.47 12.3021 309.959 12.3065Z" fill="white"/>
<path d="M339.911 132.306C334.35 132.306 326.154 131.054 317.15 128.683C304.044 125.214 293.806 120.488 292.201 117.191C292.078 116.972 292.006 116.728 291.99 116.477C291.974 116.226 292.015 115.975 292.109 115.742C293.489 112.607 306.637 113.346 322.036 117.412C335.142 120.881 345.401 125.606 346.985 128.904C347.108 129.123 347.181 129.367 347.196 129.618C347.212 129.869 347.171 130.12 347.077 130.353C346.502 131.672 343.884 132.306 339.911 132.306ZM299.096 114.231C295.423 114.231 292.993 114.773 292.493 115.901C292.422 116.078 292.392 116.27 292.406 116.461C292.421 116.652 292.479 116.838 292.576 117.003C294.085 120.146 304.465 124.884 317.254 128.274C331.957 132.164 345.439 133.041 346.698 130.19C346.766 130.011 346.794 129.82 346.779 129.629C346.764 129.438 346.706 129.253 346.61 129.088C345.101 125.944 334.721 121.206 321.932 117.817C313.065 115.483 304.661 114.231 299.096 114.231Z" fill="white"/>
<path d="M301.426 131.889C297.453 131.889 294.831 131.255 294.256 129.948C294.161 129.715 294.12 129.464 294.136 129.213C294.152 128.963 294.224 128.719 294.347 128.5C295.931 125.202 306.191 120.476 319.297 117.007C334.7 112.929 347.844 112.19 349.223 115.338C349.319 115.571 349.36 115.823 349.344 116.074C349.328 116.326 349.256 116.571 349.132 116.79C347.548 120.084 337.289 124.809 324.187 128.283C315.203 130.662 306.987 131.889 301.426 131.889ZM342.237 113.814C336.672 113.814 328.259 115.066 319.405 117.412C306.616 120.798 296.236 125.536 294.723 128.683C294.627 128.849 294.57 129.034 294.555 129.225C294.541 129.416 294.57 129.607 294.639 129.785C295.89 132.641 309.38 131.764 324.078 127.869C336.868 124.484 347.247 119.742 348.757 116.598C348.854 116.434 348.912 116.25 348.927 116.059C348.942 115.869 348.914 115.678 348.844 115.5C348.344 114.382 345.909 113.814 342.245 113.814H342.237Z" fill="white"/>
<path d="M332.645 128.136C334.024 128.136 335.142 127.017 335.142 125.636C335.142 124.255 334.024 123.135 332.645 123.135C331.266 123.135 330.148 124.255 330.148 125.636C330.148 127.017 331.266 128.136 332.645 128.136Z" fill="white"/>
<path d="M23.7611 87.3013C24.0839 87.4403 24.3567 87.6746 24.5429 87.973C24.7291 88.2714 24.82 88.6196 24.8033 88.9711C24.8004 89.3155 24.7296 89.656 24.5948 89.973C24.4572 90.3026 24.2748 90.6116 24.0529 90.8914C23.8309 91.1678 23.5542 91.3953 23.24 91.5593C22.925 91.7246 22.5744 91.8106 22.2187 91.8097C21.928 91.8086 21.642 91.7369 21.385 91.601C20.9929 91.4104 20.6395 91.1485 20.3428 90.8287C19.7592 90.3139 19.1131 89.7086 18.4044 89.0128L16.2784 86.9256C15.5697 86.2326 15.0278 85.7024 14.6735 85.3393C14.7819 85.8402 14.9694 86.5666 15.2362 87.51C15.503 88.4534 15.7698 89.4178 16.07 90.3904C16.3729 91.5036 16.7203 92.7003 17.1121 93.9805C17.1155 94.3303 17.0294 94.6753 16.862 94.9824C16.707 95.2731 16.5025 95.5345 16.2576 95.7546C16.0301 95.958 15.7692 96.1204 15.4864 96.2347C15.2355 96.341 14.9666 96.3976 14.6943 96.4017C14.3719 96.4205 14.0491 96.3708 13.7473 96.2557C13.4454 96.1407 13.1713 95.963 12.9429 95.7343C12.7146 95.5056 12.5371 95.2311 12.4223 94.9288C12.3074 94.6266 12.2577 94.3034 12.2765 93.9805C12.5516 92.7031 12.8184 91.505 13.0685 90.3904C13.2909 89.4164 13.4993 88.4562 13.6938 87.51C13.8856 86.5666 14.0523 85.8402 14.1941 85.3393L7.94112 91.601C7.57981 91.7316 7.19962 91.8021 6.81558 91.8097C6.50237 91.8095 6.19175 91.7529 5.89848 91.6428C5.58352 91.5293 5.28817 91.3673 5.02307 91.1627C4.75102 90.9614 4.52387 90.7054 4.35609 90.4113C4.19113 90.1259 4.10481 89.8018 4.10597 89.472C4.11329 89.0604 4.24401 88.6604 4.48115 88.324C4.7606 87.92 5.11428 87.5729 5.52331 87.3013C6.69052 86.9117 7.82995 86.5638 8.94159 86.2577C9.8837 85.9821 10.8425 85.715 11.818 85.4645C12.7934 85.214 13.5813 85.022 14.1941 84.8801C13.5813 84.6296 12.8101 84.3541 11.8805 84.0452L9.12918 83.1477L6.73221 82.3754C6.32242 82.2569 5.91893 82.1176 5.52331 81.9579C5.11007 81.736 4.75346 81.4218 4.48115 81.0395C4.271 80.7472 4.15468 80.3978 4.14765 80.0377C4.15441 79.7332 4.22683 79.4338 4.35995 79.16C4.49306 78.8862 4.68372 78.6445 4.91885 78.4513C5.38224 77.9998 6.00225 77.7454 6.64884 77.7417C6.86688 77.7419 7.08401 77.77 7.29498 77.8252C7.52279 77.8922 7.74024 77.9906 7.94112 78.1174C8.85822 78.9523 9.71974 79.7594 10.5257 80.5386C11.2177 81.2065 11.9055 81.8953 12.5891 82.605C13.2728 83.3146 13.8008 83.906 14.1732 84.3791C14.0593 83.7697 13.8925 82.9765 13.673 81.9997C13.4479 81.027 13.2561 80.0585 13.0269 79.0775C12.7976 78.0965 12.635 77.27 12.4849 76.5311C12.3856 76.1182 12.3091 75.7001 12.2557 75.2787C12.2597 75.0061 12.3163 74.7367 12.4224 74.4856C12.5428 74.2009 12.7121 73.9395 12.9226 73.7133C13.1425 73.468 13.4035 73.2632 13.6938 73.108C14.0005 72.9404 14.3449 72.8541 14.6943 72.8575C14.9762 72.8673 15.25 72.9539 15.4864 73.108C16.0493 73.4492 16.5213 73.9218 16.862 74.4856C17.0158 74.7223 17.1023 74.9965 17.1121 75.2787C17.0376 75.7031 16.9331 76.1216 16.7995 76.5311C16.591 77.27 16.3451 78.1174 16.07 79.0775C15.7948 80.0377 15.5197 81.0061 15.2362 81.9997C14.9528 82.9932 14.7819 83.7697 14.6735 84.3791C15.1617 83.769 15.6909 83.193 16.2576 82.6551C16.9495 81.976 17.6582 81.3151 18.3836 80.6722C19.1089 80.0293 19.755 79.4727 20.322 79.0024C20.6602 78.6976 21.015 78.4119 21.385 78.1466C21.7026 77.8847 22.0991 77.7376 22.5105 77.7292C22.8054 77.7333 23.0952 77.8073 23.356 77.9452C23.6169 78.0831 23.8414 78.2808 24.0112 78.5223C24.4156 79.0169 24.6365 79.6364 24.6365 80.2756C24.6379 80.6003 24.5667 80.9213 24.4281 81.2149C24.273 81.5236 24.0438 81.789 23.7611 81.9871C23.2122 82.3415 22.6157 82.6156 21.9894 82.8012C21.1974 83.0683 20.347 83.323 19.4466 83.5735C18.5461 83.8239 17.6582 84.0619 16.7995 84.2831C15.9407 84.5044 15.2279 84.7006 14.6735 84.9093C15.2821 85.0206 16.0811 85.2015 17.0704 85.452C18.0542 85.7025 19.0297 85.9613 19.9885 86.2243C20.9473 86.4873 21.7935 86.7336 22.5314 86.9548L23.7611 87.3013Z" fill="white"/>
</svg>
