<svg width="357" height="131" viewBox="0 0 357 131" fill="none" xmlns="http://www.w3.org/2000/svg">
<path d="M1.6002 1.65527L6.80084 12.1754L11.8975 1.65527H13.4977L7.20089 14.6785C5.89273 17.3775 4.80059 17.7534 3.2564 17.7534C2.68622 17.7476 2.125 17.6108 1.6162 17.3535V16.07C2.15589 16.3716 2.77144 16.5105 3.38842 16.4698C4.49655 16.4698 5.20864 15.4062 5.74071 14.2986L5.93673 13.8988L0 1.65527H1.6002Z" fill="white"/>
<path d="M20.7624 17.7773C16.3979 17.7773 13.5615 14.5425 13.5615 9.56036C13.5615 5.12998 16.1298 1.27539 20.9184 1.27539C23.9308 1.27539 26.9912 3.19869 27.3432 6.39751H25.839C25.351 4.05037 23.4387 2.58691 20.8504 2.58691C17.35 2.58691 15.0257 5.38588 15.0257 9.56435C15.0257 13.7428 17.306 16.4938 20.8024 16.4938C23.9708 16.4938 25.723 14.3226 26.0551 11.3757H27.5392C27.2032 15.2743 24.5509 17.7773 20.7624 17.7773Z" fill="white"/>
<path d="M35.2041 8.09691L42.673 17.4215H40.7448L34.128 9.11654L31.1116 11.8635V17.4215H29.6274V1.65527H31.1116V10.1362L40.3128 1.65527H42.313L35.2041 8.09691Z" fill="white"/>
<path d="M57.4392 9.59634C57.4392 14.5105 54.4228 17.8133 49.9702 17.8133C45.5177 17.8133 42.5693 14.4905 42.5693 9.55236C42.5693 4.61417 45.5617 1.27539 50.0063 1.27539C54.4508 1.27539 57.4392 4.64216 57.4392 9.59634ZM44.0775 9.50438C44.0775 13.7348 46.4258 16.5058 49.9942 16.5058C53.5627 16.5058 55.931 13.7348 55.931 9.57235C55.931 5.40988 53.5307 2.59491 49.9702 2.59491C46.4098 2.59491 44.0775 5.37389 44.0775 9.49238V9.50438Z" fill="white"/>
<path d="M66.4081 1.65527C69.3565 1.65527 71.3727 3.13873 71.3727 6.08165C71.3727 9.16052 69.3725 10.688 66.3641 10.688H61.1635V17.4215H59.6553V1.65527H66.4081ZM61.1635 9.42842H65.9641C68.1363 9.42842 69.8845 8.54075 69.8845 6.19361C69.8845 3.93444 68.3803 2.9388 66.1201 2.9388H61.1635V9.42842Z" fill="white"/>
<path d="M73.769 17.4216H71.8208L77.2495 10.4241C74.4811 10.3362 72.6849 8.74074 72.6849 6.02573C72.6849 3.22676 74.5691 1.66333 77.4855 1.66333H84.1143V17.4216H82.6061V10.4241H79.2097L73.769 17.4216ZM82.5701 2.93886H77.7695C75.5533 2.93886 74.1691 3.97848 74.1691 6.01773C74.1691 8.05699 75.5653 9.14059 77.7695 9.14059H82.5701V2.93886Z" fill="white"/>
<path d="M98.0118 2.9388H88.5746V8.62872H97.4157V9.89225H88.5746V16.138H98.0998V17.4215H87.0664V1.65527H98.0118V2.9388Z" fill="white"/>
<path d="M110.842 2.9388H105.305V17.4215H103.797V2.9388H98.2563V1.65527H110.842V2.9388Z" fill="white"/>
<path d="M127.176 1.65527C129.768 1.65527 132.116 2.78286 132.116 5.59783C132.113 6.39717 131.843 7.1726 131.35 7.80177C130.857 8.43095 130.168 8.87805 129.392 9.07256C131.144 9.40443 132.741 10.492 132.741 12.9032C132.741 15.962 130.3 17.4215 127.4 17.4215H120.415V1.65527H127.176ZM121.883 8.62872H126.888C128.684 8.62872 130.632 7.98895 130.632 5.79376C130.632 3.31467 128.508 2.9388 126.492 2.9388H121.883V8.62872ZM121.883 16.138H126.6C128.796 16.138 131.232 15.7381 131.232 12.9391C131.232 10.2361 128.66 9.86027 126.512 9.86027H121.883V16.138Z" fill="white"/>
<path d="M142.017 17.4215H134.977V1.65527H136.485V8.29684H142.017C144.922 8.29684 146.714 10.0682 146.714 12.8592C146.714 15.6501 144.906 17.4215 142.017 17.4215ZM141.669 9.59636H136.469V16.138H141.669C143.886 16.138 145.194 14.8984 145.194 12.8592C145.194 10.8199 143.886 9.59636 141.669 9.59636ZM150.418 1.65527V17.4215H148.91V1.65527H150.418Z" fill="white"/>
<path d="M160.152 1.65527C162.744 1.65527 165.092 2.78286 165.092 5.59783C165.089 6.39717 164.819 7.1726 164.326 7.80177C163.833 8.43095 163.144 8.87805 162.368 9.07256C164.116 9.40443 165.713 10.492 165.713 12.9032C165.713 15.962 163.276 17.4215 160.372 17.4215H153.395V1.65527H160.152ZM154.855 8.62872H159.864C161.66 8.62872 163.608 7.98895 163.608 5.79376C163.608 3.31467 161.48 2.9388 159.464 2.9388H154.855V8.62872ZM154.855 16.138H159.576C161.768 16.138 164.208 15.7381 164.208 12.9391C164.208 10.2361 161.636 9.86027 159.488 9.86027H154.855V16.138Z" fill="white"/>
<path d="M181.999 9.59655C181.999 14.5108 178.986 17.8135 174.534 17.8135C170.081 17.8135 167.133 14.4908 167.133 9.55257C167.133 4.61438 170.125 1.2876 174.554 1.2876C178.982 1.2876 181.999 4.64237 181.999 9.59655ZM168.637 9.50459C168.637 13.735 170.989 16.506 174.554 16.506C178.118 16.506 180.494 13.735 180.494 9.57256C180.494 5.41009 178.094 2.59512 174.534 2.59512C170.973 2.59512 168.637 5.3741 168.637 9.49259V9.50459Z" fill="white"/>
<path d="M196.024 21.6759V17.4215H183.799V21.6759H182.291V16.138H183.731C186.191 11.5317 186.079 6.28158 186.079 2.56294V1.65527H195.872V16.138H197.536V21.6759H196.024ZM194.368 2.9388H187.587V3.2267C187.587 6.74941 187.587 11.8435 185.327 16.138H194.368V2.9388Z" fill="white"/>
<path d="M251.563 2.9388H246.03V17.4215H244.522V2.9388H238.978V1.65527H251.563V2.9388Z" fill="white"/>
<path d="M266.453 9.59655C266.453 14.5108 263.44 17.8135 258.984 17.8135C254.527 17.8135 251.583 14.4908 251.583 9.55257C251.583 4.61438 254.575 1.2876 259.008 1.2876C263.44 1.2876 266.453 4.64237 266.453 9.59655ZM253.091 9.50459C253.091 13.735 255.439 16.506 259.008 16.506C262.576 16.506 264.949 13.735 264.949 9.57256C264.949 5.41009 262.548 2.59512 258.984 2.59512C255.419 2.59512 253.091 5.3741 253.091 9.49259V9.50459Z" fill="white"/>
<path d="M274.142 8.09691L281.611 17.4215H279.682L273.082 9.11654L270.065 11.8635V17.4215H268.581V1.65527H270.065V10.1362L279.266 1.65527H281.267L274.142 8.09691Z" fill="white"/>
<path d="M288.836 17.7773C284.471 17.7773 281.611 14.5425 281.611 9.56036C281.611 5.12998 284.183 1.27539 288.968 1.27539C292.004 1.27539 295.065 3.18269 295.417 6.39352H293.912C293.424 4.04638 291.512 2.58291 288.924 2.58291C285.423 2.58291 283.099 5.38189 283.099 9.56036C283.099 13.7388 285.379 16.4938 288.88 16.4938C292.048 16.4938 293.8 14.3226 294.132 11.3757H295.637C295.285 15.2743 292.624 17.7773 288.836 17.7773Z" fill="white"/>
<path d="M297.721 1.65527H299.237V15.8061L308.182 1.65527H310.13V17.4215H308.626V3.27068L299.673 17.4215H297.721V1.65527Z" fill="white"/>
<path d="M325.512 17.4215H324.004V9.82428H314.587V17.4215H313.079V1.65527H314.587V8.52076H324.004V1.65527H325.512V17.4215Z" fill="white"/>
<path d="M342.53 9.59655C342.53 14.5108 339.518 17.8135 335.062 17.8135C330.605 17.8135 327.661 14.4908 327.661 9.55257C327.661 4.61438 330.653 1.2876 335.086 1.2876C339.518 1.2876 342.53 4.64237 342.53 9.59655ZM329.169 9.50459C329.169 13.735 331.517 16.506 335.086 16.506C338.654 16.506 341.022 13.735 341.022 9.57256C341.022 5.41009 338.622 2.59512 335.062 2.59512C331.501 2.59512 329.169 5.3741 329.169 9.49259V9.50459Z" fill="white"/>
<path d="M351.44 1.65527C354.044 1.65527 356.38 2.79885 356.38 5.59783C356.376 6.39878 356.105 7.17544 355.609 7.80483C355.113 8.43421 354.422 8.88034 353.644 9.07256C355.392 9.40443 356.988 10.492 356.988 12.9032C356.988 15.962 354.552 17.4215 351.648 17.4215H344.679V1.65527H351.44ZM346.143 8.62872H351.152C352.944 8.62872 354.896 7.98895 354.896 5.79376C354.896 3.31467 352.768 2.9388 350.751 2.9388H346.143V8.62872ZM346.143 16.138H350.863C353.056 16.138 355.492 15.7381 355.492 12.9391C355.492 10.2361 352.924 9.86027 350.775 9.86027H346.143V16.138Z" fill="white"/>
<path d="M8.50927 38.094C11.1016 38.094 13.4499 39.2256 13.4499 42.0365C13.4473 42.8366 13.178 43.6129 12.6846 44.2429C12.1913 44.8729 11.5019 45.3206 10.7255 45.5153C12.4738 45.8472 14.07 46.9308 14.07 49.3459C14.07 52.4047 11.6337 53.8642 8.7293 53.8642H1.75244V38.094H8.50927ZM3.20062 45.0714H8.22124C10.0175 45.0714 11.9657 44.4317 11.9657 42.2365C11.9657 39.7574 9.83744 39.3815 7.82119 39.3815H3.20062V45.0714ZM3.20062 52.5807H7.9212C10.1135 52.5807 12.5538 52.1808 12.5538 49.3819C12.5538 46.6788 9.98146 46.303 7.83319 46.303H3.20062V52.5807Z" fill="white"/>
<path d="M30.5798 46.023C30.5798 50.9412 27.5674 54.24 23.1109 54.24C18.6543 54.24 15.71 50.9172 15.71 45.979C15.71 41.0408 18.7023 37.718 23.1349 37.718C27.5674 37.718 30.5798 41.0848 30.5798 46.023ZM17.2021 45.935C17.2021 50.1655 19.5504 52.9364 23.1189 52.9364C26.6873 52.9364 29.0556 50.1655 29.0556 46.003C29.0556 41.8405 26.6553 39.0255 23.0949 39.0255C19.5344 39.0255 17.2021 41.8165 17.2021 45.935Z" fill="white"/>
<path d="M39.4446 54.22C35.0801 54.22 32.2197 50.9852 32.2197 46.003C32.2197 41.5846 34.804 37.718 39.5766 37.718C42.613 37.718 45.6694 39.6253 46.0254 42.8361H44.5172C44.0292 40.489 42.1169 39.0255 39.5326 39.0255C36.0322 39.0255 33.7039 41.8245 33.7039 46.003C33.7039 50.1815 36.0042 52.9364 39.4886 52.9364C42.657 52.9364 44.4092 50.7652 44.7413 47.8183H46.2255C45.8934 51.7169 43.2331 54.22 39.4446 54.22Z" fill="white"/>
<path d="M55.0467 54.22C50.6781 54.22 47.8218 50.9852 47.8218 46.003C47.8218 41.5726 50.3901 37.718 55.1787 37.718C58.215 37.718 61.2714 39.6253 61.6275 42.8361H60.1193C59.6312 40.489 57.719 39.0255 55.1347 39.0255C51.6342 39.0255 49.306 41.8245 49.306 46.003C49.306 50.1815 51.5902 52.9364 55.0907 52.9364C58.2591 52.9364 60.0073 50.7652 60.3393 47.8183H61.8235C61.4914 51.7169 58.8351 54.22 55.0467 54.22Z" fill="white"/>
<path d="M74.6134 39.3815H69.0727V53.8642H67.5645V39.3815H62.0278V38.094H74.6134V39.3815Z" fill="white"/>
<path d="M87.1108 53.864H85.4506L83.5424 48.9018H76.3215L74.4093 53.864H72.7891L79.1899 38.0498H80.8101L87.1108 53.864ZM79.978 39.4693L76.7776 47.6863H83.0703L79.978 39.4693Z" fill="white"/>
<path d="M100.94 53.8642H99.4323V46.247H90.0111V53.8642H88.5029V38.094H90.0111V44.9595H99.4283V38.094H100.936L100.94 53.8642Z" fill="white"/>
<path d="M116.674 53.864H115.01L113.106 48.9018H105.881L103.953 53.864H102.353L108.733 38.0498H110.394L116.674 53.864ZM109.537 39.4693L106.337 47.6863H112.63L109.537 39.4693Z" fill="white"/>
<path d="M124.852 38.094C127.444 38.094 129.792 39.2256 129.792 42.0365C129.789 42.8371 129.52 43.6139 129.025 44.2439C128.531 44.874 127.841 45.3214 127.064 45.5153C128.816 45.8472 130.412 46.9308 130.412 49.3459C130.412 52.4047 127.976 53.8642 125.072 53.8642H118.091V38.094H124.852ZM119.555 45.0714H124.564C126.356 45.0714 128.308 44.4317 128.308 42.2365C128.308 39.7574 126.18 39.3815 124.164 39.3815H119.555V45.0714ZM119.555 52.5807H124.276C126.468 52.5807 128.904 52.1808 128.904 49.3819C128.904 46.6788 126.336 46.303 124.184 46.303H119.555V52.5807Z" fill="white"/>
<path d="M142.314 53.8642V39.3815H135.953L135.665 48.6581C135.577 51.829 134.733 54.1961 132.34 54.1961C131.792 54.2011 131.248 54.0964 130.74 53.8882V52.6447C131.235 52.8339 131.763 52.9249 132.292 52.9126C133.421 52.9126 134.089 51.805 134.221 47.7745L134.529 38.094H143.818V53.8642H142.314Z" fill="white"/>
<path d="M146.942 38.094H148.45V52.2488L157.403 38.094H159.351V53.8642H157.847V39.7134L148.894 53.8642H146.942V38.094Z" fill="white"/>
<path d="M169.305 38.094C171.897 38.094 174.245 39.2256 174.245 42.0365C174.243 42.8371 173.973 43.6139 173.479 44.2439C172.984 44.874 172.294 45.3214 171.517 45.5153C173.269 45.8472 174.865 46.9308 174.865 49.3459C174.865 52.4047 172.425 53.8642 169.525 53.8642H162.544V38.094H169.305ZM164.02 45.0714H169.029C170.821 45.0714 172.773 44.4317 172.773 42.2365C172.773 39.7574 170.645 39.3815 168.629 39.3815H164.02V45.0714ZM164.02 52.5807H168.737C170.933 52.5807 173.369 52.1808 173.369 49.3819C173.369 46.6788 170.801 46.303 168.649 46.303H164.02V52.5807Z" fill="white"/>
<path d="M189.868 53.864H188.207L186.299 48.9018H179.074L177.15 53.864H175.53L181.931 38.0498H183.595L189.868 53.864ZM182.731 39.4693L179.53 47.6863H185.823L182.731 39.4693Z" fill="white"/>
<path d="M202.233 39.3815H192.792V45.0714H201.625V46.335H192.784V52.5807H202.313V53.8642H191.288V38.094H202.233V39.3815Z" fill="white"/>
<path d="M215.282 39.3815H209.746V53.8642H208.237V39.3815H202.697V38.094H215.282V39.3815Z" fill="white"/>
<path d="M276.958 38.094C279.55 38.094 281.899 39.2256 281.899 42.0365C281.896 42.8371 281.626 43.6139 281.132 44.2439C280.638 44.874 279.948 45.3214 279.17 45.5153C280.923 45.8472 282.519 46.9308 282.519 49.3459C282.519 52.4047 280.082 53.8642 277.178 53.8642H270.197V38.094H276.958ZM271.661 45.0714H276.67C278.462 45.0714 280.415 44.4317 280.415 42.2365C280.415 39.7574 278.286 39.3815 276.27 39.3815H271.661V45.0714ZM271.661 52.5807H276.382C278.574 52.5807 281.011 52.1808 281.011 49.3819C281.011 46.6788 278.442 46.303 276.29 46.303H271.661V52.5807Z" fill="white"/>
<path d="M299.029 46.023C299.029 50.9412 296.013 54.24 291.56 54.24C287.108 54.24 284.159 50.9172 284.159 45.979C284.159 41.0408 287.152 37.718 291.584 37.718C296.017 37.718 299.029 41.0848 299.029 46.023ZM285.667 45.935C285.667 50.1655 288.016 52.9364 291.584 52.9364C295.153 52.9364 297.521 50.1655 297.521 46.003C297.521 41.8405 295.121 39.0255 291.56 39.0255C288 39.0255 285.667 41.8165 285.667 45.935Z" fill="white"/>
<path d="M313.275 58.1187V53.8642H301.045V58.1187H299.537V52.5807H300.977C303.438 47.9744 303.326 42.7243 303.326 38.9857V38.094H313.123V52.5807H314.783V58.1187H313.275ZM311.615 39.3815H304.838V39.6694C304.838 43.1881 304.862 48.2823 302.577 52.5807H311.619L311.615 39.3815Z" fill="white"/>
<path d="M329.009 53.8642H327.504V46.247H318.087V53.8642H316.579V38.094H318.087V44.9595H327.504V38.094H329.009V53.8642Z" fill="white"/>
<path d="M346.251 46.023C346.251 50.9412 343.238 54.24 338.782 54.24C334.325 54.24 331.381 50.9172 331.381 45.979C331.381 41.0408 334.373 37.718 338.806 37.718C343.238 37.718 346.251 41.0848 346.251 46.023ZM332.889 45.935C332.889 50.1655 335.237 52.9364 338.806 52.9364C342.374 52.9364 344.743 50.1655 344.743 46.003C344.743 41.8405 342.342 39.0255 338.782 39.0255C335.221 39.0255 332.889 41.8165 332.889 45.935Z" fill="white"/>
<path d="M353.92 48.4621H348.359V47.1106H353.92V48.4621Z" fill="white"/>
<path d="M8.24093 90.6628C3.87639 90.6628 1.04004 87.428 1.04004 82.4459C1.04004 78.0155 3.60836 74.1609 8.39695 74.1609C11.4333 74.1609 14.4897 76.0642 14.8457 79.279H13.3176C12.8295 76.9279 10.9173 75.4684 8.33294 75.4684C4.83251 75.4684 2.50422 78.2674 2.50422 82.4459C2.50422 86.6243 4.7845 89.3753 8.28893 89.3753C11.4573 89.3753 13.2055 87.2081 13.5376 84.2612H15.0218C14.6897 88.1598 12.0334 90.6628 8.24093 90.6628Z" fill="white"/>
<path d="M30.8439 82.4658C30.8439 87.384 27.8315 90.6828 23.3789 90.6828C18.9264 90.6828 15.978 87.3601 15.978 82.4219C15.978 77.4837 18.9704 74.1609 23.3989 74.1609C27.8275 74.1609 30.8439 77.5277 30.8439 82.4658ZM17.4862 82.3699C17.4862 86.6003 19.8345 89.3673 23.3989 89.3673C26.9634 89.3673 29.3397 86.6003 29.3397 82.4379C29.3397 78.2754 26.9394 75.4604 23.3789 75.4604C19.8185 75.4604 17.4862 78.2594 17.4862 82.3699Z" fill="white"/>
<path d="M42.2814 90.3068V75.8201H35.9206L35.6326 85.1008C35.5446 88.2676 34.7045 90.6387 32.3082 90.6387C31.759 90.6456 31.2143 90.5395 30.708 90.3268V89.0873C31.2018 89.2762 31.7276 89.3672 32.2562 89.3552C33.3883 89.3552 34.0524 88.2476 34.1844 84.2171L34.4965 74.5366H43.7816V90.3068H42.2814Z" fill="white"/>
<path d="M57.3073 75.8201H47.8661V81.5141H56.7072V82.7696H47.8661V89.0153H57.3953V90.2989H46.3579V74.5366H57.3073V75.8201Z" fill="white"/>
<path d="M65.7041 74.5366C68.2964 74.5366 70.6447 75.6682 70.6447 78.4792C70.6421 79.2792 70.3728 80.0556 69.8794 80.6855C69.3861 81.3155 68.6967 81.7632 67.9204 81.9579C69.6726 82.2898 71.2648 83.3734 71.2648 85.7885C71.2648 88.8434 68.8285 90.3068 65.9241 90.3068H58.9473V74.5366H65.7041ZM60.4074 81.5141H65.4161C67.2123 81.5141 69.1605 80.8703 69.1605 78.6791C69.1605 76.2 67.0323 75.8201 65.016 75.8201H60.4074V81.5141ZM60.4074 89.0233H65.128C67.3203 89.0233 69.7606 88.6235 69.7606 85.8245C69.7606 83.1215 67.1883 82.7456 65.04 82.7456H60.4074V89.0233Z" fill="white"/>
<path d="M87.2106 82.4658C87.2106 87.384 84.1943 90.6828 79.7417 90.6828C75.2892 90.6828 72.3408 87.3601 72.3408 82.4219C72.3408 77.4837 75.3332 74.1609 79.7657 74.1609C84.1983 74.1609 87.2106 77.5277 87.2106 82.4658ZM73.849 82.3779C73.849 86.6083 76.1973 89.3753 79.7657 89.3753C83.3342 89.3753 85.7025 86.6083 85.7025 82.4459C85.7025 78.2834 83.3022 75.4684 79.7417 75.4684C76.1813 75.4684 73.861 78.2594 73.861 82.3699L73.849 82.3779Z" fill="white"/>
<path d="M89.0391 74.5367H90.5472V88.6915L99.4963 74.5367H101.449V90.3069H99.9404V76.1561L90.9913 90.3069H89.0391V74.5367ZM92.9395 70.6821C93.0716 71.8137 93.9157 72.5015 95.2198 72.5015C96.524 72.5015 97.3481 71.8337 97.5721 70.6821H98.4362C98.1042 72.5454 97.016 73.5651 95.1998 73.5651C93.3836 73.5651 92.2955 72.5454 92.0754 70.6821H92.9395Z" fill="white"/>
<path d="M190.044 90.3068H182.579V74.5366H193.5V75.8201H184.083V81.1702H190.044C192.948 81.1702 194.74 82.9415 194.74 85.7325C194.74 88.5235 192.948 90.3068 190.044 90.3068ZM189.711 82.4657H184.083V89.0233H189.711C191.928 89.0233 193.236 87.7798 193.236 85.7445C193.236 83.7093 191.928 82.4657 189.711 82.4657Z" fill="white"/>
<path d="M209.898 90.3069H208.238L206.333 85.3447H199.109L197.18 90.3069H195.58L201.945 74.4927H203.625L209.898 90.3069ZM202.765 75.9122L199.565 84.1291H205.865L202.765 75.9122Z" fill="white"/>
<path d="M221.467 90.3068V75.8201H215.106L214.826 85.1008C214.738 88.2676 213.898 90.6387 211.502 90.6387C210.953 90.6456 210.408 90.5395 209.902 90.3268V89.0873C210.396 89.2762 210.921 89.3672 211.45 89.3552C212.582 89.3552 213.246 88.2476 213.378 84.2171L213.69 74.5366H222.975V90.3068H221.467Z" fill="white"/>
<path d="M238.642 90.3069H236.981L235.073 85.3447H227.848L225.924 90.3069H224.324L230.705 74.4927H232.369L238.642 90.3069ZM231.505 75.9122L228.304 84.1291H234.597L231.505 75.9122Z" fill="white"/>
<path d="M252.467 90.3068H250.963V82.7096H241.546V90.3068H240.03V74.5366H241.538V81.4021H250.955V74.5366H252.459L252.467 90.3068Z" fill="white"/>
<path d="M262.153 90.6628C257.788 90.6628 254.952 87.428 254.952 82.4459C254.952 78.0155 257.52 74.1609 262.305 74.1609C265.341 74.1609 268.401 76.0642 268.753 79.279H267.233C266.745 76.9279 264.833 75.4684 262.245 75.4684C258.744 75.4684 256.42 78.2674 256.42 82.4459C256.42 86.6243 258.7 89.3753 262.201 89.3753C265.369 89.3753 267.121 87.2081 267.453 84.2612H268.937C268.601 88.1598 265.941 90.6628 262.153 90.6628Z" fill="white"/>
<path d="M317.311 90.3068H315.803V82.7096H306.386V90.3068H304.877V74.5366H306.386V81.4021H315.803V74.5366H317.311V90.3068Z" fill="white"/>
<path d="M333.997 82.4658C333.997 87.384 330.981 90.6828 326.528 90.6828C322.076 90.6828 319.127 87.3601 319.127 82.4219C319.127 77.4837 322.12 74.1609 326.552 74.1609C330.985 74.1609 333.997 77.5277 333.997 82.4658ZM320.636 82.3779C320.636 86.6083 322.984 89.3753 326.552 89.3753C330.121 89.3753 332.489 86.6083 332.489 82.4459C332.489 78.2834 330.089 75.4684 326.528 75.4684C322.968 75.4684 320.636 78.2594 320.636 82.3699V82.3779Z" fill="white"/>
<path d="M342.638 74.5366C345.587 74.5366 347.603 76.0201 347.603 78.967C347.603 82.0459 345.603 83.5733 342.594 83.5733H337.394V90.3068H335.881V74.5366H342.638ZM337.39 82.3098H342.19C344.362 82.3098 346.111 81.4261 346.111 79.079C346.111 76.8198 344.606 75.8201 342.346 75.8201H337.39V82.3098Z" fill="white"/>
<path d="M354.516 84.9008H348.955V83.5693H354.516V84.9008Z" fill="white"/>
<path d="M17.0624 126.753H15.6222V117.225C15.6222 115.566 15.6902 113.926 15.7982 112.263C15.4902 113.218 15.1342 114.19 14.7581 115.122L10.1055 126.753H8.75338L4.0328 115.258C3.63275 114.306 3.30071 113.33 2.99267 112.355C3.10068 113.954 3.16869 115.554 3.16869 117.185V126.753H1.72852V110.979H3.76877L8.35333 122.231C8.75338 123.207 9.08542 124.202 9.44147 125.198C9.79351 124.222 10.1055 123.227 10.4816 122.275L15.0022 110.979H17.0624V126.753Z" fill="white"/>
<path d="M32.7521 126.754H31.0879L29.2037 121.787H21.9588L20.0345 126.754H18.4023L24.8031 110.935H26.4673L32.7521 126.754ZM25.6032 112.359L22.4028 120.576H28.7196L25.6032 112.359Z" fill="white"/>
<path d="M44.3175 126.753V112.263H37.9607L37.6727 121.555C37.5846 124.722 36.7405 127.093 34.3482 127.093C33.7992 127.099 33.2547 126.993 32.748 126.781V125.542C33.2437 125.729 33.7705 125.82 34.3002 125.81C35.4284 125.81 36.0925 124.702 36.2285 120.672L36.5365 110.991H45.8217V126.753H44.3175Z" fill="white"/>
<path d="M48.9502 110.979H50.4584V125.13L59.4115 110.979H61.3597V126.753H59.8515V112.599L50.9024 126.753H48.9502V110.979Z" fill="white"/>
<path d="M70.1365 127.081C66.212 127.081 63.8438 125.042 63.8438 121.675V121.555H65.2839C65.2839 124.478 67.2322 125.874 70.2445 125.874C72.9049 125.874 74.5251 124.17 74.5251 122.155C74.5251 120.316 72.9489 119.096 70.9246 119.096H68.4083V117.813H70.9326C72.6168 117.813 74.101 116.881 74.101 115.046C74.101 112.851 72.4168 111.879 70.2685 111.879C67.7642 111.879 65.948 113.079 65.816 115.478H64.3518C64.5078 112.223 66.9001 110.627 70.2245 110.627C73.1929 110.627 75.6092 111.955 75.6092 114.922C75.6019 115.649 75.3759 116.357 74.9607 116.954C74.5455 117.55 73.9602 118.009 73.2809 118.269V118.333C74.9451 118.776 76.0293 120.06 76.0293 122.143C76.0293 124.071 74.5691 127.081 70.1365 127.081Z" fill="white"/>
<path d="M78.3777 110.979L83.5424 121.499L88.663 110.979H90.2632L83.9704 124.002C82.6663 126.705 81.5701 127.081 80.0259 127.081C79.4557 127.076 78.8945 126.939 78.3857 126.682V125.398C78.928 125.697 79.5439 125.835 80.162 125.798C81.2701 125.798 81.9782 124.734 82.5102 123.627L82.7103 123.207L76.7695 110.979H78.3777Z" fill="white"/>
<path d="M102.601 112.263H93.1595V117.957H102.013V119.216H93.1715V125.462H102.701V126.753H91.6553V110.979H102.601V112.263Z" fill="white"/>
<path d="M115.65 112.263H110.114V126.753H108.606V112.263H103.065V110.979H115.65V112.263Z" fill="white"/>
<path d="M137.325 118.908C137.325 123.826 134.313 127.125 129.856 127.125C125.399 127.125 122.455 123.802 122.455 118.864C122.455 113.926 125.447 110.603 129.88 110.603C134.313 110.603 137.325 113.958 137.325 118.908ZM123.963 118.82C123.963 123.051 126.312 125.818 129.88 125.818C133.448 125.818 135.817 123.051 135.817 118.884C135.817 114.718 133.416 111.911 129.856 111.911C126.296 111.911 123.963 114.702 123.963 118.82Z" fill="white"/>
<path d="M147.162 126.753H139.697V110.979H150.619V112.263H141.217V117.625H147.178C150.083 117.625 151.879 119.396 151.879 122.187C151.879 124.978 150.067 126.753 147.162 126.753ZM146.818 118.908H141.217V125.462H146.818C149.034 125.462 150.343 124.222 150.343 122.187C150.343 120.152 149.046 118.908 146.818 118.908Z" fill="white"/>
<path d="M169.789 126.753H168.349V117.225C168.349 115.566 168.417 113.926 168.525 112.263C168.217 113.218 167.861 114.19 167.484 115.122L162.82 126.753H161.468L156.747 115.258C156.347 114.306 156.015 113.33 155.707 112.355C155.815 113.954 155.883 115.554 155.883 117.185V126.753H154.443V110.979H156.483L161.068 122.231C161.468 123.207 161.8 124.202 162.156 125.198C162.508 124.222 162.82 123.227 163.196 122.275L167.717 110.979H169.777L169.789 126.753Z" fill="white"/>
<path d="M183.883 112.263H174.442V117.957H183.283V119.216H174.442V125.462H183.971V126.753H172.938V110.979H183.883V112.263Z" fill="white"/>
<path d="M198.484 126.753H196.98V119.128H187.563V126.753H186.055V110.979H187.563V117.845H196.98V110.979H198.484V126.753Z" fill="white"/>
<path d="M257.72 110.979C260.312 110.979 262.66 112.111 262.66 114.922C262.658 115.722 262.388 116.498 261.895 117.128C261.402 117.758 260.712 118.206 259.936 118.401C261.688 118.732 263.28 119.816 263.28 122.231C263.28 125.286 260.844 126.749 257.944 126.749H250.963V110.979H257.72ZM252.431 117.957H257.432C259.228 117.957 261.176 117.313 261.176 115.122C261.176 112.639 259.048 112.263 257.032 112.263H252.431V117.957ZM252.431 125.462H257.152C259.344 125.462 261.784 125.062 261.784 122.263C261.784 119.564 259.212 119.184 257.064 119.184H252.431V125.462Z" fill="white"/>
<path d="M276.69 112.263H267.233V117.957H276.074V119.216H267.233V125.462H276.762V126.753H265.745V110.979H276.69V112.263Z" fill="white"/>
<path d="M278.882 110.979H280.391V125.462H288.103V110.979H289.608V125.462H297.321V110.979H298.837V125.462H300.501V131H298.993V126.753H278.882V110.979Z" fill="white"/>
<path d="M313.363 112.263H303.926V117.957H312.767V119.216H303.926V125.462H313.455V126.753H302.438V110.979H313.383L313.363 112.263Z" fill="white"/>
<path d="M322.04 127.101C317.675 127.101 314.815 123.87 314.815 118.884C314.815 114.458 317.387 110.603 322.172 110.603C325.208 110.603 328.265 112.507 328.621 115.717H327.112C326.624 113.37 324.712 111.911 322.128 111.911C318.627 111.911 316.299 114.71 316.299 118.884C316.299 123.059 318.583 125.818 322.084 125.818C325.252 125.818 327 123.646 327.336 120.704H328.841C328.501 124.598 325.84 127.101 322.04 127.101Z" fill="white"/>
<path d="M341.618 112.263H336.078V126.753H334.573V112.263H329.033V110.979H341.618V112.263Z" fill="white"/>
<path d="M349.839 110.979C352.431 110.979 354.779 112.111 354.779 114.922C354.777 115.722 354.508 116.498 354.014 117.128C353.521 117.758 352.832 118.206 352.055 118.401C353.807 118.732 355.4 119.816 355.4 122.231C355.4 125.286 352.963 126.749 350.063 126.749H343.082V110.979H349.839ZM344.542 117.957H349.551C351.347 117.957 353.295 117.313 353.295 115.122C353.295 112.639 351.171 112.263 349.155 112.263H344.542V117.957ZM344.542 125.462H349.263C351.459 125.462 353.895 125.062 353.895 122.263C353.895 119.564 351.323 119.184 349.175 119.184H344.542V125.462Z" fill="white"/>
<path d="M164.788 88.8434H117.546C117.436 88.8434 117.33 88.7996 117.252 88.7216C117.174 88.6437 117.13 88.5379 117.13 88.4276C117.13 88.3173 117.174 88.2115 117.252 88.1335C117.33 88.0556 117.436 88.0117 117.546 88.0117H164.788C165.616 88.0117 166.41 87.6833 166.996 87.0985C167.582 86.5137 167.912 85.7204 167.913 84.8929V81.89C167.913 81.7797 167.956 81.6739 168.034 81.5959C168.112 81.5179 168.218 81.4741 168.329 81.4741C168.439 81.4741 168.545 81.5179 168.623 81.5959C168.701 81.6739 168.745 81.7797 168.745 81.89V84.8929C168.743 85.9407 168.325 86.9449 167.583 87.6854C166.842 88.4259 165.837 88.8424 164.788 88.8434Z" fill="white"/>
<path d="M164.788 89.0714H117.546C117.376 89.0714 117.212 89.0036 117.091 88.8828C116.97 88.7621 116.902 88.5984 116.902 88.4276C116.902 88.2569 116.97 88.0931 117.091 87.9724C117.212 87.8517 117.376 87.7839 117.546 87.7839H164.788C165.556 87.7839 166.292 87.4794 166.835 86.9374C167.378 86.3953 167.684 85.66 167.685 84.8929V81.89C167.678 81.8015 167.689 81.7125 167.718 81.6285C167.747 81.5446 167.793 81.4676 167.854 81.4024C167.914 81.3372 167.987 81.2851 168.069 81.2495C168.15 81.2139 168.238 81.1956 168.327 81.1956C168.416 81.1956 168.503 81.2139 168.585 81.2495C168.666 81.2851 168.739 81.3372 168.8 81.4024C168.86 81.4676 168.906 81.5446 168.935 81.6285C168.964 81.7125 168.976 81.8015 168.969 81.89V84.8929C168.968 86.0008 168.527 87.063 167.743 87.8464C166.959 88.6298 165.897 89.0703 164.788 89.0714ZM117.546 88.2397C117.497 88.2397 117.449 88.2595 117.413 88.2947C117.378 88.33 117.358 88.3778 117.358 88.4276C117.358 88.4775 117.378 88.5253 117.413 88.5605C117.449 88.5958 117.497 88.6156 117.546 88.6156H164.788C165.776 88.6145 166.723 88.2221 167.422 87.5243C168.121 86.8265 168.515 85.8803 168.517 84.8929V81.89C168.517 81.8653 168.512 81.8409 168.502 81.8181C168.493 81.7953 168.479 81.7746 168.462 81.7571C168.444 81.7397 168.423 81.7258 168.401 81.7164C168.378 81.7069 168.353 81.7021 168.329 81.7021C168.278 81.7021 168.23 81.7217 168.194 81.7569C168.158 81.792 168.138 81.8398 168.137 81.89V84.8929C168.136 85.7802 167.782 86.6309 167.155 87.2583C166.527 87.8857 165.676 88.2386 164.788 88.2397H117.546Z" fill="white"/>
<path d="M164.924 84.649L165.532 85.2168L168.325 82.2099L171.121 85.2168L171.729 84.649L168.325 80.9863L164.924 84.649Z" fill="white"/>
<path d="M165.545 85.5366L164.604 84.6609L168.325 80.6624L172.053 84.6609L171.109 85.5366L168.309 82.5417L165.545 85.5366ZM168.325 81.8779L171.125 84.8928L171.401 84.6369L168.317 81.3221L165.237 84.6369L165.513 84.8928L168.325 81.8779Z" fill="white"/>
<path d="M117.547 82.9734C117.44 82.9734 117.339 82.9313 117.264 82.8563C117.189 82.7813 117.146 82.6796 117.146 82.5736V79.6586C117.148 78.5886 117.573 77.5626 118.33 76.8055C119.086 76.0485 120.112 75.6222 121.183 75.6201H167.729C167.839 75.6201 167.945 75.6639 168.023 75.7419C168.101 75.8199 168.145 75.9257 168.145 76.036C168.145 76.1463 168.101 76.252 168.023 76.33C167.945 76.408 167.839 76.4518 167.729 76.4518H121.167C120.318 76.4518 119.504 76.7888 118.904 77.3887C118.304 77.9886 117.967 78.8023 117.967 79.6506V82.5656C117.968 82.6205 117.958 82.675 117.937 82.7258C117.916 82.7766 117.885 82.8226 117.845 82.8609C117.806 82.8991 117.759 82.9289 117.708 82.9482C117.656 82.9676 117.601 82.9762 117.547 82.9734Z" fill="white"/>
<path d="M117.546 83.1974C117.376 83.1974 117.213 83.1301 117.092 83.0102C116.972 82.8904 116.903 82.7276 116.902 82.5576V79.6427C116.903 78.5121 117.353 77.4282 118.152 76.6284C118.952 75.8286 120.036 75.3783 121.167 75.3762H167.729C167.899 75.3762 168.063 75.444 168.184 75.5648C168.305 75.6855 168.373 75.8492 168.373 76.02C168.373 76.1907 168.305 76.3545 168.184 76.4752C168.063 76.5959 167.899 76.6638 167.729 76.6638H121.167C120.377 76.6648 119.62 76.9791 119.062 77.5377C118.504 78.0962 118.191 78.8533 118.191 79.6427V82.5576C118.189 82.7276 118.121 82.8904 118 83.0102C117.88 83.1301 117.717 83.1974 117.546 83.1974ZM121.167 75.8321C120.156 75.8331 119.188 76.2351 118.474 76.9496C117.76 77.6641 117.358 78.6327 117.358 79.6427V82.5576C117.358 82.6074 117.378 82.6552 117.413 82.6905C117.449 82.7257 117.497 82.7455 117.546 82.7455C117.596 82.7455 117.644 82.7257 117.679 82.6905C117.715 82.6552 117.734 82.6074 117.734 82.5576V79.6427C117.734 78.7324 118.096 77.8594 118.74 77.2153C119.383 76.5713 120.256 76.209 121.167 76.2079H167.729C167.778 76.2079 167.826 76.1881 167.862 76.1529C167.897 76.1176 167.917 76.0698 167.917 76.02C167.917 75.9701 167.897 75.9223 167.862 75.8871C167.826 75.8519 167.778 75.8321 167.729 75.8321H121.167Z" fill="white"/>
<path d="M114.142 79.7985L114.75 79.2307L117.546 82.2376L120.339 79.2307L120.951 79.7985L117.546 83.4572L114.142 79.7985Z" fill="white"/>
<path d="M117.546 83.7932L113.822 79.7946L114.762 78.9189L117.562 81.9138L120.343 78.9189L121.287 79.7946L117.546 83.7932ZM114.462 79.7946L117.546 83.1094L120.631 79.7946L120.351 79.5347L117.55 82.5536L114.75 79.5347L114.462 79.7946Z" fill="white"/>
<path d="M230.856 13.1951C230.841 14.2842 230.546 15.3512 229.999 16.2932C229.452 17.2351 228.671 18.0203 227.732 18.5731C225.644 19.8207 223.459 19.8246 221.291 18.7131C221.242 18.6817 221.185 18.665 221.127 18.665C221.069 18.665 221.012 18.6817 220.963 18.7131C219.471 19.5118 217.726 19.6968 216.1 19.2286C214.474 18.7604 213.095 17.676 212.256 16.2064C211.418 14.7369 211.187 12.9983 211.613 11.3611C212.038 9.72382 213.087 8.31733 214.534 7.44119C214.583 7.42234 214.624 7.38658 214.649 7.34038C214.674 7.29418 214.681 7.24058 214.67 7.18928C214.564 6.35137 214.63 5.50067 214.863 4.68888C215.096 3.87708 215.492 3.12114 216.026 2.46701C216.984 1.21095 218.384 0.367222 219.943 0.107873C221.057 -0.116098 222.211 -0.0343665 223.282 0.34439C224.353 0.723147 225.302 1.38479 226.028 2.25908C227.093 3.44309 227.666 4.98941 227.628 6.5815C227.627 6.75947 227.613 6.93715 227.588 7.11331C227.57 7.18228 227.577 7.25545 227.609 7.31936C227.64 7.38328 227.694 7.43364 227.76 7.46118C228.808 8.07372 229.654 8.97829 230.196 10.0642C230.662 11.0405 230.889 12.1138 230.856 13.1951ZM226.292 6.79742C226.361 5.8625 226.171 4.92656 225.744 4.09218C225.316 3.2578 224.667 2.55719 223.867 2.06716C222.954 1.53627 221.904 1.28477 220.849 1.34375C219.794 1.40274 218.779 1.76963 217.931 2.39903C216.486 3.49863 215.93 5.02607 215.93 6.79742L216.114 6.75344C217.745 6.28844 219.494 6.48679 220.979 7.30524C221.024 7.33636 221.078 7.35301 221.133 7.35301C221.188 7.35301 221.242 7.33636 221.287 7.30524C222.162 6.818 223.139 6.544 224.139 6.50553C224.868 6.47749 225.597 6.57625 226.292 6.79742ZM215.006 8.67673C212.694 10.1322 211.986 13.2031 213.474 15.7142C214.109 16.7915 215.121 17.5949 216.315 17.9687C217.509 18.3425 218.799 18.2601 219.935 17.7374C219.903 17.7054 219.879 17.6694 219.847 17.6414C219.14 16.9625 218.598 16.1302 218.264 15.2088C217.929 14.2874 217.811 13.3016 217.919 12.3274C217.931 12.2733 217.924 12.2167 217.899 12.1672C217.874 12.1176 217.833 12.0781 217.783 12.0555C217.122 11.6619 216.538 11.1526 216.058 10.552C215.611 9.98612 215.256 9.35324 215.006 8.67673ZM222.339 17.7614C223.559 18.3104 224.947 18.3544 226.2 17.8839C227.452 17.4134 228.468 16.4666 229.024 15.2503C230.224 12.7113 229.304 9.92428 227.248 8.68873C227.248 8.68873 227.224 8.71672 227.22 8.73671C226.702 10.1467 225.713 11.3345 224.419 12.0995C224.394 12.1218 224.373 12.1494 224.359 12.1805C224.346 12.2116 224.339 12.2454 224.339 12.2794C224.523 13.8004 224.145 15.3361 223.275 16.5978C222.991 17.0017 222.655 17.3695 222.339 17.7614ZM221.139 17.0217C221.787 16.5136 222.3 15.8548 222.634 15.1027C222.968 14.3506 223.113 13.5281 223.055 12.7073C221.806 13.0871 220.472 13.0871 219.223 12.7073C218.931 13.9948 219.947 16.258 221.127 17.0217H221.139ZM218.215 10.796C218.463 10.3361 218.671 9.8643 218.951 9.44045C219.231 9.01661 219.587 8.62075 219.915 8.20491C218.728 7.7008 217.397 7.6552 216.178 8.07695C216.538 9.18319 217.254 10.1393 218.215 10.796ZM222.291 8.2249C223.056 8.94416 223.641 9.83308 223.999 10.8199C224.98 10.1653 225.71 9.19867 226.072 8.07695C224.836 7.65773 223.488 7.71332 222.291 8.2329V8.2249Z" fill="#F9FAFB"/>
<path d="M211.894 112.551C212.694 112.407 213.47 112.267 214.243 112.151C214.324 112.155 214.401 112.189 214.459 112.247C215.907 113.518 217.359 114.79 218.799 116.069C218.876 116.151 218.973 116.211 219.081 116.243C219.188 116.276 219.302 116.279 219.411 116.253C221.996 115.787 224.582 115.328 227.172 114.878C228.84 114.582 232.993 113.902 234.665 113.634C235.37 113.508 236.095 113.58 236.761 113.842C237.032 113.952 237.283 114.105 237.505 114.294C237.739 114.481 237.897 114.746 237.95 115.04C238.003 115.334 237.947 115.637 237.793 115.894C237.494 116.41 237.041 116.821 236.497 117.069C235.84 117.378 235.138 117.579 234.417 117.665C233.501 117.825 231.733 118.093 230.817 118.265C230.699 118.287 230.588 118.339 230.497 118.417C228.699 119.984 226.904 121.551 225.112 123.119C224.98 123.232 224.822 123.31 224.652 123.347C223.852 123.507 223.052 123.643 222.22 123.787C222.152 123.787 222.084 123.787 221.988 123.807L222.852 119.668C222.6 119.712 220.731 120.012 220.503 120.068C219.613 120.256 218.708 120.364 217.799 120.392C215.757 120.405 213.76 119.796 212.074 118.644C211.999 118.583 211.947 118.499 211.926 118.405C211.866 118.149 211.83 117.889 211.782 117.605L213.558 117.285L211.894 112.551Z" fill="#F9FAFB"/>
<path d="M287.66 73.8127C287.66 83.3013 283.159 82.0537 279.415 82.0537C283.187 82.0537 287.66 83.1573 287.66 90.2947C287.66 83.1573 292.06 82.0537 295.905 82.0537C292.036 82.0537 287.66 83.3013 287.66 73.8127Z" fill="white"/>
<path d="M240.565 36.8384C237.173 36.8384 250.143 46.4349 250.143 46.4349C250.143 46.4349 237.173 56.0313 240.565 56.0313C243.958 56.0313 250.167 49.8336 250.167 46.4349C250.167 43.0361 243.958 36.8384 240.565 36.8384Z" fill="white"/>
<path d="M248.363 36.8384C244.97 36.8384 257.94 46.4349 257.94 46.4349C257.94 46.4349 244.97 56.0313 248.363 56.0313C251.755 56.0313 257.964 49.8336 257.964 46.4349C257.964 43.0361 251.751 36.8384 248.363 36.8384Z" fill="white"/>
<path d="M224.976 36.8384C221.583 36.8384 234.553 46.4349 234.553 46.4349C234.553 46.4349 221.583 56.0313 224.976 56.0313C228.368 56.0313 234.577 49.8336 234.577 46.4349C234.577 43.0361 228.364 36.8384 224.976 36.8384Z" fill="white"/>
<path d="M232.769 36.8384C229.38 36.8384 242.35 46.4349 242.35 46.4349C242.35 46.4349 229.38 56.0313 232.769 56.0313C236.157 56.0313 242.37 49.8336 242.37 46.4349C242.37 43.0361 236.161 36.8384 232.769 36.8384Z" fill="white"/>
</svg>
