<svg width="21" height="25" viewBox="0 0 21 25" fill="none" xmlns="http://www.w3.org/2000/svg">
<path d="M20.1425 10.3353C19.3575 8.25172 17.9228 6.47648 16.0509 5.27241C14.179 4.06834 11.9694 3.49944 9.74924 3.64995L10.835 2.57325C11.0257 2.38374 11.1333 2.1262 11.1343 1.85728C11.1352 1.58836 11.0293 1.33009 10.8399 1.13928C10.7461 1.04481 10.6347 0.969735 10.5119 0.918359C10.3892 0.866982 10.2575 0.840304 10.1244 0.83985C9.85566 0.838932 9.59756 0.94488 9.40688 1.13439L5.53816 4.98115L9.18679 8.89642C9.37456 9.08556 9.62734 9.19592 9.89362 9.20501C10.1599 9.2141 10.4196 9.12125 10.6198 8.94536C10.8155 8.76123 10.9305 8.50711 10.9397 8.23847C10.9488 7.96982 10.8514 7.70845 10.6687 7.51139L9.07919 5.80335C10.8875 5.49773 12.746 5.807 14.3582 6.68179C15.9704 7.55659 17.2432 8.94651 17.9738 10.6298C18.7043 12.313 18.8503 14.1926 18.3886 15.9686C17.9268 17.7446 16.8839 19.3147 15.4262 20.4283C13.9686 21.5419 12.1801 22.1349 10.3463 22.1126C8.51253 22.0904 6.73902 21.4541 5.3088 20.3054C3.87858 19.1567 2.87407 17.5618 2.45555 15.7751C2.03704 13.9884 2.22863 12.1129 2.99977 10.4478C3.05531 10.3272 3.0865 10.1968 3.09153 10.0641C3.09657 9.93145 3.07536 9.79906 3.02911 9.67458C2.93436 9.42329 2.74463 9.21937 2.50089 9.10687C2.25748 8.99474 1.97968 8.98325 1.72784 9.07489C1.47601 9.16652 1.27047 9.35389 1.15589 9.59628C0.455539 11.1316 0.143804 12.8158 0.248219 14.5003C0.352634 16.1847 0.869987 17.8175 1.75458 19.2545C2.63917 20.6914 3.86378 21.8882 5.32023 22.7392C6.77669 23.5903 8.42018 24.0693 10.1055 24.134C11.7909 24.1988 13.4662 23.8472 14.9836 23.1104C16.501 22.3736 17.8136 21.2742 18.8057 19.9093C19.7978 18.5445 20.4387 16.9562 20.6718 15.2847C20.9049 13.6132 20.7231 11.91 20.1425 10.3255V10.3353Z" fill="white"/>
</svg>
