<svg width="23" height="18" viewBox="0 0 23 18" fill="none" xmlns="http://www.w3.org/2000/svg">
<path d="M15.3007 9.51335V-0.0160595C15.3007 -0.333707 15.0924 -0.545471 14.7799 -0.545471H1.23824C0.925741 -0.545471 0.717407 -0.333707 0.717407 -0.0160595V9.51335C0.717407 9.831 0.925741 10.0428 1.23824 10.0428H4.88407V12.6898C4.88407 12.9016 4.98824 13.1134 5.19657 13.2192C5.30074 13.2192 5.30074 13.2192 5.40491 13.2192C5.50907 13.2192 5.61324 13.2192 5.71741 13.1134L9.77991 10.0428H14.7799C15.0924 10.0428 15.3007 9.831 15.3007 9.51335Z" fill="#5BD4D4"/>
<path d="M25.1965 3.68982H16.3424V10.0428C16.3424 10.6781 15.9257 11.1016 15.3007 11.1016H11.134V13.7486C11.134 14.0663 11.3424 14.2781 11.6549 14.2781H16.6549L20.7174 17.3486C20.8215 17.4545 20.9257 17.4545 21.0299 17.4545C21.134 17.4545 21.2382 17.4545 21.2382 17.4545C21.4465 17.3486 21.5507 17.1369 21.5507 16.9251V14.2781H25.1965C25.509 14.2781 25.7174 14.0663 25.7174 13.7486V4.21923C25.7174 3.90158 25.509 3.68982 25.1965 3.68982Z" fill="#5BD4D4"/>
</svg>
