<svg width="1351" height="97" viewBox="0 0 1351 97" fill="none" xmlns="http://www.w3.org/2000/svg">
<path d="M36.5609 97C14.6925 97 0 81.9463 0 59.542C0 48.4616 3.48199 39.0346 10.0605 32.344C16.639 25.6535 25.8772 22.0903 36.7601 22.0903C58.1531 22.0903 72.5308 37.1825 72.5308 59.6445C72.5308 81.9848 58.076 97 36.5609 97ZM36.7601 23.4233C15.2385 23.4233 1.33626 37.5991 1.33626 59.542C1.33626 70.2122 4.68977 79.2803 11.0306 85.7722C17.3714 92.2641 26.1856 95.667 36.5609 95.667C57.273 95.667 71.1945 81.1901 71.1945 59.6445C71.1945 37.9772 57.3565 23.4233 36.7601 23.4233ZM36.5609 79.588C27.2392 79.588 21.8877 72.1732 21.8877 59.2472C21.8877 46.9427 27.4769 39.3037 36.4646 39.3037C45.4522 39.3037 50.7523 46.539 50.7523 58.6576C50.7523 75.9543 43.0431 79.588 36.5609 79.588ZM36.4646 40.6367C28.1772 40.6367 23.224 47.5964 23.224 59.2215C23.224 71.3017 28.0872 78.2293 36.5609 78.2293C47.1739 78.2293 49.4096 67.5719 49.4096 58.632C49.4032 47.3721 44.5656 40.6367 36.4646 40.6367Z" fill="white"/>
<path d="M114.655 96.9998C104.106 96.9998 95.0605 93.238 88.5013 86.1053C82.2311 79.3314 78.7812 69.8532 78.7812 59.4457C78.7812 37.8552 94.0326 22.1863 115.047 22.1863C132.579 22.1863 146.526 34.3625 147.567 50.4544L147.612 51.1594H125.441L125.338 50.6275C124.208 44.6355 120.417 41.3351 114.655 41.3351C105.185 41.3351 101.806 50.698 101.806 59.4585C101.806 70.635 106.727 77.5819 114.655 77.5819C120.604 77.5819 124.291 73.897 125.332 66.9373L125.416 66.3669H147.901L147.856 67.0783C146.661 85.2337 133.626 96.9998 114.655 96.9998ZM115.047 23.5193C94.81 23.5193 80.1175 38.6306 80.1175 59.4457C80.1175 80.7733 94.3217 95.6668 114.655 95.6668C123.251 95.6668 130.773 93.1611 136.408 88.4316C142.273 83.5098 145.749 76.345 146.475 67.6871H126.559C125.274 74.9223 121.086 78.9021 114.648 78.9021C105.905 78.9021 100.47 71.4425 100.47 59.4457C100.47 54.4342 101.549 49.8328 103.509 46.4683C104.585 44.4669 106.197 42.802 108.164 41.6584C110.132 40.5147 112.378 39.937 114.655 39.9893C120.861 39.9893 125.165 43.5652 126.54 49.8264H146.179C144.856 34.7791 131.602 23.5193 115.047 23.5193Z" fill="white"/>
<path d="M192.827 95.3274H169.995V43.2899H150.368V23.9617H212.549V43.2899H192.827V95.3274ZM171.331 93.9944H191.49V41.9569H211.213V25.2947H151.704V41.9569H171.331V93.9944Z" fill="white"/>
<path d="M280.185 95.3274H256.974L253.518 85.3942H231.88L228.424 95.3274H205.2L231.63 23.9617H253.858L254.019 24.3975L280.185 95.3274ZM257.912 93.9944H278.271L252.927 25.2947H232.561L207.121 93.9944H227.473L230.93 84.0612H254.462L257.912 93.9944ZM250.164 70.3404H235.131L235.42 69.4625C237.759 62.4707 239.275 57.6259 239.275 57.581C240.63 53.3321 241.003 51.8581 242.224 46.8915L242.917 44.0653L243.81 48.2501C244.421 51.3688 245.21 54.4499 246.175 57.4785C246.175 57.5554 248.654 65.4892 249.92 69.4753L250.164 70.3404ZM236.962 69.0075H248.34C247.023 64.8419 244.89 57.9463 244.864 57.8694C244.04 55.2936 243.347 52.6777 242.789 50.0317C242.063 52.9412 241.581 54.6523 240.521 57.9783C240.508 58.0168 239.14 62.4771 236.962 69.0075Z" fill="white"/>
<path d="M321.03 95.3274H283.486V23.9617H319.553C336.314 23.9617 345.166 30.2421 345.166 42.1364C345.166 48.1284 342.706 52.467 337.226 56.0493C344.89 59.1575 348.623 64.8483 348.623 73.4165C348.623 87.5474 338.819 95.3274 321.03 95.3274ZM284.823 93.9944H321.03C328.572 93.9944 334.881 92.4884 339.269 89.6366C344.588 86.1824 347.28 80.7223 347.28 73.4165C347.28 65.0213 343.425 59.5997 335.504 56.8312L334.149 56.357L335.382 55.6264C341.305 52.1273 343.83 48.0899 343.83 42.1684C343.83 30.9919 335.665 25.3267 319.553 25.3267H284.823V93.9944ZM318.37 78.7036H304.391V64.1882H318.37C324.082 64.1882 327.223 66.8029 327.223 71.5452C327.223 74.8136 325.714 78.7036 318.37 78.7036ZM305.727 77.3706H318.37C323.426 77.3706 325.887 75.4481 325.887 71.5452C325.887 66.5658 321.801 65.5212 318.37 65.5212H305.727V77.3706ZM317.188 52.044H304.391V39.8677H316.199C322.945 39.8677 324.364 43.2258 324.364 46.0456C324.364 49.7561 321.615 52.044 317.188 52.044ZM305.727 50.711H317.188C320.895 50.711 323.028 49.0191 323.028 46.0712C323.028 44.8728 323.028 41.2263 316.199 41.2263H305.727V50.711Z" fill="white"/>
<path d="M424.444 95.3274H401.213L397.763 85.3942H376.133L372.683 95.3274H349.484L375.882 23.9617H398.117L398.277 24.3975L424.444 95.3274ZM402.164 93.9944H422.523L397.185 25.2947H376.814L351.373 93.9944H371.732L375.182 84.0612H398.714L402.164 93.9944ZM394.455 70.3404H379.364L379.659 69.4625C381.998 62.4707 383.514 57.6259 383.514 57.581C384.87 53.3321 385.242 51.8581 386.463 46.8915L387.157 44.0653L388.03 48.2501C388.638 51.3695 389.427 54.4508 390.395 57.4785C390.395 57.5554 392.868 65.4892 394.14 69.4753L394.455 70.3404ZM381.253 69.0075H392.624C391.307 64.8419 389.174 57.9463 389.155 57.8694C388.33 55.2936 387.638 52.6777 387.08 50.0317C386.354 52.9412 385.872 54.6523 384.805 57.9783C384.767 58.0168 383.392 62.4771 381.221 69.0075H381.253Z" fill="white"/>
<path d="M492.387 95.3274H470.544V68.296C470.544 64.7777 470.666 58.9716 470.891 54.6074L451.817 95.3274H427.643V23.9616H449.588V51.1852C449.588 54.2549 449.466 59.6637 449.261 64.4637L468.334 23.9616H492.406L492.387 95.3274ZM471.874 93.9944H491.044V25.2946H469.163L447.564 71.2119L447.764 67.7705C448.066 62.413 448.252 54.9919 448.252 51.1852V25.2946H428.979V93.9944H450.989L472.831 47.308L472.465 51.1531C472.08 55.1777 471.874 63.7011 471.874 68.3025V93.9944ZM460.066 17.944C447.629 17.944 441.436 12.4647 440.562 0.704942L440.511 0H452.447L452.537 0.563953C453.334 5.60108 456.771 6.29321 460.362 6.29321C464.859 6.29321 466.786 4.7872 467.589 0.525502L467.692 0H479.256V0.692125C478.89 11.5354 471.707 17.944 460.066 17.944ZM441.956 1.33298C442.965 11.9007 448.573 16.6238 460.066 16.6238C470.814 16.6238 477.277 11.0612 477.9 1.33298H468.791C467.763 5.81897 465.283 7.62619 460.362 7.62619C456.726 7.62619 452.46 6.89561 451.323 1.33298H441.956Z" fill="white"/>
<path d="M541.688 95.3274H518.849V43.2899H499.229V23.9617H561.404V43.2899H541.688V95.3274ZM520.186 93.9944H540.345V41.9569H560.068V25.2947H500.566V41.9569H520.186V93.9944Z" fill="white"/>
<path d="M628.943 95.3274H568.451V23.9617H627.966V42.2966H590.988V49.7305H624.51V67.29H590.988V76.1915H628.943V95.3274ZM569.781 93.9944H627.6V77.5437H589.651V66.0083H623.161V51.0635H589.651V40.9764H626.63V25.2947H569.787L569.781 93.9944Z" fill="white"/>
<path d="M671.864 96.9998C661.315 96.9998 652.276 93.238 645.711 86.1053C639.447 79.3314 636.01 69.8532 636.01 59.4457C636.01 37.8552 651.268 22.1863 672.275 22.1863C689.807 22.1863 703.754 34.3625 704.795 50.4544L704.84 51.1594H682.65L682.548 50.6147C681.423 44.6227 677.627 41.3222 671.864 41.3222C662.395 41.3222 659.015 50.6852 659.015 59.4457C659.015 70.6222 663.936 77.5691 671.864 77.5691C677.813 77.5691 681.501 73.8841 682.541 66.9244L682.625 66.3541H705.11L705.065 67.0654C703.87 85.2337 690.835 96.9998 671.864 96.9998ZM672.256 23.5193C652.019 23.5193 637.333 38.6306 637.333 59.4457C637.333 80.7733 651.531 95.6668 671.864 95.6668C680.46 95.6668 687.983 93.1611 693.617 88.4316C699.482 83.5098 702.958 76.345 703.684 67.6871H683.768C682.483 74.9223 678.295 78.9021 671.858 78.9021C663.114 78.9021 657.679 71.4425 657.679 59.4457C657.679 54.4342 658.758 49.8328 660.718 46.4683C663.191 42.2323 667.039 39.9893 671.858 39.9893C678.064 39.9893 682.368 43.5652 683.743 49.8264H703.382C702.065 34.7791 688.811 23.5193 672.256 23.5193Z" fill="white"/>
<path d="M745.423 95.3274H712.607V23.9617H735.44V45.7956H746.701C765.268 45.7956 775.078 54.1909 775.078 70.0713C775.078 86.1183 764.272 95.3274 745.423 95.3274ZM713.944 93.9944H745.423C763.687 93.9944 773.742 85.4967 773.742 70.0713C773.742 62.7655 771.57 57.1132 767.285 53.268C762.749 49.1922 755.824 47.1286 746.727 47.1286H734.129V25.2947H713.969L713.944 93.9944ZM744.633 78.6139H734.103V61.7273H744.729C750.999 61.7273 754.173 64.6048 754.173 70.2635C754.173 77.1591 748.988 78.6075 744.633 78.6075V78.6139ZM735.44 77.2809H744.633C750.158 77.2809 752.837 74.9866 752.837 70.2699C752.837 65.2905 750.338 63.0667 744.729 63.0667H735.44V77.2809Z" fill="white"/>
<path d="M884.413 95.3274H861.581V67.6873H842.604V95.3274H819.669V23.9617H842.604V47.4683H861.581V23.9617H884.413V95.3274ZM862.918 93.9944H883.077V25.2947H862.918V48.8013H841.268V25.2947H821.031V93.9944H841.293V66.3543H862.943L862.918 93.9944Z" fill="white"/>
<path d="M962.501 95.3274H939.271L935.821 85.3942H914.184L910.734 95.3274H887.51L913.933 23.9617H936.168L936.328 24.3975L962.501 95.3274ZM940.221 93.9944H960.58L935.236 25.2947H914.871L889.431 93.9944H909.789L913.239 84.0612H936.772L940.221 93.9944ZM932.512 70.3404H917.396L917.691 69.4625C920.03 62.4707 921.546 57.6259 921.546 57.581C922.901 53.3321 923.274 51.8581 924.495 46.8915L925.188 44.0653L926.081 48.2501C926.689 51.3695 927.478 54.4508 928.446 57.4785C928.446 57.5554 930.919 65.4892 932.191 69.4753L932.512 70.3404ZM919.31 69.0075H930.681C929.364 64.8419 927.231 57.9463 927.212 57.8694C926.374 55.2951 925.671 52.679 925.105 50.0317C924.373 52.9412 923.897 54.6523 922.831 57.9783C922.818 58.0168 921.45 62.4771 919.278 69.0075H919.31Z" fill="white"/>
<path d="M1032.73 97C1022.18 97 1013.14 93.2382 1006.58 86.1055C1000.31 79.3124 996.858 69.8405 996.858 59.4266C996.858 37.8362 1012.11 22.1672 1033.12 22.1672C1050.66 22.1672 1064.6 34.3435 1065.64 50.4354L1065.69 51.1403H1043.51L1043.42 50.5956C1042.28 44.6036 1038.49 41.3032 1032.73 41.3032C1023.26 41.3032 1019.88 50.6661 1019.88 59.4266C1019.88 70.6031 1024.8 77.55 1032.73 77.55C1038.68 77.55 1042.37 73.8651 1043.41 66.9054L1043.49 66.335H1065.98L1065.93 67.0464C1064.73 85.2339 1051.7 97 1032.73 97ZM1033.12 23.5194C1012.89 23.5194 998.195 38.6308 998.195 59.4458C998.195 80.7735 1012.4 95.667 1032.73 95.667C1041.33 95.667 1048.85 93.1613 1054.48 88.4318C1060.35 83.51 1063.83 76.3452 1064.55 67.6873H1044.64C1043.35 74.9225 1039.17 78.9022 1032.73 78.9022C1023.99 78.9022 1018.55 71.4427 1018.55 59.4458C1018.55 54.4343 1019.63 49.833 1021.59 46.4685C1022.67 44.468 1024.28 42.8038 1026.25 41.6603C1028.21 40.5167 1030.46 39.9384 1032.73 39.9894C1038.94 39.9894 1043.24 43.5654 1044.62 49.8266H1064.26C1062.93 34.7793 1049.68 23.5194 1033.12 23.5194Z" fill="white"/>
<path d="M1111.12 95.3274H1073.57V23.9617H1109.64C1126.4 23.9617 1135.26 30.2421 1135.26 42.1364C1135.26 48.1284 1132.8 52.467 1127.31 56.0493C1134.98 59.1575 1138.71 64.8483 1138.71 73.4165C1138.71 87.5474 1128.91 95.3274 1111.12 95.3274ZM1074.91 93.9944H1111.12C1118.66 93.9944 1124.97 92.4884 1129.35 89.6366C1134.67 86.1824 1137.37 80.7223 1137.37 73.4165C1137.37 65.0213 1133.52 59.5997 1125.59 56.8312L1124.23 56.357L1125.47 55.6264C1131.39 52.1273 1133.92 48.0899 1133.92 42.1684C1133.92 30.9919 1125.75 25.3267 1109.64 25.3267H1074.91V93.9944ZM1108.46 78.7036H1094.48V64.1882H1108.46C1114.17 64.1882 1117.31 66.8029 1117.31 71.5452C1117.31 74.8136 1115.77 78.7036 1108.46 78.7036ZM1095.81 77.3706H1108.46C1113.51 77.3706 1115.97 75.4481 1115.97 71.5452C1115.97 66.5658 1111.89 65.5212 1108.46 65.5212H1095.81V77.3706ZM1107.27 52.044H1094.48V39.8677H1106.27C1113.02 39.8677 1114.43 43.2258 1114.43 46.0456C1114.45 49.7561 1111.7 52.044 1107.27 52.044ZM1095.81 50.711H1107.27C1110.99 50.711 1113.11 49.0191 1113.11 46.0712C1113.11 44.8728 1113.11 41.2263 1106.29 41.2263H1095.81V50.711Z" fill="white"/>
<path d="M1209.5 95.3274H1187.06V69.9495H1182.3L1167.71 95.3274H1139.83L1160.19 65.4571C1152.48 62.1503 1147.13 54.3383 1147.13 46.1673C1147.13 31.2226 1156.8 23.9617 1176.68 23.9617H1209.5L1209.5 95.3274ZM1188.4 93.9944H1208.17V25.2947H1176.69C1157.7 25.2947 1148.47 32.1198 1148.47 46.1673C1148.47 54.0691 1153.8 61.6184 1161.45 64.5279L1162.24 64.8291L1142.36 93.9944H1166.94L1181.53 68.6165H1188.4V93.9944ZM1188.4 54.7035H1176.79C1169.47 54.7035 1167.94 50.8071 1167.94 47.5452C1167.94 42.8028 1171.08 40.1882 1176.79 40.1882H1188.4V54.7035ZM1176.79 41.5211C1173.36 41.5211 1169.27 42.5657 1169.27 47.5452C1169.27 51.4608 1171.74 53.3706 1176.79 53.3706H1187.07V41.5211H1176.79Z" fill="white"/>
<path d="M1247.61 96.8976C1237.83 96.8976 1229.66 94.5264 1223.98 90.0276C1218.31 85.5288 1215.19 78.9472 1215.09 71.0583V70.4174H1237.97L1238.01 71.0583C1238.32 76.5184 1241.41 79.2869 1247.2 79.2869C1253.27 79.2869 1256.88 76.4799 1256.88 71.7889C1256.88 66.5274 1252.84 65.47 1246.32 65.47C1245.58 65.47 1244.81 65.47 1244.07 65.5213C1243.32 65.5725 1242.53 65.5661 1241.77 65.5661H1241.13V50.7239L1241.88 50.8136C1242.63 50.9098 1244.4 50.9098 1245.26 50.9098H1245.83C1249.1 50.9098 1253.18 50.9098 1255.26 48.8654C1255.73 48.3605 1256.09 47.7647 1256.33 47.1145C1256.56 46.4643 1256.66 45.7735 1256.61 45.0844C1256.61 41.5468 1253.24 39.259 1248.01 39.259C1242.66 39.259 1239.02 41.7647 1238.92 45.4945V46.1354H1217.37V45.5009C1217.48 38.2593 1220.47 32.2737 1226.03 28.1978C1231.44 24.2245 1239.18 22.1289 1248.42 22.1289C1256.97 22.1289 1264.12 23.84 1269.1 27.0827C1274.45 30.5754 1277.29 35.8625 1277.29 42.3671C1277.29 47.5709 1273.97 53.9474 1268.29 56.6454C1271.56 57.8437 1274.38 60.0123 1276.37 62.8588C1278.36 65.7054 1279.43 69.0928 1279.43 72.5643C1279.41 87.7974 1267.52 96.8976 1247.61 96.8976ZM1216.44 71.7184C1216.97 86.6695 1228.57 95.5646 1247.61 95.5646C1256.25 95.5646 1263.62 93.7254 1268.92 90.2455C1275.01 86.2338 1278.1 80.2738 1278.1 72.5258C1278.09 69.0189 1276.91 65.6147 1274.73 62.8609C1272.56 60.1071 1269.51 58.1639 1266.1 57.344L1263.65 56.7864L1266.04 56.0558C1272.15 54.1909 1275.93 47.4748 1275.93 42.3287C1275.93 30.3126 1265.89 23.4234 1248.4 23.4234C1230.26 23.4234 1219.23 31.4021 1218.7 44.8088H1237.6C1238.08 40.6689 1242.15 37.926 1247.99 37.926C1254.02 37.926 1257.92 40.733 1257.92 45.0844C1257.97 45.9485 1257.84 46.8125 1257.54 47.6243C1257.23 48.436 1256.77 49.1787 1256.18 49.8075C1253.71 52.262 1249.32 52.2491 1245.8 52.2427H1245.23C1244.52 52.2427 1243.3 52.2427 1242.44 52.1979V64.1819C1242.97 64.1819 1243.5 64.1819 1244.02 64.137C1244.78 64.137 1245.56 64.0922 1246.32 64.0922C1250.47 64.0922 1258.22 64.0922 1258.22 71.744C1258.22 77.1913 1254 80.575 1247.2 80.575C1240.99 80.575 1237.29 77.4348 1236.72 71.7184H1216.44Z" fill="white"/>
<path d="M1351 95.3274H1329.16V68.2961C1329.16 64.7778 1329.27 58.9716 1329.5 54.6074L1310.43 95.3274H1286.26V23.9617H1308.21V51.1852C1308.21 54.2549 1308.09 59.6638 1307.88 64.4638L1326.93 23.9617H1351V95.3274ZM1330.48 93.9944H1349.65V25.2947H1327.78L1306.18 71.212L1306.38 67.7706C1306.68 62.413 1306.87 54.9919 1306.87 51.1852V25.2947H1287.6V93.9944H1309.58L1331.45 47.3081L1331.08 51.1532C1330.7 55.1778 1330.49 63.7012 1330.49 68.3025L1330.48 93.9944Z" fill="white"/>
</svg>
