<svg width="11" height="19" viewBox="0 0 11 19" fill="none" xmlns="http://www.w3.org/2000/svg">
<path d="M3.73693 7.7239L6.91659 2.26346C6.9789 2.15654 7.01995 2.03806 7.03737 1.91484C7.0548 1.79163 7.04825 1.6661 7.01812 1.54548C6.97573 1.36111 6.88018 1.19403 6.74387 1.06594C6.60755 0.937845 6.43677 0.854648 6.25368 0.827149C6.07059 0.79965 5.88365 0.829118 5.71712 0.911726C5.5506 0.994335 5.41218 1.12627 5.31984 1.29041L0.464966 9.62749H7.8488L3.86614 17.0246C3.80621 17.1341 3.76821 17.2548 3.75435 17.3795C3.7405 17.5042 3.75106 17.6305 3.78543 17.751C3.81981 17.8715 3.8773 17.9838 3.95454 18.0813C4.03179 18.1788 4.12725 18.2595 4.23534 18.3188C4.37644 18.3988 4.53556 18.4395 4.69682 18.4369C4.86102 18.4393 5.02285 18.3967 5.16563 18.3137C5.30841 18.2307 5.42696 18.1101 5.50905 17.9646L10.9962 7.7239H3.73693Z" fill="white"/>
</svg>
