<svg width="21" height="18" viewBox="0 0 21 18" fill="none" xmlns="http://www.w3.org/2000/svg">
<path d="M7.22069 3.76448C7.60984 3.76448 7.98305 3.61107 8.25821 3.338C8.53338 3.06494 8.68797 2.69458 8.68797 2.3084V1.86672C8.68797 1.48055 8.53338 1.11019 8.25821 0.837121C7.98305 0.564053 7.60984 0.410645 7.22069 0.410645C6.83155 0.410645 6.45834 0.564053 6.18317 0.837121C5.908 1.11019 5.75342 1.48055 5.75342 1.86672V2.3084C5.75342 2.69458 5.908 3.06494 6.18317 3.338C6.45834 3.61107 6.83155 3.76448 7.22069 3.76448Z" fill="white"/>
<path d="M14.65 3.76448C15.0392 3.76448 15.4124 3.61107 15.6875 3.338C15.9627 3.06494 16.1173 2.69458 16.1173 2.3084V1.86672C16.1173 1.48055 15.9627 1.11019 15.6875 0.837121C15.4124 0.564053 15.0392 0.410645 14.65 0.410645C14.2609 0.410645 13.8877 0.564053 13.6125 0.837121C13.3373 1.11019 13.1827 1.48055 13.1827 1.86672V2.3084C13.1827 2.69458 13.3373 3.06494 13.6125 3.338C13.8877 3.61107 14.2609 3.76448 14.65 3.76448Z" fill="white"/>
<path d="M19.6974 7.18625C19.4495 7.18564 19.2105 7.27854 19.0289 7.44613C18.8473 7.61373 18.7366 7.84352 18.7193 8.08902C18.6106 9.54857 18.1145 10.9536 17.2813 12.1612C16.5762 13.1958 15.6364 14.0519 14.5375 14.6608C13.2634 15.3712 11.8216 15.7321 10.3603 15.7066C8.89909 15.681 7.47105 15.2698 6.22295 14.5152C4.9228 13.7359 3.87018 12.6089 3.18568 11.2633C2.67121 10.2749 2.36343 9.19356 2.28086 8.08416C2.27219 7.95669 2.2383 7.83215 2.18113 7.71767C2.12397 7.60319 2.04463 7.50101 1.94767 7.41695C1.85071 7.3329 1.73801 7.26862 1.61601 7.22778C1.49401 7.18695 1.36511 7.17036 1.23665 7.17897C1.10819 7.18757 0.982701 7.2212 0.86734 7.27793C0.751979 7.33467 0.64901 7.41339 0.564308 7.50962C0.479607 7.60584 0.414831 7.71768 0.373684 7.83874C0.332536 7.95981 0.315821 8.08773 0.324492 8.21521C0.5116 10.7677 1.66542 13.1554 3.55402 14.8982C5.44262 16.641 7.92599 17.6098 10.505 17.6098C13.0839 17.6098 15.5673 16.641 17.4559 14.8982C19.3445 13.1554 20.4983 10.7677 20.6854 8.21521C20.6935 8.0821 20.6738 7.94876 20.6277 7.82352C20.5815 7.69828 20.5099 7.58382 20.4172 7.48727C20.3245 7.39073 20.2127 7.31417 20.0889 7.26238C19.9651 7.21059 19.8318 7.18467 19.6974 7.18625Z" fill="white"/>
</svg>
