<svg width="886" height="74" viewBox="0 0 886 74" fill="none" xmlns="http://www.w3.org/2000/svg">
<path opacity="0.9" d="M885.74 72.6563H867V54H885.746L885.74 72.6563ZM868.263 71.3927H884.477V55.2636H868.257L868.263 71.3927Z" fill="white"/>
<g opacity="0.9">
<path opacity="0.9" d="M63.3922 71.6848H43.474L43.31 71.296C42.0044 68.1674 41.7615 64.3037 41.5308 60.5675C41.4457 59.2128 41.3668 57.9371 41.2393 56.7221C40.3891 48.7699 37.4499 46.0787 29.604 46.0787H19.226V71.6848H0V1.61597H36.4661C43.3161 1.61597 49.1519 3.34734 53.3481 6.62782C57.945 10.2242 60.3741 15.5945 60.3741 22.1555C60.3741 29.8768 57.1191 35.5204 50.6943 38.892C52.5701 39.6645 54.2426 40.8595 55.5813 42.3842C56.92 43.9089 57.8889 45.722 58.4127 47.6825C59.4936 51.4126 59.6939 52.3177 60.5562 62.39C60.5926 62.7606 60.6231 63.1312 60.6535 63.4957C60.8721 66.1869 61.0603 68.5075 62.6575 70.6702L63.3922 71.6848ZM44.3119 70.4151H60.9753C59.7608 68.2585 59.5725 65.9864 59.3781 63.599C59.3781 63.2406 59.3236 62.8761 59.2871 62.4994C58.4127 52.2631 58.2244 51.6191 57.186 48.0288C56.0261 43.91 53.1598 40.9818 48.9029 39.5664L47.3726 39.0561L48.8422 38.3878C55.6436 35.3139 59.0988 29.8525 59.0988 22.1555C59.0988 15.9104 56.8945 11.02 52.5586 7.62411C48.5871 4.5198 43.0185 2.87955 36.454 2.87955H1.23276V70.4151H17.969V44.8091H29.6101C38.1118 44.8091 41.5853 48.0045 42.5023 56.5824C42.6359 57.7974 42.7148 59.1156 42.7999 60.4825C42.9942 63.9574 43.2189 67.5416 44.3119 70.4151ZM31.2377 33.3213H17.969V15.5337H31.0616C34.9541 15.5337 37.784 16.2202 39.7272 17.6357C41.6705 19.0512 42.7027 21.2807 42.7027 24.1845C42.6845 32.2339 36.8974 33.3213 31.2377 33.3213ZM31.2377 32.0577C37.3528 32.0577 41.4215 30.7212 41.4215 24.1602C41.4215 21.6452 40.6199 19.8409 38.9925 18.632C37.365 17.423 34.6323 16.773 31.098 16.773H19.2684V32.0334L31.2377 32.0577Z" fill="white"/>
<path opacity="0.9" d="M127.088 71.6908H69.9019V1.62805H126.219V17.3866H89.0184V28.0056H123.025V43.1931H89.0184V55.343H127.075L127.088 71.6908ZM71.165 70.4211H125.819V56.6188H87.8039V41.9173H121.811V29.2692H87.8039V16.123H124.987V2.89166H71.2013L71.165 70.4211Z" fill="white"/>
<path opacity="0.9" d="M168.959 73.3371C148.014 73.3371 133.944 58.5203 133.95 36.4681C133.95 14.993 148.47 0.0181885 169.25 0.0181885C177.145 0.0181885 184.663 2.4907 190.383 6.98011C193.405 9.30571 195.897 12.2499 197.691 15.616C199.485 18.982 200.54 22.6924 200.785 26.499L200.834 27.1794H181.972L181.863 26.6813C180.381 19.8287 176.009 16.3538 168.862 16.3538C159.449 16.3538 153.364 24.4092 153.364 36.8812C153.364 49.0008 159.437 56.8314 168.856 56.8314C176.507 56.8314 180.819 52.6822 182.039 44.1408L182.118 43.594H201.186V44.244C200.992 49.5597 200.439 51.6495 197.931 56.6795C192.405 67.8818 182.932 73.3371 168.959 73.3371ZM169.244 1.25749C149.205 1.25749 135.207 15.7342 135.207 36.4924C135.207 57.7852 148.767 72.0978 168.953 72.0978C182.397 72.0978 191.5 66.8734 196.777 56.1267C199.109 51.455 199.668 49.5232 199.875 44.8637H183.211C181.79 53.6481 176.963 58.1011 168.856 58.1011C158.678 58.1011 152.095 49.7723 152.101 36.8873C152.101 23.6499 158.678 15.0963 168.862 15.0963C176.404 15.0963 181.274 18.8385 182.987 25.9219H199.468C199.151 22.411 198.111 19.0038 196.413 15.9151C194.714 12.8265 192.394 10.1234 189.6 7.97642C184.104 3.66318 176.847 1.29394 169.25 1.29394L169.244 1.25749Z" fill="white"/>
<path opacity="0.9" d="M241.873 73.3432C231.403 73.3432 222.525 69.759 216.198 62.9854C210.022 56.3637 206.761 47.2694 206.761 36.6686C206.761 26.493 210.161 17.2286 216.325 10.5765C222.738 3.65714 231.507 0 241.678 0C262.538 0 276.019 14.4402 276.013 36.7719C276.013 46.9535 272.782 56.1693 266.904 62.7363C260.722 69.68 252.063 73.3432 241.873 73.3432ZM241.678 1.26359C231.865 1.26359 223.418 4.78101 217.254 11.4331C211.303 17.8544 208.024 26.815 208.024 36.6686C208.024 46.9414 211.17 55.744 217.133 62.1227C223.205 68.6351 231.768 72.0796 241.879 72.0796C251.698 72.0796 260.036 68.5561 265.987 61.898C271.647 55.5618 274.762 46.6376 274.762 36.7719C274.762 26.0981 271.653 17.1314 265.762 10.8378C259.872 4.54408 251.577 1.26359 241.69 1.26359H241.678ZM241.581 58.5628C231.258 58.5628 225.112 50.3069 225.112 36.4802C225.112 29.9436 226.624 24.4457 229.491 20.582C230.855 18.6846 232.66 17.1478 234.751 16.1042C236.841 15.0606 239.154 14.5416 241.49 14.5921C251.474 14.5921 257.674 22.8662 257.668 36.1887C257.668 50.1976 251.656 58.5628 241.581 58.5628ZM241.49 15.8557C239.353 15.8074 237.236 16.2798 235.323 17.2323C233.409 18.1849 231.755 19.5888 230.505 21.3232C227.802 24.9682 226.375 30.2048 226.375 36.4681C226.375 49.4989 232.059 57.287 241.557 57.287C250.976 57.287 256.38 49.5961 256.38 36.1765C256.38 23.419 250.806 15.8435 241.466 15.8435L241.49 15.8557Z" fill="white"/>
<path opacity="0.9" d="M320.75 71.7091H299.162L276.942 1.64636H297.127L310.062 50.9327L323.294 1.65244H343.577L320.75 71.7091ZM300.103 70.4455H319.851L341.858 2.91603H324.278L310.062 55.8595L296.162 2.91603H278.667L300.103 70.4455Z" fill="white"/>
<path opacity="0.9" d="M404.273 71.7212H347.105V1.65845H403.416V17.4169H366.234V28.036H400.24V43.2234H366.234V55.3734H404.291L404.273 71.7212ZM348.35 70.4515H403.003V56.6492H364.958V41.9477H398.965V29.3057H364.958V16.1473H402.141V2.92812H348.356L348.35 70.4515Z" fill="white"/>
<path opacity="0.9" d="M476.452 71.7273H456.534L456.37 71.3385C455.064 68.2038 454.821 64.3401 454.59 60.6101C454.505 59.2554 454.426 57.9735 454.299 56.7646C453.449 48.8064 450.51 46.1212 442.664 46.1212H432.286V71.7212H413.054V1.66455H449.489C456.339 1.66455 462.175 3.402 466.371 6.68249C470.968 10.2789 473.397 15.6431 473.397 22.2041C473.397 29.9314 470.142 35.569 463.718 38.9467C465.593 39.7191 467.266 40.9142 468.604 42.4389C469.943 43.9636 470.912 45.7767 471.436 47.7372C472.517 51.4612 472.717 52.3663 473.579 62.4447C473.616 62.8153 473.646 63.1859 473.677 63.5504C473.895 66.2416 474.083 68.5622 475.681 70.7188L476.452 71.7273ZM457.372 70.4637H474.023C472.808 68.3131 472.62 66.0411 472.426 63.6536C472.426 63.2891 472.371 62.9246 472.335 62.5541C471.46 52.3117 471.272 51.6677 470.233 48.0835C469.074 43.9646 466.207 41.0365 461.95 39.6149L460.42 39.1047L461.89 38.4425C468.691 35.3625 472.14 29.9011 472.146 22.2041C472.146 15.959 469.942 11.0747 465.6 7.67878C461.635 4.57446 456.066 2.92816 449.502 2.92816H414.28V70.4576H430.98V44.8516H442.621C451.123 44.8516 454.596 48.0409 455.513 56.6249C455.647 57.8399 455.726 59.1582 455.811 60.525C456.066 63.9938 456.291 67.5842 457.384 70.4637H457.372ZM444.297 33.3638H431.01V15.5763H444.103C447.995 15.5763 450.825 16.2627 452.769 17.6782C454.712 19.0937 455.744 21.3232 455.744 24.227C455.756 32.2825 449.969 33.3638 444.309 33.3638H444.297ZM444.297 32.1002C450.412 32.1002 454.481 30.7637 454.481 24.2331C454.481 21.7181 453.68 19.9077 452.052 18.7049C450.425 17.502 447.692 16.8459 444.127 16.8459H432.298V32.1002H444.297Z" fill="white"/>
<path opacity="0.9" d="M540.403 73.2824C530.875 73.2824 522.986 70.9861 517.588 66.6546C512.189 62.3231 509.207 55.8472 509.086 48.0166V47.3726H528.421V47.9801C528.421 54.9967 532.605 58.2651 541.599 58.2651C544.769 58.2651 547.21 57.694 548.886 56.5641C549.641 56.0602 550.254 55.37 550.664 54.5602C551.075 53.7503 551.27 52.8482 551.23 51.941C551.23 49.0068 549.9 47.16 542.619 45.2099C537.913 43.8916 530.061 41.4434 525.567 39.7789C516.13 36.4012 511.728 30.7758 511.734 22.0825C511.734 15.479 514.406 9.93253 519.464 6.06277C524.523 2.19301 531.609 0.194336 540.111 0.194336C557.661 0.194336 567.486 8.27405 567.784 22.9451V23.5891H549.457L549.414 22.9816C549.05 17.7935 545.491 15.1631 538.842 15.1631C536.212 15.1631 534.032 15.6673 532.551 16.6332C531.888 17.0167 531.339 17.5702 530.961 18.2365C530.583 18.9029 530.39 19.658 530.401 20.424C530.401 22.7264 531.081 23.9414 535.144 25.0288L537.336 25.5999C545.042 27.6107 553.015 29.6883 559.489 32.7015C566.776 36.1339 570.577 42.1117 570.577 49.997C570.577 56.9772 567.723 62.8517 562.331 67.0069C556.938 71.1622 549.36 73.2824 540.403 73.2824ZM510.337 48.6362C510.914 63.5078 521.832 72.0127 540.396 72.0188C549.074 72.0188 556.361 69.9472 561.475 66.0289C566.588 62.1105 569.217 56.6127 569.217 50.0456C569.217 42.6827 565.64 37.0998 558.863 33.8983C552.499 30.9276 544.581 28.8682 536.923 26.8756L534.749 26.3289C530.498 25.1929 529.059 23.7167 529.065 20.503C529.054 19.525 529.3 18.5612 529.779 17.7083C530.257 16.8554 530.951 16.1432 531.791 15.643C533.48 14.5495 535.897 13.9724 538.769 13.9724C547.586 13.9724 550.082 18.4132 550.544 22.3802H566.412C566.144 15.7645 563.819 10.619 559.483 7.07728C554.977 3.38369 548.431 1.51867 540.05 1.5126C523.344 1.5126 512.966 9.41008 512.966 22.1372C512.966 30.223 517.096 35.4657 525.968 38.6429C530.437 40.3013 538.247 42.7374 542.923 44.0435C549.111 45.702 552.463 47.4577 552.463 51.9957C552.499 53.1079 552.253 54.2112 551.748 55.2025C551.242 56.1937 550.494 57.0405 549.572 57.6636C547.708 58.9394 545.03 59.5833 541.599 59.5833C532.15 59.5833 527.419 56.0112 527.17 48.6484L510.337 48.6362Z" fill="white"/>
<path opacity="0.9" d="M656.055 71.7455H637.783L638.591 23.3218L624.411 71.7455H609.655L595.554 23.34L596.088 71.7394H577.913V1.68274H605.112L617.191 47.5914L629.549 1.68882H656.068L656.055 71.7455ZM639.052 70.4819H654.774V2.95241H630.484L617.124 52.506L604.092 2.94635H579.134V70.4758H594.765L594.157 14.1364L610.553 70.4819H623.415L639.963 13.9846L639.052 70.4819Z" fill="white"/>
<path opacity="0.9" d="M731.38 71.7577H711.462L707.017 59.2007H684.147L679.605 71.7637H659.899L686.17 1.60986H705.207L731.38 71.7577ZM712.373 70.488H729.558L704.345 2.85523H687.062L661.739 70.4819H678.743L683.285 57.9188H707.934L712.373 70.488ZM704.296 46.2427H686.904L695.71 19.5128L704.296 46.2427ZM688.653 44.9791H702.56L695.673 23.5952L688.653 44.9791Z" fill="white"/>
<path opacity="0.9" d="M798.459 71.7638H778.528L778.37 71.375C777.059 68.2403 776.816 64.3766 776.585 60.6465C776.506 59.2918 776.427 58.01 776.294 56.8011C775.443 48.8429 772.51 46.1577 764.658 46.1577H754.28V71.7638H735.054V1.69495H771.52C778.37 1.69495 784.206 3.43238 788.402 6.71287C792.999 10.3032 795.428 15.6735 795.428 22.2345C795.428 29.9618 792.174 35.5994 785.755 38.9771C787.628 39.7505 789.299 40.9452 790.636 42.4686C791.974 43.992 792.942 45.8031 793.467 47.7615C794.548 51.4915 794.754 52.3967 795.617 62.469C795.649 62.8457 795.679 63.2163 795.708 63.5808C795.926 66.272 796.115 68.5926 797.712 70.7492L798.459 71.7638ZM779.379 70.5002H796.042C794.827 68.3496 794.645 66.0715 794.451 63.6901C794.451 63.3256 794.39 62.9611 794.354 62.5905C793.479 52.3481 793.291 51.7042 792.253 48.1199C791.093 43.995 788.226 41.073 783.969 39.6514L782.439 39.1411L783.909 38.4729C790.716 35.3989 794.165 29.9375 794.165 22.2405C794.165 15.9954 791.967 11.1051 787.625 7.71524C783.654 4.60485 778.085 2.96461 771.52 2.96461H736.299V70.4941H752.999V44.888H764.64C773.142 44.888 776.615 48.0774 777.532 56.6614C777.666 57.8764 777.745 59.1886 777.83 60.5615C778.061 64.0364 778.261 67.6388 779.379 70.5002ZM766.304 33.4003H753.017V15.6127H766.116C773.949 15.6127 777.757 18.4436 777.757 24.2696C777.751 32.3128 771.964 33.4003 766.304 33.4003ZM766.304 32.1367C772.419 32.1367 776.488 30.8002 776.488 24.2696C776.488 19.2273 773.19 16.8824 766.11 16.8763H754.28V32.1367H766.304Z" fill="white"/>
<path opacity="0.9" d="M838.689 71.7698H819.257V18.237H798.908V1.70703H859.087V18.237H838.708L838.689 71.7698ZM820.532 70.5001H837.426V16.9735H857.812V2.9767H800.159V16.9735H820.538L820.532 70.5001Z" fill="white"/>
</g>
</svg>
