<svg width="860" height="75" viewBox="0 0 860 75" fill="none" xmlns="http://www.w3.org/2000/svg">
<path d="M64.1315 72.5737H44.2073L44.0433 72.1849C42.7316 69.0502 42.4948 65.1926 42.264 61.4565C42.179 60.1018 42.1 58.82 41.9725 57.6111C41.1163 49.6528 38.1832 46.9677 30.3313 46.9677H19.9532V72.5676H0.733398V2.51099H37.1691C44.0129 2.51099 49.8548 4.24844 54.0449 7.52892C58.6419 11.1253 61.0709 16.4895 61.0709 23.0505C61.0709 30.7779 57.816 36.4154 51.3972 39.7931C53.2718 40.5676 54.943 41.7633 56.2815 43.2876C57.6199 44.812 58.5896 46.6241 59.1155 48.5836C60.1904 52.3076 60.3968 53.2128 61.2592 63.2911C61.2956 63.6617 61.3199 64.0323 61.3503 64.3968C61.5689 67.088 61.7571 69.4086 63.3603 71.5653L64.1315 72.5737ZM45.0635 71.3101H61.7268C60.5122 69.1596 60.3301 66.8875 60.1357 64.5001L60.0446 63.4005C59.1641 53.1642 58.9819 52.5141 57.9435 48.9299C56.7776 44.8111 53.9113 41.8829 49.6544 40.4614L48.1241 39.9511L49.5997 39.2889C56.4011 36.2089 59.8503 30.7475 59.8503 23.0505C59.8503 16.8054 57.652 11.9211 53.3101 8.52519C49.3386 5.42088 43.77 3.78067 37.2055 3.77459H1.98436V71.304H18.6841V45.698H30.3252C38.8269 45.698 42.3004 48.8874 43.2235 57.4713C43.351 58.6863 43.43 60.0046 43.515 61.3715C43.7397 64.8464 43.9583 68.4184 45.0635 71.3101ZM31.9952 34.2102H18.6901V16.4227H31.7766C35.6692 16.4227 38.5051 17.1092 40.4483 18.5246C42.3916 19.9401 43.4239 22.1696 43.4239 25.0735C43.4239 28.6638 42.2762 31.1484 39.92 32.5821C38.1104 33.7121 35.6631 34.2102 31.9831 34.2102H31.9952ZM19.9714 32.9466H31.9952C35.4262 32.9466 37.667 32.5032 39.2824 31.5129C41.2317 30.2979 42.1851 28.196 42.1851 25.0795C42.1851 22.5645 41.3774 20.7541 39.7257 19.5513C38.0739 18.3484 35.3655 17.6924 31.8313 17.6924H19.9593L19.9714 32.9466Z" fill="white"/>
<path d="M127.833 72.5798H70.6475V2.51709H126.965V18.2756H89.7823V28.8946H123.789V44.0821H89.7823V56.232H127.833V72.5798ZM71.9106 71.3101H126.564V57.4835H88.5192V42.8124H122.526V30.1461H88.5192V17.012H125.708V3.78674H71.9166L71.9106 71.3101Z" fill="white"/>
<path d="M169.704 74.2262C159.235 74.2262 150.363 70.5812 144.041 63.6982C138.011 57.119 134.689 47.7696 134.689 37.3632C134.689 15.8821 149.209 0.91333 169.996 0.91333C177.89 0.91333 185.402 3.38586 191.122 7.87527C194.146 10.201 196.638 13.146 198.432 16.5133C200.226 19.8806 201.281 23.5924 201.525 27.4002L201.579 28.0806H182.712L182.602 27.5825C181.127 20.736 176.754 17.255 169.607 17.255C160.194 17.255 154.11 25.3104 154.11 37.7824C154.11 49.8959 160.182 57.7265 169.607 57.7326C177.259 57.7326 181.576 53.5773 182.797 45.0359L182.87 44.4952H201.944V45.1513C201.749 50.4669 201.203 52.5567 198.689 57.5868C193.151 68.7708 183.677 74.2262 169.704 74.2262ZM169.99 2.14653C149.95 2.14653 135.953 16.6293 135.946 37.3814C135.946 47.4659 139.147 56.5176 144.964 62.8599C151.037 69.4816 159.593 72.9808 169.698 72.9808C183.143 72.9808 192.24 67.7624 197.523 57.0097C199.855 52.3441 200.407 50.4062 200.62 45.7467H183.951C182.53 54.5311 177.702 58.984 169.595 58.984C159.411 58.984 152.834 50.6552 152.834 37.7702C152.834 24.5328 159.417 15.9793 169.595 15.9793C177.131 15.9793 182.001 19.7154 183.714 26.7988H200.195C199.878 23.2894 198.839 19.8837 197.141 16.7962C195.444 13.7087 193.126 11.0063 190.333 8.85941C184.831 4.54618 177.58 2.17694 169.984 2.17694L169.99 2.14653Z" fill="white"/>
<path d="M242.618 74.2382C232.149 74.2382 223.277 70.654 216.949 63.8743C210.773 57.2587 207.506 48.1584 207.512 37.5636C207.512 27.388 210.907 18.1237 217.077 11.4412C223.489 4.52788 232.258 0.870728 242.43 0.870728C263.289 0.870728 276.764 15.3049 276.764 37.6426C276.764 47.8182 273.534 57.04 267.655 63.607C261.467 70.5689 252.802 74.2382 242.618 74.2382ZM242.618 72.9746C252.437 72.9746 260.769 69.4511 266.726 62.7869C272.38 56.4567 275.501 47.5326 275.501 37.6669C275.501 26.9931 272.386 18.0265 266.496 11.7328C260.605 5.43911 252.316 2.15862 242.43 2.15862C232.616 2.15862 224.169 5.67602 218 12.3281C212.048 18.7433 208.775 27.71 208.775 37.5636C208.775 47.8364 211.921 56.6329 217.884 63.0116C223.957 69.5301 232.519 72.9746 242.63 72.9746H242.618ZM242.333 59.4517C237.244 59.4517 233.041 57.3984 230.187 53.5104C227.333 49.6224 225.876 44.1003 225.882 37.3692C225.882 30.8325 227.394 25.3346 230.254 21.477C231.617 19.5781 233.422 18.0398 235.513 16.9951C237.604 15.9504 239.917 15.4308 242.254 15.481C244.563 15.4187 246.853 15.9186 248.926 16.9376C250.999 17.9567 252.794 19.4645 254.156 21.3312C256.949 25.1038 258.407 30.547 258.407 37.0836C258.407 43.9484 256.955 49.6102 254.217 53.4861C251.478 57.3619 247.324 59.4517 242.326 59.4517H242.333ZM242.235 16.7446C240.099 16.6973 237.982 17.1703 236.069 18.1227C234.155 19.0751 232.501 20.4785 231.25 22.2121C228.554 25.8571 227.127 31.0937 227.127 37.357C227.127 43.8147 228.53 49.1364 231.189 52.745C233.849 56.3535 237.663 58.176 242.333 58.176C246.972 58.176 250.628 56.3535 253.203 52.7085C255.777 49.0635 257.156 43.6568 257.156 37.0594C257.156 30.7961 255.765 25.6141 253.13 22.0602C251.883 20.3544 250.241 18.9771 248.344 18.0469C246.447 17.1167 244.353 16.6615 242.241 16.7204L242.235 16.7446Z" fill="white"/>
<path d="M321.495 72.6042H299.907L277.682 2.54138H297.867L310.808 51.8277L324.034 2.54746H344.323L321.495 72.6042ZM300.849 71.3406H320.597L342.598 3.81107H325.012L310.802 56.7545L296.901 3.80499H279.418L300.849 71.3406Z" fill="white"/>
<path d="M405.018 72.6101H347.832V2.54736H404.15V18.3059H366.961V28.931H400.968V44.1184H366.961V56.2684H405.012L405.018 72.6101ZM349.095 71.3404H403.749V57.5381H365.698V42.8427H399.704V30.1946H365.698V17.0423H402.887V3.81701H349.095V71.3404Z" fill="white"/>
<path d="M477.203 72.6223H457.279L457.115 72.2396C455.803 69.1049 455.567 65.2412 455.336 61.5051C455.251 60.1504 455.172 58.8746 455.044 57.6596C454.194 49.7075 451.255 47.0163 443.403 47.0163H433.025V72.6223H413.793V2.55957H450.229C457.079 2.55957 462.914 4.29094 467.111 7.57143C471.708 11.1678 474.137 16.5381 474.137 23.0991C474.137 30.8204 470.882 36.464 464.463 39.8357C466.337 40.6109 468.008 41.8068 469.346 43.3311C470.684 44.8553 471.654 46.667 472.181 48.6261C473.256 52.3562 473.463 53.2614 474.325 63.3337C474.361 63.7043 474.386 64.0748 474.416 64.4393C474.635 67.1305 474.823 69.4512 476.426 71.6139L477.203 72.6223ZM458.123 71.3527H474.786C473.572 69.196 473.39 66.924 473.195 64.5365C473.195 64.1781 473.135 63.8136 473.104 63.4369C472.224 53.2006 472.042 52.5566 471.003 48.9663C469.837 44.8475 466.971 41.9254 462.714 40.5039L461.184 39.9936L462.659 39.3253C469.461 36.2514 472.91 30.8204 472.91 23.093C472.91 16.8479 470.712 11.9575 466.37 8.56162C462.398 5.4573 456.83 3.81706 450.265 3.81706H415.044V71.3527H431.744V45.7466H443.427C451.929 45.7466 455.403 48.942 456.326 57.5199C456.453 58.7349 456.532 60.0532 456.617 61.42C456.787 64.8949 457.03 68.4792 458.123 71.3527ZM445.055 34.2588H431.762V16.4713H444.848C448.741 16.4713 451.577 17.1577 453.52 18.5732C455.463 19.9887 456.496 22.2182 456.496 25.1281C456.496 33.1835 450.715 34.2588 445.055 34.2588ZM445.055 32.9952C451.164 32.9952 455.232 31.6587 455.239 25.0977C455.239 22.5766 454.431 20.7724 452.81 19.5634C451.188 18.3545 448.449 17.7045 444.885 17.7045H433.061V32.9648L445.055 32.9952Z" fill="white"/>
<path d="M541.148 74.1715C531.62 74.1715 523.732 71.8813 518.333 67.5437C512.935 63.2062 509.947 56.7424 509.832 48.9118V48.2678H529.167V48.8753C529.167 52.575 530.308 55.1872 532.658 56.8639C534.826 58.413 537.996 59.1663 542.375 59.1663C545.538 59.1663 547.98 58.5953 549.625 57.4653C550.381 56.9618 550.995 56.2718 551.406 55.462C551.818 54.6522 552.014 53.7499 551.975 52.8423C551.975 49.902 550.646 48.0552 543.364 46.1112C538.549 44.7626 530.861 42.3629 526.313 40.6437C516.87 37.266 512.473 31.6406 512.473 22.9533C512.473 16.3498 515.151 10.8034 520.21 6.92756C525.268 3.05172 532.355 1.06519 540.82 1.06519C558.37 1.06519 568.201 9.14492 568.493 23.816V24.46H550.166L550.123 23.8525C549.759 18.6644 546.206 16.0339 539.551 16.0279C536.915 16.0279 534.741 16.5382 533.254 17.498C532.591 17.8835 532.043 18.4382 531.665 19.1054C531.287 19.7725 531.094 20.5282 531.104 21.2949C531.104 23.5973 531.79 24.8062 535.853 25.8997L538.039 26.4708C545.751 28.4816 553.724 30.5532 560.198 33.5724C567.448 36.9987 571.28 42.9765 571.28 50.8618C571.28 57.842 568.432 63.7165 563.04 67.8718C557.647 72.027 550.105 74.1715 541.148 74.1715ZM511.076 49.5314C511.653 64.3969 522.572 72.9079 541.142 72.9079C549.82 72.9079 557.101 70.8364 562.214 66.918C567.327 62.9997 569.962 57.5078 569.962 50.9347C569.962 43.5718 566.38 37.9889 559.603 34.7874C553.239 31.8228 545.32 29.7634 537.668 27.7647L535.476 27.1937C531.225 26.0516 529.786 24.5814 529.786 21.3678C529.776 20.39 530.023 19.4267 530.502 18.574C530.98 17.7213 531.673 17.0089 532.513 16.5078C534.207 15.4143 536.618 14.8372 539.496 14.8372C548.32 14.8372 550.809 19.278 551.277 23.245H567.145C566.878 16.6293 564.546 11.4838 560.216 7.93599C555.71 4.24848 549.158 2.37737 540.784 2.37737C524.078 2.37737 513.7 10.2748 513.7 23.0323C513.7 31.112 517.835 36.3608 526.707 39.5381C531.171 41.1905 538.986 43.6265 543.662 44.9387C549.844 46.5911 553.202 48.3529 553.202 52.8909C553.239 54.0037 552.992 55.1076 552.485 56.099C551.979 57.0904 551.229 57.9368 550.305 58.5588C548.447 59.8285 545.763 60.4785 542.338 60.4785C537.711 60.4785 534.298 59.6462 531.912 57.9453C529.385 56.1228 528.037 53.3222 527.904 49.5557L511.076 49.5314Z" fill="white"/>
<path d="M656.801 72.6711H638.529L639.336 24.2413L625.157 72.665H610.425L596.33 24.2656L596.858 72.665H578.689V2.57178H605.882L617.955 48.4804L630.312 2.57178H656.832L656.801 72.6711ZM639.798 71.4074H655.526V3.84755H631.235L617.876 53.4012L604.844 3.84755H579.885V71.371H595.516L594.909 15.0316L611.305 71.371H624.167L640.715 14.8736L639.798 71.4074Z" fill="white"/>
<path d="M732.12 72.671H712.22L707.781 60.1079H684.911L680.369 72.671H660.663L686.939 2.48669H705.971L732.12 72.671ZM713.112 71.4074H730.304L705.09 3.78067H687.808L662.485 71.4074H679.488L684.031 58.8504H708.679L713.112 71.4074ZM705.036 47.1561H687.65L696.455 20.4261L705.036 47.1561ZM689.399 45.8925H703.335L696.467 24.5085L689.399 45.8925Z" fill="white"/>
<path d="M799.204 72.671H779.273L779.11 72.2822C777.798 69.1536 777.561 65.2899 777.33 61.5538C777.245 60.1991 777.166 58.9173 777.039 57.7083C776.189 49.7501 773.249 47.065 765.404 47.065H755.019V72.671H735.793V2.59009H772.229C779.073 2.59009 784.915 4.32146 789.105 7.60194C793.702 11.1983 796.137 16.5686 796.131 23.1296C796.131 30.8509 792.882 36.4945 786.457 39.8661C788.332 40.6406 790.003 41.8363 791.342 43.3606C792.68 44.885 793.65 46.6971 794.176 48.6566C795.257 52.3867 795.457 53.2918 796.319 63.3642C796.356 63.7347 796.386 64.1053 796.416 64.4698C796.635 67.161 796.823 69.4817 798.42 71.6443L799.204 72.671ZM780.124 71.4013H796.787C795.572 69.2508 795.384 66.9788 795.19 64.5913C795.159 64.2329 795.129 63.8623 795.099 63.4917C794.224 53.2554 794.036 52.6114 792.998 49.0211C791.832 44.9023 788.971 41.9742 784.715 40.5587L783.184 40.0423L784.654 39.3801C791.455 36.3062 794.904 30.8752 794.904 23.1478C794.904 16.9027 792.706 12.0124 788.364 8.61646C784.393 5.51214 778.83 3.8719 772.266 3.8719H737.044V71.3831H753.738V45.7832H765.385C773.887 45.7832 777.361 48.9725 778.278 57.5565C778.405 58.7715 778.49 60.0897 778.575 61.4566C778.806 64.9315 779.024 68.5157 780.124 71.3892V71.4013ZM767.049 34.3075H753.738V16.5078H766.831C770.717 16.5078 773.553 17.1943 775.496 18.6098C777.439 20.0253 778.472 22.2548 778.472 25.1586C778.496 33.1837 772.709 34.2954 767.049 34.2954V34.3075ZM767.049 33.044C773.158 33.044 777.233 31.7014 777.233 25.1465C777.233 22.6314 776.425 20.8272 774.804 19.6182C773.183 18.4093 770.45 17.7593 766.91 17.7593H755.08V33.0135L767.049 33.044Z" fill="white"/>
<path d="M839.429 72.671H819.997V19.1322H799.617V2.59607H859.803V19.1261H839.423L839.429 72.671ZM821.272 71.4074H838.148V17.8685H858.528V3.89609H800.874V17.8685H821.254L821.272 71.4074Z" fill="white"/>
</svg>
