<svg width="605" height="74" viewBox="0 0 605 74" fill="none" xmlns="http://www.w3.org/2000/svg">
<g opacity="0.9">
<path opacity="0.9" d="M-12.8219 73.3493C-23.2911 73.3493 -32.1693 69.7711 -38.497 63.0218C-44.6729 56.4062 -47.9338 47.3059 -47.9338 36.705C-47.9338 26.5355 -44.5332 17.2651 -38.3695 10.613C-31.9568 3.64499 -23.1879 0 -13.0163 0C7.84317 0 21.3244 14.4402 21.3183 36.7779C21.3183 46.9535 18.0877 56.1753 12.2094 62.7363C6.02744 69.6861 -2.6321 73.3493 -12.8219 73.3493ZM-13.0163 1.26967C-22.8296 1.26967 -31.2767 4.78708 -37.4404 11.4392C-43.3915 17.8604 -46.6707 26.821 -46.6707 36.6747C-46.6707 46.9474 -43.5251 55.7501 -37.5618 62.1288C-31.4892 68.6412 -22.9268 72.0857 -12.8159 72.0857C-2.99645 72.0857 5.34123 68.5683 11.2924 61.9041C16.946 55.5678 20.037 46.6498 20.037 36.784C20.037 26.1103 16.9278 17.1375 11.0374 10.8438C5.14692 4.55016 -3.12398 1.27575 -13.0102 1.26967H-13.0163ZM-13.1135 58.5689C-23.4369 58.5689 -29.5824 50.313 -29.5824 36.4863C-29.5824 29.9497 -28.0703 24.4518 -25.204 20.5881C-23.8418 18.6873 -22.0374 17.1469 -19.9467 16.1001C-17.856 15.0533 -15.542 14.5316 -13.2045 14.58C-3.22114 14.58 2.97901 22.8602 2.97294 36.1826C2.97294 50.2036 -3.03899 58.5689 -13.1135 58.5689ZM-13.2045 15.8618C-15.3416 15.8134 -17.4583 16.2859 -19.3721 17.2384C-21.286 18.1909 -22.9394 19.5949 -24.1899 21.3293C-26.8922 24.9742 -28.3193 30.2109 -28.3193 36.4742C-28.3193 49.5111 -22.6353 57.2931 -13.1377 57.2931C-3.7191 57.2931 1.68555 49.6022 1.68555 36.1887C1.68555 23.4312 -3.88916 15.8496 -13.2288 15.8496L-13.2045 15.8618Z" fill="white"/>
<path opacity="0.9" d="M66.0552 71.7212H44.467L22.2473 1.65234H42.4327L55.3674 50.9326L68.6178 1.65842H88.9004L66.0552 71.7212ZM45.4083 70.4515H65.1564L87.1454 2.92809H69.5348L55.3552 55.8898L41.455 2.92201H23.9719L45.4083 70.4515Z" fill="white"/>
<path opacity="0.9" d="M149.578 71.7273H92.3921V1.67065H148.716V17.4292H111.533V28.0421H145.54V43.2296H111.533V55.3796H149.59L149.578 71.7273ZM93.6552 70.4698H148.309V56.6553H110.264V41.9538H144.27V29.3118H110.264V16.1595H147.446V2.93425H93.6673L93.6552 70.4698Z" fill="white"/>
<path opacity="0.9" d="M221.769 71.7395H201.839L201.675 71.3507C200.369 68.216 200.127 64.3584 199.896 60.6223C199.811 59.2675 199.732 57.9857 199.604 56.7768C198.754 48.8186 195.815 46.1334 187.969 46.1334H177.591V71.7395H158.359V1.67065H194.825C201.675 1.67065 207.511 3.40202 211.707 6.68251C216.304 10.2789 218.733 15.6492 218.733 22.2041C218.733 29.9315 215.478 35.569 209.053 38.9467C210.933 39.7175 212.61 40.9125 213.952 42.4384C215.294 43.9643 216.265 45.7798 216.79 47.7433C217.871 51.4733 218.071 52.3785 218.933 62.4508C218.97 62.8214 219 63.192 219.031 63.5565C219.249 66.2477 219.437 68.5683 221.035 70.725L221.769 71.7395ZM202.689 70.4698H219.352C218.138 68.3193 217.95 66.0472 217.755 63.6598C217.755 63.3013 217.701 62.9308 217.664 62.5602C216.79 52.3238 216.602 51.6738 215.575 48.0896C214.415 43.9707 211.549 41.0426 207.292 39.6211L205.762 39.1108L207.232 38.4486C214.033 35.3686 217.482 29.9072 217.488 22.2102C217.488 15.9651 215.284 11.0808 210.942 7.68488C206.976 4.58057 201.408 2.94033 194.843 2.94033H159.622V70.4698H176.322V44.8638H187.963C196.465 44.8638 199.938 48.0531 200.855 56.6371C200.989 57.8521 201.068 59.1703 201.153 60.5372C201.371 64.0121 201.608 67.5963 202.689 70.4698ZM189.615 33.376H176.328V15.5884H189.421C193.313 15.5884 196.143 16.2749 198.086 17.6904C200.029 19.1058 201.062 21.3354 201.062 24.2392C201.062 32.2886 195.275 33.376 189.615 33.376ZM189.615 32.1124C195.73 32.1124 199.799 30.7698 199.799 24.2149C199.799 21.6999 198.997 19.8895 197.37 18.6867C195.742 17.4838 193.009 16.8277 189.445 16.8277H177.591V32.1063L189.615 32.1124Z" fill="white"/>
<path opacity="0.9" d="M285.708 73.2886C276.18 73.2886 268.292 70.9983 262.893 66.6608C257.494 62.3232 254.513 55.8534 254.391 48.0288V47.3849H273.727V47.9924C273.727 51.692 274.868 54.3043 277.218 55.981C279.38 57.5301 282.55 58.2773 286.935 58.2773C290.104 58.2773 292.546 57.7063 294.191 56.5824C294.946 56.0767 295.558 55.3853 295.969 54.5746C296.379 53.7639 296.574 52.8612 296.535 51.9533C296.535 49.019 295.205 47.1722 287.924 45.2222C283.224 43.9039 275.366 41.4557 270.872 39.7911C261.436 36.4135 257.033 30.788 257.039 22.0947C257.039 15.4912 259.711 9.94476 264.769 6.075C269.828 2.20524 276.915 0.212646 285.386 0.212646C302.936 0.212646 312.761 8.29237 313.059 22.9574V23.6013H294.732L294.689 22.9938C294.325 17.8058 290.766 15.1753 284.117 15.1753C281.487 15.1753 279.307 15.6856 277.826 16.6455C277.164 17.0299 276.616 17.5836 276.238 18.2497C275.86 18.9159 275.666 19.6705 275.676 20.4363C275.676 22.7447 276.356 23.9537 280.419 25.0472L282.611 25.6182C290.317 27.623 298.29 29.7006 304.764 32.7199C312.051 36.1462 315.852 42.1239 315.852 50.0093C315.852 56.9894 312.998 62.8639 307.606 67.0192C302.213 71.1745 294.665 73.2886 285.708 73.2886ZM255.654 48.6485C256.231 63.5139 267.15 72.025 285.714 72.025C294.392 72.025 301.679 69.9534 306.792 66.035C311.905 62.1167 314.559 56.6249 314.559 50.0518C314.559 42.6889 310.982 37.106 304.235 33.9045C297.871 30.9399 289.953 28.8744 282.295 26.8818L280.103 26.3108C275.852 25.1687 274.413 23.6985 274.419 20.4788C274.408 19.5008 274.654 18.537 275.133 17.6841C275.611 16.8312 276.305 16.119 277.145 15.6188C278.834 14.5253 281.251 13.9482 284.123 13.9482C292.94 13.9482 295.436 18.389 295.898 22.3559H311.765C311.498 15.7464 309.172 10.5948 304.837 7.05307C300.331 3.36556 293.784 1.49447 285.404 1.49447C268.698 1.49447 258.32 9.39194 258.32 22.113C258.32 30.1987 262.45 35.4779 271.322 38.6247C275.797 40.2771 283.607 42.7132 288.277 44.0193C294.465 45.6778 297.817 47.4395 297.817 51.9715C297.855 53.0839 297.609 54.1876 297.103 55.1791C296.598 56.1705 295.849 57.0171 294.926 57.6394C293.062 58.9152 290.378 59.5652 286.953 59.5652C282.325 59.5652 278.919 58.7329 276.532 57.0259C274 55.2034 272.658 52.4028 272.524 48.6424L255.654 48.6485Z" fill="white"/>
<path opacity="0.9" d="M401.361 71.7577H383.088L383.896 23.334L369.716 71.7577H354.96L340.859 23.3522L341.394 71.7577H323.218V1.68884H350.418L362.49 47.5975L374.848 1.69492H401.397L401.361 71.7577ZM384.394 70.4698H400.116V2.93421H375.825L362.466 52.4878L349.446 2.95244H324.487V70.4698H340.118L339.511 14.1304L355.907 70.4698H368.769L385.317 13.9725L384.394 70.4698Z" fill="white"/>
<path opacity="0.9" d="M476.698 71.7637H456.798L452.353 59.2006H429.483L424.941 71.7576H405.223L431.493 1.60376H450.531L476.698 71.7637ZM457.69 70.5001H474.876L449.65 2.86736H432.368L407.045 70.4697H424.048L428.591 57.9067H453.239L457.69 70.5001ZM449.614 46.2549H432.222L441.027 19.525L449.614 46.2549ZM433.971 44.9852H447.877L441.015 23.6013L433.971 44.9852Z" fill="white"/>
<path opacity="0.9" d="M543.764 71.7698H523.833L523.675 71.381C522.364 68.2463 522.121 64.3826 521.89 60.6526C521.811 59.2978 521.732 58.016 521.599 56.8071C520.748 48.8489 517.815 46.1637 509.964 46.1637H499.585V71.7637H480.341V1.70703H516.777C523.627 1.70703 529.463 3.44448 533.659 6.72496C538.256 10.3214 540.685 15.6856 540.685 22.2465C540.685 29.9739 537.43 35.6115 531.011 38.9892C532.886 39.7628 534.557 40.9583 535.894 42.4829C537.232 44.0075 538.2 45.82 538.723 47.7797C539.804 51.5036 540.011 52.4088 540.873 62.4872L540.964 63.5929C541.183 66.2841 541.371 68.6047 542.968 70.7613L543.764 71.7698ZM524.671 70.5062H541.335C540.12 68.3556 539.938 66.0836 539.744 63.6961C539.744 63.3316 539.683 62.9671 539.646 62.5966C538.772 52.3541 538.584 51.7102 537.545 48.126C536.385 44.0071 533.519 41.079 529.262 39.6574L527.732 39.1471L529.202 38.485C536.009 35.4049 539.458 29.9435 539.458 22.2465C539.458 16.0015 537.26 11.1172 532.918 7.72126C528.946 4.61695 523.378 2.97063 516.813 2.97063H481.592V70.5001H498.292V44.8941H509.933C518.435 44.8941 521.908 48.0834 522.825 56.6674C522.959 57.8824 523.038 59.2006 523.123 60.5675C523.366 64.0424 523.59 67.6327 524.671 70.5062ZM511.609 33.4123H498.322V15.6187H511.415C519.249 15.6187 523.056 18.4497 523.056 24.2695C523.056 32.3249 517.269 33.4123 511.609 33.4123ZM511.609 32.1488C517.724 32.1488 521.793 30.8123 521.793 24.2817C521.793 19.2394 518.496 16.8945 511.415 16.8945H499.585V32.1427L511.609 32.1488Z" fill="white"/>
<path opacity="0.9" d="M583.995 71.7759H564.563V18.2249H544.189V1.71313H604.369V18.2249H584.001L583.995 71.7759ZM565.838 70.5123H582.732V17.0099H603.112V3.03748H545.458V17.0099H565.838V70.5123Z" fill="white"/>
</g>
</svg>
