<svg width="1008" height="74" viewBox="0 0 1008 74" fill="none" xmlns="http://www.w3.org/2000/svg">
<g opacity="0.9">
<path opacity="0.9" d="M32.9864 73.2711C13.2505 73.2711 0 58.8795 0 37.4651C0 15.1274 14.2706 0.122192 35.5004 0.122192C53.111 0.122192 64.6489 9.65384 66.4707 25.6371L66.5497 26.3418H47.9796L47.8461 25.8801C46.0971 19.708 41.8524 16.5793 35.2211 16.5793C30.5027 16.5793 19.5355 18.5719 19.5294 37.0095C19.5294 54.1349 28.5838 57.7313 36.1867 57.7313C43.6985 57.7313 47.6214 54.6938 49.5768 47.2094H37.2918V32.9757H67.4363V71.7341H54.7627L53.8094 65.0516C47.8643 71.1691 42.4475 73.2711 32.9864 73.2711ZM35.4943 1.3858C25.3895 1.3858 16.809 4.806 10.6635 11.2819C4.51805 17.7579 1.25707 26.8157 1.25707 37.4651C1.25707 47.6833 4.29329 56.3583 9.98332 62.5609C15.6734 68.7635 23.6285 72.0075 32.9803 72.0075C42.5022 72.0075 47.7489 69.7962 53.7547 63.2291L54.6595 62.245L55.8315 70.4644H66.1549V34.2393H38.5367V45.9215H51.1617L50.9795 46.6991C48.9634 55.3013 44.5304 58.9706 36.1685 58.9706C24.6305 58.9706 18.2482 51.1642 18.2482 36.9852C18.2482 23.4015 24.5879 15.2914 35.2029 15.2914C42.1985 15.2914 46.9291 18.6631 48.9088 25.0539H65.1104C63.1247 10.2188 52.109 1.36151 35.4943 1.36151V1.3858Z" fill="white"/>
<path opacity="0.9" d="M110.054 73.3796C99.5849 73.3796 90.7128 69.7954 84.3851 63.0157C78.2093 56.4001 74.9482 47.2998 74.9482 36.6989C74.9482 26.5294 78.3428 17.259 84.5126 10.5765C90.9253 3.65712 99.6941 0 109.866 0C130.725 0 144.2 14.4402 144.2 36.7718C144.2 46.9535 140.97 56.1753 135.091 62.7423C128.903 69.7104 120.244 73.3796 110.054 73.3796ZM109.86 1.29394C100.046 1.29394 91.5993 4.81138 85.4296 11.4635C79.4845 17.8847 76.2053 26.8453 76.2053 36.6989C76.2053 46.9717 79.3509 55.7744 85.3142 62.1531C91.3868 68.6655 99.9553 72.11 110.06 72.116C119.88 72.116 128.211 68.5925 134.168 61.9283C139.822 55.5921 142.943 46.674 142.943 36.8022C142.943 26.1345 139.828 17.1618 133.938 10.8681C128.047 4.57443 119.758 1.30001 109.872 1.29394H109.86ZM109.775 58.6053C99.4513 58.6053 93.2997 50.3494 93.3057 36.5228C93.3057 29.9861 94.8179 24.4882 97.6781 20.6245C99.0427 18.7274 100.848 17.1909 102.939 16.1474C105.029 15.1038 107.342 14.5847 109.678 14.6346C119.655 14.6346 125.855 22.9148 125.855 36.2372C125.849 50.234 119.831 58.6053 109.775 58.6053ZM109.678 15.8982C107.541 15.8509 105.424 16.3238 103.511 17.2763C101.597 18.2287 99.9434 19.6321 98.6922 21.3657C95.996 25.0107 94.5689 30.2473 94.5689 36.5106C94.5689 49.5475 100.253 57.3296 109.75 57.3296C119.169 57.3296 124.574 49.6386 124.574 36.2251C124.574 23.4676 118.999 15.886 109.659 15.886L109.678 15.8982Z" fill="white"/>
<path opacity="0.9" d="M243.67 71.7515H224.346V43.3388H202.333V71.7454H183.01V1.68262H202.333V26.2256H224.346V1.68262H243.676L243.67 71.7515ZM225.61 70.4818H242.406V2.9523H225.604V27.4952H201.064V2.9523H184.267V70.4757H201.064V42.0752H225.61V70.4818Z" fill="white"/>
<path opacity="0.9" d="M318.8 71.7577H298.9L294.455 59.2128H271.586L267.056 71.7516H247.35L273.614 1.59766H292.652L318.8 71.7577ZM299.793 70.4941H316.979L291.765 2.86126H274.489L249.166 70.488H266.169L270.705 57.9249H295.36L299.793 70.4941ZM291.717 46.2488H274.343L283.148 19.5189L291.717 46.2488ZM276.074 44.9791H289.986L283.118 23.5952L276.074 44.9791Z" fill="white"/>
<path opacity="0.9" d="M385.879 71.7637H365.954L365.79 71.3749C364.479 68.2402 364.242 64.3765 364.011 60.6465C363.926 59.2917 363.847 58.0099 363.72 56.801C362.863 48.8428 359.93 46.1576 352.078 46.1576H341.7V71.7576H322.468V1.70093H358.904C373.654 1.70093 382.812 9.5984 382.812 22.2404C382.812 29.9678 379.557 35.6054 373.138 38.9831C375.013 39.7575 376.684 40.9532 378.023 42.4776C379.361 44.0019 380.331 45.8141 380.856 47.7736C381.931 51.4975 382.138 52.4027 383 62.4811C383.037 62.8517 383.061 63.2223 383.091 63.5868C383.31 66.278 383.498 68.5986 385.101 70.7552L385.879 71.7637ZM366.798 70.5001H383.462C382.247 68.3496 382.065 66.0775 381.871 63.69L381.78 62.5905C380.899 52.348 380.717 51.7041 379.678 48.1199C378.512 44.001 375.646 41.0729 371.389 39.6513L369.859 39.141L371.335 38.4789C378.136 35.3988 381.585 29.9374 381.585 22.2404C381.585 15.9954 379.387 11.1111 375.045 7.71514C371.074 4.61082 365.505 2.9645 358.94 2.9645H323.719V70.494H340.419V44.888H352.072C360.574 44.888 364.048 48.0773 364.971 56.6613C365.098 57.8763 365.177 59.1885 365.262 60.5614C365.487 64.0363 365.705 67.6266 366.798 70.5001ZM353.73 33.4002H340.437V15.6126H353.524C361.363 15.6126 365.171 18.4436 365.171 24.2634C365.171 27.8537 364.023 30.308 361.667 31.766C359.857 32.902 357.41 33.4002 353.73 33.4002ZM341.7 32.1366H353.73C357.161 32.1366 359.402 31.6931 361.017 30.7029C362.967 29.4879 363.914 27.3859 363.92 24.2695C363.92 19.2272 360.622 16.8823 353.536 16.8823H341.712L341.7 32.1366Z" fill="white"/>
<path opacity="0.9" d="M421.719 71.7698H392.57V1.70703H422.66C433.251 1.70703 441.995 4.84172 447.941 10.7831C453.886 16.7244 457.128 25.606 457.128 36.3587C457.128 47.9984 454.092 56.9165 448.141 62.8578C442.19 68.7991 433.305 71.7698 421.719 71.7698ZM393.852 70.5001H421.719C444.37 70.5001 455.853 59.0123 455.853 36.3526C455.853 25.9462 452.817 17.4108 447.072 11.6761C441.327 5.94128 432.935 2.9706 422.684 2.9706H393.858L393.852 70.5001ZM420.948 56.7828H410.454V16.5907H419.685C425.927 16.5907 430.779 18.3828 434.113 21.9246C437.447 25.4663 439.05 30.4295 439.05 36.8386C439.05 43.2477 437.581 48.0773 434.684 51.4186C431.623 54.9907 427.002 56.7828 420.948 56.7828ZM411.723 55.5131H420.948C426.619 55.5131 430.925 53.8607 433.7 50.6046C436.396 47.4759 437.763 42.8407 437.763 36.8265C437.763 30.8123 436.214 26.0191 433.166 22.7751C430.117 19.531 425.539 17.8422 419.66 17.8422H411.693L411.723 55.5131Z" fill="white"/>
<path opacity="0.9" d="M484.832 71.7758H466.085V53.1377H484.832V71.7758ZM467.349 70.5122H483.562V54.3831H467.343L467.349 70.5122Z" fill="white"/>
<path opacity="0.9" d="M555.699 73.2703C535.969 73.2703 522.713 58.8787 522.719 37.4644C522.719 15.1267 536.983 0.12146 558.213 0.12146C575.793 0.12146 587.362 9.65311 589.183 25.6364L589.262 26.3411H570.686L570.559 25.8794C568.81 19.7072 564.559 16.5786 557.934 16.5786C553.215 16.5786 542.242 18.5712 542.242 37.0088C542.242 54.1341 551.296 57.7305 558.893 57.7305C566.399 57.7305 570.328 54.693 572.253 47.2086H559.968V32.975H590.119V71.7333H577.445L576.492 65.0509C570.583 71.1684 565.16 73.2703 555.699 73.2703ZM558.207 1.38507C548.108 1.38507 539.522 4.80527 533.376 11.2812C527.231 17.7571 523.976 26.8149 523.976 37.4644C523.976 47.6825 527.012 56.3576 532.702 62.5601C538.392 68.7627 546.341 72.0067 555.693 72.0067C565.221 72.0067 570.462 69.7954 576.473 63.2284L577.366 62.2503L578.544 70.4698H588.868V34.2386H561.249V45.9207H573.874L573.692 46.6984C571.676 55.3005 567.243 58.9698 558.881 58.9698C547.343 58.9698 540.961 51.1634 540.967 36.9844C540.967 23.4008 547.307 15.2907 557.922 15.2907C564.917 15.2907 569.642 18.6623 571.627 25.0532H587.823C585.843 10.2181 574.822 1.36078 558.213 1.36078L558.207 1.38507Z" fill="white"/>
<path opacity="0.9" d="M632.773 73.3796C622.304 73.3796 613.426 69.7954 607.104 63.0157C600.928 56.4001 597.661 47.2998 597.661 36.6989C597.661 26.5294 601.062 17.259 607.226 10.5765C613.638 3.65712 622.407 0 632.585 0C653.45 0 666.926 14.4402 666.926 36.7718C666.926 46.9535 663.689 56.1753 657.817 62.7423C651.623 69.7104 642.951 73.3796 632.773 73.3796ZM632.579 1.29394C622.759 1.29394 614.318 4.81138 608.149 11.4635C602.197 17.8847 598.924 26.8453 598.918 36.6989C598.918 46.9717 602.064 55.7744 608.027 62.1531C614.1 68.6655 622.662 72.11 632.773 72.116C642.586 72.116 650.924 68.5925 656.875 61.9283C662.535 55.5921 665.65 46.674 665.656 36.8022C665.656 26.1345 662.541 17.1618 656.651 10.8681C650.76 4.57443 642.465 1.30001 632.579 1.29394ZM632.482 58.5931C622.158 58.5931 616.013 50.3372 616.013 36.5106C616.013 29.9739 617.531 24.4761 620.391 20.6124C621.755 18.7149 623.561 17.1781 625.651 16.1345C627.742 15.091 630.055 14.572 632.391 14.6224C634.701 14.5596 636.992 15.0592 639.066 16.0783C641.14 17.0974 642.936 18.6054 644.299 20.4726C647.092 24.2391 648.55 29.6884 648.55 36.2251C648.562 50.234 642.55 58.6053 632.482 58.6053V58.5931ZM632.385 15.886C630.247 15.8377 628.131 16.3102 626.217 17.2627C624.303 18.2152 622.65 19.6192 621.399 21.3535C618.703 24.9985 617.276 30.2351 617.27 36.4984C617.27 49.5353 622.954 57.3174 632.451 57.3174C641.876 57.3174 647.274 49.6265 647.281 36.2129C647.281 29.9496 645.884 24.7616 643.248 21.2138C642.003 19.5068 640.361 18.1287 638.464 17.1983C636.567 16.268 634.472 15.8134 632.36 15.8739L632.385 15.886Z" fill="white"/>
<path opacity="0.9" d="M766.389 71.7515H747.066V43.3388H725.053V71.7454H705.724V1.68262H725.047V26.2256H747.066V1.68262H766.389V71.7515ZM748.329 70.4818H765.126V2.9523H748.329V27.4952H723.784V2.9523H706.987V70.4757H723.784V42.0752H748.323L748.329 70.4818Z" fill="white"/>
<path opacity="0.9" d="M841.525 71.7577H821.625L817.174 59.2129H794.305L789.762 71.7759H770.057L796.327 1.62207H815.364L841.525 71.7577ZM822.518 70.4941H839.703L814.49 2.86135H797.195L771.872 70.488H788.876L793.418 57.925H818.067L822.518 70.4941ZM814.441 46.2489H797.049L805.855 19.5189L814.441 46.2489ZM798.798 44.9792H812.705L805.842 23.5953L798.798 44.9792Z" fill="white"/>
<path opacity="0.9" d="M908.597 71.7637H888.667L888.509 71.3749C887.198 68.2402 886.955 64.3826 886.724 60.6465C886.645 59.2917 886.566 58.0099 886.432 56.801C885.582 48.8428 882.649 46.1576 874.797 46.1576H864.419V71.7576H845.169V1.70093H881.635C896.385 1.70093 905.543 9.5984 905.543 22.2404C905.543 29.9678 902.288 35.6054 895.869 38.9831C897.744 39.7567 899.415 40.9522 900.752 42.4768C902.09 44.0014 903.058 45.8139 903.581 47.7736C904.662 51.4975 904.869 52.4027 905.731 62.4811L905.822 63.5868C906.041 66.278 906.229 68.5986 907.826 70.7552L908.597 71.7637ZM889.499 70.5001H906.162C904.948 68.3496 904.766 66.0775 904.571 63.69C904.571 63.3255 904.511 62.961 904.474 62.5905C903.6 52.348 903.411 51.7041 902.373 48.1199C901.213 44.001 898.347 41.0729 894.09 39.6513L892.56 39.141L894.029 38.4789C900.837 35.3988 904.286 29.9374 904.286 22.2404C904.286 15.9954 902.082 11.1111 897.746 7.71514C893.774 4.61082 888.206 2.9645 881.641 2.9645H846.42V70.494H863.12V44.888H874.761C883.262 44.888 886.736 48.0773 887.653 56.6613C887.787 57.8763 887.865 59.1945 887.951 60.5614C888.199 64.0363 888.424 67.6266 889.499 70.5001ZM876.431 33.4002H863.138V15.6126H876.23C884.064 15.6126 887.872 18.4436 887.872 24.2634C887.872 27.8537 886.73 30.308 884.374 31.766C882.576 32.902 880.123 33.4002 876.449 33.4002H876.431ZM864.401 32.1366H876.431C879.856 32.1366 882.103 31.6931 883.718 30.7029C885.673 29.4879 886.621 27.3859 886.621 24.2695C886.621 19.2272 883.323 16.8823 876.242 16.8823H864.419L864.401 32.1366Z" fill="white"/>
<path opacity="0.9" d="M944.438 71.7698H915.289V1.71313H945.379C955.97 1.71313 964.714 4.84782 970.659 10.7892C976.604 16.7305 979.811 25.606 979.811 36.3587C979.811 47.9984 976.774 56.9165 970.817 62.8578C964.86 68.7991 956.018 71.7698 944.438 71.7698ZM916.57 70.5001H944.438C967.089 70.5001 978.566 59.0123 978.572 36.3527C978.572 25.9462 975.536 17.4109 969.791 11.6761C964.046 5.94133 955.654 2.97066 945.403 2.97066H916.577L916.57 70.5001ZM943.66 56.7828H933.173V16.5908H942.397C948.64 16.5908 953.498 18.3829 956.826 21.9246C960.154 25.4663 961.769 30.4296 961.769 36.8387C961.763 49.8938 955.508 56.7828 943.66 56.7828ZM934.436 55.5253H943.66C954.84 55.5253 960.506 49.2377 960.512 36.8387C960.512 30.7637 958.964 26.0313 955.915 22.7872C952.867 19.5432 948.288 17.8544 942.403 17.8544H934.436V55.5253Z" fill="white"/>
<path opacity="0.9" d="M1007.54 71.7758H988.798V53.1377H1007.54L1007.54 71.7758ZM990.061 70.5122H1006.28V54.3831H990.068L990.061 70.5122Z" fill="white"/>
</g>
</svg>
