<svg width="486" height="74" viewBox="0 0 486 74" fill="none" xmlns="http://www.w3.org/2000/svg">
<path opacity="0.9" d="M33.442 73.8914C13.706 73.8914 0.455566 59.4998 0.455566 38.0855C0.455566 15.7478 14.7262 0.742554 35.956 0.742554C53.5665 0.742554 65.1045 10.2742 66.9262 26.2575L67.0053 26.9622H48.4352L48.3016 26.5005C46.5527 20.3283 42.3079 17.1997 35.6767 17.1997C30.9582 17.1997 19.9911 19.1923 19.985 37.6299C19.985 54.7553 29.0394 58.3516 36.6423 58.3516C44.1541 58.3516 48.077 55.3141 50.0324 47.8298H37.7474V33.5961H67.8918V72.3545H55.2183L54.265 65.672C48.3199 71.7895 42.9031 73.8914 33.442 73.8914ZM35.9499 2.00616C25.8451 2.00616 17.2646 5.42636 11.1191 11.9023C4.97362 18.3782 1.71264 27.4361 1.71264 38.0855C1.71264 48.3036 4.74886 56.9787 10.4389 63.1813C16.1289 69.3838 24.0841 72.6278 33.4359 72.6278C42.9577 72.6278 48.2044 70.4165 54.2103 63.8495L55.1151 62.8653L56.287 71.0848H66.6105V34.8597H38.9923V46.5419H51.6172L51.435 47.3195C49.4189 55.9217 44.986 59.5909 36.624 59.5909C25.0861 59.5909 18.7038 51.7846 18.7038 37.6055C18.7038 24.0219 25.0435 15.9118 35.6584 15.9118C42.6541 15.9118 47.3847 19.2834 49.3643 25.6743H65.566C63.5802 10.8392 52.5645 1.98187 35.9499 1.98187V2.00616Z" fill="white"/>
<path opacity="0.9" d="M110.51 74C100.04 74 91.1683 70.4158 84.8407 63.6361C78.6648 57.0204 75.4038 47.9201 75.4038 37.3193C75.4038 27.1498 78.7984 17.8794 84.9682 11.1969C91.3808 4.27748 100.15 0.620361 110.321 0.620361C131.181 0.620361 144.656 15.0606 144.656 37.3922C144.656 47.5738 141.425 56.7957 135.547 63.3627C129.359 70.3307 120.699 74 110.51 74ZM110.315 1.9143C100.502 1.9143 92.0549 5.43174 85.8851 12.0838C79.9401 18.5051 76.6609 27.4657 76.6609 37.3193C76.6609 47.5921 79.8065 56.3947 85.7698 62.7735C91.8424 69.2858 100.411 72.7303 110.516 72.7364C120.335 72.7364 128.667 69.2129 134.624 62.5486C140.278 56.2124 143.399 47.2944 143.399 37.4226C143.399 26.7549 140.284 17.7821 134.393 11.4885C128.503 5.19479 120.214 1.92037 110.327 1.9143H110.315ZM110.23 59.2257C99.9069 59.2257 93.7552 50.9698 93.7613 37.1431C93.7613 30.6064 95.2735 25.1086 98.1337 21.2449C99.4983 19.3478 101.304 17.8113 103.394 16.7677C105.485 15.7242 107.797 15.205 110.133 15.255C120.11 15.255 126.311 23.5352 126.311 36.8576C126.304 50.8543 120.287 59.2257 110.23 59.2257ZM110.133 16.5186C107.996 16.4713 105.88 16.9442 103.966 17.8966C102.053 18.8491 100.399 20.2525 99.1478 21.986C96.4515 25.631 95.0244 30.8677 95.0244 37.131C95.0244 50.1679 100.708 57.9499 110.206 57.9499C119.625 57.9499 125.029 50.259 125.029 36.8454C125.029 24.088 119.455 16.5064 110.115 16.5064L110.133 16.5186Z" fill="white"/>
<path opacity="0.9" d="M244.125 72.3718H224.802V43.9591H202.789V72.3657H183.466V2.30298H202.789V26.8459H224.802V2.30298H244.131L244.125 72.3718ZM226.065 71.1021H242.862V3.57267H226.059V28.1156H201.52V3.57267H184.723V71.0961H201.52V42.6955H226.065V71.1021Z" fill="white"/>
<path opacity="0.9" d="M319.256 72.3781H299.356L294.911 59.8332H272.041L267.511 72.372H247.806L274.07 2.21802H293.107L319.256 72.3781ZM300.249 71.1144H317.434L292.221 3.48162H274.944L249.621 71.1084H266.625L271.161 58.5453H295.816L300.249 71.1144ZM292.172 46.8692H274.798L283.604 20.1392L292.172 46.8692ZM276.529 45.5995H290.441L283.573 24.2156L276.529 45.5995Z" fill="white"/>
<path opacity="0.9" d="M386.334 72.384H366.41L366.246 71.9953C364.934 68.8606 364.697 64.9969 364.467 61.2668C364.382 59.9121 364.303 58.6303 364.175 57.4214C363.319 49.4632 360.386 46.778 352.534 46.778H342.156V72.378H322.924V2.32129H359.36C374.11 2.32129 383.268 10.2188 383.268 22.8608C383.268 30.5882 380.013 36.2258 373.594 39.6035C375.468 40.3779 377.14 41.5736 378.478 43.0979C379.817 44.6223 380.786 46.4344 381.312 48.3939C382.387 52.1179 382.593 53.0231 383.456 63.1015C383.492 63.4721 383.517 63.8426 383.547 64.2071C383.765 66.8983 383.954 69.219 385.557 71.3756L386.334 72.384ZM367.254 71.1205H383.917C382.703 68.9699 382.521 66.6979 382.326 64.3104L382.235 63.2108C381.355 52.9684 381.172 52.3245 380.134 48.7402C378.968 44.6214 376.102 41.6932 371.845 40.2717L370.315 39.7614L371.79 39.0992C378.592 36.0192 382.041 30.5578 382.041 22.8608C382.041 16.6157 379.843 11.7314 375.501 8.3355C371.529 5.23118 365.961 3.58486 359.396 3.58486H324.175V71.1144H340.875V45.5083H352.528C361.03 45.5083 364.503 48.6977 365.426 57.2816C365.554 58.4966 365.633 59.8088 365.718 61.1818C365.942 64.6567 366.161 68.247 367.254 71.1205ZM354.186 34.0205H340.893V16.233H353.979C361.819 16.233 365.627 19.0639 365.627 24.8837C365.627 28.4741 364.479 30.9284 362.123 32.3864C360.313 33.5224 357.866 34.0205 354.186 34.0205ZM342.156 32.7569H354.186C357.617 32.7569 359.858 32.3135 361.473 31.3232C363.422 30.1083 364.369 28.0063 364.376 24.8898C364.376 19.8476 361.078 17.5027 353.991 17.5027H342.168L342.156 32.7569Z" fill="white"/>
<path opacity="0.9" d="M422.174 72.3901H393.026V2.32739H423.116C433.706 2.32739 442.451 5.46209 448.396 11.4034C454.341 17.3448 457.584 26.2264 457.584 36.9791C457.584 48.6187 454.548 57.5368 448.596 63.4781C442.645 69.4195 433.761 72.3901 422.174 72.3901ZM394.307 71.1205H422.174C444.825 71.1205 456.309 59.6327 456.309 36.973C456.309 26.5666 453.272 18.0312 447.528 12.2964C441.783 6.56164 433.391 3.59096 423.14 3.59096H394.313L394.307 71.1205ZM421.403 57.4032H410.91V17.2111H420.14C426.383 17.2111 431.235 19.0032 434.569 22.5449C437.903 26.0866 439.506 31.0499 439.506 37.459C439.506 43.8681 438.036 48.6977 435.14 52.0389C432.079 55.611 427.458 57.4032 421.403 57.4032ZM412.179 56.1335H421.403C427.075 56.1335 431.38 54.4811 434.156 51.2249C436.852 48.0963 438.218 43.4611 438.218 37.4469C438.218 31.4326 436.67 26.6395 433.621 23.3954C430.573 20.1514 425.994 18.4625 420.116 18.4625H412.149L412.179 56.1335Z" fill="white"/>
<path opacity="0.9" d="M485.287 72.3962H466.541V53.7581H485.287V72.3962ZM467.804 71.1326H484.018V55.0034H467.798L467.804 71.1326Z" fill="white"/>
</svg>
