<svg width="17" height="19" viewBox="0 0 17 19" fill="none" xmlns="http://www.w3.org/2000/svg">
<path d="M16.15 2.76C16.15 1.98 15.8403 1.32 15.2872 0.8C14.7341 0.3 14.004 0 13.1412 0H11.4377C10.8625 0 10.3979 0.44 10.3979 0.96V2H1.06192C0.486712 2 0 2.36 0 2.9V18.08C0 18.62 0.486712 19 1.06192 19H13.1412C14.004 19 14.8668 18.72 15.4421 18.08C15.8182 17.56 16.15 16.92 16.15 16.28C16.15 16.28 16.15 16.28 16.15 16.14C16.15 16.14 16.15 16.14 16.15 16V2.76ZM12.389 1.8H13.1634C13.4288 1.8 13.7386 1.94 13.8934 2.08C14.004 2.22 14.1589 2.5 14.1589 2.76V13.72C13.9377 13.58 13.5837 13.6 13.1634 13.6H12.389V1.8ZM13.1634 17.2H1.9911V3.8H10.3979V5.2H4.64589C4.02644 5.2 3.65034 5.6 3.65034 6.08C3.65034 6.6 4.04856 7 4.64589 7H10.3979V8.4H4.64589C4.02644 8.4 3.65034 8.78 3.65034 9.3C3.65034 9.82 4.04856 10.2 4.64589 10.2H10.3979V14.5C10.3979 15 10.8625 15.4 11.4377 15.4H13.1412C14.004 15.4 14.1589 16.04 14.1589 16.32C14.1589 16.42 14.004 17.2 13.1634 17.2Z" fill="#5BD4D4"/>
</svg>
