<svg width="36" height="36" viewBox="0 0 36 36" fill="none" xmlns="http://www.w3.org/2000/svg">
<path d="M18 0C8.01818 0 0 8.01818 0 18C0 27.9818 8.01818 36 18 36C27.9818 36 36 27.9818 36 18C36 8.01818 27.9818 0 18 0ZM18 8.1C22.0091 8.1 25.2 11.3727 25.2 15.4636C25.2 19.5545 22.0091 22.8273 18 22.8273C13.9909 22.8273 10.8 19.5545 10.8 15.4636C10.8 11.3727 13.9909 8.1 18 8.1ZM18 33.6273C13.6636 33.6273 9.81818 31.8273 6.95455 29.0455C9.32727 26.7545 13.4182 25.2818 18 25.2818C22.5818 25.2818 26.6727 26.7545 29.0455 29.0455C26.1818 31.8273 22.3364 33.6273 18 33.6273Z" fill="#999999"/>
</svg>
